<?xml version="1.0" standalone="no"?>
<!DOCTYPE svg PUBLIC "-//W3C//DTD SVG 1.1//EN" "http://www.w3.org/Graphics/SVG/1.1/DTD/svg11.dtd" >
<svg>
<metadata>
Created by FontForge 20090914 at Wed Sep  8 20:18:16 2021
 By www-data
Copyright 2017 The Barlow Project Authors (https://github.com/jpt/barlow)
</metadata>
<defs>
<font id="BarlowSemiCondensed-Italic" horiz-adv-x="0" >
  <font-face 
    font-family="Barlow Semi Condensed"
    font-weight="400"
    font-style="italic"
    font-stretch="semi-condensed"
    units-per-em="1000"
    panose-1="0 0 5 6 0 0 0 0 0 0"
    ascent="800"
    descent="-200"
    x-height="505.999"
    cap-height="700"
    bbox="-498.909 -208.998 1034 1079"
    underline-thickness="50"
    underline-position="-50"
    slope="-7"
    unicode-range="U+000D-U+FB02"
  />
<missing-glyph horiz-adv-x="368" 
d="M-18 1c0.666992 -0.666992 1.33301 -1 2 -1h361c2 -0 3.66699 1.33301 5 4l85 692c0 2.66699 -1.33301 4 -4 4h-361c-2.66699 0 -4 -1.33301 -4 -4l-85 -692c0 -1.33301 0.333008 -2.33301 1 -3zM163.999 242l4.00293 38.999c2.66699 20.667 9 37.334 19 50.001
s25 27 45 43c22 18 38.333 34.5 49 49.5s16 35.5 16 61.5c0 20 -5.33301 35.667 -16 47s-25.334 17 -44.001 17c-21.333 0 -39.5 -7.33301 -54.5 -22s-23.833 -34 -26.5 -58l-3 -19c-1.33301 -6.66699 -5 -10 -11 -10l-29 2c-2.66699 0 -4.83398 1 -6.50098 3
s-2.16699 4.33301 -1.5 7l2 17c4.66699 38 19.5 68.667 44.5 92s55.833 35 92.5 35c32 0 57.167 -9.5 75.5 -28.5s27.5 -44.5 27.5 -76.5c0 -9.33301 -0.333008 -16.333 -1 -21c-3.33301 -29.333 -11.666 -52.833 -24.999 -70.5s-31 -35.5 -53 -53.5
c-16.667 -13.333 -28.834 -24.5 -36.501 -33.5s-12.167 -20.167 -13.5 -33.5l-5 -37c-1.33301 -6.66699 -5 -10 -11 -10h-30c-6.66699 0 -9.33398 3.33301 -8.00098 10zM144.002 100.999c-6 6.66699 -9 15.333 -9 26c0 12 4.33301 22.333 13 31s19 13 31 13
c10 0 18.167 -3.16699 24.5 -9.5s9.5 -14.5 9.5 -24.5c0 -13.333 -4.16699 -24.333 -12.5 -33s-18.833 -13 -31.5 -13c-10.667 0 -19 3.33301 -25 10z" />
    <glyph glyph-name="fi" unicode="fi" horiz-adv-x="531" 
d="M237.5 617c-13.667 -16.667 -22.833 -43.999 -27.5 -81.999l-3 -25c0 -2.66699 1.33301 -4 4 -4h91c6.66699 0 9.33398 -3.33301 8.00098 -10l-5 -39c0 -2.66699 -1 -5 -3 -7s-4.66699 -3 -8 -3h-91c-2.66699 0 -4 -1.33301 -4 -4l-53 -433
c-1.33301 -6.66699 -5 -10 -11 -10h-50c-2.66699 0 -4.83398 1 -6.50098 3s-2.16699 4.33301 -1.5 7l53 433c0 2.66699 -1 4 -3 4h-52c-6.66699 0 -9.33398 3.33301 -8.00098 10l5 39c0 2.66699 1 5 3 7s4.33301 3 7 3h52c2.66699 0 4 1.33301 4 4l4 28
c7.33301 59.333 23.333 101.666 48 126.999s63.667 38 117 38h21c6.66699 0 9.33398 -3.33301 8.00098 -10l-5 -41c0 -2.66699 -1 -5 -3 -7s-4.66699 -3 -8 -3h-17c-30 0 -51.833 -8.33301 -65.5 -25zM438.501 611.501c-9 9 -13.5 20.501 -13.5 34.501
c0 18 6 33.167 18 45.5s26.667 18.5 44 18.5c14 0 25.5 -4.33301 34.5 -13s13.5 -20.334 13.5 -35.001c0 -18 -5.83301 -33.167 -17.5 -45.5s-26.167 -18.5 -43.5 -18.5c-14.667 0 -26.5 4.5 -35.5 13.5zM365.001 10.002l59.999 486c1.33301 6.66699 5 10 11 10h50
c2.66699 0 4.83398 -1 6.50098 -3s2.16699 -4.33301 1.5 -7l-60 -486c0 -2.66699 -1 -5 -3 -7s-4.66699 -3 -8 -3h-49c-6 0 -9 3.33301 -9 10z" />
    <glyph glyph-name="fl" unicode="fl" horiz-adv-x="506" 
d="M237.5 617c-13.667 -16.667 -22.833 -43.999 -27.5 -81.999l-3 -25c0 -2.66699 1.33301 -4 4 -4h91c6.66699 0 9.33398 -3.33301 8.00098 -10l-5 -39c0 -2.66699 -1 -5 -3 -7s-4.66699 -3 -8 -3h-91c-2.66699 0 -4 -1.33301 -4 -4l-53 -433
c-1.33301 -6.66699 -5 -10 -11 -10h-50c-2.66699 0 -4.83398 1 -6.50098 3s-2.16699 4.33301 -1.5 7l53 433c0 2.66699 -1 4 -3 4h-52c-6.66699 0 -9.33398 3.33301 -8.00098 10l5 39c0 2.66699 1 5 3 7s4.33301 3 7 3h52c2.66699 0 4 1.33301 4 4l4 28
c7.33301 59.333 23.333 101.666 48 126.999s63.667 38 117 38h21c6.66699 0 9.33398 -3.33301 8.00098 -10l-5 -41c0 -2.66699 -1 -5 -3 -7s-4.66699 -3 -8 -3h-17c-30 0 -51.833 -8.33301 -65.5 -25zM354.001 10.001l83 680c1.33301 6.66699 5 10 11 10h50
c6.66699 0 9.33398 -3.33301 8.00098 -10l-83 -680c-1.33301 -6.66699 -5 -10 -11 -10h-50c-6.66699 0 -9.33398 3.33301 -8.00098 10z" />
    <glyph glyph-name="I_J.liga" unicode="IJ" horiz-adv-x="716" 
d="M62 10l84 680c1.33301 6.66699 5 10 11 10h49c6 0 9 -3.33301 9 -10l-84 -680c-1.33301 -6.66699 -5 -10 -11 -10h-49c-6 -0 -9 3.33301 -9 10zM301.5 35c-30.333 28.667 -45.5 67.6699 -45.5 117.003c0 6 0.666992 15.667 2 29l10 80c1.33301 6.66699 5 10 11 10h49
c6 0 9 -3.33301 9 -10l-10 -81c-0.666992 -4.66699 -1 -11.334 -1 -20.001c0 -32 9.5 -57.667 28.5 -77s45.167 -29 78.5 -29c36 0 66.667 11.667 92 35s40.333 53.666 45 90.999l63 510c1.33301 6.66699 5 10 11 10h48c3.33301 0 5.83301 -1 7.5 -3
s2.16699 -4.33301 1.5 -7l-63 -509c-6.66699 -56.667 -29.667 -102.334 -69 -137.001s-87.333 -52 -144 -52c-52 0 -93.167 14.333 -123.5 43z" />
    <glyph glyph-name="f_f_i.liga" unicode="ffi" horiz-adv-x="817" 
d="M807 697c8.66699 -8.66699 12.999 -20 12.999 -34c0 -18.667 -6 -34.167 -18 -46.5s-26.667 -18.5 -44 -18.5c-14 0 -25.5 4.5 -34.5 13.5s-13.5 20.5 -13.5 34.5c0 18 6.16699 33.167 18.5 45.5s26.833 18.5 43.5 18.5c14.667 0 26.334 -4.33301 35.001 -13z
M204.999 510c0 -2.66699 1.33496 -3.99805 4.00195 -3.99805h112c6 0 9 -3.33301 9 -10l-5 -36c-1.33301 -6.66699 -5 -10 -11 -10h-112c-2 0 -3.66699 -1.33301 -5 -4l-53 -436c-1.33301 -6.66699 -5 -10 -11 -10h-50c-2.66699 0 -4.83398 1 -6.50098 3
s-2.16699 4.33301 -1.5 7l53 436c0.666992 0.666992 0.666992 1.5 0 2.5s-1.66699 1.5 -3 1.5h-49c-3.33301 0 -5.83301 1 -7.5 3s-2.16699 4.33301 -1.5 7l5 36c0 2.66699 1 5 3 7s4.33301 3 7 3h50c2.66699 0 4 1.33301 4 4l5 38c6.66699 54.667 22.667 94.5 48 119.5
s64.666 37.167 117.999 36.5h18c6 0 9 -3.33301 9 -10l-4 -32c-0.666992 -2.66699 -2 -5 -4 -7s-4.33301 -3 -7 -3h-19c-30 -0.666992 -51.5 -9.83398 -64.5 -27.501s-21.833 -44.834 -26.5 -81.501zM495.001 510.002c0 -2.66699 1.33301 -3.99805 4 -3.99805h94
c6.66699 0 9.33398 -3.33301 8.00098 -10l-4 -36c-1.33301 -6.66699 -5 -10 -11 -10h-94c-2 0 -3.66699 -1.33301 -5 -4l-53 -436c-1.33301 -6.66699 -5 -10 -11 -10h-49c-2.66699 0 -4.83398 1 -6.50098 3s-2.16699 4.33301 -1.5 7l53 436
c0.666992 0.666992 0.666992 1.5 0 2.5s-1.66699 1.5 -3 1.5h-78c-3.33301 0 -5.83301 1 -7.5 3s-2.16699 4.33301 -1.5 7l4 36c0.666992 2.66699 2 5 4 7s4.33301 3 7 3h79c2.66699 0 4 1.33301 4 4l5 38c6.66699 54.667 22.667 94.5 48 119.5s64.333 37.167 117 36.5h19
c6 0 9 -3.33301 9 -10l-4 -32c-0.666992 -2.66699 -2 -5 -4 -7s-4.33301 -3 -7 -3h-19c-30 -0.666992 -51.667 -9.83398 -65 -27.501s-22.333 -44.834 -27 -81.501zM652.501 3.00391c-1.66699 2 -2.16699 4.33301 -1.5 7l60 486c1.33301 6.66699 5 10 11 10h49
c6 0 9 -3.33301 9 -10l-60 -486c-1.33301 -6.66699 -5 -10 -11 -10h-49c-3.33301 0 -5.83301 1 -7.5 3z" />
    <glyph glyph-name="f_f_l.liga" unicode="ffl" horiz-adv-x="796" 
d="M496 510c0 -2.66699 1.33496 -3.99609 4.00195 -3.99609h94c6.66699 0 9.33398 -3.33301 8.00098 -10l-4 -36c-1.33301 -6.66699 -5 -10 -11 -10h-94c-2 0 -3.66699 -1.33301 -5 -4l-53 -436c-1.33301 -6.66699 -5 -10 -11 -10h-49c-2.66699 0 -4.83398 1 -6.50098 3
s-2.16699 4.33301 -1.5 7l53 436c0.666992 0.666992 0.666992 1.5 0 2.5s-1.66699 1.5 -3 1.5h-215c-2 0 -3.66699 -1.33301 -5 -4l-53 -436c-1.33301 -6.66699 -5 -10 -11 -10h-50c-2.66699 0 -4.83398 1 -6.50098 3s-2.16699 4.33301 -1.5 7l53 436
c0.666992 0.666992 0.666992 1.5 0 2.5s-1.66699 1.5 -3 1.5h-49c-3.33301 0 -5.83301 1 -7.5 3s-2.16699 4.33301 -1.5 7l5 36c0 2.66699 1 5 3 7s4.33301 3 7 3h50c2.66699 0 4 1.33301 4 4l5 38c6.66699 54.667 22.667 94.5 48 119.5s64.666 37.167 117.999 36.5h18
c6 0 9 -3.33301 9 -10l-4 -32c-0.666992 -2.66699 -2 -5 -4 -7s-4.33301 -3 -7 -3h-19c-30 -0.666992 -51.5 -9.83398 -64.5 -27.501s-21.833 -44.834 -26.5 -81.501l-4 -33c0 -2.66699 1.33301 -4 4 -4h215c2.66699 0 4 1.33301 4 4l5 38
c6.66699 54.667 22.667 94.5 48 119.5s64.333 37.167 117 36.5h19c6 0 9 -3.33301 9 -10l-4 -32c-0.666992 -2.66699 -2 -5 -4 -7s-4.33301 -3 -7 -3h-19c-30 -0.666992 -51.667 -9.83398 -65 -27.501s-22.333 -44.834 -27 -81.501zM739.002 700.004h49
c6 0 9 -3.33301 9 -10l-84 -680c-1.33301 -6.66699 -5 -10 -11 -10h-49c-6 0 -9 3.33301 -9 10l84 680c1.33301 6.66699 5 10 11 10z" />
    <glyph glyph-name="g_j.liga" unicode="gj" horiz-adv-x="675" 
d="M665.5 697c9 -8.66699 13.5 -20.333 13.5 -35c0 -18 -5.83301 -33.167 -17.5 -45.5s-26.167 -18.5 -43.5 -18.5c-14.667 0 -26.5 4.5 -35.5 13.5s-13.5 20.5 -13.5 34.5c0 18 6 33.167 18 45.5s26.667 18.5 44 18.5c14 0 25.5 -4.33301 34.5 -13zM369 460.001l4 35.998
c1.33301 6.66699 5 10 11 10h50c2.66699 0 4.83398 -1 6.50098 -3s2.16699 -4.33301 1.5 -7l-59 -482c-18.667 -150.667 -107.334 -222.334 -266.001 -215.001c-6 0.666992 -8.66699 4.33398 -8 11.001l6 45c1.33301 7.33301 5 10.333 11 9c60 -2 104.667 9.5 134 34.5
s47.666 64.833 54.999 119.5l4 33c0 1.33301 -0.5 2.33301 -1.5 3s-2.16699 0.333984 -3.5 -0.999023c-30 -37.333 -69.667 -56 -119 -56c-41.333 0 -74.5 12.667 -99.5 38s-37.833 60.333 -38.5 105c0 30.667 2.66699 68.334 8 113.001s12.333 84 21 118
c10.667 43.333 31.334 78 62.001 104s66.667 39 108 39c24.667 0 46.167 -4.66699 64.5 -14s32.833 -23 43.5 -41c2 -3.33301 3.66699 -3 5 1zM571 495.999c1.33301 6.66699 5 10 11 10h49c2.66699 0 4.83398 -1 6.50098 -3s2.16699 -4.33301 1.5 -7l-66 -540
c-6.66699 -54.667 -24.167 -95.667 -52.5 -123s-69.166 -41 -122.499 -41c-2.66699 0 -4.83398 1 -6.50098 3s-2.16699 4.33301 -1.5 7l5 41c1.33301 6.66699 4.66602 10 9.99902 10c27.333 1.33301 49.833 10.833 67.5 28.5s28.5 42.5 32.5 74.5zM344 253.999
l5.00195 44.501c2.66699 23.667 4 44.5 4 62.5c0 26.667 -7.83301 48.5 -23.5 65.5s-36.834 25.5 -63.501 25.5c-27.333 0 -51.333 -9 -72 -27s-35 -41 -43 -69c-6 -27.333 -11.333 -61.333 -16 -102c-4 -28.667 -6.66699 -62 -8 -100c0 -28 8.16699 -51 24.5 -69
s38.5 -27 66.5 -27s52 9 72 27s32.667 41 38 69c5.33301 29.333 10.666 62.666 15.999 99.999z" />
    <glyph glyph-name="i_j.liga" unicode="ij" horiz-adv-x="438" 
d="M131.5 611.5c-9 9 -13.5 20.501 -13.5 34.501c0 18 6 33.167 18 45.5s26.667 18.5 44 18.5c14 0 25.5 -4.33301 34.5 -13s13.5 -20.334 13.5 -35.001c0 -18 -5.83301 -33.167 -17.5 -45.5s-26.167 -18.5 -43.5 -18.5c-14.667 0 -26.5 4.5 -35.5 13.5zM344.5 611.501
c-9 9 -13.501 20.5 -13.501 34.5c0 18 6.16699 33.167 18.5 45.5s26.833 18.5 43.5 18.5c14.667 0 26.334 -4.33301 35.001 -13s13 -20 13 -34c0 -18.667 -6 -34.167 -18 -46.5s-26.667 -18.5 -44 -18.5c-14 0 -25.5 4.5 -34.5 13.5zM59.999 10.001l60 486
c1.33301 6.66699 5 10 11 10h49c3.33301 0 5.83301 -1 7.5 -3s2.16699 -4.33301 1.5 -7l-60 -486c0 -2.66699 -1 -5 -3 -7s-4.66699 -3 -8 -3h-49c-6 0 -9 3.33301 -9 10zM145.999 -197.999l5.99902 42c0 2.66699 1 5 3 7s4.66699 3 8 3c60 0.666992 94.333 34.667 103 102
l67 540c0 2.66699 1 5 3 7s4.33301 3 7 3h50c6.66699 0 9.33398 -3.33301 8.00098 -10l-66 -540c-6.66699 -56 -23.667 -97.333 -51 -124s-70.333 -40 -129 -40c-6 0 -9 3.33301 -9 10z" />
    <glyph glyph-name="hyphen_hyphen.liga" unicode="&#x2d;&#x2d;" horiz-adv-x="620" 
d="M51 283l5.00098 42c1.33301 6.66699 5 10 11 10h530c3.33301 0 5.83301 -1 7.5 -3s2.16699 -4.33301 1.5 -7l-5 -42c-1.33301 -6.66699 -5 -10 -11 -10h-531c-6.66699 0 -9.33398 3.33301 -8.00098 10z" />
    <glyph glyph-name=".notdef" horiz-adv-x="368" 
d="M-18 1c0.666992 -0.666992 1.33301 -1 2 -1h361c2 -0 3.66699 1.33301 5 4l85 692c0 2.66699 -1.33301 4 -4 4h-361c-2.66699 0 -4 -1.33301 -4 -4l-85 -692c0 -1.33301 0.333008 -2.33301 1 -3zM163.999 242l4.00293 38.999c2.66699 20.667 9 37.334 19 50.001
s25 27 45 43c22 18 38.333 34.5 49 49.5s16 35.5 16 61.5c0 20 -5.33301 35.667 -16 47s-25.334 17 -44.001 17c-21.333 0 -39.5 -7.33301 -54.5 -22s-23.833 -34 -26.5 -58l-3 -19c-1.33301 -6.66699 -5 -10 -11 -10l-29 2c-2.66699 0 -4.83398 1 -6.50098 3
s-2.16699 4.33301 -1.5 7l2 17c4.66699 38 19.5 68.667 44.5 92s55.833 35 92.5 35c32 0 57.167 -9.5 75.5 -28.5s27.5 -44.5 27.5 -76.5c0 -9.33301 -0.333008 -16.333 -1 -21c-3.33301 -29.333 -11.666 -52.833 -24.999 -70.5s-31 -35.5 -53 -53.5
c-16.667 -13.333 -28.834 -24.5 -36.501 -33.5s-12.167 -20.167 -13.5 -33.5l-5 -37c-1.33301 -6.66699 -5 -10 -11 -10h-30c-6.66699 0 -9.33398 3.33301 -8.00098 10zM144.002 100.999c-6 6.66699 -9 15.333 -9 26c0 12 4.33301 22.333 13 31s19 13 31 13
c10 0 18.167 -3.16699 24.5 -9.5s9.5 -14.5 9.5 -24.5c0 -13.333 -4.16699 -24.333 -12.5 -33s-18.833 -13 -31.5 -13c-10.667 0 -19 3.33301 -25 10z" />
    <glyph glyph-name="NULL" 
 />
    <glyph glyph-name="NULL" 
 />
    <glyph glyph-name="nonmarkingreturn" unicode="&#xd;" horiz-adv-x="194" 
 />
    <glyph glyph-name="space" unicode=" " horiz-adv-x="194" 
 />
    <glyph glyph-name="exclam" unicode="!" horiz-adv-x="277" 
d="M120 238l50.001 452c1.33301 6.66699 5 10 11 10h49c3.33301 0 5.83301 -1 7.5 -3s2.16699 -4.33301 1.5 -7l-61 -452c-0.666992 -6.66699 -4.33398 -10 -11.001 -10h-38c-6 0 -9 3.33301 -9 10zM83.501 17c-9 8.66699 -13.5 20.001 -13.5 34.001c0 18 6 33.167 18 45.5
s26.667 18.5 44 18.5c14.667 0 26.5 -4.33301 35.5 -13s13.5 -20.334 13.5 -35.001c0 -18 -6 -33 -18 -45s-26.667 -18 -44 -18c-14.667 0 -26.5 4.33301 -35.5 13z" />
    <glyph glyph-name="quotedbl" unicode="&#x22;" horiz-adv-x="241" 
d="M75 498l15.001 186c1.33301 6.66699 5 10 11 10h48c6 0 9 -3.33301 9 -10l-31 -186c-0.666992 -6.66699 -4.33398 -10 -11.001 -10h-33c-6 0 -8.66699 3.33301 -8 10zM197.001 498l15.001 186c1.33301 6.66699 5 10 11 10h49c3.33301 0 5.83301 -1 7.5 -3
s2.16699 -4.33301 1.5 -7l-31 -186c-0.666992 -6.66699 -4.33398 -10 -11.001 -10h-34c-6 0 -8.66699 3.33301 -8 10z" />
    <glyph glyph-name="numbersign" unicode="#" horiz-adv-x="605" 
d="M567 429h-67c-3.33301 0 -5 -1.33301 -5 -4l-43 -159c-0.666992 -0.666992 -0.666992 -1.5 0 -2.5s1.33398 -1.5 2.00098 -1.5h59c6 0 9 -3.33301 9 -10l-5 -42c-0.666992 -2.66699 -2 -5 -4 -7s-4.33301 -3 -7 -3h-68c-3.33301 0 -5.33301 -1.33301 -6 -4l-46 -171
c-2 -6 -5.66699 -9 -11 -9l-49 2c-2.66699 0 -4.83398 1 -6.50098 3s-1.83398 4.66699 -0.500977 8l44 167c0 2.66699 -1 4 -3 4h-147c-3.33301 0 -5.33301 -1.33301 -6 -4l-46 -171c-2 -6 -5.66699 -9 -11 -9l-49 2c-2.66699 0 -4.83398 1 -6.50098 3
s-1.83398 4.66699 -0.500977 8l45 167c0 2.66699 -1 4 -3 4h-59c-6 0 -9 3.33301 -9 10l6 42c0 2.66699 1 5 3 7s4.66699 3 8 3h67c3.33301 0 5.33301 1.33301 6 4l42 159c0 2.66699 -1 4 -3 4h-59c-6.66699 0 -9.33398 3.33301 -8.00098 10l6 43
c0.666992 6.66699 4.33398 10 11.001 10h68c3.33301 0 5 1.33301 5 4l46 171c2 6 5.66699 9 11 9l49 -2c2.66699 0 4.83398 -1 6.50098 -3s2.16699 -4.66699 1.5 -8l-45 -167c0 -2.66699 0.666992 -4 2 -4h148c3.33301 0 5 1.33301 5 4l46 171c2 6 5.66699 9 11 9l50 -2
c2.66699 0 4.83398 -1 6.50098 -3s2.16699 -4.66699 1.5 -8l-45 -167c0 -2.66699 0.666992 -4 2 -4h59c2.66699 0 4.83398 -1 6.50098 -3s2.16699 -4.33301 1.5 -7l-5 -43c-1.33301 -6.66699 -5 -10 -11 -10zM383 266l41.999 159c0 2.66699 -1 4 -3 4h-147
c-3.33301 0 -5.33301 -1.33301 -6 -4l-42 -159c-0.666992 -0.666992 -0.666992 -1.5 0 -2.5s1.33398 -1.5 2.00098 -1.5h148c3.33301 0 5.33301 1.33301 6 4z" />
    <glyph glyph-name="dollar" unicode="$" horiz-adv-x="473" 
d="M373 51c-32 -32 -72.6699 -51.335 -122.003 -58.002c-2.66699 0 -4 -1.33301 -4 -4l-8 -70c0 -2.66699 -1 -5 -3 -7s-4.66699 -3 -8 -3h-37c-3.33301 0 -5.83301 1 -7.5 3s-2.16699 4.33301 -1.5 7l10 70c0 2.66699 -1 4 -3 4c-44.667 6 -79.667 22.5 -105 49.5
s-38 61.5 -38 103.5c0 5.33301 0.666992 14.666 2 27.999l3 27c1.33301 6.66699 5 10 11 10h46c3.33301 0 5.83301 -1 7.5 -3s2.16699 -4.33301 1.5 -7l-3 -23c-0.666992 -4 -1 -10.333 -1 -19c0 -32 10.167 -57.5 30.5 -76.5s48.833 -28.5 85.5 -28.5
c40.667 0 73.334 12.333 98.001 37s37 57 37 97c0 27.333 -9.16699 50.5 -27.5 69.5s-50.5 42.5 -96.5 70.5c-33.333 20 -59.5 37.5 -78.5 52.5s-34.667 32.833 -47 53.5s-18.5 45.334 -18.5 74.001c0 4.66699 0.666992 13.667 2 27c6 49.333 24.5 89 55.5 119
s70.5 47.667 118.5 53c2.66699 0 4 1.33301 4 4l9 76c1.33301 6.66699 5 10 11 10h38c2.66699 0 4.83398 -1 6.50098 -3s2.16699 -4.33301 1.5 -7l-10 -77c-1.33301 -2.66699 -0.333008 -4 3 -4c42.667 -6.66699 75.834 -23.667 99.501 -51s35.5 -62 35.5 -104
c0 -6 -0.666992 -15.667 -2 -29l-3 -23c-1.33301 -6.66699 -5 -10 -11 -10h-47c-6.66699 0 -9.33398 3.33301 -8.00098 10l3 22c0.666992 4 1 10 1 18c0 32 -9.83301 57.833 -29.5 77.5s-47.5 29.5 -83.5 29.5c-34.667 0 -63.167 -9.66699 -85.5 -29
s-35.833 -46.666 -40.5 -81.999c-0.666992 -4 -1 -10 -1 -18c0 -18.667 4.16699 -34.667 12.5 -48s20.333 -25.833 36 -37.5s39.5 -27.167 71.5 -46.5c36.667 -23.333 64.834 -42.833 84.501 -58.5s35.5 -33.667 47.5 -54s18 -44.166 18 -71.499
c0 -5.33301 -0.666992 -14 -2 -26c-6.66699 -50.667 -26 -92 -58 -124z" />
    <glyph glyph-name="percent" unicode="%" horiz-adv-x="790" 
d="M164 460c-22.667 23.333 -34.001 52.666 -34.001 87.999c0 28.667 7.16699 55.334 21.5 80.001s33.5 44.334 57.5 59.001s49.667 22 77 22c34.667 0 63.334 -11.667 86.001 -35s34 -52.666 34 -87.999c0 -28.667 -7.16699 -55.334 -21.5 -80.001
s-33.5 -44.334 -57.5 -59.001s-49.333 -22 -76 -22c-35.333 0 -64.333 11.667 -87 35zM168.999 3.5c-1.33301 2.33301 -0.666016 5.16602 2.00098 8.49902l445 681c2 4.66699 6 7 12 7h31c3.33301 0 5.66602 -1.16699 6.99902 -3.5s1 -5.16602 -1 -8.49902l-445 -681
c-2 -4.66699 -6 -7 -12 -7h-31c-4 0 -6.66699 1.16699 -8 3.5zM329.999 502c21.333 22 31.999 47.667 31.999 77c0 24.667 -7.66699 45.167 -23 61.5s-34.666 24.5 -57.999 24.5c-28.667 0 -53.667 -10.833 -75 -32.5s-32 -47.5 -32 -77.5
c0 -24.667 7.66699 -45.167 23 -61.5s35 -24.5 59 -24.5c28 0 52.667 11 74 33zM466.998 26c-22.667 23.333 -34.001 53 -34.001 89c0 28 7.16699 54.333 21.5 79s33.5 44.334 57.5 59.001s49.667 22 77 22c34.667 0 63.334 -11.667 86.001 -35s34 -52.666 34 -87.999
c0 -28.667 -7.16699 -55.334 -21.5 -80.001s-33.5 -44.334 -57.5 -59.001s-49.333 -22 -76 -22c-35.333 0 -64.333 11.667 -87 35zM632.497 68.5c21 22.333 31.5 48.833 31.5 79.5c0 24 -7.5 43.833 -22.5 59.5s-34.5 23.5 -58.5 23.5c-28 0 -52.667 -11 -74 -33
s-32 -48 -32 -78c0 -24.667 7.66699 -45 23 -61s35 -24 59 -24c28 0 52.5 11.167 73.5 33.5z" />
    <glyph glyph-name="ampersand" unicode="&#x26;" horiz-adv-x="582" 
d="M512 7c0 -4.66699 -3.33594 -7 -10.0029 -7h-55c-4.66699 0 -8.66699 2 -12 6l-40 64c-0.666992 1.33301 -1.66699 1.83301 -3 1.5s-2.33301 -0.833008 -3 -1.5c-30.667 -27.333 -61 -47.166 -91 -59.499s-62 -18.5 -96 -18.5c-49.333 0 -88.166 11.667 -116.499 35
s-42.5 57.333 -42.5 102c0 5.33301 0.666992 14 2 26c6 45.333 22.5 84.333 49.5 117s62.833 65 107.5 97c2.66699 0.666992 3.33398 2.33398 2.00098 5.00098c-25.333 42 -42.666 74 -51.999 96s-14 42.667 -14 62c0 34 7.5 64.333 22.5 91s35.667 47.5 62 62.5
s55.5 22.5 87.5 22.5c42 0 75.667 -11.833 101 -35.5s38 -55.167 38 -94.5c0 -46.667 -13.167 -86.334 -39.5 -119.001s-63.833 -66 -112.5 -100c-2 -0.666992 -2.33301 -2.33398 -1 -5.00098c8.66699 -15.333 20.334 -34 35.001 -56l35 -56l40 -62
c2 -2.66699 4 -2.66699 6 0l64 82c4 5.33301 8.33301 6.33301 13 3l35 -22c4.66699 -3.33301 5 -8 1 -14c-32.667 -44.667 -60 -79 -82 -103c-0.666992 -2 -0.666992 -4 0 -6c29.333 -46 51.666 -82 66.999 -108zM234.497 613.5
c-18.333 -19.667 -27.5 -45.501 -27.5 -77.501c0 -13.333 3.5 -28.333 10.5 -45s20.833 -42.667 41.5 -78c2 -2 4 -2 6 0c38 28 66.667 53.333 86 76s29 49 29 79c0 22.667 -6.83301 40.834 -20.5 54.501s-32.167 20.5 -55.5 20.5c-28 0 -51.167 -9.83301 -69.5 -29.5z
M284.497 69.499c22.333 11 46.168 27.833 71.501 50.5c2 2 2.66699 4 2 6l-29 48l-20 33l-56 88l-13 20c0 2 -1.66699 2.33301 -5 1c-35.333 -26.667 -63 -52 -83 -76s-32.333 -51 -37 -81c-1.33301 -9.33301 -2 -16 -2 -20c0 -26.667 9 -47.667 27 -63s42.333 -23 73 -23
c25.333 0 49.166 5.5 71.499 16.5z" />
    <glyph glyph-name="quotesingle" unicode="'" horiz-adv-x="121" 
d="M75 503l15 185c1.33301 6.66699 5 10 11 10h52c2.66699 0 4.83398 -1 6.50098 -3s2.16699 -4.33301 1.5 -7l-30 -185c-0.666992 -6.66699 -4.33398 -10 -11.001 -10h-36c-6.66699 0 -9.66699 3.33301 -9 10z" />
    <glyph glyph-name="parenleft" unicode="(" horiz-adv-x="234" 
d="M61 -97c-16.667 36 -29.5 78.832 -38.5 128.499s-13.5 103.5 -13.5 161.5c0 48 2.66699 92 8 132c10 84.667 28.667 165.167 56 241.5s59 139.5 95 189.5c2.66699 4.66699 6.66699 7 12 7h47c3.33301 0 5.5 -1.16699 6.5 -3.5s0.5 -5.16602 -1.5 -8.49902
c-31.333 -52 -59.5 -115.5 -84.5 -190.5s-42.5 -153.167 -52.5 -234.5c-5.33301 -42 -8 -87.667 -8 -137c0 -54.667 3.66699 -106.167 11 -154.5s17.333 -90.5 30 -126.5l1 -4c0 -5.33301 -3 -8 -9 -8h-48c-5.33301 0 -9 2.33301 -11 7z" />
    <glyph glyph-name="parenright" unicode=")" horiz-adv-x="234" 
d="M215 756c16.667 -36 29.5 -78.832 38.5 -128.499s13.5 -103.5 13.5 -161.5c0 -48 -2.66699 -92 -8 -132c-10 -84 -28.833 -164.333 -56.5 -241s-59.167 -140 -94.5 -190c-2.66699 -4.66699 -6.66699 -7 -12 -7h-47c-3.33301 0 -5.5 1.16699 -6.5 3.5
s-0.5 5.16602 1.5 8.49902c31.333 52 59.5 115.5 84.5 190.5s42.167 152.833 51.5 233.5c6 49.333 9 96.333 9 141c0 54 -3.66699 105 -11 153s-17.333 89.667 -30 125l-1 4c0 5.33301 3 8 9 8h48c5.33301 0 9 -2.33301 11 -7z" />
    <glyph glyph-name="asterisk" unicode="*" horiz-adv-x="368" 
d="M192.5 397c-1.66699 2 -2.16699 4.33301 -1.5 7l16 120c0 3.33301 -1.66699 4.33301 -5 3l-109 -62l-5 -2c-4 0 -6.66699 2 -8 6l-9 23c-0.666992 1.33301 -1 3 -1 5c0 4 2 7 6 9l110 61c1.33301 0.666992 2 1.66699 2 3s-0.333008 2.33301 -1 3l-96 61
c-2 1.33301 -3 3.33301 -3 6s0.666992 5.33398 2 8.00098l15 24c1.33301 3.33301 3.33301 5.33301 6 6s5.33398 0 8.00098 -2l94 -63c3.33301 -1.33301 5 -0.333008 5 3l14 121c1.33301 6.66699 5 10 11 10h26c6 0 9 -3.33301 9 -10l-16 -121
c-0.666992 -2 -0.5 -3.16699 0.5 -3.5s2.16699 -0.166016 3.5 0.500977l110 63c2.66699 1.33301 4.66699 2 6 2c4 0 6.33301 -2 7 -6l10 -24l1 -3c0 -4.66699 -2.33301 -8.33398 -7 -11.001l-110 -61c-1.33301 -0.666992 -2 -1.66699 -2 -3s0.333008 -2.33301 1 -3l95 -61
c2.66699 -1.33301 4 -3.33301 4 -6s-0.666992 -5.33398 -2 -8.00098l-15 -24c-4.66699 -6.66699 -9.33398 -8 -14.001 -4l-94 63c-3.33301 2 -5 1 -5 -3l-14 -120c-1.33301 -6.66699 -5 -10 -11 -10h-26c-3.33301 0 -5.83301 1 -7.5 3z" />
    <glyph glyph-name="plus" unicode="+" horiz-adv-x="457" 
d="M444 335l-5 -38c-1.33301 -6.66699 -5 -10 -11 -10h-151c-2 0 -3.66699 -1.33301 -5 -4l-19 -155c0 -2.66699 -1 -5 -3 -7s-4.66699 -3 -8 -3h-37c-3.33301 0 -5.83301 1 -7.5 3s-2.16699 4.33301 -1.5 7l19 155c0 2.66699 -1 4 -3 4h-152
c-2.66699 0 -4.83398 1 -6.50098 3s-2.16699 4.33301 -1.5 7l5 38c0 2.66699 1 5 3 7s4.66699 3 8 3h151c2.66699 0 4 1.33301 4 4l20 159c1.33301 6.66699 5 10 11 10h38c2.66699 0 4.83398 -1 6.50098 -3s2.16699 -4.33301 1.5 -7l-19 -159
c-0.666992 -0.666992 -0.666992 -1.5 0 -2.5s1.66699 -1.5 3 -1.5h151c6 0 9 -3.33301 9 -10z" />
    <glyph glyph-name="comma" unicode="," horiz-adv-x="214" 
d="M24 -76c-1.33301 2 -1.33301 4.66699 0 8l62 214c2 6 6 9 12 9h43c3.33301 0 5.66602 -1 6.99902 -3s1.33301 -4.66699 0 -8l-75 -214c-2.66699 -6 -6.66699 -9 -12 -9h-30c-3.33301 0 -5.66602 1 -6.99902 3z" />
    <glyph glyph-name="hyphen" unicode="-" horiz-adv-x="343" 
d="M52.5 283c-1.66699 2 -2.16699 4.33301 -1.5 7l5 42c1.33301 6.66699 5 10 11 10h254c3.33301 0 5.83301 -1 7.5 -3s2.16699 -4.33301 1.5 -7l-5 -42c-1.33301 -6.66699 -5 -10 -11 -10h-254c-3.33301 0 -5.83301 1 -7.5 3z" />
    <glyph glyph-name="period" unicode="." horiz-adv-x="227" 
d="M58 15.5c-8.66699 9 -12.999 20.501 -12.999 34.501c0 18.667 6 34 18 46s26.667 18 44 18c14 0 25.5 -4.33301 34.5 -13s13.5 -20.334 13.5 -35.001c0 -18 -6 -33.167 -18 -45.5s-26.667 -18.5 -44 -18.5c-14.667 0 -26.334 4.5 -35.001 13.5z" />
    <glyph glyph-name="slash" unicode="/" horiz-adv-x="356" 
d="M10 3c-1.33301 2 -1.33398 4.66699 -0.000976562 8l280 681c2 5.33301 5.66699 8 11 8h48c8 0 10.333 -3.66699 7 -11l-278 -681c-3.33301 -5.33301 -7.33301 -8 -12 -8h-49c-3.33301 0 -5.66602 1 -6.99902 3z" />
    <glyph glyph-name="zero" unicode="0" horiz-adv-x="489" 
d="M103.5 33c-29 28.667 -43.5 67.667 -43.5 117c0 6 0.666992 16.333 2 31l41 338c7.33301 57.333 30 103.333 68 138s84.667 52 140 52c51.333 0 91.666 -14.333 120.999 -43s44 -67.667 44 -117c0 -6.66699 -0.666992 -16.667 -2 -30l-41 -338
c-7.33301 -58 -30.166 -104.333 -68.499 -139s-85.5 -52 -141.5 -52c-50.667 0 -90.5 14.333 -119.5 43zM319.5 86c24.333 22.667 38.834 52.667 43.501 90l43 347c0.666992 4.66699 1 11.334 1 20.001c0 32 -9.16699 57.333 -27.5 76s-43.5 28 -75.5 28
c-34.667 0 -64 -11.333 -88 -34s-38.333 -52.667 -43 -90l-43 -347c-0.666992 -4.66699 -1 -11.334 -1 -20.001c0 -31.333 9.16699 -56.5 27.5 -75.5s42.833 -28.5 73.5 -28.5c35.333 0 65.166 11.333 89.499 34z" />
    <glyph glyph-name="one" unicode="1" horiz-adv-x="294" 
d="M225 700h52c6 0 9 -3.33301 9 -10l-84 -680c-1.33301 -6.66699 -5 -10 -11 -10h-49c-3.33301 0 -5.83301 1 -7.5 3s-2.16699 4.33301 -1.5 7l75 608c0 1.33301 -0.5 2.33301 -1.5 3s-2.16699 0.666992 -3.5 0l-101 -37c-1.33301 -0.666992 -3 -1 -5 -1
c-4 0 -6 2.66699 -6 8v37v2c0 2.66699 2.66699 6 8 10l113 57c4 2 8.33301 3 13 3z" />
    <glyph glyph-name="two" unicode="2" horiz-adv-x="455" 
d="M122.5 63.5c0.333008 -1 1.16699 -1.49707 2.5 -1.49707h267c6.66699 0 9.33398 -3.33301 8.00098 -10l-5 -42c-1.33301 -6.66699 -5 -10 -11 -10h-345c-6 0 -9 3.33301 -9 10l6 44c0 3.33301 1.66699 7.66602 5 12.999l230 280c66.667 85.333 100 152.666 100 201.999
c0 29.333 -8.33301 52.833 -25 70.5s-39.334 26.5 -68.001 26.5c-30.667 0 -56.667 -10.5 -78 -31.5s-34 -48.833 -38 -83.5l-4 -34c-1.33301 -6.66699 -5 -10 -11 -10h-50c-3.33301 0 -5.83301 1 -7.5 3s-2.16699 4.33301 -1.5 7l5 40c8 51.333 29.833 92.666 65.5 123.999
s78.834 47 129.501 47c47.333 0 84.666 -13.833 111.999 -41.5s41 -64.167 41 -109.5c0 -65.333 -35.667 -143.333 -107 -234l-210 -256c-1.33301 -1.33301 -1.83301 -2.5 -1.5 -3.5z" />
    <glyph glyph-name="three" unicode="3" horiz-adv-x="448" 
d="M401 263c0 -15.333 -0.99707 -32 -2.99707 -50c-5.33301 -41.333 -14.666 -76 -27.999 -104c-32.667 -78 -90.334 -117 -173.001 -117c-44 0 -79.333 12.333 -106 37s-41.667 58 -45 100c-0.666992 5.33301 -1 13.666 -1 24.999c0 17.333 1 33.333 3 48
c1.33301 6.66699 5 10 11 10h49c6.66699 0 9.66699 -3.33301 9 -10c-1.33301 -20 -2 -34.667 -2 -44c0 -32 7.66699 -57.333 23 -76s37.666 -28 66.999 -28c49.333 0 84.666 26 105.999 78c8.66699 22.667 15 51.334 19 86.001c2.66699 18 4 36 4 54
c0 18.667 -1.33301 33.667 -4 45c-11.333 46.667 -39.666 70 -84.999 70c-10 0 -19 -2 -27 -6c-6.66699 -2.66699 -11.334 -2 -14.001 2l-22 27c-1.33301 2.66699 -2 5 -2 7s1 4.33301 3 7l177 209c0.666992 0.666992 1 1.66699 1 3s-0.666992 2 -2 2h-243
c-6.66699 0 -9.33398 3.33301 -8.00098 10l5 42c1.33301 6.66699 5 10 11 10h321c6.66699 0 9.33398 -3.33301 8.00098 -10l-5 -45c-1.33301 -6 -3.33301 -10.333 -6 -13l-165 -198c-0.666992 -0.666992 -0.666992 -1.66699 0 -3s1.66699 -2 3 -2
c30 -1.33301 54.667 -10.333 74 -27s32.666 -40 39.999 -70c4.66699 -24.667 7 -47.667 7 -69z" />
    <glyph glyph-name="four" unicode="4" horiz-adv-x="468" 
d="M440 246l-5.99902 -44.001c-1.33301 -6.66699 -5 -10 -11 -10h-36c-2.66699 0 -4 -1.33301 -4 -4l-22 -178c-1.33301 -6.66699 -5 -10 -11 -10h-49c-3.33301 0 -5.83301 1 -7.5 3s-2.16699 4.33301 -1.5 7l22 178c0 2.66699 -1 4 -3 4h-263c-6 0 -9 3.33301 -9 10l5 38
l3 12l227 440c2.66699 5.33301 6.66699 8 12 8h53c3.33301 0 5.5 -1.16699 6.5 -3.5s0.5 -5.16602 -1.5 -8.49902l-217 -427c-0.666992 -1.33301 -0.833984 -2.5 -0.500977 -3.5s1.16602 -1.5 2.49902 -1.5h190c0.666992 0 1.5 0.333008 2.5 1s1.5 1.66699 1.5 3l19 158
c1.33301 6.66699 5 10 11 10h50c6.66699 0 9.33398 -3.33301 8.00098 -10l-19 -158c0 -2.66699 1 -4 3 -4h36c6 0 9 -3.33301 9 -10z" />
    <glyph glyph-name="five" unicode="5" horiz-adv-x="447" 
d="M416 274c0 -21.333 -1.33789 -41.0039 -4.00488 -59.0039c-3.33301 -30.667 -9.66602 -60 -18.999 -88c-15.333 -43.333 -38.833 -76.666 -70.5 -99.999s-69.167 -35 -112.5 -35s-78.166 12 -104.499 36s-41.5 57.667 -45.5 101c-0.666992 8 -1 20.333 -1 37
c0 6.66699 3.33301 10 10 10h51c5.33301 0 8 -2.66699 8 -8v-4l1 -20c2.66699 -28.667 11.5 -50.667 26.5 -66s35.833 -23 62.5 -23c26 0 48.5 7.83301 67.5 23.5s33.167 37.834 42.5 66.501c7.33301 18.667 12.333 41.667 15 69c2 15.333 3 30.666 3 45.999
c0 14.667 -0.333008 25.334 -1 32.001c-2.66699 26.667 -11.5 46.834 -26.5 60.501s-35.5 20.5 -61.5 20.5c-24.667 0 -46.5 -5.83301 -65.5 -17.5s-33.5 -28.5 -43.5 -50.5l-2 -4c-2 -4.66699 -5.66699 -7 -11 -7h-51c-3.33301 0 -5.83301 1 -7.5 3
s-2.16699 4.33301 -1.5 7l48 386c0 2.66699 1 5 3 7s4.33301 3 7 3h308c6.66699 0 9.33398 -3.33301 8.00098 -10l-5 -42c0 -2.66699 -1 -5 -3 -7s-4.66699 -3 -8 -3h-244c-2.66699 0 -4 -1.33301 -4 -4l-31 -245c0 -1.33301 0.5 -2.16602 1.5 -2.49902
s2.16699 0.166992 3.5 1.5c14.667 14.667 32.334 26.167 53.001 34.5s42.334 12.5 65.001 12.5c38 0 68.833 -9.66699 92.5 -29s38.167 -47 43.5 -83c2 -16 3 -32.333 3 -49z" />
    <glyph glyph-name="six" unicode="6" horiz-adv-x="448" 
d="M417 267c0 -17.333 -1.33301 -35.002 -4 -53.002c-4.66699 -37.333 -11.334 -66.333 -20.001 -87c-15.333 -43.333 -38.333 -76.666 -69 -99.999s-68 -35 -112 -35c-40.667 0 -73.667 10.833 -99 32.5s-40.666 52.167 -45.999 91.5c-4 17.333 -6 35.333 -6 54
c0 14.667 1 29 3 43l39 320c6.66699 52.667 27.834 95 63.501 127s79.167 48 130.5 48c44 0 79.167 -13 105.5 -39s39.5 -61 39.5 -105c0 -6 -0.666992 -15 -2 -27l-1 -15c-0.666992 -2.66699 -2 -5 -4 -7s-4.33301 -3 -7 -3h-50c-6.66699 0 -9.33398 3.33301 -8.00098 10
l1 11c0.666992 4 1 10.333 1 19c0 28 -7.66699 50.5 -23 67.5s-35.333 25.5 -60 25.5c-30 0 -56 -10.667 -78 -32s-35 -49.333 -39 -84l-18 -147c-0.666992 -2 -0.5 -3.16699 0.5 -3.5s2.16699 0.166992 3.5 1.5c28.667 37.333 67.667 56 117 56
c39.333 0 70.5 -10.5 93.5 -31.5s37.5 -50.5 43.5 -88.5c3.33301 -15.333 5 -31.666 5 -48.999zM345 215.998c2 16 3 30.333 3 43c0 14.667 -1 27.334 -3 38.001c-3.33301 25.333 -12.5 45 -27.5 59s-34.833 21 -59.5 21s-46.167 -7.33301 -64.5 -22
s-32.166 -34.667 -41.499 -60c-8.66699 -21.333 -15 -48 -19 -80c-2 -16.667 -3 -31.334 -3 -44.001l1 -29c2.66699 -27.333 11.5 -48.666 26.5 -63.999s35.5 -23 61.5 -23c25.333 0 47.5 7.66699 66.5 23s33.5 37.666 43.5 66.999c7.33301 23.333 12.666 47 15.999 71z" />
    <glyph glyph-name="seven" unicode="7" horiz-adv-x="407" 
d="M101 11l271.997 622c0.666992 1.33301 0.5 2.5 -0.5 3.5s-2.16699 1.5 -3.5 1.5h-219c-2.66699 0 -4 -1.33301 -4 -4l-6 -43c0 -2.66699 -1 -5 -3 -7s-4.33301 -3 -7 -3h-39c-6 0 -9 3.33301 -9 10l12 99c0.666992 2.66699 2 5 4 7s4.33301 3 7 3h340
c6.66699 0 9.33398 -3.33301 8.00098 -10l-5 -46c-1.33301 -5.33301 -2.66602 -9.33301 -3.99902 -12l-270 -624c-3.33301 -5.33301 -7.66602 -8 -12.999 -8h-53c-8 0 -10.333 3.66699 -7 11z" />
    <glyph glyph-name="eight" unicode="8" horiz-adv-x="458" 
d="M410 238c0 -12.667 -1.00293 -26.667 -3.00293 -42c-4.66699 -42 -16 -77.667 -34 -107c-17.333 -30.667 -40.166 -54.5 -68.499 -71.5s-60.166 -25.5 -95.499 -25.5c-36 0 -66.333 8.66699 -91 26s-42 41.666 -52 72.999c-6 20 -9 42.667 -9 68
c0 16 0.666992 28.333 2 37c4.66699 38.667 15 73.334 31 104.001c16.667 30.667 41 54 73 70c3.33301 1.33301 3.33301 3 0 5c-21.333 14 -36.333 31.667 -45 53c-10.667 22.667 -16 46.667 -16 72c0 49.333 13 92.333 39 129c17.333 25.333 39.5 45.166 66.5 59.499
s56.833 21.5 89.5 21.5s60.5 -7 83.5 -21s39.833 -33.667 50.5 -59c10 -21.333 15 -45.666 15 -72.999c0 -46 -13 -89 -39 -129c-15.333 -21.333 -35 -38.666 -59 -51.999c-3.33301 -2.66699 -3.66602 -4.33398 -0.999023 -5.00098c26 -14.667 44 -37.667 54 -69
c6 -18.667 9 -40 9 -64zM171.997 525c-1.33301 -10.667 -2 -18 -2 -22c0 -18.667 3.66699 -36 11 -52c6 -16 15.667 -28.333 29 -37s29.333 -13 48 -13c19.333 0 37 4.66699 53 14s29.333 22.333 40 39c16.667 26 25 57.667 25 95c0 17.333 -2.33301 32 -7 44
c-14.667 36.667 -41.667 55 -81 55c-20 0 -38 -5 -54 -15s-29 -24 -39 -42c-12 -19.333 -19.667 -41.333 -23 -66zM338.997 200c1.33301 16 1.99902 26.999 1.99902 32.999c0 18.667 -2 35 -6 49c-5.33301 20 -15.166 35.5 -29.499 46.5s-32.5 16.5 -54.5 16.5
c-44 0 -77 -21 -99 -63c-12 -24 -20 -51.333 -24 -82c-1.33301 -14.667 -2 -25 -2 -31c0 -18.667 2.66699 -36 8 -52c5.33301 -20 15 -35.5 29 -46.5s31.667 -16.5 53 -16.5c42.667 0 75 21 97 63c13.333 22.667 22 50.334 26 83.001z" />
    <glyph glyph-name="nine" unicode="9" horiz-adv-x="447" 
d="M433 535c0 -16 -1.00098 -32.002 -3.00098 -48.002l-39 -320c-6.66699 -53.333 -27.667 -95.833 -63 -127.5s-78.666 -47.5 -129.999 -47.5c-44 0 -79.333 13 -106 39s-40 61 -40 105c0 6 0.666992 15 2 27l2 15c1.33301 6.66699 5 10 11 10h49c6 0 9 -3.33301 9 -10
l-2 -11c-0.666992 -4 -1 -10.333 -1 -19c0 -28 7.66699 -50.5 23 -67.5s35.666 -25.5 60.999 -25.5c30 0 55.833 10.5 77.5 31.5s34.834 49.167 39.501 84.5l18 146c0 1.33301 -0.666992 2.33301 -2 3s-2.33301 0.333984 -3 -0.999023c-14.667 -18.667 -32 -32.5 -52 -41.5
s-41.333 -13.5 -64 -13.5c-39.333 0 -70.5 10.333 -93.5 31s-37.833 50.334 -44.5 89.001c-3.33301 14.667 -5 30.334 -5 47.001c0 8.66699 1.33301 27 4 55c4 34 10.667 63 20 87c16 43.333 39.333 76.666 70 99.999s67.667 35 111 35c40.667 0 73.667 -10.833 99 -32.5
s41 -52.167 47 -91.5c3.33301 -12.667 5 -29 5 -49zM301.499 344.998c18.333 14.667 32.167 34.666 41.5 59.999c8 18.667 14 45.334 18 80.001c2.66699 24 4 39.667 4 47c0 35.333 -7.5 63 -22.5 83s-37.167 30 -66.5 30c-25.333 0 -47.666 -7.66699 -66.999 -23
s-34 -37.666 -44 -66.999c-6.66699 -20.667 -11.334 -44.334 -14.001 -71.001c-2.66699 -16.667 -4 -33.667 -4 -51c0 -8 0.666992 -18 2 -30c3.33301 -25.333 12.5 -45 27.5 -59s35.167 -21 60.5 -21c24.667 0 46.167 7.33301 64.5 22z" />
    <glyph glyph-name="colon" unicode=":" horiz-adv-x="267" 
d="M121 358.5c-8.66699 9 -12.999 20.501 -12.999 34.501c0 18.667 6 34 18 46s26.667 18 44 18c14 0 25.5 -4.33301 34.5 -13s13.5 -20.334 13.5 -35.001c0 -18 -6 -33.167 -18 -45.5s-26.667 -18.5 -44 -18.5c-14.667 0 -26.334 4.5 -35.001 13.5zM80.001 22.501
c-8.66699 9 -12.999 20.501 -12.999 34.501c0 18.667 6 34 18 46s26.667 18 44 18c14 0 25.5 -4.33301 34.5 -13s13.5 -20.334 13.5 -35.001c0 -18 -6 -33.167 -18 -45.5s-26.667 -18.5 -44 -18.5c-14.667 0 -26.334 4.5 -35.001 13.5z" />
    <glyph glyph-name="semicolon" unicode=";" horiz-adv-x="244" 
d="M110.5 361c-9 9.33301 -13.5 21.334 -13.5 36.001l1 10c1.33301 16 8.5 29.667 21.5 41s26.833 17 41.5 17c14 0 25.833 -4.83301 35.5 -14.5s14.5 -21.834 14.5 -36.501c0 -18 -6.5 -33.667 -19.5 -47s-28.167 -20 -45.5 -20c-14.667 0 -26.5 4.66699 -35.5 14z
M44 -71.499c-1.33301 2.33301 -1.66992 4.83301 -1.00293 7.5l49 206c2 6 5.66699 9 11 9h45c2.66699 0 4.83398 -1 6.50098 -3s1.83398 -4.66699 0.500977 -8l-62 -206c-2 -6 -6 -9 -12 -9h-30c-3.33301 0 -5.66602 1.16699 -6.99902 3.5z" />
    <glyph glyph-name="less" unicode="&#x3c;" horiz-adv-x="457" 
d="M405.5 55.5c-2.33301 -1.66699 -4.83105 -1.49902 -7.49805 0.500977l-347 181c-4 3.33301 -5.66699 7.33301 -5 12l6 48c1.33301 5.33301 4 9.33301 8 12l391 181c1.33301 0.666992 3 1 5 1s3.66699 -0.666992 5 -2s1.66602 -3.33301 0.999023 -6l-6 -49
c-0.666992 -4.66699 -3.33398 -8.33398 -8.00098 -11.001l-326 -147c-2.66699 -2 -3 -4 -1 -6l290 -147c4 -3.33301 5.66699 -7 5 -11l-6 -49c-0.666992 -3.33301 -2.16699 -5.83301 -4.5 -7.5z" />
    <glyph glyph-name="equal" unicode="=" horiz-adv-x="457" 
d="M67.5 401c-1.66699 2 -2.16602 4.33301 -1.49902 7l5 38c0 2.66699 1 5 3 7s4.33301 3 7 3h368c6 0 9 -3.33301 9 -10l-5 -38c-1.33301 -6.66699 -5 -10 -11 -10h-368c-2.66699 0 -4.83398 1 -6.50098 3zM41.501 194c-1.66699 2 -2.16602 4.33301 -1.49902 7l5 38
c0 2.66699 1 5 3 7s4.33301 3 7 3h368c6 0 9 -3.33301 9 -10l-5 -38c-1.33301 -6.66699 -5 -10 -11 -10h-368c-2.66699 0 -4.83398 1 -6.50098 3z" />
    <glyph glyph-name="greater" unicode="&#x3e;" horiz-adv-x="457" 
d="M29 54c-2 0 -3.66895 0.831055 -5.00195 2.49805s-1.66602 3.83398 -0.999023 6.50098l6 49c0.666992 4.66699 3.33398 8.33398 8.00098 11.001l326 147c2.66699 2 3 4 1 6l-290 147c-4 3.33301 -5.66699 7 -5 11l6 49c0.666992 3.33301 2.16699 5.83301 4.5 7.5
s4.83301 1.5 7.5 -0.5l347 -181c4 -3.33301 5.66699 -7.33301 5 -12l-6 -48c0 -4.66699 -2.66699 -8.66699 -8 -12l-391 -181z" />
    <glyph glyph-name="question" unicode="?" horiz-adv-x="403" 
d="M158 210l7.00586 58.998c3.33301 28.667 12.166 52 26.499 70s35.166 38.333 62.499 61c28 22.667 49.167 43.167 63.5 61.5s23.166 42.166 26.499 71.499c0.666992 4.66699 1 11 1 19c0 28 -7.5 50.333 -22.5 67s-35.5 25 -61.5 25c-30 0 -55.333 -10.333 -76 -31
s-33 -47.667 -37 -81l-4 -31c-1.33301 -6.66699 -5 -10 -11 -10l-49 3c-6 0 -9 3.33301 -9 10l4 28c6.66699 52.667 27.667 95.334 63 128.001s78 49 128 49c45.333 0 81 -13.167 107 -39.5s39 -62.166 39 -107.499c0 -6 -0.666992 -15.667 -2 -29
c-4 -29.333 -11.333 -54.666 -22 -75.999s-22.834 -38.833 -36.501 -52.5s-30.834 -28.834 -51.501 -45.501c-22 -17.333 -38.667 -32.666 -50 -45.999s-18 -29.333 -20 -48l-6 -55c-0.666992 -2.66699 -2 -5 -4 -7s-4.33301 -3 -7 -3h-51
c-6.66699 0 -9.33398 3.33301 -8.00098 10zM131.506 15.498c-9 9 -13.501 20.5 -13.501 34.5c0 18 6.16699 33.167 18.5 45.5s26.833 18.5 43.5 18.5c14.667 0 26.334 -4.33301 35.001 -13s13 -20 13 -34c0 -18.667 -6 -34.167 -18 -46.5s-26.667 -18.5 -44 -18.5
c-14 0 -25.5 4.5 -34.5 13.5z" />
    <glyph glyph-name="at" unicode="@" horiz-adv-x="770" 
d="M618 586.5c38.667 -20.333 68.5059 -48.832 89.5059 -85.499s31.5 -79.667 31.5 -129c0 -30 -4 -61.667 -12 -95c-16 -62 -41 -110.333 -75 -145s-73.333 -52 -118 -52c-22 0 -40.667 4.33301 -56 13s-26.666 21 -33.999 37c-2 2.66699 -4 3 -6 1
c-12.667 -16.667 -27.834 -29.334 -45.501 -38.001s-36.834 -13 -57.501 -13c-28.667 0 -51.334 7.83301 -68.001 23.5s-25 37.167 -25 64.5c0 13.333 3.66699 35.333 11 66c2.66699 8 5 17.667 7 29c9.33301 38.667 17.333 65.334 24 80.001
c11.333 31.333 28.5 56.166 51.5 74.499s49.5 27.5 79.5 27.5c32 0 55 -11.333 69 -34c0.666992 -1.33301 1.66699 -1.83301 3 -1.5s2 1.16602 2 2.49902l4 19c2 6 5.66699 9 11 9h31c3.33301 0 5.66602 -1.16699 6.99902 -3.5s1.66602 -4.83301 0.999023 -7.5l-51 -206
c-2.66699 -10 -4 -20.333 -4 -31c0 -19.333 5 -34.666 15 -45.999s24.333 -17 43 -17c28 0 53.333 13 76 39s39.667 62 51 108c8 32 12 61.667 12 89c0 62.667 -19.333 112.167 -58 148.5s-91 54.5 -157 54.5c-51.333 0 -101.5 -12.667 -150.5 -38s-91.5 -62 -127.5 -110
s-60.333 -104 -73 -168c-6 -28 -9 -54 -9 -78c0 -66 18.667 -118.167 56 -156.5s87.666 -57.5 150.999 -57.5c31.333 0 61.833 4.16699 91.5 12.5s53.5 18.5 71.5 30.5c2 2 4.33301 3 7 3c2 0 4 -1.66699 6 -5l12 -21c1.33301 -2.66699 2 -5 2 -7
c0 -3.33301 -1.66699 -5.66602 -5 -6.99902c-24 -16.667 -53.833 -30.167 -89.5 -40.5s-72.167 -15.5 -109.5 -15.5c-50 0 -93.333 10.5 -130 31.5s-64.834 50.667 -84.501 89s-29.5 83.166 -29.5 134.499c0 30 3.33301 60.333 10 91c14.667 73.333 43.167 137.333 85.5 192
s92.5 96.5 150.5 125.5s117 43.5 177 43.5c52 0 97.333 -10.167 136 -30.5zM438.006 210.501c2.66699 7.66699 5.66797 18.1719 9.00098 31.5049l9 38l11 54c0.666992 3.33301 1 7.66602 1 12.999c0 16 -4.66699 28.833 -14 38.5s-22 14.5 -38 14.5
c-18.667 0 -35.834 -6.33301 -51.501 -19s-27.167 -28.334 -34.5 -47.001c-6.66699 -17.333 -13.334 -41.333 -20.001 -72l-6 -23c-3.33301 -12.667 -5.83301 -23.834 -7.5 -33.501s-2.5 -18.834 -2.5 -27.501c0 -16 4.83301 -28.833 14.5 -38.5s23.167 -14.5 40.5 -14.5
c18.667 0 35.334 6.16699 50.001 18.5s25.667 28.166 33 47.499c1.33301 5.33301 3.33301 11.833 6 19.5z" />
    <glyph glyph-name="A" unicode="A" horiz-adv-x="493" 
d="M380 9l-15.998 125c-0.666992 2 -2.33398 3 -5.00098 3h-232c-2 0 -3.66699 -1 -5 -3l-47 -125c-2.66699 -6 -6.66699 -9 -12 -9h-50c-3.33301 0 -5.83301 1 -7.5 3s-1.83398 4.66699 -0.500977 8l265 680c2.66699 6 6.66699 9 12 9h62c5.33301 0 8.66602 -3 9.99902 -9
l97 -680v-3c0 -5.33301 -3.33301 -8 -10 -8h-51c-5.33301 0 -8.66602 3 -9.99902 9zM147.002 196.5c0.666992 -1 1.66895 -1.5 3.00195 -1.5h201c1.33301 0 2.5 0.5 3.5 1.5s1.16699 1.83301 0.5 2.5l-53 402c-0.666992 1.33301 -1.33398 2 -2.00098 2
s-1.33398 -0.666992 -2.00098 -2l-151 -402c-0.666992 -0.666992 -0.666992 -1.5 0 -2.5z" />
    <glyph glyph-name="B" unicode="B" horiz-adv-x="522" 
d="M399 360c51.333 -27.333 77 -73.3301 77 -137.997c0 -6.66699 -0.666992 -17.334 -2 -32.001c-7.33301 -60 -30.333 -106.667 -69 -140s-86.334 -50 -143.001 -50h-191c-6 0 -9 3.33301 -9 10l84 680c1.33301 6.66699 5 10 11 10h183c53.333 0 95 -13.167 125 -39.5
s45 -63.833 45 -112.5c0 -6 -0.666992 -16.333 -2 -31c-4.66699 -36.667 -16.167 -67.834 -34.5 -93.501s-42.833 -45.167 -73.5 -58.5c-3.33301 -0.666992 -3.66602 -2.33398 -0.999023 -5.00098zM208 634.003l-29.999 -241c0 -2.66699 1.33301 -4 4 -4h121
c41.333 0 74.666 13.167 99.999 39.5s38 61.5 38 105.5c0 32.667 -9.5 58.167 -28.5 76.5s-45.5 27.5 -79.5 27.5h-121c-2.66699 0 -4 -1.33301 -4 -4zM369.001 106.503c26 29 39 67.833 39 116.5c0 34 -9.66699 60.667 -29 80s-46 29 -80 29h-124
c-1.33301 0 -2.5 -0.333008 -3.5 -1s-1.5 -1.66699 -1.5 -3l-32 -261c0 -2.66699 1.33301 -4 4 -4h126c41.333 0 75 14.5 101 43.5z" />
    <glyph glyph-name="C" unicode="C" horiz-adv-x="511" 
d="M111 36.5c-31.333 29.667 -47.002 70.1699 -47.002 121.503c0 6 0.666992 16.333 2 31l40 323c6.66699 59.333 30.167 106.833 70.5 142.5s90.166 53.5 149.499 53.5c54 0 96.667 -14.833 128 -44.5s47 -69.834 47 -120.501c0 -6 -0.666992 -15.667 -2 -29l-1 -9
c-0.666992 -2.66699 -2 -5 -4 -7s-4.33301 -3 -7 -3l-50 -2c-6 0 -9 3 -9 9l2 14c0.666992 4.66699 1 11.667 1 21c0 33.333 -10.167 59.833 -30.5 79.5s-47.833 29.5 -82.5 29.5c-38.667 0 -71 -11.833 -97 -35.5s-41.333 -55.167 -46 -94.5l-41 -332
c-0.666992 -4.66699 -1 -11.334 -1 -20.001c0 -33.333 10 -60 30 -80s47.333 -30 82 -30c38.667 0 71.167 12 97.5 36s41.833 55.333 46.5 94l2 14c1.33301 6 5 9 11 9l49 -3c6.66699 0 9.33398 -3.33301 8.00098 -10l-1 -7
c-6.66699 -58.667 -30.167 -105.834 -70.5 -141.501s-90.166 -53.5 -149.499 -53.5c-53.333 0 -95.666 14.833 -126.999 44.5z" />
    <glyph glyph-name="D" unicode="D" horiz-adv-x="525" 
d="M62 10l84.001 679.999c1.33301 6.66699 5 10 11 10h189c51.333 0 91.666 -14.167 120.999 -42.5s44 -67.166 44 -116.499c0 -6 -0.666992 -16.333 -2 -31l-39 -320c-7.33301 -58.667 -29.833 -105 -67.5 -139s-85.167 -51 -142.5 -51h-189c-6 -0 -9 3.33301 -9 10z
M139.001 62.999c0.666992 -0.666992 1.33301 -1.00098 2 -1.00098h128c35.333 0.666992 64.833 12.834 88.5 36.501s38.167 56.167 43.5 97.5l38 308c1.33301 12 2 20.333 2 25c0 34 -9 60.667 -27 80s-43 29 -75 29h-127c-2.66699 0 -4 -1.33301 -4 -4l-70 -568
c0 -1.33301 0.333008 -2.33301 1 -3z" />
    <glyph glyph-name="E" unicode="E" horiz-adv-x="502" 
d="M503 638h-291.003c-2.66699 0 -4 -1.33301 -4 -4l-31 -248c0 -2.66699 1.33301 -4 4 -4h196c6.66699 0 9.33398 -3.33301 8.00098 -10l-5 -42c-1.33301 -6.66699 -5 -10 -11 -10h-196c-2.66699 0 -4 -1.33301 -4 -4l-31 -250c0 -1.33301 0.333008 -2.33301 1 -3
s1.33398 -1 2.00098 -1h291c3.33301 0 5.83301 -1 7.5 -3s2.16699 -4.33301 1.5 -7l-5 -42c-1.33301 -6.66699 -5 -10 -11 -10h-354c-6 -0 -9 3.33301 -9 10l84 680c1.33301 6.66699 5 10 11 10h354c6.66699 0 9.33398 -3.33301 8.00098 -10l-5 -42
c-1.33301 -6.66699 -5 -10 -11 -10z" />
    <glyph glyph-name="F" unicode="F" horiz-adv-x="471" 
d="M502 638h-290.002c-2.66699 0 -4 -1.33301 -4 -4l-31 -248c0 -2.66699 1.33301 -4 4 -4h195c6.66699 0 9.33398 -3.33301 8.00098 -10l-5 -42c-1.33301 -6.66699 -5 -10 -11 -10h-195c-2.66699 0 -4 -1.33301 -4 -4l-38 -306c-1.33301 -6.66699 -5 -10 -11 -10h-49
c-6 -0 -9 3.33301 -9 10l84 680c1.33301 6.66699 5 10 11 10h353c6.66699 0 9.33398 -3.33301 8.00098 -10l-5 -42c-1.33301 -6.66699 -5 -10 -11 -10z" />
    <glyph glyph-name="G" unicode="G" horiz-adv-x="516" 
d="M111 36.5c-31.333 29.667 -46.9961 69.1641 -46.9961 118.497c0 6 0.666992 16.333 2 31l40 328c6.66699 58.667 30.167 105.667 70.5 141s90.166 53 149.499 53c53.333 0 95.666 -14.667 126.999 -44s47 -68.666 47 -117.999c0 -5.33301 -0.666992 -14.666 -2 -27.999
l-3 -28c-1.33301 -6.66699 -5 -10 -11 -10h-50c-2.66699 0 -4.83398 1 -6.50098 3s-2.16699 4.33301 -1.5 7l3 28c0.666992 4.66699 1 11.667 1 21c0 32.667 -10 58.667 -30 78s-47.333 29 -82 29c-38.667 0 -71 -11.833 -97 -35.5s-41.333 -55.167 -46 -94.5l-41 -332
c-0.666992 -4.66699 -1 -11 -1 -19c0 -34 10.167 -61 30.5 -81s47.833 -30 82.5 -30c38.667 0 70.667 11.333 96 34s40.666 53.334 45.999 92.001l13 109c0 2.66699 -1 4 -3 4h-114c-6.66699 0 -9.33398 3.33301 -8.00098 10l5 42c1.33301 6.66699 5 10 11 10h176
c3.33301 0 5.83301 -1 7.5 -3s2.16699 -4.33301 1.5 -7l-19 -156c-7.33301 -60.667 -31 -108.667 -71 -144s-89.667 -53 -149 -53c-53.333 0 -95.666 14.833 -126.999 44.5z" />
    <glyph glyph-name="H" unicode="H" horiz-adv-x="546" 
d="M474 700h49.001c3.33301 0 5.83301 -1 7.5 -3s2.16699 -4.33301 1.5 -7l-84 -680c0 -2.66699 -1 -5 -3 -7s-4.66699 -3 -8 -3h-49c-6.66699 -0 -9.33398 3.33301 -8.00098 10l37 306c0 2.66699 -1 4 -3 4h-241c-2.66699 0 -4 -1.33301 -4 -4l-38 -306
c-1.33301 -6.66699 -5 -10 -11 -10h-49c-6 -0 -9 3.33301 -9 10l84 680c1.33301 6.66699 5 10 11 10h49c6 0 9 -3.33301 9 -10l-38 -304c0 -2.66699 1.33301 -4 4 -4h240c2 0 3.66699 1.33301 5 4l37 304c1.33301 6.66699 5 10 11 10z" />
    <glyph glyph-name="I" unicode="I" horiz-adv-x="230" 
d="M62 10l84 680c1.33301 6.66699 5 10 11 10h49c6 0 9 -3.33301 9 -10l-84 -680c-1.33301 -6.66699 -5 -10 -11 -10h-49c-6 -0 -9 3.33301 -9 10z" />
    <glyph glyph-name="J" unicode="J" horiz-adv-x="486" 
d="M71.5 35c-30.333 28.667 -45.5 67.6699 -45.5 117.003c0 6 0.666992 15.667 2 29l10 80c1.33301 6.66699 5 10 11 10h49c6 0 9 -3.33301 9 -10l-10 -81c-0.666992 -4.66699 -1 -11.334 -1 -20.001c0 -32 9.5 -57.667 28.5 -77s45.167 -29 78.5 -29
c36 0 66.667 11.667 92 35s40.333 53.666 45 90.999l63 510c1.33301 6.66699 5 10 11 10h48c3.33301 0 5.83301 -1 7.5 -3s2.16699 -4.33301 1.5 -7l-63 -509c-6.66699 -56.667 -29.667 -102.334 -69 -137.001s-87.333 -52 -144 -52c-52 0 -93.167 14.333 -123.5 43z" />
    <glyph glyph-name="K" unicode="K" horiz-adv-x="515" 
d="M62 10l83.999 679.998c1.33301 6.66699 5 10 11 10h49c6 0 9 -3.33301 9 -10l-41 -332c0 -1.33301 0.5 -2.16602 1.5 -2.49902s2.16699 0.166992 3.5 1.5l287 337c3.33301 4 8 6 14 6h54c4 0 6.5 -1.16699 7.5 -3.5s-0.166992 -5.16602 -3.5 -8.49902l-227 -274
c-1.33301 -2.66699 -1.66602 -4.66699 -0.999023 -6l163 -396l1 -4c0 -5.33301 -3 -8 -9 -8h-57c-6 -0 -9.33301 2.33301 -10 7l-142 345c-1.33301 3.33301 -3 3.33301 -5 0l-88 -99l-3 -5l-29 -238c-1.33301 -6.66699 -5 -10 -11 -10h-49c-6 -0 -9 3.33301 -9 10z" />
    <glyph glyph-name="L" unicode="L" horiz-adv-x="468" 
d="M62 10l83.998 680c1.33301 6.66699 5 10 11 10h49c6 0 9 -3.33301 9 -10l-77 -624c0 -1.33301 0.333008 -2.33301 1 -3s1.33398 -1 2.00098 -1h283c6.66699 0 9.33398 -3.33301 8.00098 -10l-5 -42c-1.33301 -6.66699 -5 -10 -11 -10h-345c-6 -0 -9 3.33301 -9 10z" />
    <glyph glyph-name="M" unicode="M" horiz-adv-x="600" 
d="M526 700h51.001c6.66699 0 9.33398 -3.33301 8.00098 -10l-83 -680c-1.33301 -6.66699 -5 -10 -11 -10h-50c-2.66699 0 -4.83398 1 -6.50098 3s-2.16699 4.33301 -1.5 7l67 544c0 2 -0.666992 3.33301 -2 4s-2.33301 0 -3 -2l-157 -231c-4.66699 -4.66699 -9 -7 -13 -7
h-10c-4.66699 0 -8.33398 2.33301 -11.001 7l-102 230c-0.666992 2 -1.66699 2.66699 -3 2s-2 -2 -2 -4l-67 -543c0 -2.66699 -1 -5 -3 -7s-4.66699 -3 -8 -3h-49c-6 -0 -9 3.33301 -9 10l84 680c1.33301 6.66699 5 10 11 10h50c5.33301 0 9 -2.33301 11 -7l115 -257
c0.666992 -0.666992 1.66699 -1 3 -1s2.33301 0.333008 3 1l176 257c3.33301 4.66699 7.33301 7 12 7z" />
    <glyph glyph-name="N" unicode="N" horiz-adv-x="567" 
d="M494 700h49.998c6.66699 0 9.33398 -3.33301 8.00098 -10l-83 -680c-1.33301 -6.66699 -5 -10 -11 -10h-53c-6 -0 -9.33301 2.33301 -10 7l-195 535c-0.666992 1.33301 -1.5 2 -2.5 2s-1.83301 -1 -2.5 -3l-64 -531c-1.33301 -6.66699 -5 -10 -11 -10h-49
c-6 -0 -9 3.33301 -9 10l84 680c1.33301 6.66699 5 10 11 10h52c6.66699 0 10.334 -2.33301 11.001 -7l194 -537c2 -3.33301 3.66699 -3 5 1l64 533c1.33301 6.66699 5 10 11 10z" />
    <glyph glyph-name="O" unicode="O" horiz-adv-x="523" 
d="M112.5 38.5c-31.667 31 -47.502 72.501 -47.502 124.501c0 6.66699 0.666992 17.334 2 32.001l38 309c7.33301 61.333 31.5 110.666 72.5 147.999s91.167 56 150.5 56c54 0 97 -15.667 129 -47s48 -73 48 -125c0 -6.66699 -0.666992 -17.334 -2 -32.001l-38 -309
c-7.33301 -60.667 -31.666 -109.667 -72.999 -147s-91.666 -56 -150.999 -56c-54 0 -96.833 15.5 -128.5 46.5zM347.498 92.001c27 25.333 43.166 58.668 48.499 100.001l39 314c0.666992 5.33301 1 12.666 1 21.999c0 36 -10.333 64.667 -31 86s-48.667 32 -84 32
c-39.333 0 -72.5 -12.833 -99.5 -38.5s-42.833 -59.5 -47.5 -101.5l-39 -314c-0.666992 -4.66699 -1 -12 -1 -22c0 -35.333 10.333 -63.5 31 -84.5s48.334 -31.5 83.001 -31.5c39.333 0 72.5 12.667 99.5 38z" />
    <glyph glyph-name="P" unicode="P" horiz-adv-x="501" 
d="M471.5 657.5c27 -29 40.5 -68.167 40.5 -117.5c0 -14.667 -0.666992 -26 -2 -34c-6.66699 -58 -28.167 -104.5 -64.5 -139.5s-80.5 -52.5 -132.5 -52.5h-144c-1.33301 0 -2.5 -0.333008 -3.5 -1s-1.5 -1.66699 -1.5 -3l-37 -300c0 -2.66699 -1 -5 -3 -7
s-4.66699 -3 -8 -3h-49c-6 -0 -9 3.33301 -9 10l84 681c1.33301 6.66699 5 10 11 10h208c46.667 0 83.5 -14.5 110.5 -43.5zM405.5 416.5c25 29 37.501 66.5 37.501 112.5c0 33.333 -8.83301 60 -26.5 80s-41.834 30 -72.501 30h-136c-2.66699 0 -4 -1.33301 -4 -4l-32 -258
c0 -2.66699 1.33301 -4 4 -4h136c37.333 0 68.5 14.5 93.5 43.5z" />
    <glyph glyph-name="Q" unicode="Q" horiz-adv-x="494" 
d="M438.5 662c30.333 -30.667 45.501 -71.6689 45.501 -123.002c0 -7.33301 -0.666992 -18.333 -2 -33l-38 -314c-6.66699 -52.667 -26 -96.667 -58 -132s-72 -56.666 -120 -63.999c-2.66699 -0.666992 -4 -2.33398 -4 -5.00098l-12 -96c-1.33301 -6.66699 -5 -10 -11 -10
h-50c-3.33301 0 -5.83301 1 -7.5 3s-2.16699 4.33301 -1.5 7l12 96c0 2 -1 3.66699 -3 5c-40.667 6.66699 -72.834 24.834 -96.501 54.501s-35.5 66.834 -35.5 111.501c0 6.66699 0.666992 16.667 2 30l39 314c7.33301 60.667 31 109.5 71 146.5s88.667 55.5 146 55.5
c52 0 93.167 -15.333 123.5 -46zM414.001 510.998c0.666992 5.33301 1 12.666 1 21.999c0 34 -9.66699 61.333 -29 82s-45.666 31 -78.999 31c-36.667 0 -67.834 -12.5 -93.501 -37.5s-40.834 -57.5 -45.501 -97.5l-40 -322c-0.666992 -5.33301 -1 -12.666 -1 -21.999
c0 -34 9.66699 -61.333 29 -82s45.666 -31 78.999 -31c36.667 0 67.834 12.5 93.501 37.5s40.834 57.5 45.501 97.5z" />
    <glyph glyph-name="R" unicode="R" horiz-adv-x="512" 
d="M384 8l-82.001 309.002c-0.666992 2 -2 3 -4 3h-125c-2.66699 0 -4 -1.33301 -4 -4l-38 -306c-1.33301 -6.66699 -5 -10 -11 -10h-49c-6 0 -9 3.33301 -9 10l84 680c1.33301 6.66699 5 10 11 10h205c46 0 82.667 -14.667 110 -44s41 -68.333 41 -117
c0 -6.66699 -0.666992 -17.334 -2 -32.001c-5.33301 -45.333 -20.666 -84 -45.999 -116s-57 -53.333 -95 -64c-2 -0.666992 -3 -2.33398 -3 -5.00098l87 -310c0.666992 -0.666992 1 -2 1 -4c0 -5.33301 -3.33301 -8 -10 -8h-51c-6 0 -9.33301 2.66699 -10 8z
M207.999 634.002l-31 -253c0 -2.66699 1 -4 3 -4h134c37.333 0 68.333 14.333 93 43s37 65.667 37 111c0 32.667 -8.83301 58.667 -26.5 78s-41.5 29 -71.5 29h-134c-2.66699 0 -4 -1.33301 -4 -4z" />
    <glyph glyph-name="S" unicode="S" horiz-adv-x="485" 
d="M93.5 33.5c-31.667 27.667 -47.498 65.499 -47.498 113.499c0 6 0.666992 15 2 27l3 27c1.33301 6.66699 5 10 11 10h47c3.33301 0 5.83301 -1 7.5 -3s2.16699 -4.33301 1.5 -7l-3 -23c-0.666992 -4 -1 -10 -1 -18c0 -32 10.833 -57.667 32.5 -77s51.167 -29 88.5 -29
c41.333 0 74.666 12.333 99.999 37s38 56.667 38 96c0 28 -9.5 51.333 -28.5 70s-52.5 42.334 -100.5 71.001c-34 20 -61 37.5 -81 52.5s-36.167 32.833 -48.5 53.5s-18.5 45.334 -18.5 74.001c0 6 0.666992 15 2 27c6.66699 54 28.667 96.333 66 127s84 46 140 46
c54.667 0 97.667 -14.167 129 -42.5s47 -66.5 47 -114.5c0 -6 -0.666992 -15.667 -2 -29l-3 -23c0 -2.66699 -1 -5 -3 -7s-4.33301 -3 -7 -3h-49c-6.66699 0 -9.33398 3.33301 -8.00098 10l2 22c0.666992 4.66699 1 11 1 19c0 32 -10.167 57.667 -30.5 77
s-48.833 29 -85.5 29c-39.333 0 -70.833 -11.333 -94.5 -34s-35.5 -54.334 -35.5 -95.001c0 -18.667 4.33301 -34.667 13 -48s21.167 -25.833 37.5 -37.5s40.833 -27.167 73.5 -46.5c38 -24 67.167 -43.833 87.5 -59.5s36.5 -33.5 48.5 -53.5s18 -43.667 18 -71
c0 -41.333 -9.33301 -77.833 -28 -109.5s-44.5 -56.167 -77.5 -73.5s-70.833 -26 -113.5 -26c-55.333 0 -98.833 13.833 -130.5 41.5z" />
    <glyph glyph-name="T" unicode="T" horiz-adv-x="481" 
d="M509 690l-5.99805 -42c0 -2.66699 -1 -5 -3 -7s-4.33301 -3 -7 -3h-159c-2.66699 0 -4 -1.33301 -4 -4l-77 -624c0 -2.66699 -1 -5 -3 -7s-4.66699 -3 -8 -3h-49c-6.66699 -0 -9.33398 3.33301 -8.00098 10l76 624c0 2.66699 -1 4 -3 4h-153
c-2.66699 0 -4.83398 1 -6.50098 3s-2.16699 4.33301 -1.5 7l5 42c1.33301 6.66699 5 10 11 10h387c6 0 9 -3.33301 9 -10z" />
    <glyph glyph-name="U" unicode="U" horiz-adv-x="545" 
d="M124 39.5c-31.333 31.667 -47 74.167 -47 127.5c0 7.33301 0.666992 18.333 2 33l60 490c1.33301 6.66699 5 10 11 10h49c3.33301 0 5.83301 -1 7.5 -3s2.16699 -4.33301 1.5 -7l-61 -494c-0.666992 -5.33301 -1 -13 -1 -23c0 -36 10.167 -64.833 30.5 -86.5
s48.166 -32.5 83.499 -32.5c38.667 0 71.667 13 99 39s43.333 60.333 48 103l61 494c1.33301 6.66699 5 10 11 10h49c6 0 9 -3.33301 9 -10l-60 -490c-8 -62.667 -32.667 -113 -74 -151s-91.666 -57 -150.999 -57c-54 0 -96.667 15.833 -128 47.5z" />
    <glyph glyph-name="V" unicode="V" horiz-adv-x="499" 
d="M193 9l-93.0029 680v2c0 6 3.33301 9 10 9h53c6 0 9 -3 9 -9l72 -572c0 -1.33301 0.333008 -2 1 -2s1.33398 0.666992 2.00098 2l212 572c2 6 6 9 12 9h50c3.33301 0 5.83301 -1 7.5 -3s1.83398 -4.66699 0.500977 -8l-260 -680c-2.66699 -6 -6.66699 -9 -12 -9h-54
c-5.33301 0 -8.66602 3 -9.99902 9z" />
    <glyph glyph-name="W" unicode="W" horiz-adv-x="728" 
d="M169 2.5c-2 1.66699 -3.00098 3.83203 -3.00098 6.49902l-73 680v2c0 2.66699 0.833008 4.83398 2.5 6.50098s3.83398 2.5 6.50098 2.5h53c6 0 9 -3 9 -9l53 -537c0 -2 0.666992 -3 2 -3s2.33301 1 3 3l173 537c2 6 6 9 12 9h49c6 0 9 -3 9 -9l46 -537
c0 -2 0.5 -3 1.5 -3s1.83301 1 2.5 3l181 537c2 6 6 9 12 9h50c6 0 8.33301 -3.66699 7 -11l-235 -680c-2.66699 -6 -6.66699 -9 -12 -9h-49c-6.66699 0 -10 3 -10 9l-44 545c0 2 -0.333008 3 -1 3s-1.66699 -1 -3 -3l-176 -545c-2 -6 -6 -9 -12 -9h-47
c-2.66699 -0 -5 0.833008 -7 2.5z" />
    <glyph glyph-name="X" unicode="X" horiz-adv-x="496" 
d="M18.5 3.5c-1 2.33301 -0.500977 5.16602 1.49902 8.49902l212 335c1.33301 2 1.33301 4 0 6l-129 335l-1 4c0 5.33301 3 8 9 8h54c6 0 9.33301 -2.33301 10 -7l102 -277c0.666992 -1.33301 1.66699 -2 3 -2s2.33301 0.666992 3 2l170 277c2 4.66699 6 7 12 7h54
c3.33301 0 5.5 -1.16699 6.5 -3.5s0.5 -5.16602 -1.5 -8.49902l-213 -336c-1.33301 -2.66699 -1.66602 -4.66699 -0.999023 -6l131 -334l1 -4c0 -5.33301 -3 -8 -9 -8h-54c-5.33301 -0 -9 2.33301 -11 7l-101 276c-0.666992 1.33301 -1.66699 2 -3 2
s-2.33301 -0.666992 -3 -2l-170 -276c-2 -4.66699 -6 -7 -12 -7h-54c-3.33301 0 -5.5 1.16699 -6.5 3.5z" />
    <glyph glyph-name="Y" unicode="Y" horiz-adv-x="481" 
d="M188 11l36.0029 297.999c0 0.666992 0.166992 1.5 0.5 2.5s0.166016 1.83301 -0.500977 2.5l-122 374l-1 3c0 6 3.33301 9 10 9h53c5.33301 0 8.33301 -2.66699 9 -8l94 -299c0 -1.33301 0.666992 -2 2 -2s2.33301 0.666992 3 2l167 299c2.66699 5.33301 6.66699 8 12 8
h52c3.33301 0 5.66602 -1.16699 6.99902 -3.5s1 -5.16602 -1 -8.49902l-214 -374c-1.33301 -1.33301 -2 -3 -2 -5l-37 -298c0 -2.66699 -1 -5 -3 -7s-4.33301 -3 -7 -3h-50c-6.66699 0 -9.33398 3.33301 -8.00098 10z" />
    <glyph glyph-name="Z" unicode="Z" horiz-adv-x="458" 
d="M20 10l5 47c1.33301 5.33301 3 9.66602 5 12.999l364 563c0.666992 1.33301 1 2.5 1 3.5s-0.666992 1.5 -2 1.5h-287c-2.66699 0 -4.83398 1 -6.50098 3s-2.16699 4.33301 -1.5 7l5 42c1.33301 6.66699 5 10 11 10h356c6 0 9 -3.33301 9 -10l-6 -47
c-1.33301 -5.33301 -3 -9.66602 -5 -12.999l-364 -563c-1.33301 -3.33301 -0.666016 -5 2.00098 -5h286c6.66699 0 9.33398 -3.33301 8.00098 -10l-5 -42c-1.33301 -6.66699 -5 -10 -11 -10h-356c-6.66699 -0 -9.33398 3.33301 -8.00098 10z" />
    <glyph glyph-name="bracketleft" unicode="[" horiz-adv-x="331" 
d="M-3.5 -118c-1.66699 2 -2.16797 4.33301 -1.50098 7l108 875c0 2.66699 1 5 3 7s4.33301 3 7 3h169c6 0 9 -3.33301 9 -10l-5 -42c-0.666992 -2.66699 -2 -5 -4 -7s-4.33301 -3 -7 -3h-106c-2.66699 0 -4 -1.33301 -4 -4l-94 -763c0 -2.66699 1 -4 3 -4h107
c6.66699 0 9.33398 -3.33301 8.00098 -10l-5 -42c0 -2.66699 -1 -5 -3 -7s-4.66699 -3 -8 -3h-169c-3.33301 0 -5.83301 1 -7.5 3z" />
    <glyph glyph-name="backslash" unicode="\" horiz-adv-x="356" 
d="M311 9c0 -2.66699 -1 -4.83301 -3 -6.5s-4.33301 -2.5 -7 -2.5h-49c-4.66699 0 -7.66699 2.66699 -9 8l-113 681v2c0 6 3.33301 9 10 9h49c4.66699 0 7.66699 -2.66699 9 -8l113 -681v-2z" />
    <glyph glyph-name="bracketright" unicode="]" horiz-adv-x="331" 
d="M259 -121h-170c-6 0 -9 3.33301 -9 10l6 42c0 2.66699 1 5 3 7s4.66699 3 8 3h106c2 0 3.66699 1.33301 5 4l93 763c0.666992 0.666992 0.666992 1.5 0 2.5s-1.66699 1.5 -3 1.5h-106c-6.66699 0 -9.33398 3.33301 -8.00098 10l5 42c1.33301 6.66699 5 10 11 10h169
c2.66699 0 4.83398 -1 6.50098 -3s2.16699 -4.33301 1.5 -7l-107 -875c-1.33301 -6.66699 -5 -10 -11 -10z" />
    <glyph glyph-name="asciicircum" unicode="^" horiz-adv-x="410" 
d="M58 318l179 374c2.66699 5.33301 7 8 13 8h44c5.33301 0 8.33301 -2.66699 9 -8l89 -373v-3c0 -6 -3 -9 -9 -9h-41c-6 0 -9.33301 2.66699 -10 8l-67 306c0 1.33301 -0.666992 2 -2 2s-2.33301 -0.666992 -3 -2l-143 -306c-2 -5.33301 -6 -8 -12 -8h-40
c-6.66699 0 -9 3.66699 -7 11z" />
    <glyph glyph-name="underscore" unicode="_" horiz-adv-x="417" 
d="M8.5 3c-1.66699 2 -2.16797 4.33301 -1.50098 7l5 37c0 2.66699 1 5 3 7s4.66699 3 8 3h348c6.66699 0 9.33398 -3.33301 8.00098 -10l-4 -37c-1.33301 -6.66699 -5 -10 -11 -10h-348c-3.33301 0 -5.83301 1 -7.5 3z" />
    <glyph glyph-name="grave" unicode="`" horiz-adv-x="182" 
d="M203 579c0 -4.66699 -3 -7 -9 -7h-33c-4 0 -7.66699 2.33301 -11 7l-52 109c-0.666992 1.33301 -1 3.33301 -1 6c0 4 2.66699 6 8 6h42c6 0 9.33301 -2.33301 10 -7l45 -109c0.666992 -1.33301 1 -3 1 -5z" />
    <glyph glyph-name="a" unicode="a" horiz-adv-x="469" 
d="M385 506h49.999c2.66699 0 4.83398 -1 6.50098 -3s2.16699 -4.33301 1.5 -7l-60 -486c0 -2.66699 -1 -5 -3 -7s-4.66699 -3 -8 -3h-49c-6.66699 -0 -9.33398 3.33301 -8.00098 10l5 48c0.666992 2 0.333984 3.16699 -0.999023 3.5s-2.33301 -0.5 -3 -2.5
c-14.667 -21.333 -32.667 -37.833 -54 -49.5s-45 -17.5 -71 -17.5c-41.333 0 -74 13 -98 39s-36 60.667 -36 104c0 20 3.33301 59.333 10 118c6 54 12.333 93.333 19 118c10 42.667 30.333 77.167 61 103.5s67 39.5 109 39.5c26 0 48 -5.83301 66 -17.5
s31.667 -28.5 41 -50.5c0.666992 -2 1.66699 -2.83301 3 -2.5s2 1.5 2 3.5l6 49c1.33301 6.66699 5 10 11 10zM343.999 252c6 48 9.00098 84.333 9.00098 109c0 26.667 -7.83301 48.5 -23.5 65.5s-36.5 25.5 -62.5 25.5c-28 0 -52.5 -9 -73.5 -27s-34.5 -41 -40.5 -69
c-6 -26 -11.333 -60.333 -16 -103c-6 -47.333 -9 -83 -9 -107c0 -27.333 8.16699 -49.5 24.5 -66.5s38.166 -25.5 65.499 -25.5s51 9 71 27s33 41 39 69c6 25.333 11.333 59.333 16 102z" />
    <glyph glyph-name="b" unicode="b" horiz-adv-x="470" 
d="M429 248c-4.66699 -39.333 -13.666 -77.999 -26.999 -115.999c-17.333 -48.667 -39.5 -84.167 -66.5 -106.5s-60.833 -33.5 -101.5 -33.5c-50.667 0 -85.667 19 -105 57c-0.666992 2 -1.5 2.83301 -2.5 2.5s-1.83301 -1.5 -2.5 -3.5l-4 -38
c-0.666992 -2.66699 -2 -5 -4 -7s-4.33301 -3 -7 -3h-50c-6.66699 0 -9.33398 3.33301 -8.00098 10l83 680c1.33301 6.66699 5 10 11 10h50c2.66699 0 4.83398 -1 6.50098 -3s2.16699 -4.33301 1.5 -7l-28 -232c-0.666992 -2 -0.333984 -3.16699 0.999023 -3.5
s2.33301 0.5 3 2.5c24.667 37.333 62.667 56 114 56c47.333 0 82.833 -13.833 106.5 -41.5s35.5 -70.834 35.5 -129.501c0 -26.667 -2 -58 -6 -94zM360.001 253.001c2.66699 21.333 4.00293 43.665 4.00293 66.998c0 24.667 -2 46 -6 64
c-12.667 45.333 -40.334 68 -83.001 68c-22 0 -40.167 -5.83301 -54.5 -17.5s-26.833 -29.167 -37.5 -52.5c-15.333 -31.333 -26.333 -74.333 -33 -129c-3.33301 -30 -5 -54.667 -5 -74c0 -21.333 1.33301 -38.666 4 -51.999c4.66699 -24 13.167 -42.333 25.5 -55
s30.166 -19 53.499 -19c24 0 44.167 6.33301 60.5 19s30.166 31.334 41.499 56.001c13.333 29.333 23.333 71 30 125z" />
    <glyph glyph-name="c" unicode="c" horiz-adv-x="447" 
d="M100.5 31.5c-27 26.333 -40.8301 61.8311 -41.4971 106.498c0 32.667 2.66699 71.334 8 116.001c4 32.667 10.667 71 20 115c11.333 43.333 34 78.333 68 105s74.333 40 121 40c45.333 0 82 -12.5 110 -37.5s42.667 -56.833 44 -95.5v-21c0 -3.33301 -1 -6 -3 -8
s-4.33301 -3 -7 -3l-50 -3c-6 0 -9 3 -9 9v12c0 23.333 -8.5 43.333 -25.5 60s-39.5 25 -67.5 25c-28.667 0 -53.334 -9 -74.001 -27s-34.334 -41.333 -41.001 -70c-6 -26.667 -11.667 -60.667 -17 -102c-5.33301 -44.667 -8 -79 -8 -103c0 -29.333 8 -52.666 24 -69.999
s38.333 -26 67 -26s53.5 8.33301 74.5 25s34.167 37 39.5 61c1.33301 4 2 6.66699 2 8c2 7.33301 6 10.333 12 9l48 -4c5.33301 -1.33301 8 -4.33301 8 -9l-1 -4l-3 -12c-9.33301 -39.333 -31.333 -71.833 -66 -97.5s-75.334 -38.5 -122.001 -38.5s-83.5 13.167 -110.5 39.5
z" />
    <glyph glyph-name="d" unicode="d" horiz-adv-x="470" 
d="M409 700l49.001 -0.000976562c3.33301 0 5.83301 -1 7.5 -3s2.16699 -4.33301 1.5 -7l-84 -680c0 -2.66699 -1 -5 -3 -7s-4.66699 -3 -8 -3h-49c-6.66699 0 -9.33398 3.33301 -8.00098 10l4 40c0.666992 2 0.5 3 -0.5 3s-2.16699 -0.666992 -3.5 -2
c-28.667 -39.333 -68.667 -59 -120 -59c-40.667 0 -71.834 11.167 -93.501 33.5s-35.167 57.833 -40.5 106.5c-2 18 -3 35 -3 51c0 16.667 1.33301 38.334 4 65.001c6.66699 48 15.334 87.667 26.001 119c16 50 38.333 86.833 67 110.5s65 35.5 109 35.5
c27.333 0 48.833 -4.83301 64.5 -14.5s27.5 -24.167 35.5 -43.5c0.666992 -2 1.66699 -2.83301 3 -2.5s2 1.5 2 3.5l29 234c1.33301 6.66699 5 10 11 10zM342.001 252.999c3.33301 30 5 55.668 5 77.001c0 20.667 -1.33301 38 -4 52c-5.33301 22.667 -13.833 40 -25.5 52
s-28.5 18 -50.5 18c-42.667 0 -76 -22.667 -100 -68c-16.667 -35.333 -28 -79 -34 -131c-3.33301 -28.667 -5 -53 -5 -73c0 -22 1.66699 -39.333 5 -52c5.33301 -24.667 14.5 -43.334 27.5 -56.001s31.833 -19 56.5 -19c22.667 0 41.5 6.33301 56.5 19s27.833 31 38.5 55
c13.333 29.333 23.333 71.333 30 126z" />
    <glyph glyph-name="e" unicode="e" horiz-adv-x="456" 
d="M287 73.5c19.333 13 34.333 30.5 45 52.5c2 6 6 8.33301 12 7l44 -9c2.66699 -0.666992 4.5 -2.16699 5.5 -4.5s0.833008 -4.83301 -0.5 -7.5c-15.333 -37.333 -39 -66.666 -71 -87.999s-68.667 -32 -110 -32c-49.333 0 -87.166 13.667 -113.499 41
s-39.5 64.333 -39.5 111c0 24.667 3 61 9 109c4 43.333 10 80.666 18 111.999c10.667 44.667 33 80.667 67 108s74.333 41 121 41c48 0 85.667 -14 113 -42s41 -65 41 -111c0 -12 -1 -27.5 -3 -46.5s-3.33301 -32.833 -4 -41.5
c-2.66699 -17.333 -4.33398 -30.666 -5.00098 -39.999c-1.33301 -6.66699 -5 -10 -11 -10h-268c-2.66699 0 -4 -1.33301 -4 -4c-2 -10.667 -3.66699 -27 -5 -49l-2 -20c0 -28.667 8.5 -51.834 25.5 -69.501s40.167 -26.5 69.5 -26.5c24.667 0 46.667 6.5 66 19.5zM193 425.5
c-20.667 -17.667 -34.666 -40.834 -41.999 -69.501l-3 -21l-7 -49c-0.666992 -2.66699 0.333008 -4 3 -4h205c2.66699 0 4 1.33301 4 4c3.33301 28.667 5 52.334 5 71.001c0 28 -8.16699 50.833 -24.5 68.5s-38.5 26.5 -66.5 26.5c-28.667 0 -53.334 -8.83301 -74.001 -26.5
z" />
    <glyph glyph-name="f" unicode="f" horiz-adv-x="307" 
d="M237.5 617c-13.667 -16.667 -22.833 -43.999 -27.5 -81.999l-3 -25c0 -2.66699 1.33301 -4 4 -4h91c6.66699 0 9.33398 -3.33301 8.00098 -10l-5 -39c0 -2.66699 -1 -5 -3 -7s-4.66699 -3 -8 -3h-91c-2.66699 0 -4 -1.33301 -4 -4l-53 -433
c-1.33301 -6.66699 -5 -10 -11 -10h-50c-2.66699 0 -4.83398 1 -6.50098 3s-2.16699 4.33301 -1.5 7l53 433c0 2.66699 -1 4 -3 4h-52c-6.66699 0 -9.33398 3.33301 -8.00098 10l5 39c0 2.66699 1 5 3 7s4.33301 3 7 3h52c2.66699 0 4 1.33301 4 4l4 28
c7.33301 59.333 23.333 101.666 48 126.999s63.667 38 117 38h21c6.66699 0 9.33398 -3.33301 8.00098 -10l-5 -41c0 -2.66699 -1 -5 -3 -7s-4.66699 -3 -8 -3h-17c-30 0 -51.833 -8.33301 -65.5 -25z" />
    <glyph glyph-name="g" unicode="g" horiz-adv-x="460" 
d="M384 506l50 -0.00195312c2.66699 0 4.83398 -1 6.50098 -3s2.16699 -4.33301 1.5 -7l-59 -482c-18.667 -150.667 -107.334 -222.334 -266.001 -215.001c-6 0.666992 -8.66699 4.33398 -8 11.001l6 45c1.33301 7.33301 5 10.333 11 9c60 -2 104.667 9.5 134 34.5
s47.666 64.833 54.999 119.5l4 33c0 1.33301 -0.5 2.33301 -1.5 3s-2.16699 0.333984 -3.5 -0.999023c-30 -37.333 -69.667 -56 -119 -56c-41.333 0 -74.5 12.667 -99.5 38s-37.833 60.333 -38.5 105c0 30.667 2.66699 68.334 8 113.001s12.333 84 21 118
c10.667 43.333 31.334 78 62.001 104s66.667 39 108 39c24.667 0 46.167 -4.66699 64.5 -14s32.833 -23 43.5 -41c2 -3.33301 3.66699 -3 5 1l4 36c1.33301 6.66699 5 10 11 10zM344 253.998l5.00195 44.501c2.66699 23.667 4 44.5 4 62.5
c0 26.667 -7.83301 48.5 -23.5 65.5s-36.834 25.5 -63.501 25.5c-27.333 0 -51.333 -9 -72 -27s-35 -41 -43 -69c-6 -27.333 -11.333 -61.333 -16 -102c-4 -28.667 -6.66699 -62 -8 -100c0 -28 8.16699 -51 24.5 -69s38.5 -27 66.5 -27s52 9 72 27s32.667 41 38 69
c5.33301 29.333 10.666 62.666 15.999 99.999z" />
    <glyph glyph-name="h" unicode="h" horiz-adv-x="467" 
d="M396.5 477c22.333 -24 33.5 -57.333 33.5 -100c0 -6.66699 -0.666992 -16.667 -2 -30l-42 -337c0 -2.66699 -1 -5 -3 -7s-4.66699 -3 -8 -3h-49c-6 -0 -9 3.33301 -9 10l41 327c0.666992 4.66699 1 11.667 1 21c0 28.667 -7.5 51.334 -22.5 68.001s-35.833 25 -62.5 25
c-30.667 0 -56.5 -10.5 -77.5 -31.5s-33.5 -49.167 -37.5 -84.5l-40 -325c-0.666992 -2.66699 -2 -5 -4 -7s-4.33301 -3 -7 -3h-50c-6.66699 0 -9.33398 3.33301 -8.00098 10l83 680c1.33301 6.66699 5 10 11 10h50c2.66699 0 4.83398 -1 6.50098 -3
s2.16699 -4.33301 1.5 -7l-29 -233c0 -1.33301 0.5 -2.33301 1.5 -3s2.16699 -0.333984 3.5 0.999023c30 38.667 71.333 58 124 58c40.667 0 72.167 -12 94.5 -36z" />
    <glyph glyph-name="i" unicode="i" horiz-adv-x="225" 
d="M131.5 611.5c-9 9 -13.5 20.501 -13.5 34.501c0 18 6 33.167 18 45.5s26.667 18.5 44 18.5c14 0 25.5 -4.33301 34.5 -13s13.5 -20.334 13.5 -35.001c0 -18 -5.83301 -33.167 -17.5 -45.5s-26.167 -18.5 -43.5 -18.5c-14.667 0 -26.5 4.5 -35.5 13.5zM58 10.001
l59.999 486c1.33301 6.66699 5 10 11 10h50c2.66699 0 4.83398 -1 6.50098 -3s2.16699 -4.33301 1.5 -7l-60 -486c0 -2.66699 -1 -5 -3 -7s-4.66699 -3 -8 -3h-49c-6 0 -9 3.33301 -9 10z" />
    <glyph glyph-name="j" unicode="j" horiz-adv-x="216" 
d="M123.5 611.5c-9 9 -13.5 20.501 -13.5 34.501c0 18 6.16699 33.167 18.5 45.5s26.833 18.5 43.5 18.5c14 0 25.5 -4.33301 34.5 -13s13.5 -20.334 13.5 -35.001c0 -18 -6 -33.167 -18 -45.5s-26.667 -18.5 -44 -18.5c-14 0 -25.5 4.5 -34.5 13.5zM-75 -197.999
l4.99902 42c0.666992 2.66699 2 5 4 7s4.66699 3 8 3c60 0.666992 94.333 34.667 103 102l65 540c1.33301 6.66699 5 10 11 10h50c6.66699 0 9.33398 -3.33301 8.00098 -10l-66 -540c-6.66699 -56 -23.667 -97.333 -51 -124s-70 -40 -128 -40c-6 0 -9 3.33301 -9 10z" />
    <glyph glyph-name="k" unicode="k" horiz-adv-x="439" 
d="M50 10l82.999 680.001c1.33301 6.66699 5 10 11 10h50c2.66699 0 4.83398 -1 6.50098 -3s2.16699 -4.33301 1.5 -7l-50 -406c0 -1.33301 0.666992 -2.33301 2 -3s2.33301 -0.333984 3 0.999023l202 218c4 4 8.33301 6 13 6h55c4 0 6.33301 -1.16699 7 -3.5
s-0.333008 -5.16602 -3 -8.49902l-128 -142c-1.33301 -2 -1.66602 -3.66699 -0.999023 -5l89 -335l1 -3c0 -6 -3.33301 -9 -10 -9h-51c-6 0 -9.33301 2.66699 -10 8l-71 286c0 1.33301 -0.666992 2.16602 -2 2.49902s-2.33301 -0.166992 -3 -1.5l-103 -111l-3 -5l-20 -169
c-0.666992 -2.66699 -2 -5 -4 -7s-4.33301 -3 -7 -3h-50c-6.66699 -0 -9.33398 3.33301 -8.00098 10z" />
    <glyph glyph-name="l" unicode="l" horiz-adv-x="200" 
d="M47 10l83 680c1.33301 6.66699 5 10 11 10h50c6.66699 0 9.33398 -3.33301 8.00098 -10l-83 -680c-1.33301 -6.66699 -5 -10 -11 -10h-50c-6.66699 -0 -9.33398 3.33301 -8.00098 10z" />
    <glyph glyph-name="m" unicode="m" horiz-adv-x="715" 
d="M646 477.5c21.333 -23.667 32.001 -56.501 32.001 -98.501c0 -6 -0.666992 -17 -2 -33l-41 -336c-1.33301 -6.66699 -5 -10 -11 -10h-49c-6.66699 0 -9.33398 3.33301 -8.00098 10l40 326c0.666992 5.33301 1 13 1 23c0 28.667 -7.16699 51.167 -21.5 67.5
s-33.833 24.5 -58.5 24.5c-29.333 0 -54.166 -10.167 -74.499 -30.5s-32.5 -47.833 -36.5 -82.5l-40 -328c-1.33301 -6.66699 -5 -10 -11 -10h-50c-6.66699 0 -9.33398 3.33301 -8.00098 10l40 326c0.666992 5.33301 1 13 1 23c0 28.667 -7.16699 51.167 -21.5 67.5
s-33.833 24.5 -58.5 24.5c-29.333 0 -54 -10.167 -74 -30.5s-32 -47.833 -36 -82.5l-40 -328c-0.666992 -2.66699 -2 -5 -4 -7s-4.33301 -3 -7 -3h-50c-6.66699 0 -9.33398 3.33301 -8.00098 10l59 486c0.666992 2.66699 2 5 4 7s4.33301 3 7 3h50
c6.66699 0 9.33398 -3.33301 8.00098 -10l-4 -35c0 -3.33301 1.33301 -3.66602 4 -0.999023c15.333 18 33.5 31.333 54.5 40s43.167 13 66.5 13c28.667 0 52.667 -6.66699 72 -20s33.333 -32 42 -56c0 -1.33301 0.5 -2 1.5 -2s1.83301 0.666992 2.5 2
c16 26 36.333 45.167 61 57.5s51 18.5 79 18.5c38 0 67.667 -11.833 89 -35.5z" />
    <glyph glyph-name="n" unicode="n" horiz-adv-x="467" 
d="M396.5 477c22.333 -24 33.5 -57.333 33.5 -100c0 -6.66699 -0.666992 -16.667 -2 -30l-42 -337c0 -2.66699 -1 -5 -3 -7s-4.66699 -3 -8 -3h-49c-6 -0 -9 3.33301 -9 10l41 327c0.666992 4.66699 1 11.667 1 21c0 28.667 -7.5 51.334 -22.5 68.001s-35.833 25 -62.5 25
c-30.667 0 -56.5 -10.5 -77.5 -31.5s-33.5 -49.167 -37.5 -84.5l-40 -325c-0.666992 -2.66699 -2 -5 -4 -7s-4.33301 -3 -7 -3h-50c-6.66699 0 -9.33398 3.33301 -8.00098 10l59 486c0.666992 2.66699 2 5 4 7s4.33301 3 7 3h50c6.66699 0 9.33398 -3.33301 8.00098 -10
l-5 -39c0 -1.33301 0.5 -2.33301 1.5 -3s2.16699 -0.333984 3.5 0.999023c30 38.667 71.333 58 124 58c40.667 0 72.167 -12 94.5 -36z" />
    <glyph glyph-name="o" unicode="o" horiz-adv-x="466" 
d="M100.5 31.5c-27 26.333 -40.833 61.834 -41.5 106.501c0 33.333 2.66699 72 8 116s12 82 20 114c11.333 44 34 79.333 68 106s74.667 40 122 40c46.667 0 83.667 -13.333 111 -40s41.333 -62 42 -106c0.666992 -26.667 -2 -64.667 -8 -114
c-6 -50.667 -12.667 -89.334 -20 -116.001c-11.333 -44 -34 -79.333 -68 -106s-74.667 -40 -122 -40s-84.5 13.167 -111.5 39.5zM294 80.501c21.333 17.667 35.666 41.167 42.999 70.5c4.66699 20.667 10 54.667 16 102c4.66699 39.333 7.66699 73.333 9 102
c0 29.333 -8.33301 52.833 -25 70.5s-39.334 26.5 -68.001 26.5c-28 0 -52.667 -8.83301 -74 -26.5s-35.666 -41.167 -42.999 -70.5c-4.66699 -20.667 -10 -54.667 -16 -102c-4.66699 -39.333 -7.66699 -73.333 -9 -102c0 -29.333 8.33301 -52.833 25 -70.5
s39.334 -26.5 68.001 -26.5c28 0 52.667 8.83301 74 26.5z" />
    <glyph glyph-name="p" unicode="p" horiz-adv-x="475" 
d="M440 327c0 -16.667 -1.33496 -39.668 -4.00195 -69.001c-4.66699 -43.333 -12.667 -83 -24 -119c-16.667 -50 -39.5 -86.833 -68.5 -110.5s-65.167 -35.5 -108.5 -35.5c-50.667 0 -84 18.333 -100 55c-0.666992 2 -1.66699 2.83301 -3 2.5s-2 -1.5 -2 -3.5l-28 -231
c-0.666992 -2.66699 -2 -5 -4 -7s-4.33301 -3 -7 -3h-50c-6.66699 0 -9.33398 3.33301 -8.00098 10l83 680c1.33301 6.66699 5 10 11 10h50c2.66699 0 4.83398 -1 6.50098 -3s2.16699 -4.33301 1.5 -7l-5 -38c0 -2 0.666992 -3.16699 2 -3.5s2.33301 0.5 3 2.5
c28.667 38 68.334 57 119.001 57c40.667 0 71.834 -11.167 93.501 -33.5s35.167 -58.166 40.5 -107.499c1.33301 -10.667 2 -26 2 -46zM365.998 252.999c3.33301 28.667 4.99805 53 4.99805 73c0 21.333 -1.33301 38.666 -4 51.999c-6 24.667 -15.5 43.334 -28.5 56.001
s-31.5 19 -55.5 19c-23.333 0 -42.666 -6.33301 -57.999 -19s-28.333 -31 -39 -55c-13.333 -29.333 -23.333 -71.333 -30 -126c-3.33301 -26.667 -5 -50 -5 -70c0 -21.333 2 -41 6 -59c4.66699 -22.667 12.834 -40 24.501 -52s28.5 -18 50.5 -18
c43.333 0 76.333 22.333 99 67c16 32.667 27.667 76.667 35 132z" />
    <glyph glyph-name="q" unicode="q" horiz-adv-x="475" 
d="M385 506l49.9951 0.000976562c2.66699 0 4.83398 -1 6.50098 -3s2.16699 -4.33301 1.5 -7l-83 -680c-0.666992 -2.66699 -2 -5 -4 -7s-4.33301 -3 -7 -3h-50c-6.66699 0 -9.33398 3.33301 -8.00098 10l28 234c0.666992 2 0.333984 3.16699 -0.999023 3.5
s-2.33301 -0.5 -3 -2.5c-12.667 -19.333 -28.167 -33.833 -46.5 -43.5s-41.166 -14.5 -68.499 -14.5c-43.333 0 -76.666 11.833 -99.999 35.5s-36.666 60.5 -39.999 110.5c-1.33301 16 -2 28.667 -2 38c0 22 2 49 6 81c4.66699 38.667 13.334 77 26.001 115
c18 49.333 40.5 85.166 67.5 107.499s60.833 33.5 101.5 33.5c52 0 87 -19.667 105 -59c1.33301 -1.33301 2.5 -2 3.5 -2s1.5 1 1.5 3l5 40c1.33301 6.66699 5 10 11 10zM341.995 253.001c3.33301 30 4.99902 55.334 4.99902 76.001c0 20 -1.33301 36.667 -4 50
c-4.66699 24 -13 42.333 -25 55s-29.333 19 -52 19c-24.667 0 -45 -6.33301 -61 -19s-29.667 -31.334 -41 -56.001c-14 -28.667 -24.333 -70.334 -31 -125.001c-2.66699 -21.333 -4 -44 -4 -68c0 -23.333 2 -44.666 6 -63.999c13.333 -44.667 41 -67 83 -67
c22 0 40.333 6 55 18s27.334 29.333 38.001 52c14 30 24.333 73 31 129z" />
    <glyph glyph-name="r" unicode="r" horiz-adv-x="319" 
d="M342 499c4.66699 -2 5.6709 -5.99902 3.00391 -11.999l-18 -52c-2 -6.66699 -6 -8.66699 -12 -6c-10.667 4.66699 -22 7 -34 7l-11 -1c-28.667 -0.666992 -53.834 -13.167 -75.501 -37.5s-34.834 -54.5 -39.501 -90.5l-36 -297c-0.666992 -2.66699 -2 -5 -4 -7
s-4.33301 -3 -7 -3h-50c-6.66699 0 -9.33398 3.33301 -8.00098 10l59 486c0.666992 2.66699 2 5 4 7s4.33301 3 7 3h50c6.66699 0 9.33398 -3.33301 8.00098 -10l-8 -65c0 -2 0.5 -3 1.5 -3s2.16699 0.666992 3.5 2c13.333 25.333 30.166 45.166 50.499 59.499
s43.166 21.5 68.499 21.5c19.333 0 35.333 -4 48 -12z" />
    <glyph glyph-name="s" unicode="s" horiz-adv-x="415" 
d="M82.5 27c-27 21.333 -40.5 49.332 -40.5 83.999c0 6.66699 0.333008 12 1 16l1 9c1.33301 6.66699 5 10 11 10h47c3.33301 0 5.83301 -1 7.5 -3s2.16699 -4.33301 1.5 -7l-1 -7c-2.66699 -21.333 4.33301 -39.833 21 -55.5s39.334 -23.5 68.001 -23.5
c30.667 0 56 8.66699 76 26s30 39 30 65c0 20.667 -8 36.334 -24 47.001s-41 22.334 -75 35.001c-40.667 14.667 -72.5 31.167 -95.5 49.5s-34.5 45.166 -34.5 80.499c0 48 16.5 86.333 49.5 115s75.5 43 127.5 43c45.333 0 81 -11 107 -33s39 -51.333 39 -88
c0 -8 -0.333008 -14 -1 -18v-2c-0.666992 -2.66699 -2 -5 -4 -7s-4.33301 -3 -7 -3h-45c-6.66699 0 -9.33398 3.33301 -8.00098 10v4c2.66699 22.667 -4 41.5 -20 56.5s-38.667 22.5 -68 22.5c-30.667 0 -55.667 -8 -75 -24s-29 -36.667 -29 -62
c0 -20 7.83301 -35.5 23.5 -46.5s40.167 -22.833 73.5 -35.5c27.333 -9.33301 50.333 -18.833 69 -28.5s34.5 -23 47.5 -40s19.5 -38.5 19.5 -64.5c0 -7.33301 -0.333008 -13 -1 -17c-5.33301 -42.667 -24.5 -76.667 -57.5 -102s-74.5 -38 -124.5 -38
c-46 0 -82.5 10.667 -109.5 32z" />
    <glyph glyph-name="t" unicode="t" horiz-adv-x="306" 
d="M291 450l-92.002 0.000976562c-2 0 -3.66699 -1.33301 -5 -4l-36 -300c-1.33301 -10.667 -2 -18.334 -2 -23.001c0 -22.667 5.5 -38.5 16.5 -47.5s27.833 -13.5 50.5 -13.5h16c3.33301 0 5.83301 -1 7.5 -3s2.16699 -4.33301 1.5 -7l-5 -42
c-1.33301 -6.66699 -5 -10 -11 -10l-30 -1c-38 0 -66.833 6.83301 -86.5 20.5s-29.5 38.5 -29.5 74.5c0 5.33301 0.666992 15.333 2 30l40 322c0 2.66699 -1.33301 4 -4 4h-48c-3.33301 0 -5.83301 1 -7.5 3s-2.16699 4.33301 -1.5 7l5 36c0 2.66699 1 5 3 7s4.33301 3 7 3
h49c2.66699 0 4 1.33301 4 4l14 114c1.33301 6.66699 5 10 11 10h48c6.66699 0 9.33398 -3.33301 8.00098 -10l-14 -114c0 -2.66699 1.33301 -4 4 -4h92c6.66699 0 9.33398 -3.33301 8.00098 -10l-4 -36c-1.33301 -6.66699 -5 -10 -11 -10z" />
    <glyph glyph-name="u" unicode="u" horiz-adv-x="466" 
d="M381 506l49.9971 0.00195312c6.66699 0 9.33398 -3.33301 8.00098 -10l-59 -486c-0.666992 -2.66699 -2 -5 -4 -7s-4.33301 -3 -7 -3h-50c-6.66699 0 -9.33398 3.33301 -8.00098 10l4 39c0.666992 2 0.5 3 -0.5 3s-2.16699 -0.666992 -3.5 -2c-28 -38 -68 -57 -120 -57
c-39.333 0 -71.166 11 -95.499 33s-36.5 53.667 -36.5 95c0 5.33301 0.666992 14.666 2 27.999l43 347c0 2.66699 1 5 3 7s4.66699 3 8 3h49c6.66699 0 9.33398 -3.33301 8.00098 -10l-40 -329c-1.33301 -10.667 -2 -18.334 -2 -23.001c0 -28.667 7.33301 -50.667 22 -66
s35.334 -23 62.001 -23c31.333 0 57.5 10.5 78.5 31.5s33.5 49.167 37.5 84.5l40 325c1.33301 6.66699 5 10 11 10z" />
    <glyph glyph-name="v" unicode="v" horiz-adv-x="414" 
d="M150 8l-80 487v3c0 5.33301 3.33301 8 10 8h54c6 0 9 -3 9 -9l55 -390c0.666992 -1.33301 1.5 -2 2.5 -2s1.83301 0.666992 2.5 2l150 390c2.66699 6 6.66699 9 12 9l55 -1c8 0 10.333 -3.66699 7 -11l-199 -486c-3.33301 -5.33301 -7.33301 -8 -12 -8h-56
c-4.66699 0 -8 2.66699 -10 8z" />
    <glyph glyph-name="w" unicode="w" horiz-adv-x="618" 
d="M129 9l-59.002 486l-1 3c0 5.33301 3.33301 8 10 8h48c5.33301 0 8.66602 -3 9.99902 -9l40 -384c0 -2 0.5 -3 1.5 -3s1.83301 1 2.5 3l135 384c2.66699 6 6.66699 9 12 9h45c6 0 9 -3 9 -9l43 -383c0.666992 -2 1.33398 -3 2.00098 -3s1.33398 1 2.00098 3l135 383
c2.66699 6 6.66699 9 12 9l50 -1c3.33301 0 5.5 -1.16699 6.5 -3.5s0.833008 -4.83301 -0.5 -7.5l-181 -485c-2 -6 -6 -9 -12 -9h-50c-5.33301 0 -8.66602 3 -9.99902 9l-42 370c-0.666992 2 -1.5 3 -2.5 3s-1.83301 -1 -2.5 -3l-131 -370c-2.66699 -6 -6.66699 -9 -12 -9
h-50c-6.66699 0 -10 3 -10 9z" />
    <glyph glyph-name="x" unicode="x" horiz-adv-x="414" 
d="M5.5 3.5c-1 2.33301 -0.499023 5.16602 1.50098 8.49902l169 238c1.33301 2.66699 1.66602 4.66699 0.999023 6l-111 238l-1 4c0 5.33301 3.33301 8 10 8h54c4 0 7.66699 -2.33301 11 -7l83 -183c0.666992 -0.666992 1.66699 -1 3 -1s2.33301 0.333008 3 1l127 183
c4.66699 4.66699 9 7 13 7h55c4 0 6.5 -1.16699 7.5 -3.5s0.166992 -5.16602 -2.5 -8.49902l-169 -238c-0.666992 -2 -0.666992 -4 0 -6l110 -238c0.666992 -1.33301 1 -3 1 -5c0 -4.66699 -3 -7 -9 -7h-54c-4 -0 -7.33301 2.33301 -10 7l-83 184
c-0.666992 1.33301 -1.66699 2 -3 2s-2.33301 -0.666992 -3 -2l-129 -184c-3.33301 -4.66699 -7.33301 -7 -12 -7h-55c-4 0 -6.5 1.16699 -7.5 3.5z" />
    <glyph glyph-name="y" unicode="y" horiz-adv-x="402" 
d="M1 -197c-1.33301 2 -1.66602 4.33203 -0.999023 6.99902l5 40c1.33301 6.66699 5 10 11 10h2c22.667 0.666992 40.667 4.66699 54 12s25.5 20.333 36.5 39s23.5 47.334 37.5 86.001c0.666992 1.33301 1 3.33301 1 6l-84 492v2c0 6 3.33301 9 10 9h52
c5.33301 0 8.66602 -3 9.99902 -9l56 -399c0.666992 -1.33301 1.5 -2 2.5 -2s1.83301 0.666992 2.5 2l155 399c2.66699 6 6.66699 9 12 9h51c7.33301 0 10 -3.66699 8 -11l-225 -539c-18.667 -44 -35.5 -76.833 -50.5 -98.5s-32.667 -36.667 -53 -45
s-47.833 -12.5 -82.5 -12.5h-5c-2 0 -3.66699 1 -5 3z" />
    <glyph glyph-name="z" unicode="z" horiz-adv-x="391" 
d="M14 10l5.99902 47.999c0 4 1.66699 8.33301 5 13l283 365c0.666992 0.666992 0.666992 1.66699 0 3s-1.66699 2 -3 2h-225c-2.66699 0 -4.83398 1 -6.50098 3s-2.16699 4.33301 -1.5 7l5 45c1.33301 6.66699 5 10 11 10h302c6.66699 0 9.33398 -3.33301 8.00098 -10
l-5 -48c-1.33301 -5.33301 -3.33301 -9.66602 -6 -12.999l-284 -365c-1.33301 -0.666992 -1.66602 -1.66699 -0.999023 -3s1.66699 -2 3 -2h232c6.66699 0 9.33398 -3.33301 8.00098 -10l-5 -45c-1.33301 -6.66699 -5 -10 -11 -10h-307
c-6.66699 -0 -9.33398 3.33301 -8.00098 10z" />
    <glyph glyph-name="braceleft" unicode="{" horiz-adv-x="279" 
d="M86 -100c-14 14 -21.001 35.3369 -21.001 64.0039c0 6 0.666992 15.667 2 29l27 217c1.33301 13.333 2 22.333 2 27c0 37.333 -14 58.333 -42 63c-5.33301 1.33301 -7.66602 4.66602 -6.99902 9.99902l5 40c0 5.33301 3.33301 8.66602 10 9.99902
c17.333 2.66699 31 11.334 41 26.001s16.667 35.667 20 63l26 212c4.66699 38.667 16.167 67.167 34.5 85.5s44.166 27.5 77.499 27.5h56c6 0 9 -3.33301 9 -10l-6 -42c0 -2.66699 -1 -5 -3 -7s-4.33301 -3 -7 -3h-31c-36.667 0 -58 -24.667 -64 -74l-24 -194
c-3.33301 -30.667 -10 -54.834 -20 -72.501s-23.667 -30.834 -41 -39.501c-3.33301 -1.33301 -3.33301 -3 0 -5c24 -12.667 36 -38.334 36 -77.001c0 -10 -1 -21.667 -3 -35l-24 -199c-1.33301 -10.667 -2 -18 -2 -22c0 -35.333 15.667 -53 47 -53h31
c6.66699 0 9.33398 -3.33301 8.00098 -10l-5 -42c-1.33301 -6.66699 -5 -10 -11 -10h-56c-29.333 0 -51 7 -65 21z" />
    <glyph glyph-name="bar" unicode="|" horiz-adv-x="150" 
d="M13 -70l100 820c0.666992 2.66699 2 5 4 7s4.33301 3 7 3h50c6.66699 0 9.33398 -3.33301 8.00098 -10l-100 -820c-1.33301 -6.66699 -5 -10 -11 -10h-50c-6.66699 0 -9.33398 3.33301 -8.00098 10z" />
    <glyph glyph-name="braceright" unicode="}" horiz-adv-x="279" 
d="M4 -121c-3.33301 0 -5.83203 0.996094 -7.49902 2.99609s-2.16699 4.33301 -1.5 7l5 42c1.33301 6.66699 5 10 11 10h31c36 0 57.333 25 64 75l24 199c4 30.667 10.833 54.834 20.5 72.501s23.167 30.834 40.5 39.501c3.33301 2 3.33301 3.66699 0 5
c-23.333 14 -35 40.333 -35 79c0 6 0.666992 17 2 33l24 194c0.666992 4.66699 1 11.334 1 20.001c0 36 -15.333 54 -46 54h-31c-6 0 -9 3.33301 -9 10l6 42c0 2.66699 1 5 3 7s4.33301 3 7 3h56c29.333 0 51.166 -7 65.499 -21s21.5 -35.333 21.5 -64
c0 -5.33301 -0.666992 -14.666 -2 -27.999l-26 -212c-1.33301 -13.333 -2 -22.333 -2 -27c0 -36.667 13.667 -57.334 41 -62.001c6 -1.33301 8.66699 -4.66602 8 -9.99902l-5 -40c-0.666992 -6 -4 -9.33301 -10 -10c-18 -2.66699 -32 -11.334 -42 -26.001
s-16.667 -36 -20 -64l-26 -217c-5.33301 -39.333 -17 -68.166 -35 -86.499s-44 -27.5 -78 -27.5h-55z" />
    <glyph glyph-name="asciitilde" unicode="~" horiz-adv-x="466" 
d="M284 240c-12.667 5.33301 -27.665 13.667 -44.998 25c-12.667 8.66699 -24.167 15.167 -34.5 19.5s-21.833 6.5 -34.5 6.5c-28.667 0 -54 -12.667 -76 -38c-1.33301 -2 -2.33301 -3.33301 -3 -4c-3.33301 -4.66699 -7 -5.33398 -11 -2.00098l-24 18
c-4.66699 4 -5.66699 8.33301 -3 13c12.667 22.667 29.667 41 51 55s44.333 21 69 21c16 0 30 -2.33301 42 -7s24.333 -11 37 -19c17.333 -11.333 31.666 -19.666 42.999 -24.999s25 -8 41 -8c13.333 0 24.833 3.16699 34.5 9.5s20.5 16.166 32.5 29.499
c4 5.33301 8.66699 6.33301 14 3l26 -20c5.33301 -3.33301 6 -7.66602 2 -12.999c-14.667 -22 -31.667 -39.5 -51 -52.5s-40.333 -19.5 -63 -19.5c-18.667 0 -34.334 2.66699 -47.001 8z" />
    <glyph glyph-name="uni00A0" unicode="&#xa0;" horiz-adv-x="194" 
 />
    <glyph glyph-name="exclamdown" unicode="&#xa1;" horiz-adv-x="277" 
d="M239.5 694.5c9 -9 13.5 -20.501 13.5 -34.501c0 -18 -6 -33.167 -18 -45.5s-26.333 -18.5 -43 -18.5c-14.667 0 -26.5 4.33301 -35.5 13s-13.5 20.334 -13.5 35.001c0 18 6 33.167 18 45.5s26.667 18.5 44 18.5c14 0 25.5 -4.5 34.5 -13.5zM160 482.999h37.999
c6 0 8.66699 -3.33301 8 -10l-49 -451c-1.33301 -6.66699 -5 -10 -11 -10h-49c-3.33301 0 -5.83301 1 -7.5 3s-2.16699 4.33301 -1.5 7l61 451c0.666992 6.66699 4.33398 10 11.001 10z" />
    <glyph glyph-name="cent" unicode="&#xa2;" horiz-adv-x="447" 
d="M346 238c2 7.33301 6.00098 10.3291 12.001 8.99609l48 -4c5.33301 -1.33301 8 -4.33301 8 -9l-1 -4l-3 -12c-8 -35.333 -26.5 -65.333 -55.5 -90s-63.5 -39.667 -103.5 -45c-2 0 -3.66699 -1.33301 -5 -4l-7 -70c-1.33301 -6.66699 -5 -10 -11 -10h-42
c-6.66699 0 -9.33398 3.33301 -8.00098 10l10 72c0.666992 2.66699 -0.333008 4.33398 -3 5.00098c-36 6.66699 -64 22.5 -84 47.5s-30.333 56.5 -31 94.5c0 32.667 2.66699 71.334 8 116.001c6 42 12.667 80.333 20 115c9.33301 37.333 27.333 68.5 54 93.5
s58.334 40.833 95.001 47.5c2.66699 0.666992 4.33398 2.33398 5.00098 5.00098l8 71c0 2.66699 1 5 3 7s4.33301 3 7 3h41c6 0 9 -3.33301 9 -10l-10 -69c0 -2.66699 1 -4 3 -4c38.667 -5.33301 69.5 -20.166 92.5 -44.499s34.833 -53.5 35.5 -87.5v-21v-2
c0 -2.66699 -1 -4.83398 -3 -6.50098s-4.33301 -2.5 -7 -2.5l-50 -3c-6 0 -9 3 -9 9v12c0 23.333 -8.5 43.333 -25.5 60s-39.5 25 -67.5 25c-28.667 0 -53.334 -9 -74.001 -27s-34.334 -41.333 -41.001 -70c-6 -26.667 -11.667 -60.667 -17 -102
c-5.33301 -44.667 -8 -79 -8 -103c0 -29.333 8 -52.666 24 -69.999s38.333 -26 67 -26s53.5 8.33301 74.5 25s34.167 37 39.5 61c1.33301 4 2 6.66699 2 8z" />
    <glyph glyph-name="sterling" unicode="&#xa3;" horiz-adv-x="538" 
d="M180 62h304.001c6.66699 0 9.33398 -3.33301 8.00098 -10l-5 -42c-1.33301 -6.66699 -5 -10 -11 -10h-377c-6 -0 -9 3.33301 -9 10l6 44c0 4.66699 2.66699 8.66699 8 12c15.333 10.667 28.166 26.5 38.499 47.5s17.166 45.5 20.499 73.5l14 117c0 2.66699 -1 4 -3 4h-65
c-3.33301 0 -5.83301 1 -7.5 3s-2.16699 4.33301 -1.5 7l5 39c1.33301 6.66699 5 10 11 10h65c2.66699 0 4 1.33301 4 4l18 141c6.66699 61.333 28.167 109.333 64.5 144s82.166 52 137.499 52c40.667 0 73 -11.333 97 -34s39 -56 45 -100v-2
c0 -5.33301 -3 -8.66602 -9 -9.99902l-47 -8h-3c-4.66699 0 -7 2.33301 -7 7c-4.66699 29.333 -14 50.833 -28 64.5s-33 20.5 -57 20.5c-35.333 0 -63.833 -11.333 -85.5 -34s-34.834 -55.334 -39.501 -98.001l-18 -143c0 -2.66699 1.33301 -4 4 -4h162
c3.33301 0 5.83301 -1 7.5 -3s2.16699 -4.33301 1.5 -7l-5 -39c-1.33301 -6.66699 -5 -10 -11 -10h-163c-2.66699 0 -4 -1.33301 -4 -4l-14 -115c-3.33301 -26.667 -9.66602 -50.5 -18.999 -71.5s-20.666 -37.833 -33.999 -50.5c-2 -3.33301 -1.33301 -5 2 -5z" />
    <glyph glyph-name="currency" unicode="&#xa4;" horiz-adv-x="501" 
d="M445.5 253c-9 -24 -21.5 -45.6689 -37.5 -65.002c-0.666992 -0.666992 -0.833984 -1.83398 -0.500977 -3.50098l0.5 -2.5l56 -64c1.33301 -1.33301 2 -3 2 -5c0 -2.66699 -1.66699 -5.66699 -5 -9l-34 -28c-2 -2 -4 -3 -6 -3c-2.66699 0 -5 1.33301 -7 4l-54 62
c0 0.666992 -0.5 1.16699 -1.5 1.5s-2.16699 0.166016 -3.5 -0.500977c-35.333 -24 -73.666 -36 -114.999 -36c-38.667 0 -72.667 11 -102 33c-2 1.33301 -4 1 -6 -1l-64 -59c-2.66699 -2 -5.33398 -3.16699 -8.00098 -3.5s-4.66699 0.5 -6 2.5l-28 28c-2 2 -3 4 -3 6
c0 2.66699 1.33301 5.33398 4 8.00098l67 60c2 2 2.33301 4 1 6c-16.667 28 -25 59 -25 93c0 51.333 17 97.333 51 138c0.666992 0.666992 0.833984 1.83398 0.500977 3.50098l-0.5 2.5l-56 64c-1.33301 2.66699 -2 4.33398 -2 5.00098c0 2.66699 1.66699 5.66699 5 9l35 28
c2 2 4.33301 2.83301 7 2.5s4.66699 -1.5 6 -3.5l53 -62c0 -0.666992 0.5 -1.16699 1.5 -1.5s2.16699 -0.166016 3.5 0.500977c35.333 24 73.333 36 114 36c43.333 0 80 -13 110 -39c2 -1.33301 4 -1 6 1l71 65c2 2 4.33301 3.16699 7 3.5s5 -0.5 7 -2.5l27 -28
c2 -2 3 -4.33301 3 -7s-1.33301 -5 -4 -7l-75 -68c-1.33301 -1.33301 -2 -3.33301 -2 -6c14 -26 21 -54 21 -84c0 -25.333 -4.5 -50 -13.5 -74zM164 198.998c22 -22.667 49.666 -33.999 82.999 -33.999c26 0 50.667 7 74 21s42 32.667 56 56s21 48.666 21 75.999
c0 34 -11.167 62.5 -33.5 85.5s-50.166 34.5 -83.499 34.5c-25.333 0 -49.5 -7 -72.5 -21s-41.667 -32.833 -56 -56.5s-21.5 -49.167 -21.5 -76.5c0 -34 11 -62.333 33 -85z" />
    <glyph glyph-name="yen" unicode="&#xa5;" horiz-adv-x="588" 
d="M562 696.5c1.33301 -2.33301 1.33398 -5.16797 0.000976562 -8.50098l-198 -343c-0.666992 -1.33301 -0.666992 -2.5 0 -3.5s1.66699 -1.5 3 -1.5h117c6 0 9 -3.33301 9 -10l-3 -24c-0.666992 -2.66699 -2 -5 -4 -7s-4.33301 -3 -7 -3h-131c-2 0 -3.66699 -1.33301 -5 -4
l-9 -74c0 -2.66699 1.33301 -4 4 -4h131c2.66699 0 4.83398 -1 6.50098 -3s2.16699 -4.33301 1.5 -7l-3 -24c-1.33301 -6.66699 -5 -10 -11 -10h-131c-2.66699 0 -4 -1.33301 -4 -4l-19 -155c-1.33301 -6.66699 -5 -10 -11 -10h-50c-2.66699 0 -4.83398 1 -6.50098 3
s-2.16699 4.33301 -1.5 7l19 155c0 2.66699 -1 4 -3 4h-130c-3.33301 0 -5.83301 1 -7.5 3s-2.16699 4.33301 -1.5 7l3 24c1.33301 6.66699 5 10 11 10h130c2.66699 0 4 1.33301 4 4l9 74c0.666992 0.666992 0.666992 1.5 0 2.5s-1.66699 1.5 -3 1.5h-130
c-6.66699 0 -9.33398 3.33301 -8.00098 10l3 24c0 2.66699 1 5 3 7s4.66699 3 8 3h116c1.33301 0 2.33301 0.5 3 1.5s0.666992 2.16699 0 3.5l-112 343v3c0 2.66699 1 4.83398 3 6.50098s4.33301 2.5 7 2.5h52c4.66699 0 8 -2.66699 10 -8l93 -299
c0 -1.33301 0.833008 -2 2.5 -2s2.83398 0.666992 3.50098 2l166 299c2.66699 5.33301 6.66699 8 12 8h52c3.33301 0 5.66602 -1.16699 6.99902 -3.5z" />
    <glyph glyph-name="brokenbar" unicode="&#xa6;" horiz-adv-x="150" 
d="M71 401l42 349c0.666992 2.66699 2 5 4 7s4.33301 3 7 3h50c6.66699 0 9.33398 -3.33301 8.00098 -10l-43 -349c0 -2.66699 -1 -5 -3 -7s-4.33301 -3 -7 -3h-50c-6.66699 0 -9.33398 3.33301 -8.00098 10zM13 -70l42 345c1.33301 6.66699 5 10 11 10h50
c2.66699 0 4.83398 -1 6.50098 -3s2.16699 -4.33301 1.5 -7l-42 -345c-1.33301 -6.66699 -5 -10 -11 -10h-50c-6.66699 0 -9.33398 3.33301 -8.00098 10z" />
    <glyph glyph-name="section" unicode="&#xa7;" horiz-adv-x="408" 
d="M62 -170.5c-23.333 24.333 -35 57.5 -35 99.5c0 10.667 0.333008 19 1 25l3 18c0 2.66699 1 5 3 7s4.33301 3 7 3h50c6.66699 0 9.33398 -3.33301 8.00098 -10l-1 -12c-0.666992 -4.66699 -1 -11 -1 -19c0 -26 6.16699 -46.833 18.5 -62.5s29.5 -23.5 51.5 -23.5
c26.667 0 49.334 11.167 68.001 33.5s28 49.166 28 80.499c0 28 -8.83301 49.333 -26.5 64s-42.834 28.667 -75.501 42c-25.333 10.667 -45.833 22.167 -61.5 34.5s-27.5 28.833 -35.5 49.5c-6 18.667 -9 39.334 -9 62.001c0 43.333 12.667 83 38 119c20 28 45.333 47 76 57
c3.33301 1.33301 3.66602 3 0.999023 5c-22 11.333 -39.5 28 -52.5 50s-19.5 47 -19.5 75c0 32.667 7.5 62.834 22.5 90.501s35.667 49.667 62 66s55.833 24.5 88.5 24.5c40 0 72 -12.5 96 -37.5s36 -57.833 36 -98.5c0 -10.667 -0.333008 -18.667 -1 -24l-2 -14
c-1.33301 -6.66699 -5 -10 -11 -10h-50c-6 0 -9 3.33301 -9 10l2 10c0.666992 4 1 9.66699 1 17c0 25.333 -6.33301 45.833 -19 61.5s-29.667 23.5 -51 23.5c-27.333 0 -50.333 -11.667 -69 -35s-28 -51 -28 -83c0 -25.333 8 -45.833 24 -61.5s40 -29.834 72 -42.501
c23.333 -10 42.333 -19.667 57 -29s27 -22.666 37 -39.999c12.667 -18.667 19 -43.334 19 -74.001c0 -44.667 -11.667 -85.334 -35 -122.001c-21.333 -32.667 -47.333 -53 -78 -61c-1.33301 0 -2 -0.5 -2 -1.5s0.666992 -1.83301 2 -2.5
c22 -11.333 39.333 -27.166 52 -47.499s19 -44.5 19 -72.5c0 -34 -7.66699 -64.667 -23 -92s-36.5 -49 -63.5 -65s-56.5 -24 -88.5 -24c-40.667 0 -72.667 12.167 -96 36.5zM282 184c15.333 25.333 22.999 53.999 22.999 85.999c0 20.667 -4 38 -12 52
c-6.66699 10.667 -15.667 19.334 -27 26.001s-24.333 10 -39 10c-16 0 -31.167 -4.66699 -45.5 -14s-25.5 -21 -33.5 -35c-11.333 -18 -18.666 -39 -21.999 -63c-0.666992 -4.66699 -1 -11.667 -1 -21c0 -16 2.33301 -30 7 -42c12 -29.333 35 -44 69 -44
c34.667 0 61.667 15 81 45z" />
    <glyph glyph-name="dieresis" unicode="&#xa8;" horiz-adv-x="314" 
d="M255 612.5c-8.66699 9 -12.999 20.501 -12.999 34.501c0 18.667 6 34 18 46s26.667 18 44 18c14 0 25.5 -4.33301 34.5 -13s13.5 -20.334 13.5 -35.001c0 -18 -6 -33.167 -18 -45.5s-26.667 -18.5 -44 -18.5c-14.667 0 -26.334 4.5 -35.001 13.5zM99.001 612.501
c-8.66699 9 -12.999 20.501 -12.999 34.501c0 18.667 6 34 18 46s26.667 18 44 18c14 0 25.5 -4.33301 34.5 -13s13.5 -20.334 13.5 -35.001c0 -18 -6 -33.167 -18 -45.5s-26.667 -18.5 -44 -18.5c-14.667 0 -26.334 4.5 -35.001 13.5z" />
    <glyph glyph-name="copyright" unicode="&#xa9;" horiz-adv-x="826" 
d="M231 31.5c-46.667 26.333 -83 62.999 -109 109.999s-39 100.167 -39 159.5c0 16 1 32.333 3 49c8 66.667 30.667 127.334 68 182.001s84.5 97.667 141.5 129s118.5 47 184.5 47c61.333 0 115.5 -13.167 162.5 -39.5s83.5 -63 109.5 -110s39 -100.167 39 -159.5
c0 -15.333 -1 -31.666 -3 -48.999c-8 -66.667 -30.667 -127.334 -68 -182.001s-84.666 -97.667 -141.999 -129s-119.333 -47 -186 -47c-60.667 0 -114.334 13.167 -161.001 39.5zM558 80.999c49.333 27.333 90.167 64.668 122.5 112.001s51.833 99.666 58.5 156.999
c2 15.333 3 29.666 3 42.999c0 50.667 -11.333 96.334 -34 137.001s-54.334 72.5 -95.001 95.5s-87 34.5 -139 34.5c-57.333 0 -110.666 -13.5 -159.999 -40.5s-90 -64.167 -122 -111.5s-51.667 -100 -59 -158c-2 -14 -3 -28 -3 -42c0 -51.333 11.167 -97.333 33.5 -138
s53.833 -72.5 94.5 -95.5s87.334 -34.5 140.001 -34.5c57.333 0 110.666 13.667 159.999 41zM353.501 197.001c-15 14 -22.501 32.999 -22.501 56.999c0 6 0.333008 10.667 1 14l20 162c2.66699 27.333 13.834 49.333 33.501 66s43.834 25 72.501 25
c26 0 46.833 -6.83301 62.5 -20.5s23.5 -32.167 23.5 -55.5c0 -6 -0.333008 -10.667 -1 -14l-1 -3c0 -2.66699 -1 -5 -3 -7s-4.66699 -3 -8 -3h-22c-6.66699 0 -9.33398 3.33301 -8.00098 10v5c2 14.667 -1.5 26.667 -10.5 36s-21.5 14 -37.5 14s-29.333 -4.5 -40 -13.5
s-16.667 -21.167 -18 -36.5l-21 -169c-2 -15.333 1.16699 -27.5 9.5 -36.5s20.5 -13.5 36.5 -13.5s29.667 4.66699 41 14s18 21.333 20 36v6c1.33301 6.66699 5 10 11 10l22 -1c3.33301 0 5.83301 -1 7.5 -3s2.16699 -4.33301 1.5 -7v-3
c-3.33301 -27.333 -15 -49.166 -35 -65.499s-44.333 -24.5 -73 -24.5c-26 0 -46.5 7 -61.5 21z" />
    <glyph glyph-name="ordfeminine" unicode="&#xaa;" horiz-adv-x="291" 
d="M252 563c1.33301 0 2.50195 0.333984 3.50195 1.00098s1.5 1.66699 1.5 3l3 26c0.666992 3.33301 1 8 1 14c0 18 -4.83301 32.333 -14.5 43s-24.167 16 -43.5 16c-15.333 0 -29.166 -4 -41.499 -12s-20.833 -18.333 -25.5 -31c-2 -6 -6 -8.66699 -12 -8l-27 2
c-2.66699 0 -4.83398 1 -6.50098 3s-1.83398 4.66699 -0.500977 8c6.66699 24 20.834 43.333 42.501 58s47.167 22 76.5 22c31.333 0 55.666 -8.16699 72.999 -24.5s26 -38.833 26 -67.5c0 -8 -0.333008 -14 -1 -18l-27 -219c0 -2.66699 -1 -5 -3 -7s-4.66699 -3 -8 -3h-27
c-6.66699 0 -9.33398 3.33301 -8.00098 10l2 17c0 4 -1.66699 4.66699 -5 2c-20.667 -22.667 -48.667 -34 -84 -34c-26 0 -47.5 6 -64.5 18s-25.5 31.667 -25.5 59c0 7.33301 0.333008 13 1 17c4.66699 35.333 19.167 61.666 43.5 78.999s55.5 26 93.5 26h57z
M216.002 421.001c16.667 12 26.332 29 28.999 51l6 48c0 2.66699 -1 4 -3 4h-56c-26 0 -47 -6.33301 -63 -19s-24 -31 -24 -55c0 -16 4.83301 -27.833 14.5 -35.5s22.834 -11.5 39.501 -11.5c21.333 0 40.333 6 57 18zM42 305.001c2 2 4.33301 3 7 3h223
c2.66699 0 4.83398 -1 6.50098 -3s2.16699 -4.33301 1.5 -7l-4 -30c0 -2.66699 -1 -5 -3 -7s-4.66699 -3 -8 -3h-222c-6.66699 0 -9.33398 3.33301 -8.00098 10l4 30c0 2.66699 1 5 3 7z" />
    <glyph glyph-name="guillemotleft" unicode="&#xab;" horiz-adv-x="491" 
d="M251 114c0 -4.66699 -3 -7.00195 -9 -7.00195h-45c-6 0 -9.66699 2 -11 6l-94 161c-0.666992 1.33301 -1 3.33301 -1 6s1 5.33398 3 8.00098l133 161c2.66699 4 7 6 13 6h45c4 0 6.5 -1.16699 7.5 -3.5s-0.166992 -5.16602 -3.5 -8.49902l-133 -159
c-0.666992 -1.33301 -1 -3.33301 -1 -6l94 -159zM401 113.998c0 -4.66699 -3.33203 -7.00098 -9.99902 -7.00098h-45c-6 0 -9.66699 2 -11 6l-94 161c-0.666992 1.33301 -1 3.33301 -1 6s1 5.33398 3 8.00098l133 161c3.33301 4 7.66602 6 12.999 6h45
c4 0 6.5 -1.16699 7.5 -3.5s0.166992 -5.16602 -2.5 -8.49902l-133 -159c-2 -2 -2.33301 -4 -1 -6l94 -159c1.33301 -2.66699 2 -4.33398 2 -5.00098z" />
    <glyph glyph-name="logicalnot" unicode="&#xac;" horiz-adv-x="457" 
d="M60 341c2 2 4.33398 3 7.00098 3h368c6 0 9 -3.33301 9 -10l-19 -155c-0.666992 -2.66699 -2 -5 -4 -7s-4.33301 -3 -7 -3h-39c-6 0 -9 3.33301 -9 10l13 103c0 2.66699 -1 4 -3 4h-316c-2.66699 0 -4.83398 1 -6.50098 3s-2.16699 4.33301 -1.5 7l5 38
c0 2.66699 1 5 3 7z" />
    <glyph glyph-name="uni00AD" unicode="&#xad;" horiz-adv-x="343" 
d="M52.5 283c-1.66699 2 -2.16699 4.33301 -1.5 7l5 42c1.33301 6.66699 5 10 11 10h254c3.33301 0 5.83301 -1 7.5 -3s2.16699 -4.33301 1.5 -7l-5 -42c-1.33301 -6.66699 -5 -10 -11 -10h-254c-3.33301 0 -5.83301 1 -7.5 3z" />
    <glyph glyph-name="registered" unicode="&#xae;" horiz-adv-x="431" 
d="M370.5 692c25.667 -14.667 45.666 -35.001 59.999 -61.001s21.5 -55 21.5 -87c0 -39.333 -10 -75.833 -30 -109.5s-46.667 -60.5 -80 -80.5s-68.666 -30 -105.999 -30c-32 0 -60.833 7.33301 -86.5 22s-45.667 34.834 -60 60.501s-21.5 54.5 -21.5 86.5
c0 39.333 9.83301 76 29.5 110s46.167 61 79.5 81s69 30 107 30c32 0 60.833 -7.33301 86.5 -22zM326.499 385.499c27 16.333 48.6689 38.167 65.002 65.5s24.5 57 24.5 89c0 39.333 -13 72 -39 98s-58.667 39 -98 39c-30.667 0 -59.334 -8.16699 -86.001 -24.5
s-48 -38 -64 -65s-24 -56.5 -24 -88.5c0 -40 12.667 -73 38 -99s57.666 -39 96.999 -39c30.667 0 59.5 8.16699 86.5 24.5zM318.001 529.5c-6 -9.66699 -14 -16.5 -24 -20.5c-2 -1.33301 -2.66699 -3.33301 -2 -6l17 -62l1 -3c0 -6 -3.33301 -9 -10 -9h-13
c-5.33301 0 -8.33301 2.66699 -9 8l-18 64c0 2 -1 3 -3 3h-15c-2.66699 0 -4 -1.33301 -4 -4l-8 -61c0 -2.66699 -1 -5 -3 -7s-4.33301 -3 -7 -3h-11c-6 0 -9 3.33301 -9 10l20 159c1.33301 6.66699 5 10 11 10h50c14 0 25.167 -4.16699 33.5 -12.5
s12.5 -19.166 12.5 -32.499c0 -12.667 -3 -23.834 -9 -33.501zM247.001 577l-5 -45c0 -2.66699 1 -4 3 -4h23c7.33301 0 13.833 3 19.5 9s8.5 13.333 8.5 22c0 14.667 -7.33301 22 -22 22h-22c-2 0 -3.66699 -1.33301 -5 -4z" />
    <glyph glyph-name="macron" unicode="&#xaf;" horiz-adv-x="368" 
d="M125 605l4 31c0 2.66699 1 5 3 7s4.33301 3 7 3h209c6.66699 0 9.33398 -3.33301 8.00098 -10l-3 -31c-1.33301 -6.66699 -5 -10 -11 -10h-209c-6.66699 0 -9.33398 3.33301 -8.00098 10z" />
    <glyph glyph-name="degree" unicode="&#xb0;" horiz-adv-x="358" 
d="M122.5 527.5c-25.667 26.333 -38.5 59.5 -38.5 99.5c0 32.667 8 62.834 24 90.501s37.5 49.667 64.5 66s55.833 24.5 86.5 24.5c40 0 72.667 -13.167 98 -39.5s38 -59.5 38 -99.5c0 -32.667 -8 -62.834 -24 -90.501s-37.5 -49.667 -64.5 -66s-55.833 -24.5 -86.5 -24.5
c-39.333 0 -71.833 13.167 -97.5 39.5zM285 555c18 11.333 32.498 26.666 43.498 45.999s16.5 40.333 16.5 63c0 27.333 -8.66699 50 -26 68s-39.333 27 -66 27c-21.333 0 -41.166 -5.66699 -59.499 -17s-33 -26.666 -44 -45.999s-16.5 -40.333 -16.5 -63
c0 -27.333 8.83301 -50 26.5 -68s39.834 -27 66.501 -27c21.333 0 41 5.66699 59 17z" />
    <glyph glyph-name="plusminus" unicode="&#xb1;" horiz-adv-x="457" 
d="M448 370l-5 -38c-1.33301 -6.66699 -5 -10 -11 -10h-151c-2 0 -3.66699 -1.33301 -5 -4l-19 -155c0 -2.66699 -1 -5 -3 -7s-4.66699 -3 -8 -3h-37c-3.33301 0 -5.83301 1 -7.5 3s-2.16699 4.33301 -1.5 7l19 155c0 2.66699 -1 4 -3 4h-152
c-2.66699 0 -4.83398 1 -6.50098 3s-2.16699 4.33301 -1.5 7l5 38c0 2.66699 1 5 3 7s4.66699 3 8 3h151c2.66699 0 4 1.33301 4 4l20 159c1.33301 6.66699 5 10 11 10h38c2.66699 0 4.83398 -1 6.50098 -3s2.16699 -4.33301 1.5 -7l-19 -159
c-0.666992 -0.666992 -0.666992 -1.5 0 -2.5s1.66699 -1.5 3 -1.5h151c6 0 9 -3.33301 9 -10zM20.5 17c-1.66699 2 -2.16602 4.33301 -1.49902 7l5 38c0 2.66699 1 5 3 7s4.33301 3 7 3h368c6 0 9 -3.33301 9 -10l-5 -38c-1.33301 -6.66699 -5 -10 -11 -10h-368
c-2.66699 0 -4.83398 1 -6.50098 3z" />
    <glyph glyph-name="uni00B2" unicode="&#xb2;" horiz-adv-x="277" 
d="M65.5 445c-1.66699 2 -2.16211 4.33496 -1.49512 7.00195l3 27c0.666992 4.66699 2.66699 9 6 13l136 160c35.333 44.667 54.333 80 57 106l1 11c0 16.667 -4.66699 29.667 -14 39s-22 14 -38 14c-17.333 0 -31.833 -5.83301 -43.5 -17.5
s-18.834 -26.834 -21.501 -45.501l-2 -17c-1.33301 -6.66699 -5 -10 -11 -10h-30c-6.66699 0 -9.33398 3.33301 -8.00098 10l2 21c4.66699 31.333 18.167 56.5 40.5 75.5s49.166 28.5 80.499 28.5c29.333 0 52.5 -8.33301 69.5 -25s25.5 -39.334 25.5 -68.001
c0 -20.667 -5 -42 -15 -64s-25 -46.333 -45 -73l-71 -88l-48 -58c-1.33301 -1.33301 -1.83301 -2.5 -1.5 -3.5s1.16602 -1.5 2.49902 -1.5h144c3.33301 0 5.83301 -1 7.5 -3s2.16699 -4.33301 1.5 -7l-3 -24c-1.33301 -6.66699 -5 -10 -11 -10h-206
c-2.66699 0 -4.83398 1 -6.50098 3z" />
    <glyph glyph-name="uni00B3" unicode="&#xb3;" horiz-adv-x="284" 
d="M301 599c0 -6 -0.670898 -15.667 -2.00391 -29c-4 -26.667 -10.333 -48.334 -19 -65.001c-10 -22 -24.167 -39 -42.5 -51s-40.166 -18 -65.499 -18c-26.667 0 -48.167 7.83301 -64.5 23.5s-25.833 36.5 -28.5 62.5l-1 19l1 19c1.33301 6.66699 5 10 11 10h30
c6 0 9 -3.33301 9 -10c-1.33301 -12.667 -1.66602 -21.334 -0.999023 -26.001c1.33301 -16 6.33301 -28.833 15 -38.5s20.334 -14.5 35.001 -14.5c24 0 43 11.667 57 35c8 17.333 13 36.333 15 57c1.33301 14.667 2 24.667 2 30c0 10.667 -1 20 -3 28
c-7.33301 25.333 -23.333 38 -48 38c-4.66699 0 -9.66699 -1 -15 -3c-1.33301 -0.666992 -3.33301 -1 -6 -1s-5 1.33301 -7 4l-13 16c-1.33301 2.66699 -2 4.33398 -2 5.00098c0 2 1.33301 5 4 9l100 113c0.666992 0.666992 1 1.66699 1 3s-0.666992 2 -2 2h-137
c-6.66699 0 -9.33398 3.33301 -8.00098 10l3 24c0 2.66699 1 5 3 7s4.66699 3 8 3h192c2.66699 0 4.83398 -1 6.50098 -3s2.16699 -4.33301 1.5 -7l-3 -27c-0.666992 -4.66699 -2.66699 -8.66699 -6 -12l-91 -104c-1.33301 -1.33301 -1.66602 -2.5 -0.999023 -3.5
s1.66699 -1.5 3 -1.5c16.667 -2 30.5 -8.66699 41.5 -20s18.5 -26 22.5 -44c3.33301 -13.333 5 -26.666 5 -39.999z" />
    <glyph glyph-name="acute" unicode="&#xb4;" horiz-adv-x="182" 
d="M82 575.5c-1.33301 2.33301 -0.667969 5.16602 1.99902 8.49902l73 109c3.33301 4.66699 7.33301 7 12 7h42c4 0 6.33301 -1.16699 7 -3.5s-0.333008 -5.16602 -3 -8.49902l-80 -109c-4.66699 -4.66699 -9 -7 -13 -7h-33c-3.33301 0 -5.66602 1.16699 -6.99902 3.5z" />
    <glyph glyph-name="uni00B5" unicode="&#xb5;" horiz-adv-x="473" 
d="M388 506l48.9971 0.000976562c2.66699 0 4.83398 -1 6.50098 -3s2.16699 -4.33301 1.5 -7l-60 -486c0 -2.66699 -1 -5 -3 -7s-4.66699 -3 -8 -3h-48c-6 0 -9 3.33301 -9 10l5 39c0.666992 2 0.5 3 -0.5 3s-2.16699 -0.666992 -3.5 -2c-28 -38 -68.333 -57 -121 -57
c-28.667 0 -53 6 -73 18c-3.33301 1.33301 -5.33301 0.333008 -6 -3l-24 -198c-1.33301 -6.66699 -5 -10 -11 -10h-49c-3.33301 0 -5.83301 1 -7.5 3s-2.16699 4.33301 -1.5 7l84 686c0.666992 2.66699 2 5 4 7s4.33301 3 7 3h50c6.66699 0 9.33398 -3.33301 8.00098 -10
l-40 -329c-1.33301 -10.667 -2 -18.334 -2 -23.001c0 -28.667 7.33301 -50.667 22 -66s35.667 -23 63 -23c31.333 0 57.333 10.5 78 31.5s33.334 49.167 38.001 84.5l40 325c1.33301 6.66699 5 10 11 10z" />
    <glyph glyph-name="paragraph" unicode="&#xb6;" horiz-adv-x="508" 
d="M486 700c2.66699 0 4.83594 -1 6.50293 -3s2.16699 -4.33301 1.5 -7l-108 -880c-1.33301 -6.66699 -5 -10 -11 -10h-36c-6.66699 0 -9.33398 3.33301 -8.00098 10l102 830c0 2.66699 -1.33301 4 -4 4h-101c-2.66699 0 -4 -1.33301 -4 -4l-102 -830
c-1.33301 -6.66699 -5 -10 -11 -10h-37c-6.66699 0 -9.33398 3.33301 -8.00098 10l53 436c1.33301 2.66699 0.333008 4 -3 4c-44 4 -79.167 23.167 -105.5 57.5s-39.5 77.833 -39.5 130.5c0 16 0.666992 28.333 2 37c4.66699 42 17.167 80.167 37.5 114.5
s46.166 61.333 77.499 81s65.333 29.5 102 29.5h196z" />
    <glyph glyph-name="periodcentered" unicode="&#xb7;" horiz-adv-x="197" 
d="M71 235.5c-8.66699 9 -12.999 20.501 -12.999 34.501c0 18.667 6 34 18 46s26.667 18 44 18c14 0 25.5 -4.33301 34.5 -13s13.5 -20.334 13.5 -35.001c0 -18 -6 -33.167 -18 -45.5s-26.667 -18.5 -44 -18.5c-14.667 0 -26.334 4.5 -35.001 13.5z" />
    <glyph glyph-name="cedilla" unicode="&#xb8;" horiz-adv-x="127" 
d="M-37 -170l5.00293 21.998c1.33301 3.33301 3.16602 5.66602 5.49902 6.99902s4.83301 1.66602 7.5 0.999023c4 -1.33301 9.66699 -2 17 -2c23.333 0 38.666 12 45.999 36c2 6.66699 3 13.334 3 20.001c0 24.667 -11.667 49.334 -35 74.001c-2 2 -3 4 -3 6
c0 4 2.66699 6 8 6h27c4 0 7 -1 9 -3c2 -1.33301 3 -2.66602 3 -3.99902c26.667 -24.667 40 -52.334 40 -83.001c0 -10 -2.33301 -22 -7 -36c-6.66699 -21.333 -17.834 -36.666 -33.501 -45.999s-33.167 -14 -52.5 -14c-12 0 -23.667 1.66699 -35 5
c-5.33301 0.666992 -7 4.33398 -5 11.001z" />
    <glyph glyph-name="uni00B9" unicode="&#xb9;" horiz-adv-x="160" 
d="M166 862l34 -0.000976562c2.66699 0 4.83398 -1 6.50098 -3s2.16699 -4.33301 1.5 -7l-49 -400c-1.33301 -6.66699 -5 -10 -11 -10h-30c-6.66699 0 -9.33398 3.33301 -8.00098 10l43 357c0.666992 1.33301 0.5 2.5 -0.5 3.5s-1.83301 1.16699 -2.5 0.5l-39 -9h-2
c-5.33301 0 -8 3 -8 9l3 19c0 4.66699 3 8.33398 9 11.001l41 17c2.66699 1.33301 6.66699 2 12 2z" />
    <glyph glyph-name="ordmasculine" unicode="&#xba;" horiz-adv-x="305" 
d="M106.5 391c-17.667 17.333 -27.165 41 -28.498 71c-0.666992 19.333 0.666016 44.333 3.99902 75c6 37.333 10.667 62.333 14 75c7.33301 29.333 22.166 52.666 44.499 69.999s48.833 26 79.5 26c30 0 53.833 -8.66699 71.5 -26s27.167 -40.666 28.5 -69.999
c0 -21.333 -1.66699 -46.333 -5 -75c-3.33301 -27.333 -8 -52.333 -14 -75c-7.33301 -29.333 -22 -52.833 -44 -70.5s-48.333 -26.5 -79 -26.5c-30 0 -53.833 8.66699 -71.5 26zM228.002 425c13.333 11.333 22.666 26.333 27.999 45c4.66699 22 8.33398 44.333 11.001 67
c3.33301 28 5 50 5 66c0 18.667 -5.16699 33.667 -15.5 45s-24.166 17 -41.499 17s-32.666 -5.66699 -45.999 -17s-22.333 -26.333 -27 -45c-4.66699 -21.333 -8.33398 -43.333 -11.001 -66c-3.33301 -28 -5 -50.333 -5 -67c0 -18.667 5.16699 -33.667 15.5 -45
s24.166 -17 41.499 -17c16.667 0 31.667 5.66699 45 17zM42.002 269l4.00098 31c0 2.66699 1 5 3 7s4.33301 3 7 3h229c3.33301 0 5.83301 -1 7.5 -3s2.16699 -4.33301 1.5 -7l-4 -31c-1.33301 -6.66699 -5 -10 -11 -10h-229c-6.66699 0 -9.33398 3.33301 -8.00098 10z" />
    <glyph glyph-name="guillemotright" unicode="&#xbb;" horiz-adv-x="491" 
d="M81.5 110.5c-1 2.33301 -0.166992 5.16602 2.5 8.49902l132 159c2 2 2.33301 4 1 6l-93 159c-1.33301 2.66699 -2 4.33398 -2 5.00098c0 4.66699 3.33301 7 10 7h44c6.66699 0 10.667 -2 12 -6l94 -161c0.666992 -1.33301 1 -3.33301 1 -6c0 -2 -1 -4.66699 -3 -8
l-133 -161c-3.33301 -4 -8 -6 -14 -6h-44c-4 0 -6.5 1.16699 -7.5 3.5zM230.5 110.5c-1 2.33301 -0.166992 5.16602 2.5 8.49902l132 159c2 2 2.33301 4 1 6l-93 159c-1.33301 2.66699 -2 4.33398 -2 5.00098c0 4.66699 3.33301 7 10 7h44c6.66699 0 10.667 -2 12 -6
l94 -161c0.666992 -1.33301 1 -3.33301 1 -6c0 -2 -1 -4.66699 -3 -8l-133 -161c-3.33301 -4 -8 -6 -14 -6h-44c-4 0 -6.5 1.16699 -7.5 3.5z" />
    <glyph glyph-name="onequarter" unicode="&#xbc;" horiz-adv-x="712" 
d="M146 700l34 -0.000976562c2.66699 0 4.83398 -1 6.50098 -3s2.16699 -4.33301 1.5 -7l-49 -400c-1.33301 -6.66699 -5 -10 -11 -10h-30c-6.66699 0 -9.33398 3.33301 -8.00098 10l43 357c0.666992 1.33301 0.5 2.5 -0.5 3.5s-1.83301 1.16699 -2.5 0.5l-39 -9h-2
c-5.33301 0 -8 3 -8 9l3 19c0 4.66699 3 8.33398 9 11.001l41 17c2.66699 1.33301 6.66699 2 12 2zM65 3.49902c-0.666992 2.33301 0.333008 5.16602 3 8.49902l498 681c4.66699 4.66699 9 7 13 7h32c4 0 6.33301 -1.16699 7 -3.5s-0.333008 -5.16602 -3 -8.49902l-498 -681
c-4.66699 -4.66699 -9 -7 -13 -7h-32c-4 0 -6.33301 1.16699 -7 3.5zM681.5 155.999c1.66699 -2 2.16699 -4.33398 1.5 -7.00098l-3 -26c-0.666992 -2.66699 -2 -5 -4 -7s-4.33301 -3 -7 -3h-17c-2.66699 0 -4 -1.33301 -4 -4l-12 -99c-1.33301 -6.66699 -5 -10 -11 -10h-30
c-3.33301 0 -5.83301 1 -7.5 3s-2.16699 4.33301 -1.5 7l12 99c0.666992 0.666992 0.666992 1.5 0 2.5s-1.66699 1.5 -3 1.5h-149c-3.33301 0 -5.83301 1 -7.5 3s-2.16699 4.33301 -1.5 7l3 23c0 3.33301 1 7.33301 3 12l130 254c2.66699 5.33301 6.66699 8 12 8h33
c3.33301 0 5.5 -1.16699 6.5 -3.5s0.5 -5.16602 -1.5 -8.49902l-123 -244c-0.666992 -1.33301 -0.666992 -2.5 0 -3.5s1.66699 -1.5 3 -1.5h98c2.66699 0 4 1.33301 4 4l10 84c1.33301 6.66699 5 10 11 10h30c6 0 9 -3.33301 9 -10l-11 -84c0 -2.66699 1.33301 -4 4 -4h16
c3.33301 0 5.83301 -1 7.5 -3z" />
    <glyph glyph-name="onehalf" unicode="&#xbd;" horiz-adv-x="708" 
d="M146 700l34 -0.000976562c2.66699 0 4.83398 -1 6.50098 -3s2.16699 -4.33301 1.5 -7l-49 -400c-1.33301 -6.66699 -5 -10 -11 -10h-30c-6.66699 0 -9.33398 3.33301 -8.00098 10l43 357c0.666992 1.33301 0.5 2.5 -0.5 3.5s-1.83301 1.16699 -2.5 0.5l-39 -9h-2
c-5.33301 0 -8 3 -8 9l3 19c0 4.66699 3 8.33398 9 11.001l41 17c2.66699 1.33301 6.66699 2 12 2zM65 3.49902c-0.666992 2.33301 0.333008 5.16602 3 8.49902l498 681c4.66699 4.66699 9 7 13 7h32c4 0 6.33301 -1.16699 7 -3.5s-0.333008 -5.16602 -3 -8.49902l-498 -681
c-4.66699 -4.66699 -9 -7 -13 -7h-32c-4 0 -6.33301 1.16699 -7 3.5zM437.5 2.99902c-1.66699 2 -2.16211 4.33496 -1.49512 7.00195l3 27c0.666992 4.66699 2.66699 9 6 13l136 160c35.333 44.667 54.333 80 57 106l1 11c0 16.667 -4.66699 29.667 -14 39s-22 14 -38 14
c-17.333 0 -31.833 -5.83301 -43.5 -17.5s-18.834 -26.834 -21.501 -45.501l-2 -17c-1.33301 -6.66699 -5 -10 -11 -10h-30c-6.66699 0 -9.33398 3.33301 -8.00098 10l2 21c4.66699 31.333 18.167 56.5 40.5 75.5s49.166 28.5 80.499 28.5c29.333 0 52.5 -8.33301 69.5 -25
s25.5 -39.334 25.5 -68.001c0 -20.667 -5 -42 -15 -64s-25 -46.333 -45 -73l-71 -88l-48 -58c-1.33301 -1.33301 -1.83301 -2.5 -1.5 -3.5s1.16602 -1.5 2.49902 -1.5h144c3.33301 0 5.83301 -1 7.5 -3s2.16699 -4.33301 1.5 -7l-3 -24c-1.33301 -6.66699 -5 -10 -11 -10
h-206c-2.66699 0 -4.83398 1 -6.50098 3z" />
    <glyph glyph-name="threequarters" unicode="&#xbe;" horiz-adv-x="792" 
d="M282 440c0 -6 -0.670898 -15.667 -2.00391 -29c-4 -26.667 -10.333 -48.334 -19 -65.001c-10 -22 -24.167 -39 -42.5 -51s-40.166 -18 -65.499 -18c-26.667 0 -48.167 7.83301 -64.5 23.5s-25.833 36.5 -28.5 62.5l-1 19l1 19c1.33301 6.66699 5 10 11 10h30
c6 0 9 -3.33301 9 -10c-1.33301 -12.667 -1.66602 -21.334 -0.999023 -26.001c1.33301 -16 6.33301 -28.833 15 -38.5s20.334 -14.5 35.001 -14.5c24 0 43 11.667 57 35c8 17.333 13 36.333 15 57c1.33301 14.667 2 24.667 2 30c0 10.667 -1 20 -3 28
c-7.33301 25.333 -23.333 38 -48 38c-4.66699 0 -9.66699 -1 -15 -3c-1.33301 -0.666992 -3.33301 -1 -6 -1s-5 1.33301 -7 4l-13 16c-1.33301 2.66699 -2 4.33398 -2 5.00098c0 2 1.33301 5 4 9l100 113c0.666992 0.666992 1 1.66699 1 3s-0.666992 2 -2 2h-137
c-6.66699 0 -9.33398 3.33301 -8.00098 10l3 24c0 2.66699 1 5 3 7s4.66699 3 8 3h192c2.66699 0 4.83398 -1 6.50098 -3s2.16699 -4.33301 1.5 -7l-3 -27c-0.666992 -4.66699 -2.66699 -8.66699 -6 -12l-91 -104c-1.33301 -1.33301 -1.66602 -2.5 -0.999023 -3.5
s1.66699 -1.5 3 -1.5c16.667 -2 30.5 -8.66699 41.5 -20s18.5 -26 22.5 -44c3.33301 -13.333 5 -26.666 5 -39.999zM146.996 3.5c-0.666992 2.33301 0.333008 5.16602 3 8.49902l498 681c4.66699 4.66699 9 7 13 7h32c4 0 6.33301 -1.16699 7 -3.5
s-0.333008 -5.16602 -3 -8.49902l-498 -681c-4.66699 -4.66699 -9 -7 -13 -7h-32c-4 0 -6.33301 1.16699 -7 3.5zM763.496 156c1.66699 -2 2.16699 -4.33398 1.5 -7.00098l-3 -26c-0.666992 -2.66699 -2 -5 -4 -7s-4.33301 -3 -7 -3h-17c-2.66699 0 -4 -1.33301 -4 -4
l-12 -99c-1.33301 -6.66699 -5 -10 -11 -10h-30c-3.33301 0 -5.83301 1 -7.5 3s-2.16699 4.33301 -1.5 7l12 99c0.666992 0.666992 0.666992 1.5 0 2.5s-1.66699 1.5 -3 1.5h-149c-3.33301 0 -5.83301 1 -7.5 3s-2.16699 4.33301 -1.5 7l3 23c0 3.33301 1 7.33301 3 12
l130 254c2.66699 5.33301 6.66699 8 12 8h33c3.33301 0 5.5 -1.16699 6.5 -3.5s0.5 -5.16602 -1.5 -8.49902l-123 -244c-0.666992 -1.33301 -0.666992 -2.5 0 -3.5s1.66699 -1.5 3 -1.5h98c2.66699 0 4 1.33301 4 4l10 84c1.33301 6.66699 5 10 11 10h30
c6 0 9 -3.33301 9 -10l-11 -84c0 -2.66699 1.33301 -4 4 -4h16c3.33301 0 5.83301 -1 7.5 -3z" />
    <glyph glyph-name="questiondown" unicode="&#xbf;" horiz-adv-x="403" 
d="M293.5 484.5c9 -9 13.501 -20.5 13.501 -34.5c0 -18 -6.16699 -33.167 -18.5 -45.5s-26.833 -18.5 -43.5 -18.5c-14.667 0 -26.334 4.33301 -35.001 13s-13 20 -13 34c0 18.667 6 34.167 18 46.5s26.667 18.5 44 18.5c14 0 25.5 -4.5 34.5 -13.5zM267.001 290
l-7.00586 -58.998c-3.33301 -28.667 -12.166 -52 -26.499 -70s-35.166 -38.333 -62.499 -61c-28 -22.667 -49.167 -43.167 -63.5 -61.5s-23.166 -42.166 -26.499 -71.499c-0.666992 -4.66699 -1 -11 -1 -19c0 -28 7.5 -50.333 22.5 -67s35.5 -25 61.5 -25
c30 0 55.333 10.333 76 31s33 47.667 37 81l4 31c1.33301 6.66699 5 10 11 10l49 -3c6 0 9 -3.33301 9 -10l-4 -28c-6.66699 -52.667 -27.5 -95.334 -62.5 -128.001s-77.833 -49 -128.5 -49c-45.333 0 -81 13.167 -107 39.5s-39 62.166 -39 107.499
c0 6 0.666992 15.667 2 29c4 29.333 11.333 54.666 22 75.999s22.834 38.833 36.501 52.5s30.834 28.834 51.501 45.501c22 17.333 38.667 32.666 50 45.999s18 29.333 20 48l7 55c0 2.66699 1 5 3 7s4.66699 3 8 3h50c6.66699 0 9.33398 -3.33301 8.00098 -10z" />
    <glyph glyph-name="Agrave" unicode="&#xc0;" horiz-adv-x="493" 
d="M380 9l-15.998 125c-0.666992 2 -2.33398 3 -5.00098 3h-232c-2 0 -3.66699 -1 -5 -3l-47 -125c-2.66699 -6 -6.66699 -9 -12 -9h-50c-3.33301 0 -5.83301 1 -7.5 3s-1.83398 4.66699 -0.500977 8l265 680c2.66699 6 6.66699 9 12 9h62c5.33301 0 8.66602 -3 9.99902 -9
l97 -680v-3c0 -5.33301 -3.33301 -8 -10 -8h-51c-5.33301 0 -8.66602 3 -9.99902 9zM147.002 196.5c0.666992 -1 1.66895 -1.5 3.00195 -1.5h201c1.33301 0 2.5 0.5 3.5 1.5s1.16699 1.83301 0.5 2.5l-53 402c-0.666992 1.33301 -1.33398 2 -2.00098 2
s-1.33398 -0.666992 -2.00098 -2l-151 -402c-0.666992 -0.666992 -0.666992 -1.5 0 -2.5zM345.004 773c0 -4.66699 -3 -7 -9 -7h-33c-4 0 -7.66699 2.33301 -11 7l-52 109c-0.666992 1.33301 -1 3.33301 -1 6c0 4 2.66699 6 8 6h42c6 0 9.33301 -2.33301 10 -7l45 -109
c0.666992 -1.33301 1 -3 1 -5z" />
    <glyph glyph-name="Aacute" unicode="&#xc1;" horiz-adv-x="493" 
d="M380 9l-15.998 125c-0.666992 2 -2.33398 3 -5.00098 3h-232c-2 0 -3.66699 -1 -5 -3l-47 -125c-2.66699 -6 -6.66699 -9 -12 -9h-50c-3.33301 0 -5.83301 1 -7.5 3s-1.83398 4.66699 -0.500977 8l265 680c2.66699 6 6.66699 9 12 9h62c5.33301 0 8.66602 -3 9.99902 -9
l97 -680v-3c0 -5.33301 -3.33301 -8 -10 -8h-51c-5.33301 0 -8.66602 3 -9.99902 9zM147.002 196.5c0.666992 -1 1.66895 -1.5 3.00195 -1.5h201c1.33301 0 2.5 0.5 3.5 1.5s1.16699 1.83301 0.5 2.5l-53 402c-0.666992 1.33301 -1.33398 2 -2.00098 2
s-1.33398 -0.666992 -2.00098 -2l-151 -402c-0.666992 -0.666992 -0.666992 -1.5 0 -2.5zM280.004 769.5c-1.33301 2.33301 -0.667969 5.16602 1.99902 8.49902l73 109c3.33301 4.66699 7.33301 7 12 7h42c4 0 6.33301 -1.16699 7 -3.5s-0.333008 -5.16602 -3 -8.49902
l-80 -109c-4.66699 -4.66699 -9 -7 -13 -7h-33c-3.33301 0 -5.66602 1.16699 -6.99902 3.5z" />
    <glyph glyph-name="Acircumflex" unicode="&#xc2;" horiz-adv-x="493" 
d="M380 9l-15.998 125c-0.666992 2 -2.33398 3 -5.00098 3h-232c-2 0 -3.66699 -1 -5 -3l-47 -125c-2.66699 -6 -6.66699 -9 -12 -9h-50c-3.33301 0 -5.83301 1 -7.5 3s-1.83398 4.66699 -0.500977 8l265 680c2.66699 6 6.66699 9 12 9h62c5.33301 0 8.66602 -3 9.99902 -9
l97 -680v-3c0 -5.33301 -3.33301 -8 -10 -8h-51c-5.33301 0 -8.66602 3 -9.99902 9zM147.002 196.5c0.666992 -1 1.66895 -1.5 3.00195 -1.5h201c1.33301 0 2.5 0.5 3.5 1.5s1.16699 1.83301 0.5 2.5l-53 402c-0.666992 1.33301 -1.33398 2 -2.00098 2
s-1.33398 -0.666992 -2.00098 -2l-151 -402c-0.666992 -0.666992 -0.666992 -1.5 0 -2.5zM207.504 773.5c-1 2.33301 -0.166016 5.16797 2.50098 8.50098l84 106c2.66699 4 6.66699 6 12 6h57c6 0 9.66699 -2 11 -6l59 -106c1.33301 -2.66699 2 -4.33398 2 -5.00098
c0 -2 -0.833008 -3.66699 -2.5 -5s-3.83398 -2 -6.50098 -2h-41c-5.33301 0 -9 2.33301 -11 7l-40 78c-0.666992 1.33301 -1.66699 1.83301 -3 1.5s-2.33301 -0.833008 -3 -1.5l-61 -79c-2.66699 -4 -6.66699 -6 -12 -6h-40c-4 0 -6.5 1.16699 -7.5 3.5z" />
    <glyph glyph-name="Atilde" unicode="&#xc3;" horiz-adv-x="493" 
d="M380 9l-15.998 125c-0.666992 2 -2.33398 3 -5.00098 3h-232c-2 0 -3.66699 -1 -5 -3l-47 -125c-2.66699 -6 -6.66699 -9 -12 -9h-50c-3.33301 0 -5.83301 1 -7.5 3s-1.83398 4.66699 -0.500977 8l265 680c2.66699 6 6.66699 9 12 9h62c5.33301 0 8.66602 -3 9.99902 -9
l97 -680v-3c0 -5.33301 -3.33301 -8 -10 -8h-51c-5.33301 0 -8.66602 3 -9.99902 9zM147.002 196.5c0.666992 -1 1.66895 -1.5 3.00195 -1.5h201c1.33301 0 2.5 0.5 3.5 1.5s1.16699 1.83301 0.5 2.5l-53 402c-0.666992 1.33301 -1.33398 2 -2.00098 2
s-1.33398 -0.666992 -2.00098 -2l-151 -402c-0.666992 -0.666992 -0.666992 -1.5 0 -2.5zM357.004 806c-8 4 -16.3281 9.33301 -24.9951 16c-3.33301 2 -7.83301 5 -13.5 9s-10.834 6.83301 -15.501 8.5s-9.66699 2.5 -15 2.5c-9.33301 0 -18 -2 -26 -6s-16 -10.667 -24 -20
c-5.33301 -6 -10 -7 -14 -3l-17 15c-4 5.33301 -4.33301 10 -1 14c23.333 34 51.666 51 84.999 51c10.667 0 20.167 -2 28.5 -6s17.5 -9.66699 27.5 -17c1.33301 -1.33301 5 -4 11 -8s11.667 -7.16699 17 -9.5s10.666 -3.5 15.999 -3.5c19.333 0 35.666 9.66699 48.999 29
c5.33301 6 10 7 14 3l17 -14c2 -0.666992 3 -3 3 -7s-1.33301 -7.66699 -4 -11c-11.333 -16 -24.833 -28.167 -40.5 -36.5s-30.834 -12.5 -45.501 -12.5c-10 0 -19 2 -27 6z" />
    <glyph glyph-name="Adieresis" unicode="&#xc4;" horiz-adv-x="493" 
d="M380 9l-15.998 125c-0.666992 2 -2.33398 3 -5.00098 3h-232c-2 0 -3.66699 -1 -5 -3l-47 -125c-2.66699 -6 -6.66699 -9 -12 -9h-50c-3.33301 0 -5.83301 1 -7.5 3s-1.83398 4.66699 -0.500977 8l265 680c2.66699 6 6.66699 9 12 9h62c5.33301 0 8.66602 -3 9.99902 -9
l97 -680v-3c0 -5.33301 -3.33301 -8 -10 -8h-51c-5.33301 0 -8.66602 3 -9.99902 9zM147.002 196.5c0.666992 -1 1.66895 -1.5 3.00195 -1.5h201c1.33301 0 2.5 0.5 3.5 1.5s1.16699 1.83301 0.5 2.5l-53 402c-0.666992 1.33301 -1.33398 2 -2.00098 2
s-1.33398 -0.666992 -2.00098 -2l-151 -402c-0.666992 -0.666992 -0.666992 -1.5 0 -2.5zM367.004 806.5c-8.66699 9 -12.999 20.501 -12.999 34.501c0 18.667 6 34 18 46s26.667 18 44 18c14 0 25.5 -4.33301 34.5 -13s13.5 -20.334 13.5 -35.001
c0 -18 -6 -33.167 -18 -45.5s-26.667 -18.5 -44 -18.5c-14.667 0 -26.334 4.5 -35.001 13.5zM211.005 806.501c-8.66699 9 -12.999 20.501 -12.999 34.501c0 18.667 6 34 18 46s26.667 18 44 18c14 0 25.5 -4.33301 34.5 -13s13.5 -20.334 13.5 -35.001
c0 -18 -6 -33.167 -18 -45.5s-26.667 -18.5 -44 -18.5c-14.667 0 -26.334 4.5 -35.001 13.5z" />
    <glyph glyph-name="Aring" unicode="&#xc5;" horiz-adv-x="493" 
d="M380 9l-15.998 125c-0.666992 2 -2.33398 3 -5.00098 3h-232c-2 0 -3.66699 -1 -5 -3l-47 -125c-2.66699 -6 -6.66699 -9 -12 -9h-50c-3.33301 0 -5.83301 1 -7.5 3s-1.83398 4.66699 -0.500977 8l265 680c2.66699 6 6.66699 9 12 9h62c5.33301 0 8.66602 -3 9.99902 -9
l97 -680v-3c0 -5.33301 -3.33301 -8 -10 -8h-51c-5.33301 0 -8.66602 3 -9.99902 9zM147.002 196.5c0.666992 -1 1.66895 -1.5 3.00195 -1.5h201c1.33301 0 2.5 0.5 3.5 1.5s1.16699 1.83301 0.5 2.5l-53 402c-0.666992 1.33301 -1.33398 2 -2.00098 2
s-1.33398 -0.666992 -2.00098 -2l-151 -402c-0.666992 -0.666992 -0.666992 -1.5 0 -2.5zM255.004 799.5c-17.333 17.667 -26 40.167 -26 67.5c0 21.333 5.5 41.5 16.5 60.5s25.667 34 44 45s37.833 16.5 58.5 16.5c27.333 0 49.666 -9 66.999 -27s26 -40.667 26 -68
c0 -22 -5.5 -42.167 -16.5 -60.5s-25.667 -33 -44 -44s-37.833 -16.5 -58.5 -16.5c-27.333 0 -49.666 8.83301 -66.999 26.5zM376.504 838c14.333 14.667 21.499 32 21.499 52c0 16.667 -5.33301 30.334 -16 41.001s-23.667 16 -39 16
c-19.333 0 -36.166 -7.33301 -50.499 -22s-21.5 -32.334 -21.5 -53.001c0 -16.667 5.33301 -30.167 16 -40.5s24 -15.5 40 -15.5c18.667 0 35.167 7.33301 49.5 22z" />
    <glyph glyph-name="AE" unicode="&#xc6;" horiz-adv-x="786" 
d="M795 641c-2 -2 -4.67188 -2.99902 -8.00488 -2.99902h-277c-2.66699 0 -4 -1.33301 -4 -4l-31 -248c0 -2.66699 1.33301 -4 4 -4h182c6.66699 0 9.33398 -3.33301 8.00098 -10l-5 -42c-1.33301 -6.66699 -5 -10 -11 -10h-182c-2.66699 0 -4 -1.33301 -4 -4l-31 -250
c0 -2.66699 1 -4 3 -4h278c6.66699 0 9.33398 -3.33301 8.00098 -10l-5 -42c-1.33301 -6.66699 -5 -10 -11 -10h-341c-3.33301 0 -5.83301 1 -7.5 3s-2.16699 4.33301 -1.5 7l15 123c0.666992 0.666992 0.666992 1.5 0 2.5s-1.66699 1.5 -3 1.5h-213
c-1.33301 0 -2.66602 -1 -3.99902 -3l-74 -127c-2 -4.66699 -6 -7 -12 -7h-54c-3.33301 0 -5.66602 1.16699 -6.99902 3.5s-1 5.16602 1 8.49902l402 681c2.66699 4.66699 7 7 13 7h372c6.66699 0 9.33398 -3.33301 8.00098 -10l-5 -42c0 -2.66699 -1 -5 -3 -7z
M191.995 196.501c0.666992 -1 1.66699 -1.5 3 -1.5h183c2.66699 0 4 1.33301 4 4l51 404c0 4 -1.66699 4.33301 -5 1l-236 -404c-0.666992 -1.33301 -0.666992 -2.5 0 -3.5z" />
    <glyph glyph-name="Ccedilla" unicode="&#xc7;" horiz-adv-x="511" 
d="M494 498c-2 -2 -4.33105 -2.99902 -6.99805 -2.99902l-50 -2c-6 0 -9 3 -9 9l2 14c0.666992 4.66699 1 11.667 1 21c0 33.333 -10.167 59.833 -30.5 79.5s-47.833 29.5 -82.5 29.5c-38.667 0 -71 -11.833 -97 -35.5s-41.333 -55.167 -46 -94.5l-41 -332
c-0.666992 -4.66699 -1 -11.334 -1 -20.001c0 -33.333 10 -60 30 -80s47.333 -30 82 -30c38.667 0 71.167 12 97.5 36s41.833 55.333 46.5 94l2 14c1.33301 6 5 9 11 9l49 -3c6.66699 0 9.33398 -3.33301 8.00098 -10l-1 -7c-6.66699 -56 -28.334 -101.5 -65.001 -136.5
s-82.667 -54.5 -138 -58.5c-4.66699 0 -5.33398 -1.66699 -2.00098 -5c21.333 -23.333 32 -49.333 32 -78c0 -11.333 -1.66699 -23 -5 -35c-6.66699 -21.333 -18 -36.666 -34 -45.999s-33.667 -14 -53 -14c-12 0 -23.667 1.66699 -35 5
c-5.33301 0.666992 -7 4.33398 -5 11.001l6 23c2 6.66699 6.33301 9 13 7c4 -1.33301 9.66699 -2 17 -2c22.667 0 37.667 11.667 45 35c2 6.66699 3 13.667 3 21c0 13.333 -3.66699 27 -11 41s-17.333 27 -30 39c-0.666992 1.33301 -2 2 -4 2c-40 8 -71.333 26.167 -94 54.5
s-34 64.166 -34 107.499c0 6 0.666992 16.333 2 31l40 323c6.66699 59.333 30.167 106.833 70.5 142.5s90.166 53.5 149.499 53.5c54 0 96.667 -14.833 128 -44.5s47 -69.834 47 -120.501c0 -6 -0.666992 -15.667 -2 -29l-1 -9c-0.666992 -2.66699 -2 -5 -4 -7z" />
    <glyph glyph-name="Egrave" unicode="&#xc8;" horiz-adv-x="502" 
d="M503 638h-291.003c-2.66699 0 -4 -1.33301 -4 -4l-31 -248c0 -2.66699 1.33301 -4 4 -4h196c6.66699 0 9.33398 -3.33301 8.00098 -10l-5 -42c-1.33301 -6.66699 -5 -10 -11 -10h-196c-2.66699 0 -4 -1.33301 -4 -4l-31 -250c0 -1.33301 0.333008 -2.33301 1 -3
s1.33398 -1 2.00098 -1h291c3.33301 0 5.83301 -1 7.5 -3s2.16699 -4.33301 1.5 -7l-5 -42c-1.33301 -6.66699 -5 -10 -11 -10h-354c-6 -0 -9 3.33301 -9 10l84 680c1.33301 6.66699 5 10 11 10h354c6.66699 0 9.33398 -3.33301 8.00098 -10l-5 -42
c-1.33301 -6.66699 -5 -10 -11 -10zM364.997 773c0 -4.66699 -3 -7 -9 -7h-33c-4 0 -7.66699 2.33301 -11 7l-52 109c-0.666992 1.33301 -1 3.33301 -1 6c0 4 2.66699 6 8 6h42c6 0 9.33301 -2.33301 10 -7l45 -109c0.666992 -1.33301 1 -3 1 -5z" />
    <glyph glyph-name="Eacute" unicode="&#xc9;" horiz-adv-x="502" 
d="M503 638h-291.003c-2.66699 0 -4 -1.33301 -4 -4l-31 -248c0 -2.66699 1.33301 -4 4 -4h196c6.66699 0 9.33398 -3.33301 8.00098 -10l-5 -42c-1.33301 -6.66699 -5 -10 -11 -10h-196c-2.66699 0 -4 -1.33301 -4 -4l-31 -250c0 -1.33301 0.333008 -2.33301 1 -3
s1.33398 -1 2.00098 -1h291c3.33301 0 5.83301 -1 7.5 -3s2.16699 -4.33301 1.5 -7l-5 -42c-1.33301 -6.66699 -5 -10 -11 -10h-354c-6 -0 -9 3.33301 -9 10l84 680c1.33301 6.66699 5 10 11 10h354c6.66699 0 9.33398 -3.33301 8.00098 -10l-5 -42
c-1.33301 -6.66699 -5 -10 -11 -10zM299.997 769.5c-1.33301 2.33301 -0.667969 5.16602 1.99902 8.49902l73 109c3.33301 4.66699 7.33301 7 12 7h42c4 0 6.33301 -1.16699 7 -3.5s-0.333008 -5.16602 -3 -8.49902l-80 -109c-4.66699 -4.66699 -9 -7 -13 -7h-33
c-3.33301 0 -5.66602 1.16699 -6.99902 3.5z" />
    <glyph glyph-name="Ecircumflex" unicode="&#xca;" horiz-adv-x="502" 
d="M503 638h-291.003c-2.66699 0 -4 -1.33301 -4 -4l-31 -248c0 -2.66699 1.33301 -4 4 -4h196c6.66699 0 9.33398 -3.33301 8.00098 -10l-5 -42c-1.33301 -6.66699 -5 -10 -11 -10h-196c-2.66699 0 -4 -1.33301 -4 -4l-31 -250c0 -1.33301 0.333008 -2.33301 1 -3
s1.33398 -1 2.00098 -1h291c3.33301 0 5.83301 -1 7.5 -3s2.16699 -4.33301 1.5 -7l-5 -42c-1.33301 -6.66699 -5 -10 -11 -10h-354c-6 -0 -9 3.33301 -9 10l84 680c1.33301 6.66699 5 10 11 10h354c6.66699 0 9.33398 -3.33301 8.00098 -10l-5 -42
c-1.33301 -6.66699 -5 -10 -11 -10zM227.497 773.5c-1 2.33301 -0.166016 5.16797 2.50098 8.50098l84 106c2.66699 4 6.66699 6 12 6h57c6 0 9.66699 -2 11 -6l59 -106c1.33301 -2.66699 2 -4.33398 2 -5.00098c0 -2 -0.833008 -3.66699 -2.5 -5s-3.83398 -2 -6.50098 -2
h-41c-5.33301 0 -9 2.33301 -11 7l-40 78c-0.666992 1.33301 -1.66699 1.83301 -3 1.5s-2.33301 -0.833008 -3 -1.5l-61 -79c-2.66699 -4 -6.66699 -6 -12 -6h-40c-4 0 -6.5 1.16699 -7.5 3.5z" />
    <glyph glyph-name="Edieresis" unicode="&#xcb;" horiz-adv-x="502" 
d="M503 638h-291.003c-2.66699 0 -4 -1.33301 -4 -4l-31 -248c0 -2.66699 1.33301 -4 4 -4h196c6.66699 0 9.33398 -3.33301 8.00098 -10l-5 -42c-1.33301 -6.66699 -5 -10 -11 -10h-196c-2.66699 0 -4 -1.33301 -4 -4l-31 -250c0 -1.33301 0.333008 -2.33301 1 -3
s1.33398 -1 2.00098 -1h291c3.33301 0 5.83301 -1 7.5 -3s2.16699 -4.33301 1.5 -7l-5 -42c-1.33301 -6.66699 -5 -10 -11 -10h-354c-6 -0 -9 3.33301 -9 10l84 680c1.33301 6.66699 5 10 11 10h354c6.66699 0 9.33398 -3.33301 8.00098 -10l-5 -42
c-1.33301 -6.66699 -5 -10 -11 -10zM386.997 806.5c-8.66699 9 -12.999 20.501 -12.999 34.501c0 18.667 6 34 18 46s26.667 18 44 18c14 0 25.5 -4.33301 34.5 -13s13.5 -20.334 13.5 -35.001c0 -18 -6 -33.167 -18 -45.5s-26.667 -18.5 -44 -18.5
c-14.667 0 -26.334 4.5 -35.001 13.5zM230.998 806.501c-8.66699 9 -12.999 20.501 -12.999 34.501c0 18.667 6 34 18 46s26.667 18 44 18c14 0 25.5 -4.33301 34.5 -13s13.5 -20.334 13.5 -35.001c0 -18 -6 -33.167 -18 -45.5s-26.667 -18.5 -44 -18.5
c-14.667 0 -26.334 4.5 -35.001 13.5z" />
    <glyph glyph-name="Igrave" unicode="&#xcc;" horiz-adv-x="230" 
d="M62 10l84 680c1.33301 6.66699 5 10 11 10h49c6 0 9 -3.33301 9 -10l-84 -680c-1.33301 -6.66699 -5 -10 -11 -10h-49c-6 -0 -9 3.33301 -9 10zM214 773c0 -4.66699 -3 -7 -9 -7h-33c-4 0 -7.66699 2.33301 -11 7l-52 109c-0.666992 1.33301 -1 3.33301 -1 6
c0 4 2.66699 6 8 6h42c6 0 9.33301 -2.33301 10 -7l45 -109c0.666992 -1.33301 1 -3 1 -5z" />
    <glyph glyph-name="Iacute" unicode="&#xcd;" horiz-adv-x="230" 
d="M62 10l84 680c1.33301 6.66699 5 10 11 10h49c6 0 9 -3.33301 9 -10l-84 -680c-1.33301 -6.66699 -5 -10 -11 -10h-49c-6 -0 -9 3.33301 -9 10zM149 769.5c-1.33301 2.33301 -0.667969 5.16602 1.99902 8.49902l73 109c3.33301 4.66699 7.33301 7 12 7h42
c4 0 6.33301 -1.16699 7 -3.5s-0.333008 -5.16602 -3 -8.49902l-80 -109c-4.66699 -4.66699 -9 -7 -13 -7h-33c-3.33301 0 -5.66602 1.16699 -6.99902 3.5z" />
    <glyph glyph-name="Icircumflex" unicode="&#xce;" horiz-adv-x="230" 
d="M62 10l84 680c1.33301 6.66699 5 10 11 10h49c6 0 9 -3.33301 9 -10l-84 -680c-1.33301 -6.66699 -5 -10 -11 -10h-49c-6 -0 -9 3.33301 -9 10zM76.5 773.5c-1 2.33301 -0.166016 5.16797 2.50098 8.50098l84 106c2.66699 4 6.66699 6 12 6h57c6 0 9.66699 -2 11 -6
l59 -106c1.33301 -2.66699 2 -4.33398 2 -5.00098c0 -2 -0.833008 -3.66699 -2.5 -5s-3.83398 -2 -6.50098 -2h-41c-5.33301 0 -9 2.33301 -11 7l-40 78c-0.666992 1.33301 -1.66699 1.83301 -3 1.5s-2.33301 -0.833008 -3 -1.5l-61 -79c-2.66699 -4 -6.66699 -6 -12 -6h-40
c-4 0 -6.5 1.16699 -7.5 3.5z" />
    <glyph glyph-name="Idieresis" unicode="&#xcf;" horiz-adv-x="230" 
d="M62 10l84 680c1.33301 6.66699 5 10 11 10h49c6 0 9 -3.33301 9 -10l-84 -680c-1.33301 -6.66699 -5 -10 -11 -10h-49c-6 -0 -9 3.33301 -9 10zM236 806.5c-8.66699 9 -12.999 20.501 -12.999 34.501c0 18.667 6 34 18 46s26.667 18 44 18c14 0 25.5 -4.33301 34.5 -13
s13.5 -20.334 13.5 -35.001c0 -18 -6 -33.167 -18 -45.5s-26.667 -18.5 -44 -18.5c-14.667 0 -26.334 4.5 -35.001 13.5zM80.001 806.501c-8.66699 9 -12.999 20.501 -12.999 34.501c0 18.667 6 34 18 46s26.667 18 44 18c14 0 25.5 -4.33301 34.5 -13
s13.5 -20.334 13.5 -35.001c0 -18 -6 -33.167 -18 -45.5s-26.667 -18.5 -44 -18.5c-14.667 0 -26.334 4.5 -35.001 13.5z" />
    <glyph glyph-name="Eth" unicode="&#xd0;" horiz-adv-x="578" 
d="M520 658c29.333 -28 44 -66.333 44 -115c0 -7.33301 -0.666992 -18.333 -2 -33l-39 -320c-6.66699 -58.667 -29.167 -105 -67.5 -139s-86.166 -51 -143.499 -51h-189c-6.66699 -0 -9.33398 3.33301 -8.00098 10l40 327c0 2.66699 -1.33301 4 -4 4h-38
c-3.33301 0 -5.83301 1 -7.5 3s-2.16699 4.33301 -1.5 7l4 28c0 2.66699 1 5 3 7s4.66699 3 8 3h38c2 0 3.66699 1.33301 5 4l36 297c1.33301 6.66699 5 10 11 10h189c52 0 92.667 -14 122 -42zM492 504c1.33301 12 2 20.332 2 24.999c0 34 -9 60.667 -27 80s-43 29 -75 29
h-127c-1.33301 0 -2.5 -0.333008 -3.5 -1s-1.5 -1.66699 -1.5 -3l-29 -241c-0.666992 -0.666992 -0.666992 -1.5 0 -2.5s1.66699 -1.5 3 -1.5h94c6 0 9 -3.33301 9 -10l-4 -28c-1.33301 -6.66699 -5 -10 -11 -10h-94c-2.66699 0 -4 -1.33301 -4 -4l-34 -271
c0 -2.66699 1.33301 -4 4 -4h128c35.333 0.666992 65 12.834 89 36.501s38.333 56.167 43 97.5z" />
    <glyph glyph-name="Ntilde" unicode="&#xd1;" horiz-adv-x="567" 
d="M494 700h49.998c6.66699 0 9.33398 -3.33301 8.00098 -10l-83 -680c-1.33301 -6.66699 -5 -10 -11 -10h-53c-6 -0 -9.33301 2.33301 -10 7l-195 535c-0.666992 1.33301 -1.5 2 -2.5 2s-1.83301 -1 -2.5 -3l-64 -531c-1.33301 -6.66699 -5 -10 -11 -10h-49
c-6 -0 -9 3.33301 -9 10l84 680c1.33301 6.66699 5 10 11 10h52c6.66699 0 10.334 -2.33301 11.001 -7l194 -537c2 -3.33301 3.66699 -3 5 1l64 533c1.33301 6.66699 5 10 11 10zM393.998 810c-8 4 -16.3281 9.33301 -24.9951 16c-3.33301 2 -7.83301 5 -13.5 9
s-10.834 6.83301 -15.501 8.5s-9.66699 2.5 -15 2.5c-9.33301 0 -18 -2 -26 -6s-16 -10.667 -24 -20c-5.33301 -6 -10 -7 -14 -3l-17 15c-4 5.33301 -4.33301 10 -1 14c23.333 34 51.666 51 84.999 51c10.667 0 20.167 -2 28.5 -6s17.5 -9.66699 27.5 -17
c1.33301 -1.33301 5 -4 11 -8s11.667 -7.16699 17 -9.5s10.666 -3.5 15.999 -3.5c19.333 0 35.666 9.66699 48.999 29c5.33301 6 10 7 14 3l17 -14c2 -0.666992 3 -3 3 -7s-1.33301 -7.66699 -4 -11c-11.333 -16 -24.833 -28.167 -40.5 -36.5s-30.834 -12.5 -45.501 -12.5
c-10 0 -19 2 -27 6z" />
    <glyph glyph-name="Ograve" unicode="&#xd2;" horiz-adv-x="523" 
d="M112.5 38.5c-31.667 31 -47.502 72.501 -47.502 124.501c0 6.66699 0.666992 17.334 2 32.001l38 309c7.33301 61.333 31.5 110.666 72.5 147.999s91.167 56 150.5 56c54 0 97 -15.667 129 -47s48 -73 48 -125c0 -6.66699 -0.666992 -17.334 -2 -32.001l-38 -309
c-7.33301 -60.667 -31.666 -109.667 -72.999 -147s-91.666 -56 -150.999 -56c-54 0 -96.833 15.5 -128.5 46.5zM347.498 92.001c27 25.333 43.166 58.668 48.499 100.001l39 314c0.666992 5.33301 1 12.666 1 21.999c0 36 -10.333 64.667 -31 86s-48.667 32 -84 32
c-39.333 0 -72.5 -12.833 -99.5 -38.5s-42.833 -59.5 -47.5 -101.5l-39 -314c-0.666992 -4.66699 -1 -12 -1 -22c0 -35.333 10.333 -63.5 31 -84.5s48.334 -31.5 83.001 -31.5c39.333 0 72.5 12.667 99.5 38zM359.997 773.003c0 -4.66699 -3 -7 -9 -7h-33
c-4 0 -7.66699 2.33301 -11 7l-52 109c-0.666992 1.33301 -1 3.33301 -1 6c0 4 2.66699 6 8 6h42c6 0 9.33301 -2.33301 10 -7l45 -109c0.666992 -1.33301 1 -3 1 -5z" />
    <glyph glyph-name="Oacute" unicode="&#xd3;" horiz-adv-x="523" 
d="M112.5 38.5c-31.667 31 -47.502 72.501 -47.502 124.501c0 6.66699 0.666992 17.334 2 32.001l38 309c7.33301 61.333 31.5 110.666 72.5 147.999s91.167 56 150.5 56c54 0 97 -15.667 129 -47s48 -73 48 -125c0 -6.66699 -0.666992 -17.334 -2 -32.001l-38 -309
c-7.33301 -60.667 -31.666 -109.667 -72.999 -147s-91.666 -56 -150.999 -56c-54 0 -96.833 15.5 -128.5 46.5zM347.498 92.001c27 25.333 43.166 58.668 48.499 100.001l39 314c0.666992 5.33301 1 12.666 1 21.999c0 36 -10.333 64.667 -31 86s-48.667 32 -84 32
c-39.333 0 -72.5 -12.833 -99.5 -38.5s-42.833 -59.5 -47.5 -101.5l-39 -314c-0.666992 -4.66699 -1 -12 -1 -22c0 -35.333 10.333 -63.5 31 -84.5s48.334 -31.5 83.001 -31.5c39.333 0 72.5 12.667 99.5 38zM294.997 769.503
c-1.33301 2.33301 -0.667969 5.16602 1.99902 8.49902l73 109c3.33301 4.66699 7.33301 7 12 7h42c4 0 6.33301 -1.16699 7 -3.5s-0.333008 -5.16602 -3 -8.49902l-80 -109c-4.66699 -4.66699 -9 -7 -13 -7h-33c-3.33301 0 -5.66602 1.16699 -6.99902 3.5z" />
    <glyph glyph-name="Ocircumflex" unicode="&#xd4;" horiz-adv-x="523" 
d="M112.5 38.5c-31.667 31 -47.502 72.501 -47.502 124.501c0 6.66699 0.666992 17.334 2 32.001l38 309c7.33301 61.333 31.5 110.666 72.5 147.999s91.167 56 150.5 56c54 0 97 -15.667 129 -47s48 -73 48 -125c0 -6.66699 -0.666992 -17.334 -2 -32.001l-38 -309
c-7.33301 -60.667 -31.666 -109.667 -72.999 -147s-91.666 -56 -150.999 -56c-54 0 -96.833 15.5 -128.5 46.5zM347.498 92.001c27 25.333 43.166 58.668 48.499 100.001l39 314c0.666992 5.33301 1 12.666 1 21.999c0 36 -10.333 64.667 -31 86s-48.667 32 -84 32
c-39.333 0 -72.5 -12.833 -99.5 -38.5s-42.833 -59.5 -47.5 -101.5l-39 -314c-0.666992 -4.66699 -1 -12 -1 -22c0 -35.333 10.333 -63.5 31 -84.5s48.334 -31.5 83.001 -31.5c39.333 0 72.5 12.667 99.5 38zM222.497 773.503c-1 2.33301 -0.166016 5.16797 2.50098 8.50098
l84 106c2.66699 4 6.66699 6 12 6h57c6 0 9.66699 -2 11 -6l59 -106c1.33301 -2.66699 2 -4.33398 2 -5.00098c0 -2 -0.833008 -3.66699 -2.5 -5s-3.83398 -2 -6.50098 -2h-41c-5.33301 0 -9 2.33301 -11 7l-40 78c-0.666992 1.33301 -1.66699 1.83301 -3 1.5
s-2.33301 -0.833008 -3 -1.5l-61 -79c-2.66699 -4 -6.66699 -6 -12 -6h-40c-4 0 -6.5 1.16699 -7.5 3.5z" />
    <glyph glyph-name="Otilde" unicode="&#xd5;" horiz-adv-x="523" 
d="M112.5 38.5c-31.667 31 -47.502 72.501 -47.502 124.501c0 6.66699 0.666992 17.334 2 32.001l38 309c7.33301 61.333 31.5 110.666 72.5 147.999s91.167 56 150.5 56c54 0 97 -15.667 129 -47s48 -73 48 -125c0 -6.66699 -0.666992 -17.334 -2 -32.001l-38 -309
c-7.33301 -60.667 -31.666 -109.667 -72.999 -147s-91.666 -56 -150.999 -56c-54 0 -96.833 15.5 -128.5 46.5zM347.498 92.001c27 25.333 43.166 58.668 48.499 100.001l39 314c0.666992 5.33301 1 12.666 1 21.999c0 36 -10.333 64.667 -31 86s-48.667 32 -84 32
c-39.333 0 -72.5 -12.833 -99.5 -38.5s-42.833 -59.5 -47.5 -101.5l-39 -314c-0.666992 -4.66699 -1 -12 -1 -22c0 -35.333 10.333 -63.5 31 -84.5s48.334 -31.5 83.001 -31.5c39.333 0 72.5 12.667 99.5 38zM370.997 806.003c-8 4 -16.3281 9.33301 -24.9951 16
c-3.33301 2 -7.83301 5 -13.5 9s-10.834 6.83301 -15.501 8.5s-9.66699 2.5 -15 2.5c-9.33301 0 -18 -2 -26 -6s-16 -10.667 -24 -20c-5.33301 -6 -10 -7 -14 -3l-17 15c-4 5.33301 -4.33301 10 -1 14c23.333 34 51.666 51 84.999 51c10.667 0 20.167 -2 28.5 -6
s17.5 -9.66699 27.5 -17c1.33301 -1.33301 5 -4 11 -8s11.667 -7.16699 17 -9.5s10.666 -3.5 15.999 -3.5c19.333 0 35.666 9.66699 48.999 29c5.33301 6 10 7 14 3l17 -14c2 -0.666992 3 -3 3 -7s-1.33301 -7.66699 -4 -11c-11.333 -16 -24.833 -28.167 -40.5 -36.5
s-30.834 -12.5 -45.501 -12.5c-10 0 -19 2 -27 6z" />
    <glyph glyph-name="Odieresis" unicode="&#xd6;" horiz-adv-x="523" 
d="M112.5 38.5c-31.667 31 -47.502 72.501 -47.502 124.501c0 6.66699 0.666992 17.334 2 32.001l38 309c7.33301 61.333 31.5 110.666 72.5 147.999s91.167 56 150.5 56c54 0 97 -15.667 129 -47s48 -73 48 -125c0 -6.66699 -0.666992 -17.334 -2 -32.001l-38 -309
c-7.33301 -60.667 -31.666 -109.667 -72.999 -147s-91.666 -56 -150.999 -56c-54 0 -96.833 15.5 -128.5 46.5zM347.498 92.001c27 25.333 43.166 58.668 48.499 100.001l39 314c0.666992 5.33301 1 12.666 1 21.999c0 36 -10.333 64.667 -31 86s-48.667 32 -84 32
c-39.333 0 -72.5 -12.833 -99.5 -38.5s-42.833 -59.5 -47.5 -101.5l-39 -314c-0.666992 -4.66699 -1 -12 -1 -22c0 -35.333 10.333 -63.5 31 -84.5s48.334 -31.5 83.001 -31.5c39.333 0 72.5 12.667 99.5 38zM381.997 806.503c-8.66699 9 -12.999 20.501 -12.999 34.501
c0 18.667 6 34 18 46s26.667 18 44 18c14 0 25.5 -4.33301 34.5 -13s13.5 -20.334 13.5 -35.001c0 -18 -6 -33.167 -18 -45.5s-26.667 -18.5 -44 -18.5c-14.667 0 -26.334 4.5 -35.001 13.5zM225.998 806.504c-8.66699 9 -12.999 20.501 -12.999 34.501c0 18.667 6 34 18 46
s26.667 18 44 18c14 0 25.5 -4.33301 34.5 -13s13.5 -20.334 13.5 -35.001c0 -18 -6 -33.167 -18 -45.5s-26.667 -18.5 -44 -18.5c-14.667 0 -26.334 4.5 -35.001 13.5z" />
    <glyph glyph-name="multiply" unicode="&#xd7;" horiz-adv-x="384" 
d="M381 437c0 -2.66699 -1.33301 -5.33398 -4 -8.00098l-122 -111c-2 -2 -2 -4 0 -6l92 -109c1.33301 -2.66699 2 -4.66699 2 -6c0 -3.33301 -1.33301 -6 -4 -8l-29 -28c-2.66699 -2 -5.33398 -3 -8.00098 -3s-4.66699 1 -6 3l-92 110c-2 2 -4 2 -6 0l-121 -111
c-5.33301 -4 -10 -4 -14 0l-23 27c-1.33301 2.66699 -2 4.33398 -2 5.00098c0 3.33301 1.33301 6.33301 4 9l120 111c2.66699 2.66699 3 4.66699 1 6l-95 112c-1.33301 2.66699 -2 4.66699 -2 6c0 3.33301 1.33301 6 4 8l30 27c2.66699 2 5.33398 3 8.00098 3
s4.66699 -1 6 -3l95 -112c0.666992 -2 2.66699 -2 6 0l120 111c2 2 4.33301 3 7 3s5 -1 7 -3l23 -27c2 -2 3 -4 3 -6z" />
    <glyph glyph-name="Oslash" unicode="&#xd8;" horiz-adv-x="556" 
d="M538 691l-47.001 -72.001c-0.666992 -1.33301 -0.833984 -2.5 -0.500977 -3.5s0.5 -1.83301 0.5 -2.5c10 -22 15 -47.333 15 -76c0 -7.33301 -0.666992 -18.333 -2 -33l-38 -309c-7.33301 -60.667 -31.666 -109.667 -72.999 -147s-92 -56 -152 -56
c-48.667 0 -89.667 13.333 -123 40c-1.33301 2.66699 -3 2.33398 -5 -0.999023l-34 -54c-2 -2.66699 -4.33301 -4.33398 -7 -5.00098s-5 -0.333984 -7 0.999023l-31 19c-2.66699 1.33301 -4.16699 3.33301 -4.5 6s0.5 5.33398 2.5 8.00098l48 75c1.33301 2 1.33301 4 0 6
c-10 23.333 -15 48 -15 74c0 10.667 1 22 3 34l38 309c7.33301 61.333 31.5 110.666 72.5 147.999s90.833 56 149.5 56c51.333 0 92.666 -13.667 123.999 -41c2.66699 -2 4.33398 -1.66699 5.00098 1l35 55c2 2.66699 4.33301 4.33398 7 5.00098s5 0 7 -2l30 -22
c4.66699 -3.33301 5.33398 -7.66602 2.00098 -12.999zM134.999 174.999c-0.666992 -2 -0.330078 -3.16699 1.00293 -3.5s2.66602 0.5 3.99902 2.5l273 426c1.33301 2.66699 1.66602 4.66699 0.999023 6c-22.667 26.667 -53.667 40 -93 40
c-38.667 0 -71.334 -12.833 -98.001 -38.5s-42.667 -59.5 -48 -101.5l-39 -314c-0.666992 -4 -1 -9.66699 -1 -17zM437.003 524.999c0 2 -0.498047 3.16797 -1.49805 3.50098s-2.16699 -0.5 -3.5 -2.5l-274 -426c-1.33301 -2.66699 -1.66602 -4.66699 -0.999023 -6
c21.333 -26.667 51.666 -40 90.999 -40s72.666 12.667 99.999 38s43.666 58.666 48.999 99.999l39 314z" />
    <glyph glyph-name="Ugrave" unicode="&#xd9;" horiz-adv-x="545" 
d="M124 39.5c-31.333 31.667 -47 74.167 -47 127.5c0 7.33301 0.666992 18.333 2 33l60 490c1.33301 6.66699 5 10 11 10h49c3.33301 0 5.83301 -1 7.5 -3s2.16699 -4.33301 1.5 -7l-61 -494c-0.666992 -5.33301 -1 -13 -1 -23c0 -36 10.167 -64.833 30.5 -86.5
s48.166 -32.5 83.499 -32.5c38.667 0 71.667 13 99 39s43.333 60.333 48 103l61 494c1.33301 6.66699 5 10 11 10h49c6 0 9 -3.33301 9 -10l-60 -490c-8 -62.667 -32.667 -113 -74 -151s-91.666 -57 -150.999 -57c-54 0 -96.667 15.833 -128 47.5zM372 773
c0 -4.66699 -3 -7 -9 -7h-33c-4 0 -7.66699 2.33301 -11 7l-52 109c-0.666992 1.33301 -1 3.33301 -1 6c0 4 2.66699 6 8 6h42c6 0 9.33301 -2.33301 10 -7l45 -109c0.666992 -1.33301 1 -3 1 -5z" />
    <glyph glyph-name="Uacute" unicode="&#xda;" horiz-adv-x="545" 
d="M124 39.5c-31.333 31.667 -47 74.167 -47 127.5c0 7.33301 0.666992 18.333 2 33l60 490c1.33301 6.66699 5 10 11 10h49c3.33301 0 5.83301 -1 7.5 -3s2.16699 -4.33301 1.5 -7l-61 -494c-0.666992 -5.33301 -1 -13 -1 -23c0 -36 10.167 -64.833 30.5 -86.5
s48.166 -32.5 83.499 -32.5c38.667 0 71.667 13 99 39s43.333 60.333 48 103l61 494c1.33301 6.66699 5 10 11 10h49c6 0 9 -3.33301 9 -10l-60 -490c-8 -62.667 -32.667 -113 -74 -151s-91.666 -57 -150.999 -57c-54 0 -96.667 15.833 -128 47.5zM307 769.5
c-1.33301 2.33301 -0.667969 5.16602 1.99902 8.49902l73 109c3.33301 4.66699 7.33301 7 12 7h42c4 0 6.33301 -1.16699 7 -3.5s-0.333008 -5.16602 -3 -8.49902l-80 -109c-4.66699 -4.66699 -9 -7 -13 -7h-33c-3.33301 0 -5.66602 1.16699 -6.99902 3.5z" />
    <glyph glyph-name="Ucircumflex" unicode="&#xdb;" horiz-adv-x="545" 
d="M124 39.5c-31.333 31.667 -47 74.167 -47 127.5c0 7.33301 0.666992 18.333 2 33l60 490c1.33301 6.66699 5 10 11 10h49c3.33301 0 5.83301 -1 7.5 -3s2.16699 -4.33301 1.5 -7l-61 -494c-0.666992 -5.33301 -1 -13 -1 -23c0 -36 10.167 -64.833 30.5 -86.5
s48.166 -32.5 83.499 -32.5c38.667 0 71.667 13 99 39s43.333 60.333 48 103l61 494c1.33301 6.66699 5 10 11 10h49c6 0 9 -3.33301 9 -10l-60 -490c-8 -62.667 -32.667 -113 -74 -151s-91.666 -57 -150.999 -57c-54 0 -96.667 15.833 -128 47.5zM234.5 773.5
c-1 2.33301 -0.166016 5.16797 2.50098 8.50098l84 106c2.66699 4 6.66699 6 12 6h57c6 0 9.66699 -2 11 -6l59 -106c1.33301 -2.66699 2 -4.33398 2 -5.00098c0 -2 -0.833008 -3.66699 -2.5 -5s-3.83398 -2 -6.50098 -2h-41c-5.33301 0 -9 2.33301 -11 7l-40 78
c-0.666992 1.33301 -1.66699 1.83301 -3 1.5s-2.33301 -0.833008 -3 -1.5l-61 -79c-2.66699 -4 -6.66699 -6 -12 -6h-40c-4 0 -6.5 1.16699 -7.5 3.5z" />
    <glyph glyph-name="Udieresis" unicode="&#xdc;" horiz-adv-x="545" 
d="M124 39.5c-31.333 31.667 -47 74.167 -47 127.5c0 7.33301 0.666992 18.333 2 33l60 490c1.33301 6.66699 5 10 11 10h49c3.33301 0 5.83301 -1 7.5 -3s2.16699 -4.33301 1.5 -7l-61 -494c-0.666992 -5.33301 -1 -13 -1 -23c0 -36 10.167 -64.833 30.5 -86.5
s48.166 -32.5 83.499 -32.5c38.667 0 71.667 13 99 39s43.333 60.333 48 103l61 494c1.33301 6.66699 5 10 11 10h49c6 0 9 -3.33301 9 -10l-60 -490c-8 -62.667 -32.667 -113 -74 -151s-91.666 -57 -150.999 -57c-54 0 -96.667 15.833 -128 47.5zM394 806.5
c-8.66699 9 -12.999 20.501 -12.999 34.501c0 18.667 6 34 18 46s26.667 18 44 18c14 0 25.5 -4.33301 34.5 -13s13.5 -20.334 13.5 -35.001c0 -18 -6 -33.167 -18 -45.5s-26.667 -18.5 -44 -18.5c-14.667 0 -26.334 4.5 -35.001 13.5zM238.001 806.501
c-8.66699 9 -12.999 20.501 -12.999 34.501c0 18.667 6 34 18 46s26.667 18 44 18c14 0 25.5 -4.33301 34.5 -13s13.5 -20.334 13.5 -35.001c0 -18 -6 -33.167 -18 -45.5s-26.667 -18.5 -44 -18.5c-14.667 0 -26.334 4.5 -35.001 13.5z" />
    <glyph glyph-name="Yacute" unicode="&#xdd;" horiz-adv-x="481" 
d="M188 11l36.0029 297.999c0 0.666992 0.166992 1.5 0.5 2.5s0.166016 1.83301 -0.500977 2.5l-122 374l-1 3c0 6 3.33301 9 10 9h53c5.33301 0 8.33301 -2.66699 9 -8l94 -299c0 -1.33301 0.666992 -2 2 -2s2.33301 0.666992 3 2l167 299c2.66699 5.33301 6.66699 8 12 8
h52c3.33301 0 5.66602 -1.16699 6.99902 -3.5s1 -5.16602 -1 -8.49902l-214 -374c-1.33301 -1.33301 -2 -3 -2 -5l-37 -298c0 -2.66699 -1 -5 -3 -7s-4.33301 -3 -7 -3h-50c-6.66699 0 -9.33398 3.33301 -8.00098 10zM275.003 769.499
c-1.33301 2.33301 -0.667969 5.16602 1.99902 8.49902l73 109c3.33301 4.66699 7.33301 7 12 7h42c4 0 6.33301 -1.16699 7 -3.5s-0.333008 -5.16602 -3 -8.49902l-80 -109c-4.66699 -4.66699 -9 -7 -13 -7h-33c-3.33301 0 -5.66602 1.16699 -6.99902 3.5z" />
    <glyph glyph-name="Thorn" unicode="&#xde;" horiz-adv-x="490" 
d="M440 500c27.333 -29.333 41.001 -68.333 41.001 -117c0 -14.667 -0.666992 -26 -2 -34c-6.66699 -57.333 -28.334 -103.5 -65.001 -138.5s-80.667 -52.5 -132 -52.5h-133c-2.66699 0 -4 -1.33301 -4 -4l-18 -144c0 -2.66699 -1 -5 -3 -7s-4.66699 -3 -8 -3h-49
c-6 -0 -9 3.33301 -9 10l84 680c1.33301 6.66699 5 10 11 10h49c3.33301 0 5.83301 -1 7.5 -3s2.16699 -4.33301 1.5 -7l-18 -142c0 -2.66699 1.33301 -4 4 -4h133c46 0 82.667 -14.667 110 -44zM375.001 259.5c24.667 29 37.001 66.834 37.001 113.501
c0 33.333 -8.83301 59.666 -26.5 78.999s-41.834 29 -72.501 29h-124c-2.66699 0 -4 -1.33301 -4 -4l-32 -257c0 -2.66699 1.33301 -4 4 -4h124c38 0 69.333 14.5 94 43.5z" />
    <glyph glyph-name="germandbls" unicode="&#xdf;" horiz-adv-x="479" 
d="M51 10l61.0049 500.001c7.33301 62 28.5 110.667 63.5 146s79.167 53 132.5 53c48.667 0 86.834 -14 114.501 -42s41.5 -66.333 41.5 -115c0 -43.333 -8.5 -80.333 -25.5 -111s-40.5 -53 -70.5 -67c-2.66699 -0.666992 -3 -2.33398 -1 -5.00098
c20.667 -10.667 36.5 -27.834 47.5 -51.501s16.5 -52.167 16.5 -85.5c0 -15.333 -0.666992 -27.333 -2 -36c-8 -62 -30.667 -110.167 -68 -144.5s-86.333 -51.5 -147 -51.5h-43c-6 0 -9 3.33301 -9 10l5 41c1.33301 6.66699 5 10 11 10l48 1
c37.333 0 67.833 12.167 91.5 36.5s38.167 58.833 43.5 103.5c1.33301 14.667 2 25.334 2 32.001c0 34 -7.83301 60.5 -23.5 79.5s-37.834 28.833 -66.501 29.5h-43c-6.66699 0 -9.33398 3.33301 -8.00098 10l4 37c1.33301 6.66699 5 10 11 10h43
c35.333 0 63.166 13 83.499 39s30.5 61.667 30.5 107c0 32 -7.83301 56.833 -23.5 74.5s-38.167 26.5 -67.5 26.5c-32.667 0 -59.834 -11.333 -81.501 -34s-34.834 -54.667 -39.501 -96l-62 -507c-0.666992 -2.66699 -2 -5 -4 -7s-4.33301 -3 -7 -3h-50
c-6.66699 -0 -9.33398 3.33301 -8.00098 10z" />
    <glyph glyph-name="agrave" unicode="&#xe0;" horiz-adv-x="447" 
d="M385 506h49.999c2.66699 0 4.83398 -1 6.50098 -3s2.16699 -4.33301 1.5 -7l-60 -486c0 -2.66699 -1 -5 -3 -7s-4.66699 -3 -8 -3h-49c-6.66699 -0 -9.33398 3.33301 -8.00098 10l5 48c0.666992 2 0.333984 3.16699 -0.999023 3.5s-2.33301 -0.5 -3 -2.5
c-14.667 -21.333 -32.667 -37.833 -54 -49.5s-45 -17.5 -71 -17.5c-41.333 0 -74 13 -98 39s-36 60.667 -36 104c0 20 3.33301 59.333 10 118c6 54 12.333 93.333 19 118c10 42.667 30.333 77.167 61 103.5s67 39.5 109 39.5c26 0 48 -5.83301 66 -17.5
s31.667 -28.5 41 -50.5c0.666992 -2 1.66699 -2.83301 3 -2.5s2 1.5 2 3.5l6 49c1.33301 6.66699 5 10 11 10zM343.999 252c6 48 9.00098 84.333 9.00098 109c0 26.667 -7.83301 48.5 -23.5 65.5s-36.5 25.5 -62.5 25.5c-28 0 -52.5 -9 -73.5 -27s-34.5 -41 -40.5 -69
c-6 -26 -11.333 -60.333 -16 -103c-6 -47.333 -9 -83 -9 -107c0 -27.333 8.16699 -49.5 24.5 -66.5s38.166 -25.5 65.499 -25.5s51 9 71 27s33 41 39 69c6 25.333 11.333 59.333 16 102zM299 579c0 -4.66699 -3 -7 -9 -7h-33c-4 0 -7.66699 2.33301 -11 7l-52 109
c-0.666992 1.33301 -1 3.33301 -1 6c0 4 2.66699 6 8 6h42c6 0 9.33301 -2.33301 10 -7l45 -109c0.666992 -1.33301 1 -3 1 -5z" />
    <glyph glyph-name="aacute" unicode="&#xe1;" horiz-adv-x="447" 
d="M385 506h49.999c2.66699 0 4.83398 -1 6.50098 -3s2.16699 -4.33301 1.5 -7l-60 -486c0 -2.66699 -1 -5 -3 -7s-4.66699 -3 -8 -3h-49c-6.66699 -0 -9.33398 3.33301 -8.00098 10l5 48c0.666992 2 0.333984 3.16699 -0.999023 3.5s-2.33301 -0.5 -3 -2.5
c-14.667 -21.333 -32.667 -37.833 -54 -49.5s-45 -17.5 -71 -17.5c-41.333 0 -74 13 -98 39s-36 60.667 -36 104c0 20 3.33301 59.333 10 118c6 54 12.333 93.333 19 118c10 42.667 30.333 77.167 61 103.5s67 39.5 109 39.5c26 0 48 -5.83301 66 -17.5
s31.667 -28.5 41 -50.5c0.666992 -2 1.66699 -2.83301 3 -2.5s2 1.5 2 3.5l6 49c1.33301 6.66699 5 10 11 10zM343.999 252c6 48 9.00098 84.333 9.00098 109c0 26.667 -7.83301 48.5 -23.5 65.5s-36.5 25.5 -62.5 25.5c-28 0 -52.5 -9 -73.5 -27s-34.5 -41 -40.5 -69
c-6 -26 -11.333 -60.333 -16 -103c-6 -47.333 -9 -83 -9 -107c0 -27.333 8.16699 -49.5 24.5 -66.5s38.166 -25.5 65.499 -25.5s51 9 71 27s33 41 39 69c6 25.333 11.333 59.333 16 102zM234 575.5c-1.33301 2.33301 -0.667969 5.16602 1.99902 8.49902l73 109
c3.33301 4.66699 7.33301 7 12 7h42c4 0 6.33301 -1.16699 7 -3.5s-0.333008 -5.16602 -3 -8.49902l-80 -109c-4.66699 -4.66699 -9 -7 -13 -7h-33c-3.33301 0 -5.66602 1.16699 -6.99902 3.5z" />
    <glyph glyph-name="acircumflex" unicode="&#xe2;" horiz-adv-x="447" 
d="M385 506h49.999c2.66699 0 4.83398 -1 6.50098 -3s2.16699 -4.33301 1.5 -7l-60 -486c0 -2.66699 -1 -5 -3 -7s-4.66699 -3 -8 -3h-49c-6.66699 -0 -9.33398 3.33301 -8.00098 10l5 48c0.666992 2 0.333984 3.16699 -0.999023 3.5s-2.33301 -0.5 -3 -2.5
c-14.667 -21.333 -32.667 -37.833 -54 -49.5s-45 -17.5 -71 -17.5c-41.333 0 -74 13 -98 39s-36 60.667 -36 104c0 20 3.33301 59.333 10 118c6 54 12.333 93.333 19 118c10 42.667 30.333 77.167 61 103.5s67 39.5 109 39.5c26 0 48 -5.83301 66 -17.5
s31.667 -28.5 41 -50.5c0.666992 -2 1.66699 -2.83301 3 -2.5s2 1.5 2 3.5l6 49c1.33301 6.66699 5 10 11 10zM343.999 252c6 48 9.00098 84.333 9.00098 109c0 26.667 -7.83301 48.5 -23.5 65.5s-36.5 25.5 -62.5 25.5c-28 0 -52.5 -9 -73.5 -27s-34.5 -41 -40.5 -69
c-6 -26 -11.333 -60.333 -16 -103c-6 -47.333 -9 -83 -9 -107c0 -27.333 8.16699 -49.5 24.5 -66.5s38.166 -25.5 65.499 -25.5s51 9 71 27s33 41 39 69c6 25.333 11.333 59.333 16 102zM161.5 579.5c-1 2.33301 -0.166016 5.16797 2.50098 8.50098l84 106
c2.66699 4 6.66699 6 12 6h57c6 0 9.66699 -2 11 -6l59 -106c1.33301 -2.66699 2 -4.33398 2 -5.00098c0 -2 -0.833008 -3.66699 -2.5 -5s-3.83398 -2 -6.50098 -2h-41c-5.33301 0 -9 2.33301 -11 7l-40 78c-0.666992 1.33301 -1.66699 1.83301 -3 1.5
s-2.33301 -0.833008 -3 -1.5l-61 -79c-2.66699 -4 -6.66699 -6 -12 -6h-40c-4 0 -6.5 1.16699 -7.5 3.5z" />
    <glyph glyph-name="atilde" unicode="&#xe3;" horiz-adv-x="447" 
d="M385 506h49.999c2.66699 0 4.83398 -1 6.50098 -3s2.16699 -4.33301 1.5 -7l-60 -486c0 -2.66699 -1 -5 -3 -7s-4.66699 -3 -8 -3h-49c-6.66699 -0 -9.33398 3.33301 -8.00098 10l5 48c0.666992 2 0.333984 3.16699 -0.999023 3.5s-2.33301 -0.5 -3 -2.5
c-14.667 -21.333 -32.667 -37.833 -54 -49.5s-45 -17.5 -71 -17.5c-41.333 0 -74 13 -98 39s-36 60.667 -36 104c0 20 3.33301 59.333 10 118c6 54 12.333 93.333 19 118c10 42.667 30.333 77.167 61 103.5s67 39.5 109 39.5c26 0 48 -5.83301 66 -17.5
s31.667 -28.5 41 -50.5c0.666992 -2 1.66699 -2.83301 3 -2.5s2 1.5 2 3.5l6 49c1.33301 6.66699 5 10 11 10zM343.999 252c6 48 9.00098 84.333 9.00098 109c0 26.667 -7.83301 48.5 -23.5 65.5s-36.5 25.5 -62.5 25.5c-28 0 -52.5 -9 -73.5 -27s-34.5 -41 -40.5 -69
c-6 -26 -11.333 -60.333 -16 -103c-6 -47.333 -9 -83 -9 -107c0 -27.333 8.16699 -49.5 24.5 -66.5s38.166 -25.5 65.499 -25.5s51 9 71 27s33 41 39 69c6 25.333 11.333 59.333 16 102zM311 612c-8 4 -16.3281 9.33301 -24.9951 16c-3.33301 2 -7.83301 5 -13.5 9
s-10.834 6.83301 -15.501 8.5s-9.66699 2.5 -15 2.5c-9.33301 0 -18 -2 -26 -6s-16 -10.667 -24 -20c-5.33301 -6 -10 -7 -14 -3l-17 15c-4 5.33301 -4.33301 10 -1 14c23.333 34 51.666 51 84.999 51c10.667 0 20.167 -2 28.5 -6s17.5 -9.66699 27.5 -17
c1.33301 -1.33301 5 -4 11 -8s11.667 -7.16699 17 -9.5s10.666 -3.5 15.999 -3.5c19.333 0 35.666 9.66699 48.999 29c5.33301 6 10 7 14 3l17 -14c2 -0.666992 3 -3 3 -7s-1.33301 -7.66699 -4 -11c-11.333 -16 -24.833 -28.167 -40.5 -36.5s-30.834 -12.5 -45.501 -12.5
c-10 0 -19 2 -27 6z" />
    <glyph glyph-name="adieresis" unicode="&#xe4;" horiz-adv-x="447" 
d="M385 506h49.999c2.66699 0 4.83398 -1 6.50098 -3s2.16699 -4.33301 1.5 -7l-60 -486c0 -2.66699 -1 -5 -3 -7s-4.66699 -3 -8 -3h-49c-6.66699 -0 -9.33398 3.33301 -8.00098 10l5 48c0.666992 2 0.333984 3.16699 -0.999023 3.5s-2.33301 -0.5 -3 -2.5
c-14.667 -21.333 -32.667 -37.833 -54 -49.5s-45 -17.5 -71 -17.5c-41.333 0 -74 13 -98 39s-36 60.667 -36 104c0 20 3.33301 59.333 10 118c6 54 12.333 93.333 19 118c10 42.667 30.333 77.167 61 103.5s67 39.5 109 39.5c26 0 48 -5.83301 66 -17.5
s31.667 -28.5 41 -50.5c0.666992 -2 1.66699 -2.83301 3 -2.5s2 1.5 2 3.5l6 49c1.33301 6.66699 5 10 11 10zM343.999 252c6 48 9.00098 84.333 9.00098 109c0 26.667 -7.83301 48.5 -23.5 65.5s-36.5 25.5 -62.5 25.5c-28 0 -52.5 -9 -73.5 -27s-34.5 -41 -40.5 -69
c-6 -26 -11.333 -60.333 -16 -103c-6 -47.333 -9 -83 -9 -107c0 -27.333 8.16699 -49.5 24.5 -66.5s38.166 -25.5 65.499 -25.5s51 9 71 27s33 41 39 69c6 25.333 11.333 59.333 16 102zM321 612.5c-8.66699 9 -12.999 20.501 -12.999 34.501c0 18.667 6 34 18 46
s26.667 18 44 18c14 0 25.5 -4.33301 34.5 -13s13.5 -20.334 13.5 -35.001c0 -18 -6 -33.167 -18 -45.5s-26.667 -18.5 -44 -18.5c-14.667 0 -26.334 4.5 -35.001 13.5zM165.001 612.501c-8.66699 9 -12.999 20.501 -12.999 34.501c0 18.667 6 34 18 46s26.667 18 44 18
c14 0 25.5 -4.33301 34.5 -13s13.5 -20.334 13.5 -35.001c0 -18 -6 -33.167 -18 -45.5s-26.667 -18.5 -44 -18.5c-14.667 0 -26.334 4.5 -35.001 13.5z" />
    <glyph glyph-name="aring" unicode="&#xe5;" horiz-adv-x="447" 
d="M385 506h49.999c2.66699 0 4.83398 -1 6.50098 -3s2.16699 -4.33301 1.5 -7l-60 -486c0 -2.66699 -1 -5 -3 -7s-4.66699 -3 -8 -3h-49c-6.66699 -0 -9.33398 3.33301 -8.00098 10l5 48c0.666992 2 0.333984 3.16699 -0.999023 3.5s-2.33301 -0.5 -3 -2.5
c-14.667 -21.333 -32.667 -37.833 -54 -49.5s-45 -17.5 -71 -17.5c-41.333 0 -74 13 -98 39s-36 60.667 -36 104c0 20 3.33301 59.333 10 118c6 54 12.333 93.333 19 118c10 42.667 30.333 77.167 61 103.5s67 39.5 109 39.5c26 0 48 -5.83301 66 -17.5
s31.667 -28.5 41 -50.5c0.666992 -2 1.66699 -2.83301 3 -2.5s2 1.5 2 3.5l6 49c1.33301 6.66699 5 10 11 10zM343.999 252c6 48 9.00098 84.333 9.00098 109c0 26.667 -7.83301 48.5 -23.5 65.5s-36.5 25.5 -62.5 25.5c-28 0 -52.5 -9 -73.5 -27s-34.5 -41 -40.5 -69
c-6 -26 -11.333 -60.333 -16 -103c-6 -47.333 -9 -83 -9 -107c0 -27.333 8.16699 -49.5 24.5 -66.5s38.166 -25.5 65.499 -25.5s51 9 71 27s33 41 39 69c6 25.333 11.333 59.333 16 102zM209 605.5c-17.333 17.667 -26 40.167 -26 67.5c0 21.333 5.5 41.5 16.5 60.5
s25.667 34 44 45s37.833 16.5 58.5 16.5c27.333 0 49.666 -9 66.999 -27s26 -40.667 26 -68c0 -22 -5.5 -42.167 -16.5 -60.5s-25.667 -33 -44 -44s-37.833 -16.5 -58.5 -16.5c-27.333 0 -49.666 8.83301 -66.999 26.5zM330.5 644c14.333 14.667 21.499 32 21.499 52
c0 16.667 -5.33301 30.334 -16 41.001s-23.667 16 -39 16c-19.333 0 -36.166 -7.33301 -50.499 -22s-21.5 -32.334 -21.5 -53.001c0 -16.667 5.33301 -30.167 16 -40.5s24 -15.5 40 -15.5c18.667 0 35.167 7.33301 49.5 22z" />
    <glyph glyph-name="ae" unicode="&#xe6;" horiz-adv-x="720" 
d="M75 18c-25.333 17.333 -38.0039 46.998 -38.0039 88.998c0 5.33301 0.666992 14 2 26c6 52.667 26.667 92 62 118s81.666 39 138.999 39h93c1.33301 0 2.5 0.333008 3.5 1s1.5 1.66699 1.5 3l5 46c0.666992 5.33301 1 12.666 1 21.999c0 28 -7 50 -21 66
s-35.667 24 -65 24c-25.333 0 -47.666 -6.5 -66.999 -19.5s-32.333 -30.167 -39 -51.5c-2 -7.33301 -6 -10.333 -12 -9l-49 5c-6 1.33301 -8.66699 5 -8 11c9.33301 38 31 68.5 65 91.5s73 34.5 117 34.5c32 0 58.833 -7 80.5 -21s36.5 -33 44.5 -57
c2 -2.66699 4 -2.66699 6 0c14.667 22.667 34.834 41.334 60.501 56.001s53.834 22 84.501 22c44.667 0 80.667 -13.5 108 -40.5s41 -62.167 41 -105.5c0 -24 -3.66699 -67 -11 -129c0 -2.66699 -1 -5 -3 -7s-4.66699 -3 -8 -3h-263c-0.666992 0 -1.5 -0.333008 -2.5 -1
s-1.5 -1.66699 -1.5 -3l-8 -69c-2.66699 -30 5 -53.667 23 -71s42.333 -26 73 -26c25.333 0 47.5 6.16699 66.5 18.5s33.833 29.5 44.5 51.5c2 6.66699 6 8.66699 12 6l39 -12c5.33301 -2 7 -6 5 -12c-13.333 -36 -35.666 -64.833 -66.999 -86.5s-68 -32.5 -110 -32.5
c-33.333 0 -61.833 7.33301 -85.5 22s-39.5 33.667 -47.5 57c0 1.33301 -0.333008 2.33301 -1 3s-1.33398 0.333984 -2.00098 -0.999023c-14 -25.333 -36.667 -45.166 -68 -59.499s-65.666 -21.5 -102.999 -21.5c-39.333 0 -71.666 8.66699 -96.999 26zM411.996 289.998
h201.001c2.66699 0 4 1.33301 4 4c1.33301 8 2.66602 20.667 3.99902 38l2 23c0.666992 28.667 -7.33301 52 -24 70s-38.667 27 -66 27c-28 0 -52.5 -9 -73.5 -27s-34.5 -41.333 -40.5 -70c-0.666992 -3.33301 -2.66699 -15.333 -6 -36l-4 -25
c-0.666992 -2.66699 0.333008 -4 3 -4zM275.997 76.498c25.333 17.667 40 42.833 44 75.5l9 73c0.666992 0.666992 0.666992 1.5 0 2.5s-1.66699 1.5 -3 1.5h-85c-40.667 0 -73.167 -8.83301 -97.5 -26.5s-36.5 -44.167 -36.5 -79.5c0 -24 7.66699 -42.167 23 -54.5
s35.333 -18.5 60 -18.5c32 0 60.667 8.83301 86 26.5z" />
    <glyph glyph-name="ccedilla" unicode="&#xe7;" horiz-adv-x="447" 
d="M335 148c2 7.33301 6.00391 10.333 12.0039 9l48 -4c5.33301 -1.33301 8 -4.33301 8 -9l-1 -4l-3 -12c-8 -35.333 -26.667 -65.333 -56 -90s-64.333 -39.334 -105 -44.001c-3.33301 -1.33301 -4 -3 -2 -5c22.667 -24.667 34 -51 34 -79c0 -12 -2 -24 -6 -36
c-6.66699 -21.333 -18 -36.666 -34 -45.999s-33.667 -14 -53 -14c-11.333 0 -22.666 1.66699 -33.999 5c-2.66699 0.666992 -4.5 2 -5.5 4s-1.16699 4.66699 -0.5 8l6 21c1.33301 3.33301 3.16602 5.66602 5.49902 6.99902s4.83301 1.66602 7.5 0.999023
c4 -1.33301 9.66699 -2 17 -2c23.333 0 38.666 12 45.999 36c2 6 3 12.333 3 19c0 26 -13.333 52.333 -40 79c0 1.33301 -1.33301 2 -4 2c-36.667 6.66699 -65.334 22.667 -86.001 48s-31.667 57.333 -33 96c0 32.667 2.66699 71.334 8 116.001c4 32.667 10.667 71 20 115
c11.333 43.333 34 78.333 68 105s74.333 40 121 40c45.333 0 82 -12.5 110 -37.5s42.667 -56.833 44 -95.5v-21c0 -3.33301 -1 -6 -3 -8s-4.33301 -3 -7 -3l-50 -3c-6 0 -9 3 -9 9v12c0 23.333 -8.5 43.333 -25.5 60s-39.5 25 -67.5 25c-28.667 0 -53.334 -9 -74.001 -27
s-34.334 -41.333 -41.001 -70c-6 -26.667 -11.667 -60.667 -17 -102c-5.33301 -44.667 -8 -79 -8 -103c0 -29.333 8 -52.666 24 -69.999s38.333 -26 67 -26s53.5 8.33301 74.5 25s34.167 37 39.5 61c1.33301 4 2 6.66699 2 8z" />
    <glyph glyph-name="egrave" unicode="&#xe8;" horiz-adv-x="456" 
d="M287 73.5c19.333 13 34.333 30.5 45 52.5c2 6 6 8.33301 12 7l44 -9c2.66699 -0.666992 4.5 -2.16699 5.5 -4.5s0.833008 -4.83301 -0.5 -7.5c-15.333 -37.333 -39 -66.666 -71 -87.999s-68.667 -32 -110 -32c-49.333 0 -87.166 13.667 -113.499 41
s-39.5 64.333 -39.5 111c0 24.667 3 61 9 109c4 43.333 10 80.666 18 111.999c10.667 44.667 33 80.667 67 108s74.333 41 121 41c48 0 85.667 -14 113 -42s41 -65 41 -111c0 -12 -1 -27.5 -3 -46.5s-3.33301 -32.833 -4 -41.5
c-2.66699 -17.333 -4.33398 -30.666 -5.00098 -39.999c-1.33301 -6.66699 -5 -10 -11 -10h-268c-2.66699 0 -4 -1.33301 -4 -4c-2 -10.667 -3.66699 -27 -5 -49l-2 -20c0 -28.667 8.5 -51.834 25.5 -69.501s40.167 -26.5 69.5 -26.5c24.667 0 46.667 6.5 66 19.5zM193 425.5
c-20.667 -17.667 -34.666 -40.834 -41.999 -69.501l-3 -21l-7 -49c-0.666992 -2.66699 0.333008 -4 3 -4h205c2.66699 0 4 1.33301 4 4c3.33301 28.667 5 52.334 5 71.001c0 28 -8.16699 50.833 -24.5 68.5s-38.5 26.5 -66.5 26.5c-28.667 0 -53.334 -8.83301 -74.001 -26.5
zM304.001 579c0 -4.66699 -3 -7 -9 -7h-33c-4 0 -7.66699 2.33301 -11 7l-52 109c-0.666992 1.33301 -1 3.33301 -1 6c0 4 2.66699 6 8 6h42c6 0 9.33301 -2.33301 10 -7l45 -109c0.666992 -1.33301 1 -3 1 -5z" />
    <glyph glyph-name="eacute" unicode="&#xe9;" horiz-adv-x="456" 
d="M287 73.5c19.333 13 34.333 30.5 45 52.5c2 6 6 8.33301 12 7l44 -9c2.66699 -0.666992 4.5 -2.16699 5.5 -4.5s0.833008 -4.83301 -0.5 -7.5c-15.333 -37.333 -39 -66.666 -71 -87.999s-68.667 -32 -110 -32c-49.333 0 -87.166 13.667 -113.499 41
s-39.5 64.333 -39.5 111c0 24.667 3 61 9 109c4 43.333 10 80.666 18 111.999c10.667 44.667 33 80.667 67 108s74.333 41 121 41c48 0 85.667 -14 113 -42s41 -65 41 -111c0 -12 -1 -27.5 -3 -46.5s-3.33301 -32.833 -4 -41.5
c-2.66699 -17.333 -4.33398 -30.666 -5.00098 -39.999c-1.33301 -6.66699 -5 -10 -11 -10h-268c-2.66699 0 -4 -1.33301 -4 -4c-2 -10.667 -3.66699 -27 -5 -49l-2 -20c0 -28.667 8.5 -51.834 25.5 -69.501s40.167 -26.5 69.5 -26.5c24.667 0 46.667 6.5 66 19.5zM193 425.5
c-20.667 -17.667 -34.666 -40.834 -41.999 -69.501l-3 -21l-7 -49c-0.666992 -2.66699 0.333008 -4 3 -4h205c2.66699 0 4 1.33301 4 4c3.33301 28.667 5 52.334 5 71.001c0 28 -8.16699 50.833 -24.5 68.5s-38.5 26.5 -66.5 26.5c-28.667 0 -53.334 -8.83301 -74.001 -26.5
zM239.001 575.5c-1.33301 2.33301 -0.667969 5.16602 1.99902 8.49902l73 109c3.33301 4.66699 7.33301 7 12 7h42c4 0 6.33301 -1.16699 7 -3.5s-0.333008 -5.16602 -3 -8.49902l-80 -109c-4.66699 -4.66699 -9 -7 -13 -7h-33c-3.33301 0 -5.66602 1.16699 -6.99902 3.5z
" />
    <glyph glyph-name="ecircumflex" unicode="&#xea;" horiz-adv-x="456" 
d="M287 73.5c19.333 13 34.333 30.5 45 52.5c2 6 6 8.33301 12 7l44 -9c2.66699 -0.666992 4.5 -2.16699 5.5 -4.5s0.833008 -4.83301 -0.5 -7.5c-15.333 -37.333 -39 -66.666 -71 -87.999s-68.667 -32 -110 -32c-49.333 0 -87.166 13.667 -113.499 41
s-39.5 64.333 -39.5 111c0 24.667 3 61 9 109c4 43.333 10 80.666 18 111.999c10.667 44.667 33 80.667 67 108s74.333 41 121 41c48 0 85.667 -14 113 -42s41 -65 41 -111c0 -12 -1 -27.5 -3 -46.5s-3.33301 -32.833 -4 -41.5
c-2.66699 -17.333 -4.33398 -30.666 -5.00098 -39.999c-1.33301 -6.66699 -5 -10 -11 -10h-268c-2.66699 0 -4 -1.33301 -4 -4c-2 -10.667 -3.66699 -27 -5 -49l-2 -20c0 -28.667 8.5 -51.834 25.5 -69.501s40.167 -26.5 69.5 -26.5c24.667 0 46.667 6.5 66 19.5zM193 425.5
c-20.667 -17.667 -34.666 -40.834 -41.999 -69.501l-3 -21l-7 -49c-0.666992 -2.66699 0.333008 -4 3 -4h205c2.66699 0 4 1.33301 4 4c3.33301 28.667 5 52.334 5 71.001c0 28 -8.16699 50.833 -24.5 68.5s-38.5 26.5 -66.5 26.5c-28.667 0 -53.334 -8.83301 -74.001 -26.5
zM166.501 579.5c-1 2.33301 -0.166016 5.16797 2.50098 8.50098l84 106c2.66699 4 6.66699 6 12 6h57c6 0 9.66699 -2 11 -6l59 -106c1.33301 -2.66699 2 -4.33398 2 -5.00098c0 -2 -0.833008 -3.66699 -2.5 -5s-3.83398 -2 -6.50098 -2h-41c-5.33301 0 -9 2.33301 -11 7
l-40 78c-0.666992 1.33301 -1.66699 1.83301 -3 1.5s-2.33301 -0.833008 -3 -1.5l-61 -79c-2.66699 -4 -6.66699 -6 -12 -6h-40c-4 0 -6.5 1.16699 -7.5 3.5z" />
    <glyph glyph-name="edieresis" unicode="&#xeb;" horiz-adv-x="456" 
d="M287 73.5c19.333 13 34.333 30.5 45 52.5c2 6 6 8.33301 12 7l44 -9c2.66699 -0.666992 4.5 -2.16699 5.5 -4.5s0.833008 -4.83301 -0.5 -7.5c-15.333 -37.333 -39 -66.666 -71 -87.999s-68.667 -32 -110 -32c-49.333 0 -87.166 13.667 -113.499 41
s-39.5 64.333 -39.5 111c0 24.667 3 61 9 109c4 43.333 10 80.666 18 111.999c10.667 44.667 33 80.667 67 108s74.333 41 121 41c48 0 85.667 -14 113 -42s41 -65 41 -111c0 -12 -1 -27.5 -3 -46.5s-3.33301 -32.833 -4 -41.5
c-2.66699 -17.333 -4.33398 -30.666 -5.00098 -39.999c-1.33301 -6.66699 -5 -10 -11 -10h-268c-2.66699 0 -4 -1.33301 -4 -4c-2 -10.667 -3.66699 -27 -5 -49l-2 -20c0 -28.667 8.5 -51.834 25.5 -69.501s40.167 -26.5 69.5 -26.5c24.667 0 46.667 6.5 66 19.5zM193 425.5
c-20.667 -17.667 -34.666 -40.834 -41.999 -69.501l-3 -21l-7 -49c-0.666992 -2.66699 0.333008 -4 3 -4h205c2.66699 0 4 1.33301 4 4c3.33301 28.667 5 52.334 5 71.001c0 28 -8.16699 50.833 -24.5 68.5s-38.5 26.5 -66.5 26.5c-28.667 0 -53.334 -8.83301 -74.001 -26.5
zM326.001 612.5c-8.66699 9 -12.999 20.501 -12.999 34.501c0 18.667 6 34 18 46s26.667 18 44 18c14 0 25.5 -4.33301 34.5 -13s13.5 -20.334 13.5 -35.001c0 -18 -6 -33.167 -18 -45.5s-26.667 -18.5 -44 -18.5c-14.667 0 -26.334 4.5 -35.001 13.5zM170.002 612.501
c-8.66699 9 -12.999 20.501 -12.999 34.501c0 18.667 6 34 18 46s26.667 18 44 18c14 0 25.5 -4.33301 34.5 -13s13.5 -20.334 13.5 -35.001c0 -18 -6 -33.167 -18 -45.5s-26.667 -18.5 -44 -18.5c-14.667 0 -26.334 4.5 -35.001 13.5z" />
    <glyph glyph-name="igrave" unicode="&#xec;" horiz-adv-x="185" 
d="M41.5 3c-1.66699 2 -2.16602 4.33301 -1.49902 7l60 486c0 2.66699 1 5 3 7s4.66699 3 8 3h49c6 0 9 -3.33301 9 -10l-60 -486c-1.33301 -6.66699 -5 -10 -11 -10h-50c-2.66699 0 -4.83398 1 -6.50098 3zM168.001 579c0 -4.66699 -3 -7 -9 -7h-33
c-4 0 -7.66699 2.33301 -11 7l-52 109c-0.666992 1.33301 -1 3.33301 -1 6c0 4 2.66699 6 8 6h42c6 0 9.33301 -2.33301 10 -7l45 -109c0.666992 -1.33301 1 -3 1 -5z" />
    <glyph glyph-name="iacute" unicode="&#xed;" horiz-adv-x="185" 
d="M41.5 3c-1.66699 2 -2.16602 4.33301 -1.49902 7l60 486c0 2.66699 1 5 3 7s4.66699 3 8 3h49c6 0 9 -3.33301 9 -10l-60 -486c-1.33301 -6.66699 -5 -10 -11 -10h-50c-2.66699 0 -4.83398 1 -6.50098 3zM103.001 575.5
c-1.33301 2.33301 -0.667969 5.16602 1.99902 8.49902l73 109c3.33301 4.66699 7.33301 7 12 7h42c4 0 6.33301 -1.16699 7 -3.5s-0.333008 -5.16602 -3 -8.49902l-80 -109c-4.66699 -4.66699 -9 -7 -13 -7h-33c-3.33301 0 -5.66602 1.16699 -6.99902 3.5z" />
    <glyph glyph-name="icircumflex" unicode="&#xee;" horiz-adv-x="185" 
d="M41.5 3c-1.66699 2 -2.16602 4.33301 -1.49902 7l60 486c0 2.66699 1 5 3 7s4.66699 3 8 3h49c6 0 9 -3.33301 9 -10l-60 -486c-1.33301 -6.66699 -5 -10 -11 -10h-50c-2.66699 0 -4.83398 1 -6.50098 3zM30.501 579.5c-1 2.33301 -0.166016 5.16797 2.50098 8.50098
l84 106c2.66699 4 6.66699 6 12 6h57c6 0 9.66699 -2 11 -6l59 -106c1.33301 -2.66699 2 -4.33398 2 -5.00098c0 -2 -0.833008 -3.66699 -2.5 -5s-3.83398 -2 -6.50098 -2h-41c-5.33301 0 -9 2.33301 -11 7l-40 78c-0.666992 1.33301 -1.66699 1.83301 -3 1.5
s-2.33301 -0.833008 -3 -1.5l-61 -79c-2.66699 -4 -6.66699 -6 -12 -6h-40c-4 0 -6.5 1.16699 -7.5 3.5z" />
    <glyph glyph-name="idieresis" unicode="&#xef;" horiz-adv-x="185" 
d="M41.5 3c-1.66699 2 -2.16602 4.33301 -1.49902 7l60 486c0 2.66699 1 5 3 7s4.66699 3 8 3h49c6 0 9 -3.33301 9 -10l-60 -486c-1.33301 -6.66699 -5 -10 -11 -10h-50c-2.66699 0 -4.83398 1 -6.50098 3zM190.001 612.5c-8.66699 9 -12.999 20.501 -12.999 34.501
c0 18.667 6 34 18 46s26.667 18 44 18c14 0 25.5 -4.33301 34.5 -13s13.5 -20.334 13.5 -35.001c0 -18 -6 -33.167 -18 -45.5s-26.667 -18.5 -44 -18.5c-14.667 0 -26.334 4.5 -35.001 13.5zM34.002 612.501c-8.66699 9 -12.999 20.501 -12.999 34.501c0 18.667 6 34 18 46
s26.667 18 44 18c14 0 25.5 -4.33301 34.5 -13s13.5 -20.334 13.5 -35.001c0 -18 -6 -33.167 -18 -45.5s-26.667 -18.5 -44 -18.5c-14.667 0 -26.334 4.5 -35.001 13.5z" />
    <glyph glyph-name="eth" unicode="&#xf0;" horiz-adv-x="467" 
d="M412 245c-6 -52.667 -11.666 -89.334 -16.999 -110.001c-11.333 -42.667 -33.833 -77.167 -67.5 -103.5s-73.5 -39.5 -119.5 -39.5s-82.333 13 -109 39s-40.667 60.667 -42 104c0 24 3 60.667 9 110c6.66699 52 12.667 88.667 18 110c9.33301 39.333 28.5 71.5 57.5 96.5
s62.5 38.167 100.5 39.5c4 0.666992 9.66699 1 17 1c19.333 0 37.166 -3 53.499 -9s29.166 -14.333 38.499 -25c2.66699 -2 4 -1.33301 4 2c-4.66699 38 -17.334 76 -38.001 114c-1.33301 2.66699 -3 3.33398 -5 2.00098l-83 -24l-4 -1c-4 0 -6.66699 2.66699 -8 8l-3 18v2
c0 4.66699 3 8.33398 9 11.001l66 20c4 1.33301 5 3 3 5c-16.667 24.667 -35.667 49 -57 73c-2 2 -3 4 -3 6c0 4 3 6 9 6h51c2.66699 0 6.33398 -1.66699 11.001 -5l21 -28l27 -36c1.33301 -2.66699 3 -3.33398 5 -2.00098l79 24l4 1c4 0 6.66699 -2.66699 8 -8l2 -20v-2
c0 -4.66699 -2.66699 -8 -8 -10l-62 -19c-3.33301 -1.33301 -4.66602 -2.66602 -3.99902 -3.99902c32.667 -58 49 -123.333 49 -196c0 -8.66699 -0.666992 -23 -2 -43c-0.666992 -20.667 -4 -56.334 -10 -107.001zM343.001 244c6 45.333 8.99902 78.334 8.99902 99.001
c0 28 -8.16699 50.667 -24.5 68s-38.166 26 -65.499 26s-51.333 -8.83301 -72 -26.5s-34 -40.834 -40 -69.501c-4.66699 -22 -9.66699 -54.333 -15 -97c-6 -49.333 -9 -82.333 -9 -99c0 -28 8.16699 -50.667 24.5 -68s37.833 -26 64.5 -26c28 0 52.333 9 73 27s34 41 40 69
c5.33301 20.667 10.333 53 15 97z" />
    <glyph glyph-name="ntilde" unicode="&#xf1;" horiz-adv-x="467" 
d="M231 642.5c-7.33301 -3.66699 -15.0039 -10.501 -23.0039 -20.501c-4 -6.66699 -8.66699 -7.33398 -14 -2.00098l-13 14c-4.66699 4.66699 -5 9.33398 -1 14.001c10.667 16.667 22.834 29.334 36.501 38.001s27.834 13 42.501 13c10.667 0 19.834 -2 27.501 -6
s16.167 -9.66699 25.5 -17c1.33301 -1.33301 4.66602 -4 9.99902 -8s10.666 -7.16699 15.999 -9.5s10.333 -3.5 15 -3.5c17.333 0 32.666 9.33301 45.999 28c5.33301 6 10 7 14 3l14 -13c4 -5.33301 4.33301 -10 1 -14c-10.667 -18 -23.5 -31.333 -38.5 -40
s-29.5 -13 -43.5 -13c-9.33301 0 -17.666 1.83301 -24.999 5.5s-15.666 9.16699 -24.999 16.5c-1.33301 1.33301 -4.66602 4 -9.99902 8s-10.333 7 -15 9s-9.66699 3 -15 3c-9.33301 0 -17.666 -1.83301 -24.999 -5.5zM396.496 476.999c22.333 -24 33.5 -57.333 33.5 -100
c0 -6.66699 -0.666992 -16.667 -2 -30l-42 -337c0 -2.66699 -1 -5 -3 -7s-4.66699 -3 -8 -3h-49c-6 0 -9 3.33301 -9 10l41 327c0.666992 4.66699 1 11.667 1 21c0 28.667 -7.5 51.334 -22.5 68.001s-35.833 25 -62.5 25c-30.667 0 -56.5 -10.5 -77.5 -31.5
s-33.5 -49.167 -37.5 -84.5l-40 -325c-0.666992 -2.66699 -2 -5 -4 -7s-4.33301 -3 -7 -3h-50c-6.66699 -0 -9.33398 3.33301 -8.00098 10l59 486c0.666992 2.66699 2 5 4 7s4.33301 3 7 3h50c6.66699 0 9.33398 -3.33301 8.00098 -10l-5 -39
c0 -1.33301 0.5 -2.33301 1.5 -3s2.16699 -0.333984 3.5 0.999023c30 38.667 71.333 58 124 58c40.667 0 72.167 -12 94.5 -36z" />
    <glyph glyph-name="ograve" unicode="&#xf2;" horiz-adv-x="461" 
d="M100.5 31.5c-27 26.333 -40.833 61.834 -41.5 106.501c0 33.333 2.66699 72 8 116s12 82 20 114c11.333 44 34 79.333 68 106s74.667 40 122 40c46.667 0 83.667 -13.333 111 -40s41.333 -62 42 -106c0.666992 -26.667 -2 -64.667 -8 -114
c-6 -50.667 -12.667 -89.334 -20 -116.001c-11.333 -44 -34 -79.333 -68 -106s-74.667 -40 -122 -40s-84.5 13.167 -111.5 39.5zM294 80.501c21.333 17.667 35.666 41.167 42.999 70.5c4.66699 20.667 10 54.667 16 102c4.66699 39.333 7.66699 73.333 9 102
c0 29.333 -8.33301 52.833 -25 70.5s-39.334 26.5 -68.001 26.5c-28 0 -52.667 -8.83301 -74 -26.5s-35.666 -41.167 -42.999 -70.5c-4.66699 -20.667 -10 -54.667 -16 -102c-4.66699 -39.333 -7.66699 -73.333 -9 -102c0 -29.333 8.33301 -52.833 25 -70.5
s39.334 -26.5 68.001 -26.5c28 0 52.667 8.83301 74 26.5zM306 579.001c0 -4.66699 -3 -7 -9 -7h-33c-4 0 -7.66699 2.33301 -11 7l-52 109c-0.666992 1.33301 -1 3.33301 -1 6c0 4 2.66699 6 8 6h42c6 0 9.33301 -2.33301 10 -7l45 -109c0.666992 -1.33301 1 -3 1 -5z" />
    <glyph glyph-name="oacute" unicode="&#xf3;" horiz-adv-x="461" 
d="M100.5 31.5c-27 26.333 -40.833 61.834 -41.5 106.501c0 33.333 2.66699 72 8 116s12 82 20 114c11.333 44 34 79.333 68 106s74.667 40 122 40c46.667 0 83.667 -13.333 111 -40s41.333 -62 42 -106c0.666992 -26.667 -2 -64.667 -8 -114
c-6 -50.667 -12.667 -89.334 -20 -116.001c-11.333 -44 -34 -79.333 -68 -106s-74.667 -40 -122 -40s-84.5 13.167 -111.5 39.5zM294 80.501c21.333 17.667 35.666 41.167 42.999 70.5c4.66699 20.667 10 54.667 16 102c4.66699 39.333 7.66699 73.333 9 102
c0 29.333 -8.33301 52.833 -25 70.5s-39.334 26.5 -68.001 26.5c-28 0 -52.667 -8.83301 -74 -26.5s-35.666 -41.167 -42.999 -70.5c-4.66699 -20.667 -10 -54.667 -16 -102c-4.66699 -39.333 -7.66699 -73.333 -9 -102c0 -29.333 8.33301 -52.833 25 -70.5
s39.334 -26.5 68.001 -26.5c28 0 52.667 8.83301 74 26.5zM241 575.501c-1.33301 2.33301 -0.667969 5.16602 1.99902 8.49902l73 109c3.33301 4.66699 7.33301 7 12 7h42c4 0 6.33301 -1.16699 7 -3.5s-0.333008 -5.16602 -3 -8.49902l-80 -109
c-4.66699 -4.66699 -9 -7 -13 -7h-33c-3.33301 0 -5.66602 1.16699 -6.99902 3.5z" />
    <glyph glyph-name="ocircumflex" unicode="&#xf4;" horiz-adv-x="461" 
d="M100.5 31.5c-27 26.333 -40.833 61.834 -41.5 106.501c0 33.333 2.66699 72 8 116s12 82 20 114c11.333 44 34 79.333 68 106s74.667 40 122 40c46.667 0 83.667 -13.333 111 -40s41.333 -62 42 -106c0.666992 -26.667 -2 -64.667 -8 -114
c-6 -50.667 -12.667 -89.334 -20 -116.001c-11.333 -44 -34 -79.333 -68 -106s-74.667 -40 -122 -40s-84.5 13.167 -111.5 39.5zM294 80.501c21.333 17.667 35.666 41.167 42.999 70.5c4.66699 20.667 10 54.667 16 102c4.66699 39.333 7.66699 73.333 9 102
c0 29.333 -8.33301 52.833 -25 70.5s-39.334 26.5 -68.001 26.5c-28 0 -52.667 -8.83301 -74 -26.5s-35.666 -41.167 -42.999 -70.5c-4.66699 -20.667 -10 -54.667 -16 -102c-4.66699 -39.333 -7.66699 -73.333 -9 -102c0 -29.333 8.33301 -52.833 25 -70.5
s39.334 -26.5 68.001 -26.5c28 0 52.667 8.83301 74 26.5zM168.5 579.501c-1 2.33301 -0.166016 5.16797 2.50098 8.50098l84 106c2.66699 4 6.66699 6 12 6h57c6 0 9.66699 -2 11 -6l59 -106c1.33301 -2.66699 2 -4.33398 2 -5.00098c0 -2 -0.833008 -3.66699 -2.5 -5
s-3.83398 -2 -6.50098 -2h-41c-5.33301 0 -9 2.33301 -11 7l-40 78c-0.666992 1.33301 -1.66699 1.83301 -3 1.5s-2.33301 -0.833008 -3 -1.5l-61 -79c-2.66699 -4 -6.66699 -6 -12 -6h-40c-4 0 -6.5 1.16699 -7.5 3.5z" />
    <glyph glyph-name="otilde" unicode="&#xf5;" horiz-adv-x="461" 
d="M100.5 31.5c-27 26.333 -40.833 61.834 -41.5 106.501c0 33.333 2.66699 72 8 116s12 82 20 114c11.333 44 34 79.333 68 106s74.667 40 122 40c46.667 0 83.667 -13.333 111 -40s41.333 -62 42 -106c0.666992 -26.667 -2 -64.667 -8 -114
c-6 -50.667 -12.667 -89.334 -20 -116.001c-11.333 -44 -34 -79.333 -68 -106s-74.667 -40 -122 -40s-84.5 13.167 -111.5 39.5zM294 80.501c21.333 17.667 35.666 41.167 42.999 70.5c4.66699 20.667 10 54.667 16 102c4.66699 39.333 7.66699 73.333 9 102
c0 29.333 -8.33301 52.833 -25 70.5s-39.334 26.5 -68.001 26.5c-28 0 -52.667 -8.83301 -74 -26.5s-35.666 -41.167 -42.999 -70.5c-4.66699 -20.667 -10 -54.667 -16 -102c-4.66699 -39.333 -7.66699 -73.333 -9 -102c0 -29.333 8.33301 -52.833 25 -70.5
s39.334 -26.5 68.001 -26.5c28 0 52.667 8.83301 74 26.5zM317 612.001c-8 4 -16.3281 9.33301 -24.9951 16c-3.33301 2 -7.83301 5 -13.5 9s-10.834 6.83301 -15.501 8.5s-9.66699 2.5 -15 2.5c-9.33301 0 -18 -2 -26 -6s-16 -10.667 -24 -20c-5.33301 -6 -10 -7 -14 -3
l-17 15c-4 5.33301 -4.33301 10 -1 14c23.333 34 51.666 51 84.999 51c10.667 0 20.167 -2 28.5 -6s17.5 -9.66699 27.5 -17c1.33301 -1.33301 5 -4 11 -8s11.667 -7.16699 17 -9.5s10.666 -3.5 15.999 -3.5c19.333 0 35.666 9.66699 48.999 29c5.33301 6 10 7 14 3l17 -14
c2 -0.666992 3 -3 3 -7s-1.33301 -7.66699 -4 -11c-11.333 -16 -24.833 -28.167 -40.5 -36.5s-30.834 -12.5 -45.501 -12.5c-10 0 -19 2 -27 6z" />
    <glyph glyph-name="odieresis" unicode="&#xf6;" horiz-adv-x="461" 
d="M100.5 31.5c-27 26.333 -40.833 61.834 -41.5 106.501c0 33.333 2.66699 72 8 116s12 82 20 114c11.333 44 34 79.333 68 106s74.667 40 122 40c46.667 0 83.667 -13.333 111 -40s41.333 -62 42 -106c0.666992 -26.667 -2 -64.667 -8 -114
c-6 -50.667 -12.667 -89.334 -20 -116.001c-11.333 -44 -34 -79.333 -68 -106s-74.667 -40 -122 -40s-84.5 13.167 -111.5 39.5zM294 80.501c21.333 17.667 35.666 41.167 42.999 70.5c4.66699 20.667 10 54.667 16 102c4.66699 39.333 7.66699 73.333 9 102
c0 29.333 -8.33301 52.833 -25 70.5s-39.334 26.5 -68.001 26.5c-28 0 -52.667 -8.83301 -74 -26.5s-35.666 -41.167 -42.999 -70.5c-4.66699 -20.667 -10 -54.667 -16 -102c-4.66699 -39.333 -7.66699 -73.333 -9 -102c0 -29.333 8.33301 -52.833 25 -70.5
s39.334 -26.5 68.001 -26.5c28 0 52.667 8.83301 74 26.5zM328 612.501c-8.66699 9 -12.999 20.501 -12.999 34.501c0 18.667 6 34 18 46s26.667 18 44 18c14 0 25.5 -4.33301 34.5 -13s13.5 -20.334 13.5 -35.001c0 -18 -6 -33.167 -18 -45.5s-26.667 -18.5 -44 -18.5
c-14.667 0 -26.334 4.5 -35.001 13.5zM172.001 612.502c-8.66699 9 -12.999 20.501 -12.999 34.501c0 18.667 6 34 18 46s26.667 18 44 18c14 0 25.5 -4.33301 34.5 -13s13.5 -20.334 13.5 -35.001c0 -18 -6 -33.167 -18 -45.5s-26.667 -18.5 -44 -18.5
c-14.667 0 -26.334 4.5 -35.001 13.5z" />
    <glyph glyph-name="divide" unicode="&#xf7;" horiz-adv-x="457" 
d="M229.5 446c-8.33301 8.66699 -12.5 19.667 -12.5 33c0 15.333 5.66699 28.833 17 40.5s24.666 17.5 39.999 17.5c13.333 0 24.333 -4.33301 33 -13s13 -19.667 13 -33c0 -15.333 -6 -28.833 -18 -40.5s-25.333 -17.5 -40 -17.5c-13.333 0 -24.166 4.33301 -32.499 13z
M54.5 299c-1.66699 2 -2.16699 4.33301 -1.5 7l5 38c0 2.66699 1 5 3 7s4.66699 3 8 3h367c3.33301 0 5.83301 -1 7.5 -3s2.16699 -4.33301 1.5 -7l-5 -38c-1.33301 -6.66699 -5 -10 -11 -10h-367c-3.33301 0 -5.83301 1 -7.5 3zM192 136
c-8.66699 8.66699 -13 19.334 -13 32.001c0 15.333 5.83301 29 17.5 41s24.834 18 39.501 18c12.667 0 23.334 -4.33301 32.001 -13s13 -19.334 13 -32.001c0 -16 -5.83301 -29.833 -17.5 -41.5s-24.834 -17.5 -39.501 -17.5c-12.667 0 -23.334 4.33301 -32.001 13z" />
    <glyph glyph-name="oslash" unicode="&#xf8;" horiz-adv-x="465" 
d="M420 254c-5.33301 -44 -12 -82.6689 -20 -116.002c-11.333 -44 -34 -79.333 -68 -106s-74.667 -40 -122 -40c-34 0 -63.667 7.33301 -89 22c-2.66699 1.33301 -4.33398 1 -5.00098 -1l-31 -46c-1.33301 -2.66699 -3.33301 -4.16699 -6 -4.5
s-5.33398 0.166992 -8.00098 1.5l-31 23c-4.66699 4 -5 8.33301 -1 13l36 56c0.666992 1.33301 1 3.33301 1 6c-12.667 23.333 -19 52.333 -19 87c0 20.667 2.66699 55.667 8 105c6 50.667 12.667 88.667 20 114c11.333 44 34 79.333 68 106s74.667 40 122 40
c34 0 63 -7 87 -21c2.66699 -1.33301 4.33398 -1 5.00098 1l32 49c2 2.66699 4.33301 4.33398 7 5.00098s5 0 7 -2l31 -24c4.66699 -3.33301 5.33398 -7.66602 2.00098 -12.999l-37 -57c-2 -2 -2.33301 -3.66699 -1 -5c13.333 -22.667 20 -49 20 -79
c0 -33.333 -2.66699 -71.333 -8 -114zM126 139.998c0 -4 1.66699 -4.33398 5 -1.00098l192 291c2 2.66699 2 4.33398 0 5.00098c-15.333 11.333 -34.333 17 -57 17c-28 0 -52.5 -8.83301 -73.5 -26.5s-35.167 -41.167 -42.5 -70.5c-4.66699 -20.667 -10 -54.667 -16 -102
c-4.66699 -39.333 -7.66699 -73.333 -9 -102c0 -5.33301 0.333008 -9 1 -11zM350 252.997c6 47.333 9.33398 81.334 10.001 102.001l-1 14c-1.33301 4 -3 4.33301 -5 1l-195 -293c-1.33301 -2.66699 -1.33301 -4.33398 0 -5.00098c16 -12 35.667 -18 59 -18
c28 0 52.667 8.83301 74 26.5s35.666 41.167 42.999 70.5c5.33301 26 10.333 60 15 102z" />
    <glyph glyph-name="ugrave" unicode="&#xf9;" horiz-adv-x="467" 
d="M381 506l49.9971 0.00195312c6.66699 0 9.33398 -3.33301 8.00098 -10l-59 -486c-0.666992 -2.66699 -2 -5 -4 -7s-4.33301 -3 -7 -3h-50c-6.66699 0 -9.33398 3.33301 -8.00098 10l4 39c0.666992 2 0.5 3 -0.5 3s-2.16699 -0.666992 -3.5 -2c-28 -38 -68 -57 -120 -57
c-39.333 0 -71.166 11 -95.499 33s-36.5 53.667 -36.5 95c0 5.33301 0.666992 14.666 2 27.999l43 347c0 2.66699 1 5 3 7s4.66699 3 8 3h49c6.66699 0 9.33398 -3.33301 8.00098 -10l-40 -329c-1.33301 -10.667 -2 -18.334 -2 -23.001c0 -28.667 7.33301 -50.667 22 -66
s35.334 -23 62.001 -23c31.333 0 57.5 10.5 78.5 31.5s33.5 49.167 37.5 84.5l40 325c1.33301 6.66699 5 10 11 10zM306.997 579.002c0 -4.66699 -3 -7 -9 -7h-33c-4 0 -7.66699 2.33301 -11 7l-52 109c-0.666992 1.33301 -1 3.33301 -1 6c0 4 2.66699 6 8 6h42
c6 0 9.33301 -2.33301 10 -7l45 -109c0.666992 -1.33301 1 -3 1 -5z" />
    <glyph glyph-name="uacute" unicode="&#xfa;" horiz-adv-x="467" 
d="M381 506l49.9971 0.00195312c6.66699 0 9.33398 -3.33301 8.00098 -10l-59 -486c-0.666992 -2.66699 -2 -5 -4 -7s-4.33301 -3 -7 -3h-50c-6.66699 0 -9.33398 3.33301 -8.00098 10l4 39c0.666992 2 0.5 3 -0.5 3s-2.16699 -0.666992 -3.5 -2c-28 -38 -68 -57 -120 -57
c-39.333 0 -71.166 11 -95.499 33s-36.5 53.667 -36.5 95c0 5.33301 0.666992 14.666 2 27.999l43 347c0 2.66699 1 5 3 7s4.66699 3 8 3h49c6.66699 0 9.33398 -3.33301 8.00098 -10l-40 -329c-1.33301 -10.667 -2 -18.334 -2 -23.001c0 -28.667 7.33301 -50.667 22 -66
s35.334 -23 62.001 -23c31.333 0 57.5 10.5 78.5 31.5s33.5 49.167 37.5 84.5l40 325c1.33301 6.66699 5 10 11 10zM241.997 575.502c-1.33301 2.33301 -0.667969 5.16602 1.99902 8.49902l73 109c3.33301 4.66699 7.33301 7 12 7h42c4 0 6.33301 -1.16699 7 -3.5
s-0.333008 -5.16602 -3 -8.49902l-80 -109c-4.66699 -4.66699 -9 -7 -13 -7h-33c-3.33301 0 -5.66602 1.16699 -6.99902 3.5z" />
    <glyph glyph-name="ucircumflex" unicode="&#xfb;" horiz-adv-x="467" 
d="M381 506l49.9971 0.00195312c6.66699 0 9.33398 -3.33301 8.00098 -10l-59 -486c-0.666992 -2.66699 -2 -5 -4 -7s-4.33301 -3 -7 -3h-50c-6.66699 0 -9.33398 3.33301 -8.00098 10l4 39c0.666992 2 0.5 3 -0.5 3s-2.16699 -0.666992 -3.5 -2c-28 -38 -68 -57 -120 -57
c-39.333 0 -71.166 11 -95.499 33s-36.5 53.667 -36.5 95c0 5.33301 0.666992 14.666 2 27.999l43 347c0 2.66699 1 5 3 7s4.66699 3 8 3h49c6.66699 0 9.33398 -3.33301 8.00098 -10l-40 -329c-1.33301 -10.667 -2 -18.334 -2 -23.001c0 -28.667 7.33301 -50.667 22 -66
s35.334 -23 62.001 -23c31.333 0 57.5 10.5 78.5 31.5s33.5 49.167 37.5 84.5l40 325c1.33301 6.66699 5 10 11 10zM169.497 579.502c-1 2.33301 -0.166016 5.16797 2.50098 8.50098l84 106c2.66699 4 6.66699 6 12 6h57c6 0 9.66699 -2 11 -6l59 -106
c1.33301 -2.66699 2 -4.33398 2 -5.00098c0 -2 -0.833008 -3.66699 -2.5 -5s-3.83398 -2 -6.50098 -2h-41c-5.33301 0 -9 2.33301 -11 7l-40 78c-0.666992 1.33301 -1.66699 1.83301 -3 1.5s-2.33301 -0.833008 -3 -1.5l-61 -79c-2.66699 -4 -6.66699 -6 -12 -6h-40
c-4 0 -6.5 1.16699 -7.5 3.5z" />
    <glyph glyph-name="udieresis" unicode="&#xfc;" horiz-adv-x="467" 
d="M381 506l49.9971 0.00195312c6.66699 0 9.33398 -3.33301 8.00098 -10l-59 -486c-0.666992 -2.66699 -2 -5 -4 -7s-4.33301 -3 -7 -3h-50c-6.66699 0 -9.33398 3.33301 -8.00098 10l4 39c0.666992 2 0.5 3 -0.5 3s-2.16699 -0.666992 -3.5 -2c-28 -38 -68 -57 -120 -57
c-39.333 0 -71.166 11 -95.499 33s-36.5 53.667 -36.5 95c0 5.33301 0.666992 14.666 2 27.999l43 347c0 2.66699 1 5 3 7s4.66699 3 8 3h49c6.66699 0 9.33398 -3.33301 8.00098 -10l-40 -329c-1.33301 -10.667 -2 -18.334 -2 -23.001c0 -28.667 7.33301 -50.667 22 -66
s35.334 -23 62.001 -23c31.333 0 57.5 10.5 78.5 31.5s33.5 49.167 37.5 84.5l40 325c1.33301 6.66699 5 10 11 10zM328.997 612.502c-8.66699 9 -12.999 20.501 -12.999 34.501c0 18.667 6 34 18 46s26.667 18 44 18c14 0 25.5 -4.33301 34.5 -13
s13.5 -20.334 13.5 -35.001c0 -18 -6 -33.167 -18 -45.5s-26.667 -18.5 -44 -18.5c-14.667 0 -26.334 4.5 -35.001 13.5zM172.998 612.503c-8.66699 9 -12.999 20.501 -12.999 34.501c0 18.667 6 34 18 46s26.667 18 44 18c14 0 25.5 -4.33301 34.5 -13
s13.5 -20.334 13.5 -35.001c0 -18 -6 -33.167 -18 -45.5s-26.667 -18.5 -44 -18.5c-14.667 0 -26.334 4.5 -35.001 13.5z" />
    <glyph glyph-name="yacute" unicode="&#xfd;" horiz-adv-x="402" 
d="M1 -197c-1.33301 2 -1.66602 4.33203 -0.999023 6.99902l5 40c1.33301 6.66699 5 10 11 10h2c22.667 0.666992 40.667 4.66699 54 12s25.5 20.333 36.5 39s23.5 47.334 37.5 86.001c0.666992 1.33301 1 3.33301 1 6l-84 492v2c0 6 3.33301 9 10 9h52
c5.33301 0 8.66602 -3 9.99902 -9l56 -399c0.666992 -1.33301 1.5 -2 2.5 -2s1.83301 0.666992 2.5 2l155 399c2.66699 6 6.66699 9 12 9h51c7.33301 0 10 -3.66699 8 -11l-225 -539c-18.667 -44 -35.5 -76.833 -50.5 -98.5s-32.667 -36.667 -53 -45
s-47.833 -12.5 -82.5 -12.5h-5c-2 0 -3.66699 1 -5 3zM212 577.499c-1.33301 2.33301 -0.667969 5.16602 1.99902 8.49902l73 109c3.33301 4.66699 7.33301 7 12 7h42c4 0 6.33301 -1.16699 7 -3.5s-0.333008 -5.16602 -3 -8.49902l-80 -109c-4.66699 -4.66699 -9 -7 -13 -7
h-33c-3.33301 0 -5.66602 1.16699 -6.99902 3.5z" />
    <glyph glyph-name="thorn" unicode="&#xfe;" horiz-adv-x="464" 
d="M421 253c-6.66699 -56 -12.668 -94.334 -18.001 -115.001c-10.667 -44 -31.334 -79.333 -62.001 -106s-66.667 -40 -108 -40c-25.333 0 -47.166 5.5 -65.499 16.5s-32.166 26.833 -41.499 47.5c-0.666992 1.33301 -1.5 2 -2.5 2s-1.83301 -1 -2.5 -3l-30 -245
c-1.33301 -6.66699 -5 -10 -11 -10h-49c-6 0 -9 3.33301 -9 10l108 880c1.33301 6.66699 5 10 11 10h50c6.66699 0 9.33398 -3.33301 8.00098 -10l-29 -238c-0.666992 -2 -0.5 -3.16699 0.5 -3.5s2.16699 0.166992 3.5 1.5c29.333 42.667 69.666 64 120.999 64
c42 0 75 -13.167 99 -39.5s36.333 -60.833 37 -103.5c0 -21.333 -3.33301 -60.666 -10 -117.999zM350.999 252.999c6 45.333 9.00098 80.334 9.00098 105.001c0 27.333 -8.16699 49.833 -24.5 67.5s-38.166 26.5 -65.499 26.5s-51 -9 -71 -27s-33 -41 -39 -69l-5 -22
l-20 -169c-0.666992 -3.33301 -1 -8.33301 -1 -15c-0.666992 -28 6.66602 -51 21.999 -69s37 -27 65 -27s52.5 9 73.5 27s34.5 41 40.5 69c7.33301 39.333 12.666 73.666 15.999 102.999z" />
    <glyph glyph-name="ydieresis" unicode="&#xff;" horiz-adv-x="402" 
d="M1 -197c-1.33301 2 -1.66602 4.33203 -0.999023 6.99902l5 40c1.33301 6.66699 5 10 11 10h2c22.667 0.666992 40.667 4.66699 54 12s25.5 20.333 36.5 39s23.5 47.334 37.5 86.001c0.666992 1.33301 1 3.33301 1 6l-84 492v2c0 6 3.33301 9 10 9h52
c5.33301 0 8.66602 -3 9.99902 -9l56 -399c0.666992 -1.33301 1.5 -2 2.5 -2s1.83301 0.666992 2.5 2l155 399c2.66699 6 6.66699 9 12 9h51c7.33301 0 10 -3.66699 8 -11l-225 -539c-18.667 -44 -35.5 -76.833 -50.5 -98.5s-32.667 -36.667 -53 -45
s-47.833 -12.5 -82.5 -12.5h-5c-2 0 -3.66699 1 -5 3zM299 614.499c-8.66699 9 -12.999 20.501 -12.999 34.501c0 18.667 6 34 18 46s26.667 18 44 18c14 0 25.5 -4.33301 34.5 -13s13.5 -20.334 13.5 -35.001c0 -18 -6 -33.167 -18 -45.5s-26.667 -18.5 -44 -18.5
c-14.667 0 -26.334 4.5 -35.001 13.5zM143.001 614.5c-8.66699 9 -12.999 20.501 -12.999 34.501c0 18.667 6 34 18 46s26.667 18 44 18c14 0 25.5 -4.33301 34.5 -13s13.5 -20.334 13.5 -35.001c0 -18 -6 -33.167 -18 -45.5s-26.667 -18.5 -44 -18.5
c-14.667 0 -26.334 4.5 -35.001 13.5z" />
    <glyph glyph-name="Amacron" unicode="&#x100;" horiz-adv-x="493" 
d="M380 9l-15.998 125c-0.666992 2 -2.33398 3 -5.00098 3h-232c-2 0 -3.66699 -1 -5 -3l-47 -125c-2.66699 -6 -6.66699 -9 -12 -9h-50c-3.33301 0 -5.83301 1 -7.5 3s-1.83398 4.66699 -0.500977 8l265 680c2.66699 6 6.66699 9 12 9h62c5.33301 0 8.66602 -3 9.99902 -9
l97 -680v-3c0 -5.33301 -3.33301 -8 -10 -8h-51c-5.33301 0 -8.66602 3 -9.99902 9zM147.002 196.5c0.666992 -1 1.66895 -1.5 3.00195 -1.5h201c1.33301 0 2.5 0.5 3.5 1.5s1.16699 1.83301 0.5 2.5l-53 402c-0.666992 1.33301 -1.33398 2 -2.00098 2
s-1.33398 -0.666992 -2.00098 -2l-151 -402c-0.666992 -0.666992 -0.666992 -1.5 0 -2.5zM211.004 799l4 31c0 2.66699 1 5 3 7s4.33301 3 7 3h209c6.66699 0 9.33398 -3.33301 8.00098 -10l-3 -31c-1.33301 -6.66699 -5 -10 -11 -10h-209
c-6.66699 0 -9.33398 3.33301 -8.00098 10z" />
    <glyph glyph-name="amacron" unicode="&#x101;" horiz-adv-x="447" 
d="M385 506h49.999c2.66699 0 4.83398 -1 6.50098 -3s2.16699 -4.33301 1.5 -7l-60 -486c0 -2.66699 -1 -5 -3 -7s-4.66699 -3 -8 -3h-49c-6.66699 -0 -9.33398 3.33301 -8.00098 10l5 48c0.666992 2 0.333984 3.16699 -0.999023 3.5s-2.33301 -0.5 -3 -2.5
c-14.667 -21.333 -32.667 -37.833 -54 -49.5s-45 -17.5 -71 -17.5c-41.333 0 -74 13 -98 39s-36 60.667 -36 104c0 20 3.33301 59.333 10 118c6 54 12.333 93.333 19 118c10 42.667 30.333 77.167 61 103.5s67 39.5 109 39.5c26 0 48 -5.83301 66 -17.5
s31.667 -28.5 41 -50.5c0.666992 -2 1.66699 -2.83301 3 -2.5s2 1.5 2 3.5l6 49c1.33301 6.66699 5 10 11 10zM343.999 252c6 48 9.00098 84.333 9.00098 109c0 26.667 -7.83301 48.5 -23.5 65.5s-36.5 25.5 -62.5 25.5c-28 0 -52.5 -9 -73.5 -27s-34.5 -41 -40.5 -69
c-6 -26 -11.333 -60.333 -16 -103c-6 -47.333 -9 -83 -9 -107c0 -27.333 8.16699 -49.5 24.5 -66.5s38.166 -25.5 65.499 -25.5s51 9 71 27s33 41 39 69c6 25.333 11.333 59.333 16 102zM164 605l4 31c0 2.66699 1 5 3 7s4.33301 3 7 3h209
c6.66699 0 9.33398 -3.33301 8.00098 -10l-3 -31c-1.33301 -6.66699 -5 -10 -11 -10h-209c-6.66699 0 -9.33398 3.33301 -8.00098 10z" />
    <glyph glyph-name="Abreve" unicode="&#x102;" horiz-adv-x="493" 
d="M380 9l-15.998 125c-0.666992 2 -2.33398 3 -5.00098 3h-232c-2 0 -3.66699 -1 -5 -3l-47 -125c-2.66699 -6 -6.66699 -9 -12 -9h-50c-3.33301 0 -5.83301 1 -7.5 3s-1.83398 4.66699 -0.500977 8l265 680c2.66699 6 6.66699 9 12 9h62c5.33301 0 8.66602 -3 9.99902 -9
l97 -680v-3c0 -5.33301 -3.33301 -8 -10 -8h-51c-5.33301 0 -8.66602 3 -9.99902 9zM147.002 196.5c0.666992 -1 1.66895 -1.5 3.00195 -1.5h201c1.33301 0 2.5 0.5 3.5 1.5s1.16699 1.83301 0.5 2.5l-53 402c-0.666992 1.33301 -1.33398 2 -2.00098 2
s-1.33398 -0.666992 -2.00098 -2l-151 -402c-0.666992 -0.666992 -0.666992 -1.5 0 -2.5zM247.504 781.5c-18.333 18.333 -27.168 41.833 -26.501 70.5c0 2.66699 1 5 3 7s4.66699 3 8 3h25c6 0 9 -3.33301 9 -10c0 -16.667 5.5 -30.5 16.5 -41.5s24.833 -16.5 41.5 -16.5
s31.667 5.5 45 16.5s22 24.833 26 41.5c2 6.66699 6 10 12 10h26c7.33301 0 10 -3.33301 8 -10c-5.33301 -28.667 -19.5 -52.167 -42.5 -70.5s-49.5 -27.5 -79.5 -27.5c-29.333 0 -53.166 9.16699 -71.499 27.5z" />
    <glyph glyph-name="abreve" unicode="&#x103;" horiz-adv-x="447" 
d="M385 506h49.999c2.66699 0 4.83398 -1 6.50098 -3s2.16699 -4.33301 1.5 -7l-60 -486c0 -2.66699 -1 -5 -3 -7s-4.66699 -3 -8 -3h-49c-6.66699 -0 -9.33398 3.33301 -8.00098 10l5 48c0.666992 2 0.333984 3.16699 -0.999023 3.5s-2.33301 -0.5 -3 -2.5
c-14.667 -21.333 -32.667 -37.833 -54 -49.5s-45 -17.5 -71 -17.5c-41.333 0 -74 13 -98 39s-36 60.667 -36 104c0 20 3.33301 59.333 10 118c6 54 12.333 93.333 19 118c10 42.667 30.333 77.167 61 103.5s67 39.5 109 39.5c26 0 48 -5.83301 66 -17.5
s31.667 -28.5 41 -50.5c0.666992 -2 1.66699 -2.83301 3 -2.5s2 1.5 2 3.5l6 49c1.33301 6.66699 5 10 11 10zM343.999 252c6 48 9.00098 84.333 9.00098 109c0 26.667 -7.83301 48.5 -23.5 65.5s-36.5 25.5 -62.5 25.5c-28 0 -52.5 -9 -73.5 -27s-34.5 -41 -40.5 -69
c-6 -26 -11.333 -60.333 -16 -103c-6 -47.333 -9 -83 -9 -107c0 -27.333 8.16699 -49.5 24.5 -66.5s38.166 -25.5 65.499 -25.5s51 9 71 27s33 41 39 69c6 25.333 11.333 59.333 16 102zM201.5 587.5c-18.333 18.333 -27.168 41.833 -26.501 70.5c0 2.66699 1 5 3 7
s4.66699 3 8 3h25c6 0 9 -3.33301 9 -10c0 -16.667 5.5 -30.5 16.5 -41.5s24.833 -16.5 41.5 -16.5s31.667 5.5 45 16.5s22 24.833 26 41.5c2 6.66699 6 10 12 10h26c7.33301 0 10 -3.33301 8 -10c-5.33301 -28.667 -19.5 -52.167 -42.5 -70.5s-49.5 -27.5 -79.5 -27.5
c-29.333 0 -53.166 9.16699 -71.499 27.5z" />
    <glyph glyph-name="Aogonek" unicode="&#x104;" horiz-adv-x="493" 
d="M380 9l-15.998 125c-0.666992 2 -2.33398 3 -5.00098 3h-232c-2 0 -3.66699 -1 -5 -3l-47 -125c-2.66699 -6 -6.66699 -9 -12 -9h-50c-3.33301 0 -5.83301 1 -7.5 3s-1.83398 4.66699 -0.500977 8l265 680c2.66699 6 6.66699 9 12 9h62c5.33301 0 8.66602 -3 9.99902 -9
l97 -680v-3c0 -5.33301 -3.33301 -8 -10 -8h-51c-5.33301 0 -8.66602 3 -9.99902 9zM147.002 196.5c0.666992 -1 1.66895 -1.5 3.00195 -1.5h201c1.33301 0 2.5 0.5 3.5 1.5s1.16699 1.83301 0.5 2.5l-53 402c-0.666992 1.33301 -1.33398 2 -2.00098 2
s-1.33398 -0.666992 -2.00098 -2l-151 -402c-0.666992 -0.666992 -0.666992 -1.5 0 -2.5zM440.004 -182c-13.333 -2.66699 -24.666 -4.00293 -33.999 -4.00293c-20.667 0 -38.167 5.33301 -52.5 16s-21.5 28.334 -21.5 53.001c0 41.333 21.667 79 65 113
c3.33301 2.66699 7.66602 4 12.999 4h25c5.33301 0 8 -1.66699 8 -5c0 -1.33301 -1.66699 -3.66602 -5 -6.99902c-17.333 -14.667 -31 -30.167 -41 -46.5s-14.667 -32.166 -14 -47.499c0.666992 -24 12.667 -36 36 -36c8 0 14 0.666992 18 2l3 1c4 0 6.66699 -3 8 -9v-22
c0 -6 -2.66699 -10 -8 -12z" />
    <glyph glyph-name="aogonek" unicode="&#x105;" horiz-adv-x="490" 
d="M382 -139c4.66699 0 6.99805 -2.66699 6.99805 -8l1 -23v-2c0 -4.66699 -3 -7.66699 -9 -9c-11.333 -3.33301 -23 -5 -35 -5c-20.667 0 -37.834 5.33301 -51.501 16s-20.5 28.334 -20.5 53.001c0 41.333 21.333 78.666 64 111.999
c1.33301 0.666992 1.83301 1.66699 1.5 3s-1.16602 2 -2.49902 2v0c-3.33301 0 -5.83301 1 -7.5 3s-2.16699 4.33301 -1.5 7l6 48c0.666992 2 0.333984 3.16699 -0.999023 3.5s-2.33301 -0.5 -3 -2.5c-15.333 -22 -33.5 -38.667 -54.5 -50s-44.5 -17 -70.5 -17
c-42 0 -75 13 -99 39s-36 60.667 -36 104c0 24.667 3.66699 64 11 118c6.66699 58.667 13 98 19 118c10 42.667 30.167 77.167 60.5 103.5s66.833 39.5 109.5 39.5c26 0 48 -5.83301 66 -17.5s31.667 -28.5 41 -50.5c0.666992 -2 1.5 -2.83301 2.5 -2.5s1.83301 1.5 2.5 3.5
l6 49c1.33301 6.66699 5 10 11 10h49c6 0 9 -3.33301 9 -10l-60 -488l-1 -8l-4 -2c-21.333 -16 -38.166 -33.167 -50.499 -51.5s-17.833 -35.833 -16.5 -52.5c0.666992 -24 12.667 -36 36 -36c8 0 14 0.666992 18 2zM357.998 252l5.00195 46c2.66699 24.667 4 45.667 4 63
c0 26.667 -7.83301 48.5 -23.5 65.5s-36.5 25.5 -62.5 25.5c-28.667 0 -53.334 -9 -74.001 -27s-34 -41 -40 -69c-5.33301 -24 -11 -58.333 -17 -103c-5.33301 -48.667 -8 -84.667 -8 -108c0 -26.667 8.16699 -48.5 24.5 -65.5s38.166 -25.5 65.499 -25.5s50.833 9 70.5 27
s32.5 41 38.5 69c6 23.333 11.667 57.333 17 102z" />
    <glyph glyph-name="Cacute" unicode="&#x106;" horiz-adv-x="511" 
d="M111 36.5c-31.333 29.667 -47.002 70.1699 -47.002 121.503c0 6 0.666992 16.333 2 31l40 323c6.66699 59.333 30.167 106.833 70.5 142.5s90.166 53.5 149.499 53.5c54 0 96.667 -14.833 128 -44.5s47 -69.834 47 -120.501c0 -6 -0.666992 -15.667 -2 -29l-1 -9
c-0.666992 -2.66699 -2 -5 -4 -7s-4.33301 -3 -7 -3l-50 -2c-6 0 -9 3 -9 9l2 14c0.666992 4.66699 1 11.667 1 21c0 33.333 -10.167 59.833 -30.5 79.5s-47.833 29.5 -82.5 29.5c-38.667 0 -71 -11.833 -97 -35.5s-41.333 -55.167 -46 -94.5l-41 -332
c-0.666992 -4.66699 -1 -11.334 -1 -20.001c0 -33.333 10 -60 30 -80s47.333 -30 82 -30c38.667 0 71.167 12 97.5 36s41.833 55.333 46.5 94l2 14c1.33301 6 5 9 11 9l49 -3c6.66699 0 9.33398 -3.33301 8.00098 -10l-1 -7
c-6.66699 -58.667 -30.167 -105.834 -70.5 -141.501s-90.166 -53.5 -149.499 -53.5c-53.333 0 -95.666 14.833 -126.999 44.5zM292.998 769.503c-1.33301 2.33301 -0.667969 5.16602 1.99902 8.49902l73 109c3.33301 4.66699 7.33301 7 12 7h42c4 0 6.33301 -1.16699 7 -3.5
s-0.333008 -5.16602 -3 -8.49902l-80 -109c-4.66699 -4.66699 -9 -7 -13 -7h-33c-3.33301 0 -5.66602 1.16699 -6.99902 3.5z" />
    <glyph glyph-name="cacute" unicode="&#x107;" horiz-adv-x="447" 
d="M100.5 31.5c-27 26.333 -40.8301 61.8311 -41.4971 106.498c0 32.667 2.66699 71.334 8 116.001c4 32.667 10.667 71 20 115c11.333 43.333 34 78.333 68 105s74.333 40 121 40c45.333 0 82 -12.5 110 -37.5s42.667 -56.833 44 -95.5v-21c0 -3.33301 -1 -6 -3 -8
s-4.33301 -3 -7 -3l-50 -3c-6 0 -9 3 -9 9v12c0 23.333 -8.5 43.333 -25.5 60s-39.5 25 -67.5 25c-28.667 0 -53.334 -9 -74.001 -27s-34.334 -41.333 -41.001 -70c-6 -26.667 -11.667 -60.667 -17 -102c-5.33301 -44.667 -8 -79 -8 -103c0 -29.333 8 -52.666 24 -69.999
s38.333 -26 67 -26s53.5 8.33301 74.5 25s34.167 37 39.5 61c1.33301 4 2 6.66699 2 8c2 7.33301 6 10.333 12 9l48 -4c5.33301 -1.33301 8 -4.33301 8 -9l-1 -4l-3 -12c-9.33301 -39.333 -31.333 -71.833 -66 -97.5s-75.334 -38.5 -122.001 -38.5s-83.5 13.167 -110.5 39.5
zM242.003 575.498c-1.33301 2.33301 -0.667969 5.16602 1.99902 8.49902l73 109c3.33301 4.66699 7.33301 7 12 7h42c4 0 6.33301 -1.16699 7 -3.5s-0.333008 -5.16602 -3 -8.49902l-80 -109c-4.66699 -4.66699 -9 -7 -13 -7h-33c-3.33301 0 -5.66602 1.16699 -6.99902 3.5z
" />
    <glyph glyph-name="Ccircumflex" unicode="&#x108;" horiz-adv-x="511" 
d="M111 36.5c-31.333 29.667 -47.002 70.1699 -47.002 121.503c0 6 0.666992 16.333 2 31l40 323c6.66699 59.333 30.167 106.833 70.5 142.5s90.166 53.5 149.499 53.5c54 0 96.667 -14.833 128 -44.5s47 -69.834 47 -120.501c0 -6 -0.666992 -15.667 -2 -29l-1 -9
c-0.666992 -2.66699 -2 -5 -4 -7s-4.33301 -3 -7 -3l-50 -2c-6 0 -9 3 -9 9l2 14c0.666992 4.66699 1 11.667 1 21c0 33.333 -10.167 59.833 -30.5 79.5s-47.833 29.5 -82.5 29.5c-38.667 0 -71 -11.833 -97 -35.5s-41.333 -55.167 -46 -94.5l-41 -332
c-0.666992 -4.66699 -1 -11.334 -1 -20.001c0 -33.333 10 -60 30 -80s47.333 -30 82 -30c38.667 0 71.167 12 97.5 36s41.833 55.333 46.5 94l2 14c1.33301 6 5 9 11 9l49 -3c6.66699 0 9.33398 -3.33301 8.00098 -10l-1 -7
c-6.66699 -58.667 -30.167 -105.834 -70.5 -141.501s-90.166 -53.5 -149.499 -53.5c-53.333 0 -95.666 14.833 -126.999 44.5zM220.498 773.503c-1 2.33301 -0.166016 5.16797 2.50098 8.50098l84 106c2.66699 4 6.66699 6 12 6h57c6 0 9.66699 -2 11 -6l59 -106
c1.33301 -2.66699 2 -4.33398 2 -5.00098c0 -2 -0.833008 -3.66699 -2.5 -5s-3.83398 -2 -6.50098 -2h-41c-5.33301 0 -9 2.33301 -11 7l-40 78c-0.666992 1.33301 -1.66699 1.83301 -3 1.5s-2.33301 -0.833008 -3 -1.5l-61 -79c-2.66699 -4 -6.66699 -6 -12 -6h-40
c-4 0 -6.5 1.16699 -7.5 3.5z" />
    <glyph glyph-name="ccircumflex" unicode="&#x109;" horiz-adv-x="447" 
d="M100.5 31.5c-27 26.333 -40.8301 61.8311 -41.4971 106.498c0 32.667 2.66699 71.334 8 116.001c4 32.667 10.667 71 20 115c11.333 43.333 34 78.333 68 105s74.333 40 121 40c45.333 0 82 -12.5 110 -37.5s42.667 -56.833 44 -95.5v-21c0 -3.33301 -1 -6 -3 -8
s-4.33301 -3 -7 -3l-50 -3c-6 0 -9 3 -9 9v12c0 23.333 -8.5 43.333 -25.5 60s-39.5 25 -67.5 25c-28.667 0 -53.334 -9 -74.001 -27s-34.334 -41.333 -41.001 -70c-6 -26.667 -11.667 -60.667 -17 -102c-5.33301 -44.667 -8 -79 -8 -103c0 -29.333 8 -52.666 24 -69.999
s38.333 -26 67 -26s53.5 8.33301 74.5 25s34.167 37 39.5 61c1.33301 4 2 6.66699 2 8c2 7.33301 6 10.333 12 9l48 -4c5.33301 -1.33301 8 -4.33301 8 -9l-1 -4l-3 -12c-9.33301 -39.333 -31.333 -71.833 -66 -97.5s-75.334 -38.5 -122.001 -38.5s-83.5 13.167 -110.5 39.5
zM169.503 579.498c-1 2.33301 -0.166016 5.16797 2.50098 8.50098l84 106c2.66699 4 6.66699 6 12 6h57c6 0 9.66699 -2 11 -6l59 -106c1.33301 -2.66699 2 -4.33398 2 -5.00098c0 -2 -0.833008 -3.66699 -2.5 -5s-3.83398 -2 -6.50098 -2h-41c-5.33301 0 -9 2.33301 -11 7
l-40 78c-0.666992 1.33301 -1.66699 1.83301 -3 1.5s-2.33301 -0.833008 -3 -1.5l-61 -79c-2.66699 -4 -6.66699 -6 -12 -6h-40c-4 0 -6.5 1.16699 -7.5 3.5z" />
    <glyph glyph-name="Cdotaccent" unicode="&#x10a;" horiz-adv-x="511" 
d="M111 36.5c-31.333 29.667 -47.002 70.1699 -47.002 121.503c0 6 0.666992 16.333 2 31l40 323c6.66699 59.333 30.167 106.833 70.5 142.5s90.166 53.5 149.499 53.5c54 0 96.667 -14.833 128 -44.5s47 -69.834 47 -120.501c0 -6 -0.666992 -15.667 -2 -29l-1 -9
c-0.666992 -2.66699 -2 -5 -4 -7s-4.33301 -3 -7 -3l-50 -2c-6 0 -9 3 -9 9l2 14c0.666992 4.66699 1 11.667 1 21c0 33.333 -10.167 59.833 -30.5 79.5s-47.833 29.5 -82.5 29.5c-38.667 0 -71 -11.833 -97 -35.5s-41.333 -55.167 -46 -94.5l-41 -332
c-0.666992 -4.66699 -1 -11.334 -1 -20.001c0 -33.333 10 -60 30 -80s47.333 -30 82 -30c38.667 0 71.167 12 97.5 36s41.833 55.333 46.5 94l2 14c1.33301 6 5 9 11 9l49 -3c6.66699 0 9.33398 -3.33301 8.00098 -10l-1 -7
c-6.66699 -58.667 -30.167 -105.834 -70.5 -141.501s-90.166 -53.5 -149.499 -53.5c-53.333 0 -95.666 14.833 -126.999 44.5zM300.998 805.503c-8.66699 9 -12.999 20.501 -12.999 34.501c0 18.667 6 34 18 46s26.667 18 44 18c14 0 25.5 -4.33301 34.5 -13
s13.5 -20.334 13.5 -35.001c0 -18 -6 -33.167 -18 -45.5s-26.667 -18.5 -44 -18.5c-14.667 0 -26.334 4.5 -35.001 13.5z" />
    <glyph glyph-name="cdotaccent" unicode="&#x10b;" horiz-adv-x="447" 
d="M100.5 31.5c-27 26.333 -40.8301 61.8311 -41.4971 106.498c0 32.667 2.66699 71.334 8 116.001c4 32.667 10.667 71 20 115c11.333 43.333 34 78.333 68 105s74.333 40 121 40c45.333 0 82 -12.5 110 -37.5s42.667 -56.833 44 -95.5v-21c0 -3.33301 -1 -6 -3 -8
s-4.33301 -3 -7 -3l-50 -3c-6 0 -9 3 -9 9v12c0 23.333 -8.5 43.333 -25.5 60s-39.5 25 -67.5 25c-28.667 0 -53.334 -9 -74.001 -27s-34.334 -41.333 -41.001 -70c-6 -26.667 -11.667 -60.667 -17 -102c-5.33301 -44.667 -8 -79 -8 -103c0 -29.333 8 -52.666 24 -69.999
s38.333 -26 67 -26s53.5 8.33301 74.5 25s34.167 37 39.5 61c1.33301 4 2 6.66699 2 8c2 7.33301 6 10.333 12 9l48 -4c5.33301 -1.33301 8 -4.33301 8 -9l-1 -4l-3 -12c-9.33301 -39.333 -31.333 -71.833 -66 -97.5s-75.334 -38.5 -122.001 -38.5s-83.5 13.167 -110.5 39.5
zM250.003 611.498c-8.66699 9 -12.999 20.501 -12.999 34.501c0 18.667 6 34 18 46s26.667 18 44 18c14 0 25.5 -4.33301 34.5 -13s13.5 -20.334 13.5 -35.001c0 -18 -6 -33.167 -18 -45.5s-26.667 -18.5 -44 -18.5c-14.667 0 -26.334 4.5 -35.001 13.5z" />
    <glyph glyph-name="Ccaron" unicode="&#x10c;" horiz-adv-x="511" 
d="M111 36.5c-31.333 29.667 -47.002 70.1699 -47.002 121.503c0 6 0.666992 16.333 2 31l40 323c6.66699 59.333 30.167 106.833 70.5 142.5s90.166 53.5 149.499 53.5c54 0 96.667 -14.833 128 -44.5s47 -69.834 47 -120.501c0 -6 -0.666992 -15.667 -2 -29l-1 -9
c-0.666992 -2.66699 -2 -5 -4 -7s-4.33301 -3 -7 -3l-50 -2c-6 0 -9 3 -9 9l2 14c0.666992 4.66699 1 11.667 1 21c0 33.333 -10.167 59.833 -30.5 79.5s-47.833 29.5 -82.5 29.5c-38.667 0 -71 -11.833 -97 -35.5s-41.333 -55.167 -46 -94.5l-41 -332
c-0.666992 -4.66699 -1 -11.334 -1 -20.001c0 -33.333 10 -60 30 -80s47.333 -30 82 -30c38.667 0 71.167 12 97.5 36s41.833 55.333 46.5 94l2 14c1.33301 6 5 9 11 9l49 -3c6.66699 0 9.33398 -3.33301 8.00098 -10l-1 -7
c-6.66699 -58.667 -30.167 -105.834 -70.5 -141.501s-90.166 -53.5 -149.499 -53.5c-53.333 0 -95.666 14.833 -126.999 44.5zM235.998 886.003c0 2 0.833008 3.83203 2.5 5.49902s3.83398 2.5 6.50098 2.5h40c6 0 9.66699 -2 11 -6l42 -79c0 -0.666992 0.666992 -1 2 -1
s2.66602 0.333008 3.99902 1l59 78c3.33301 4.66699 7.33301 7 12 7h41c4 0 6.5 -1.16699 7.5 -3.5s-0.166992 -5.16602 -3.5 -8.49902l-85 -106c-2.66699 -4 -6.66699 -6 -12 -6h-57c-6 0 -9.66699 2 -11 6l-58 106c-0.666992 0.666992 -1 2 -1 4z" />
    <glyph glyph-name="ccaron" unicode="&#x10d;" horiz-adv-x="447" 
d="M100.5 31.5c-27 26.333 -40.8301 61.8311 -41.4971 106.498c0 32.667 2.66699 71.334 8 116.001c4 32.667 10.667 71 20 115c11.333 43.333 34 78.333 68 105s74.333 40 121 40c45.333 0 82 -12.5 110 -37.5s42.667 -56.833 44 -95.5v-21c0 -3.33301 -1 -6 -3 -8
s-4.33301 -3 -7 -3l-50 -3c-6 0 -9 3 -9 9v12c0 23.333 -8.5 43.333 -25.5 60s-39.5 25 -67.5 25c-28.667 0 -53.334 -9 -74.001 -27s-34.334 -41.333 -41.001 -70c-6 -26.667 -11.667 -60.667 -17 -102c-5.33301 -44.667 -8 -79 -8 -103c0 -29.333 8 -52.666 24 -69.999
s38.333 -26 67 -26s53.5 8.33301 74.5 25s34.167 37 39.5 61c1.33301 4 2 6.66699 2 8c2 7.33301 6 10.333 12 9l48 -4c5.33301 -1.33301 8 -4.33301 8 -9l-1 -4l-3 -12c-9.33301 -39.333 -31.333 -71.833 -66 -97.5s-75.334 -38.5 -122.001 -38.5s-83.5 13.167 -110.5 39.5
zM185.003 691.998c0 2 0.833008 3.83203 2.5 5.49902s3.83398 2.5 6.50098 2.5h40c6 0 9.66699 -2 11 -6l42 -79c0 -0.666992 0.666992 -1 2 -1s2.66602 0.333008 3.99902 1l59 78c3.33301 4.66699 7.33301 7 12 7h41c4 0 6.5 -1.16699 7.5 -3.5
s-0.166992 -5.16602 -3.5 -8.49902l-85 -106c-2.66699 -4 -6.66699 -6 -12 -6h-57c-6 0 -9.66699 2 -11 6l-58 106c-0.666992 0.666992 -1 2 -1 4z" />
    <glyph glyph-name="Dcaron" unicode="&#x10e;" horiz-adv-x="525" 
d="M62 10l84.001 679.999c1.33301 6.66699 5 10 11 10h189c51.333 0 91.666 -14.167 120.999 -42.5s44 -67.166 44 -116.499c0 -6 -0.666992 -16.333 -2 -31l-39 -320c-7.33301 -58.667 -29.833 -105 -67.5 -139s-85.167 -51 -142.5 -51h-189c-6 -0 -9 3.33301 -9 10z
M139.001 62.999c0.666992 -0.666992 1.33301 -1.00098 2 -1.00098h128c35.333 0.666992 64.833 12.834 88.5 36.501s38.167 56.167 43.5 97.5l38 308c1.33301 12 2 20.333 2 25c0 34 -9 60.667 -27 80s-43 29 -75 29h-127c-2.66699 0 -4 -1.33301 -4 -4l-70 -568
c0 -1.33301 0.333008 -2.33301 1 -3zM240 883.998c0 2 0.833008 3.83203 2.5 5.49902s3.83398 2.5 6.50098 2.5h40c6 0 9.66699 -2 11 -6l42 -79c0 -0.666992 0.666992 -1 2 -1s2.66602 0.333008 3.99902 1l59 78c3.33301 4.66699 7.33301 7 12 7h41
c4 0 6.5 -1.16699 7.5 -3.5s-0.166992 -5.16602 -3.5 -8.49902l-85 -106c-2.66699 -4 -6.66699 -6 -12 -6h-57c-6 0 -9.66699 2 -11 6l-58 106c-0.666992 0.666992 -1 2 -1 4z" />
    <glyph glyph-name="dcaron" unicode="&#x10f;" horiz-adv-x="470" 
d="M409 700l49.001 -0.000976562c3.33301 0 5.83301 -1 7.5 -3s2.16699 -4.33301 1.5 -7l-84 -680c0 -2.66699 -1 -5 -3 -7s-4.66699 -3 -8 -3h-49c-6.66699 0 -9.33398 3.33301 -8.00098 10l4 40c0.666992 2 0.5 3 -0.5 3s-2.16699 -0.666992 -3.5 -2
c-28.667 -39.333 -68.667 -59 -120 -59c-40.667 0 -71.834 11.167 -93.501 33.5s-35.167 57.833 -40.5 106.5c-2 18 -3 35 -3 51c0 16.667 1.33301 38.334 4 65.001c6.66699 48 15.334 87.667 26.001 119c16 50 38.333 86.833 67 110.5s65 35.5 109 35.5
c27.333 0 48.833 -4.83301 64.5 -14.5s27.5 -24.167 35.5 -43.5c0.666992 -2 1.66699 -2.83301 3 -2.5s2 1.5 2 3.5l29 234c1.33301 6.66699 5 10 11 10zM342.001 252.999c3.33301 30 5 55.668 5 77.001c0 20.667 -1.33301 38 -4 52c-5.33301 22.667 -13.833 40 -25.5 52
s-28.5 18 -50.5 18c-42.667 0 -76 -22.667 -100 -68c-16.667 -35.333 -28 -79 -34 -131c-3.33301 -28.667 -5 -53 -5 -73c0 -22 1.66699 -39.333 5 -52c5.33301 -24.667 14.5 -43.334 27.5 -56.001s31.833 -19 56.5 -19c22.667 0 41.5 6.33301 56.5 19s27.833 31 38.5 55
c13.333 29.333 23.333 71.333 30 126zM504.001 575.5c-1.33301 2.33301 -0.667969 5.16602 1.99902 8.49902l73 109c3.33301 4.66699 7.33301 7 12 7h42c4 0 6.33301 -1.16699 7 -3.5s-0.333008 -5.16602 -3 -8.49902l-80 -109c-4.66699 -4.66699 -9 -7 -13 -7h-33
c-3.33301 0 -5.66602 1.16699 -6.99902 3.5z" />
    <glyph glyph-name="Dcroat" unicode="&#x110;" horiz-adv-x="578" 
d="M520 658c29.333 -28 44 -66.333 44 -115c0 -7.33301 -0.666992 -18.333 -2 -33l-39 -320c-6.66699 -58.667 -29.167 -105 -67.5 -139s-86.166 -51 -143.499 -51h-189c-6.66699 -0 -9.33398 3.33301 -8.00098 10l40 327c0 2.66699 -1.33301 4 -4 4h-38
c-3.33301 0 -5.83301 1 -7.5 3s-2.16699 4.33301 -1.5 7l4 28c0 2.66699 1 5 3 7s4.66699 3 8 3h38c2 0 3.66699 1.33301 5 4l36 297c1.33301 6.66699 5 10 11 10h189c52 0 92.667 -14 122 -42zM492 504c1.33301 12 2 20.332 2 24.999c0 34 -9 60.667 -27 80s-43 29 -75 29
h-127c-1.33301 0 -2.5 -0.333008 -3.5 -1s-1.5 -1.66699 -1.5 -3l-29 -241c-0.666992 -0.666992 -0.666992 -1.5 0 -2.5s1.66699 -1.5 3 -1.5h94c6 0 9 -3.33301 9 -10l-4 -28c-1.33301 -6.66699 -5 -10 -11 -10h-94c-2.66699 0 -4 -1.33301 -4 -4l-34 -271
c0 -2.66699 1.33301 -4 4 -4h128c35.333 0.666992 65 12.834 89 36.501s38.333 56.167 43 97.5z" />
    <glyph glyph-name="dcroat" unicode="&#x111;" horiz-adv-x="470" 
d="M513.5 614c1.66699 -2 2.16797 -4.33398 1.50098 -7.00098l-3 -27c-0.666992 -2.66699 -2 -5 -4 -7s-4.33301 -3 -7 -3h-45c-2.66699 0 -4 -1.33301 -4 -4l-69 -556c0 -2.66699 -1 -5 -3 -7s-4.66699 -3 -8 -3h-49c-6.66699 0 -9.33398 3.33301 -8.00098 10l4 40
c0.666992 2 0.5 3 -0.5 3s-2.16699 -0.666992 -3.5 -2c-28.667 -39.333 -68.667 -59 -120 -59c-40.667 0 -71.834 11.167 -93.501 33.5s-35.167 57.833 -40.5 106.5c-2 18 -3 35 -3 51c0 16.667 1.33301 38.334 4 65.001c6.66699 48 15.334 87.667 26.001 119
c16 50 38.333 86.833 67 110.5s65 35.5 109 35.5c27.333 0 48.833 -4.83301 64.5 -14.5s27.5 -24.167 35.5 -43.5c0.666992 -2 1.66699 -2.83301 3 -2.5s2 1.5 2 3.5l14 110c0 2.66699 -1.33301 4 -4 4h-142c-6 0 -9 3.33301 -9 10l4 27c0 2.66699 1 5 3 7s4.66699 3 8 3
h142c2 0 3.66699 1.33301 5 4l8 69c1.33301 6.66699 5 10 11 10h49c3.33301 0 5.83301 -1 7.5 -3s2.16699 -4.33301 1.5 -7l-9 -69c0 -2.66699 1.33301 -4 4 -4h44c3.33301 0 5.83301 -1 7.5 -3zM342.001 252.999c3.33301 30 5 55.668 5 77.001c0 20.667 -1.33301 38 -4 52
c-5.33301 22.667 -13.833 40 -25.5 52s-28.5 18 -50.5 18c-42.667 0 -76 -22.667 -100 -68c-16.667 -35.333 -28 -79 -34 -131c-3.33301 -28.667 -5 -53 -5 -73c0 -22 1.66699 -39.333 5 -52c5.33301 -24.667 14.5 -43.334 27.5 -56.001s31.833 -19 56.5 -19
c22.667 0 41.5 6.33301 56.5 19s27.833 31 38.5 55c13.333 29.333 23.333 71.333 30 126z" />
    <glyph glyph-name="Emacron" unicode="&#x112;" horiz-adv-x="502" 
d="M503 638h-291.003c-2.66699 0 -4 -1.33301 -4 -4l-31 -248c0 -2.66699 1.33301 -4 4 -4h196c6.66699 0 9.33398 -3.33301 8.00098 -10l-5 -42c-1.33301 -6.66699 -5 -10 -11 -10h-196c-2.66699 0 -4 -1.33301 -4 -4l-31 -250c0 -1.33301 0.333008 -2.33301 1 -3
s1.33398 -1 2.00098 -1h291c3.33301 0 5.83301 -1 7.5 -3s2.16699 -4.33301 1.5 -7l-5 -42c-1.33301 -6.66699 -5 -10 -11 -10h-354c-6 -0 -9 3.33301 -9 10l84 680c1.33301 6.66699 5 10 11 10h354c6.66699 0 9.33398 -3.33301 8.00098 -10l-5 -42
c-1.33301 -6.66699 -5 -10 -11 -10zM229.997 799l4 31c0 2.66699 1 5 3 7s4.33301 3 7 3h209c6.66699 0 9.33398 -3.33301 8.00098 -10l-3 -31c-1.33301 -6.66699 -5 -10 -11 -10h-209c-6.66699 0 -9.33398 3.33301 -8.00098 10z" />
    <glyph glyph-name="emacron" unicode="&#x113;" horiz-adv-x="456" 
d="M287 73.5c19.333 13 34.333 30.5 45 52.5c2 6 6 8.33301 12 7l44 -9c2.66699 -0.666992 4.5 -2.16699 5.5 -4.5s0.833008 -4.83301 -0.5 -7.5c-15.333 -37.333 -39 -66.666 -71 -87.999s-68.667 -32 -110 -32c-49.333 0 -87.166 13.667 -113.499 41
s-39.5 64.333 -39.5 111c0 24.667 3 61 9 109c4 43.333 10 80.666 18 111.999c10.667 44.667 33 80.667 67 108s74.333 41 121 41c48 0 85.667 -14 113 -42s41 -65 41 -111c0 -12 -1 -27.5 -3 -46.5s-3.33301 -32.833 -4 -41.5
c-2.66699 -17.333 -4.33398 -30.666 -5.00098 -39.999c-1.33301 -6.66699 -5 -10 -11 -10h-268c-2.66699 0 -4 -1.33301 -4 -4c-2 -10.667 -3.66699 -27 -5 -49l-2 -20c0 -28.667 8.5 -51.834 25.5 -69.501s40.167 -26.5 69.5 -26.5c24.667 0 46.667 6.5 66 19.5zM193 425.5
c-20.667 -17.667 -34.666 -40.834 -41.999 -69.501l-3 -21l-7 -49c-0.666992 -2.66699 0.333008 -4 3 -4h205c2.66699 0 4 1.33301 4 4c3.33301 28.667 5 52.334 5 71.001c0 28 -8.16699 50.833 -24.5 68.5s-38.5 26.5 -66.5 26.5c-28.667 0 -53.334 -8.83301 -74.001 -26.5
zM172.501 624c-1.66699 2 -2.16699 4.33301 -1.5 7l4 32c1.33301 6.66699 5 10 11 10h209c3.33301 0 5.83301 -1 7.5 -3s2.16699 -4.33301 1.5 -7l-4 -32c-1.33301 -6.66699 -5 -10 -11 -10h-209c-3.33301 0 -5.83301 1 -7.5 3z" />
    <glyph glyph-name="Edotaccent" unicode="&#x116;" horiz-adv-x="502" 
d="M503 638h-291.003c-2.66699 0 -4 -1.33301 -4 -4l-31 -248c0 -2.66699 1.33301 -4 4 -4h196c6.66699 0 9.33398 -3.33301 8.00098 -10l-5 -42c-1.33301 -6.66699 -5 -10 -11 -10h-196c-2.66699 0 -4 -1.33301 -4 -4l-31 -250c0 -1.33301 0.333008 -2.33301 1 -3
s1.33398 -1 2.00098 -1h291c3.33301 0 5.83301 -1 7.5 -3s2.16699 -4.33301 1.5 -7l-5 -42c-1.33301 -6.66699 -5 -10 -11 -10h-354c-6 -0 -9 3.33301 -9 10l84 680c1.33301 6.66699 5 10 11 10h354c6.66699 0 9.33398 -3.33301 8.00098 -10l-5 -42
c-1.33301 -6.66699 -5 -10 -11 -10zM307.997 805.5c-8.66699 9 -12.999 20.501 -12.999 34.501c0 18.667 6 34 18 46s26.667 18 44 18c14 0 25.5 -4.33301 34.5 -13s13.5 -20.334 13.5 -35.001c0 -18 -6 -33.167 -18 -45.5s-26.667 -18.5 -44 -18.5
c-14.667 0 -26.334 4.5 -35.001 13.5z" />
    <glyph glyph-name="edotaccent" unicode="&#x117;" horiz-adv-x="456" 
d="M287 73.5c19.333 13 34.333 30.5 45 52.5c2 6 6 8.33301 12 7l44 -9c2.66699 -0.666992 4.5 -2.16699 5.5 -4.5s0.833008 -4.83301 -0.5 -7.5c-15.333 -37.333 -39 -66.666 -71 -87.999s-68.667 -32 -110 -32c-49.333 0 -87.166 13.667 -113.499 41
s-39.5 64.333 -39.5 111c0 24.667 3 61 9 109c4 43.333 10 80.666 18 111.999c10.667 44.667 33 80.667 67 108s74.333 41 121 41c48 0 85.667 -14 113 -42s41 -65 41 -111c0 -12 -1 -27.5 -3 -46.5s-3.33301 -32.833 -4 -41.5
c-2.66699 -17.333 -4.33398 -30.666 -5.00098 -39.999c-1.33301 -6.66699 -5 -10 -11 -10h-268c-2.66699 0 -4 -1.33301 -4 -4c-2 -10.667 -3.66699 -27 -5 -49l-2 -20c0 -28.667 8.5 -51.834 25.5 -69.501s40.167 -26.5 69.5 -26.5c24.667 0 46.667 6.5 66 19.5zM193 425.5
c-20.667 -17.667 -34.666 -40.834 -41.999 -69.501l-3 -21l-7 -49c-0.666992 -2.66699 0.333008 -4 3 -4h205c2.66699 0 4 1.33301 4 4c3.33301 28.667 5 52.334 5 71.001c0 28 -8.16699 50.833 -24.5 68.5s-38.5 26.5 -66.5 26.5c-28.667 0 -53.334 -8.83301 -74.001 -26.5
zM247.001 611.5c-8.66699 9 -12.999 20.501 -12.999 34.501c0 18.667 6 34 18 46s26.667 18 44 18c14 0 25.5 -4.33301 34.5 -13s13.5 -20.334 13.5 -35.001c0 -18 -6 -33.167 -18 -45.5s-26.667 -18.5 -44 -18.5c-14.667 0 -26.334 4.5 -35.001 13.5z" />
    <glyph glyph-name="Eogonek" unicode="&#x118;" horiz-adv-x="502" 
d="M503 638l-291.004 -0.000976562c-2.66699 0 -4 -1.33301 -4 -4l-31 -248c0 -2.66699 1.33301 -4 4 -4h196c6.66699 0 9.33398 -3.33301 8.00098 -10l-5 -42c-1.33301 -6.66699 -5 -10 -11 -10h-196c-2.66699 0 -4 -1.33301 -4 -4l-31 -250
c0 -1.33301 0.333008 -2.33301 1 -3s1.33398 -1 2.00098 -1h291c3.33301 0 5.83301 -1 7.5 -3s2.16699 -4.33301 1.5 -7l-5 -42c-1.33301 -6.66699 -5 -10 -11 -10h-150c-2 0 -3.66699 -0.666992 -5 -2c-18 -14.667 -32.5 -30.167 -43.5 -46.5s-16.5 -32.166 -16.5 -47.499
c0 -26 12.667 -39 38 -39c3.33301 0 9 0.666992 17 2l4 1c4.66699 0 7 -2.66699 7 -8l1 -22c0 -6 -3 -10 -9 -12c-12 -3.33301 -24 -5 -36 -5c-20 0 -37 5.5 -51 16.5s-21 28.833 -21 53.5c0 38 18.333 72.667 55 104c1.33301 1.33301 1.83301 2.5 1.5 3.5
s-1.16602 1.5 -2.49902 1.5h-143c-6 -0 -9 3.33301 -9 10l84 680c1.33301 6.66699 5 10 11 10h354c6.66699 0 9.33398 -3.33301 8.00098 -10l-5 -42c-1.33301 -6.66699 -5 -10 -11 -10z" />
    </font>
</defs>
</svg>
