<?xml version="1.0" standalone="no"?>
<!DOCTYPE svg PUBLIC "-//W3C//DTD SVG 1.1//EN" "http://www.w3.org/Graphics/SVG/1.1/DTD/svg11.dtd" >
<svg>
<metadata>
Created by FontForge 20090914 at Wed Sep  8 20:16:09 2021
 By www-data
Copyright 2017 The Barlow Project Authors (https://github.com/jpt/barlow)
</metadata>
<defs>
<font id="BarlowSemiCondensed-Medium" horiz-adv-x="487" >
  <font-face 
    font-family="Barlow Semi Condensed Medium"
    font-weight="500"
    font-stretch="semi-condensed"
    units-per-em="1000"
    panose-1="0 0 6 6 0 0 0 0 0 0"
    ascent="800"
    descent="-200"
    x-height="508.999"
    cap-height="700"
    bbox="-588.458 -208.998 1059 1081"
    underline-thickness="50"
    underline-position="-50"
    unicode-range="U+000D-U+FB02"
  />
<missing-glyph horiz-adv-x="401" 
d="M4 0h393c2.66699 -0 4 1.33301 4 4v692c0 2.66699 -1.33301 4 -4 4h-393c-2.66699 0 -4 -1.33301 -4 -4v-692c-0 -2.66699 1.33301 -4 4 -4zM159 248v32.999c0 22 4.83301 39.667 14.5 53s24.167 28 43.5 44c18 15.333 31.333 29 40 41s13 27 13 45
c0 21.333 -6 38.333 -18 51s-27.667 19 -47 19c-20 0 -36.167 -6.5 -48.5 -19.5s-18.5 -30.167 -18.5 -51.5v-16c0 -6.66699 -3.33301 -10 -10 -10l-48 2c-2.66699 0 -5 1 -7 3s-3 4.66699 -3 8v13c0 40 12.667 72.333 38 97s58.333 37 99 37c40 0 72 -12 96 -36
s36 -55.667 36 -95c0 -30 -5.83301 -53.667 -17.5 -71s-28.167 -34.666 -49.5 -51.999c-15.333 -13.333 -26.5 -24.5 -33.5 -33.5s-10.5 -19.833 -10.5 -32.5v-29c0 -6.66699 -3.33301 -10 -10 -10h-49c-6.66699 0 -10 3.33301 -10 10zM160 102.999
c-8.66699 8.66699 -13 19.667 -13 33s4.33301 24.333 13 33s19.667 13 33 13s24.333 -4.33301 33 -13s13 -19.667 13 -33c0 -12.667 -4.33301 -23.5 -13 -32.5s-19.667 -13.5 -33 -13.5s-24.333 4.33301 -33 13z" />
    <glyph glyph-name="fi" unicode="fi" horiz-adv-x="559" 
d="M206.5 599.5c-11 -13.667 -16.501 -36.833 -16.501 -69.5v-17c0 -2.66699 1.33301 -4 4 -4h87c6.66699 0 10 -3.33301 10 -10v-59c0 -6.66699 -3.33301 -10 -10 -10h-87c-2.66699 0 -4 -1.33301 -4 -4v-416c0 -6.66699 -3.33301 -10 -10 -10h-76
c-6.66699 -0 -10 3.33301 -10 10v416c0 2.66699 -1.33301 4 -4 4h-52c-6.66699 0 -10 3.33301 -10 10v59c0 6.66699 3.33301 10 10 10h52c2.66699 0 4 1.33301 4 4v22c0 42 5.33301 75.167 16 99.5s27.834 41.833 51.501 52.5s56.167 16 97.5 16h23
c6.66699 0 10 -3.33301 10 -10l-1 -63c0 -6.66699 -3.33301 -10 -10 -10h-17c-27.333 0 -46.5 -6.83301 -57.5 -20.5zM395.999 607.001c-12 12 -18 27.333 -18 46c0 19.333 6 34.833 18 46.5s27.333 17.5 46 17.5s34 -6 46 -18s18 -27.333 18 -46s-6.16699 -34 -18.5 -46
s-27.5 -18 -45.5 -18c-18.667 0 -34 6 -46 18zM392.999 10.001v489c0 6.66699 3.33301 10 10 10h76c6.66699 0 10 -3.33301 10 -10v-489c0 -6.66699 -3.33301 -10 -10 -10h-76c-6.66699 0 -10 3.33301 -10 10z" />
    <glyph glyph-name="fl" unicode="fl" horiz-adv-x="539" 
d="M206.5 599.5c-11 -13.667 -16.501 -36.833 -16.501 -69.5v-17c0 -2.66699 1.33301 -4 4 -4h87c6.66699 0 10 -3.33301 10 -10v-59c0 -6.66699 -3.33301 -10 -10 -10h-87c-2.66699 0 -4 -1.33301 -4 -4v-416c0 -6.66699 -3.33301 -10 -10 -10h-76
c-6.66699 -0 -10 3.33301 -10 10v416c0 2.66699 -1.33301 4 -4 4h-52c-6.66699 0 -10 3.33301 -10 10v59c0 6.66699 3.33301 10 10 10h52c2.66699 0 4 1.33301 4 4v22c0 42 5.33301 75.167 16 99.5s27.834 41.833 51.501 52.5s56.167 16 97.5 16h23
c6.66699 0 10 -3.33301 10 -10l-1 -63c0 -6.66699 -3.33301 -10 -10 -10h-17c-27.333 0 -46.5 -6.83301 -57.5 -20.5zM383.999 10.001v680c0 6.66699 3.33301 10 10 10h76c6.66699 0 10 -3.33301 10 -10v-680c0 -6.66699 -3.33301 -10 -10 -10h-76
c-6.66699 0 -10 3.33301 -10 10z" />
    <glyph glyph-name="I_J.liga" unicode="IJ" horiz-adv-x="747" 
d="M72 10v680c0 6.66699 3.33301 10 10 10h76c6.66699 0 10 -3.33301 10 -10v-680c0 -6.66699 -3.33301 -10 -10 -10h-76c-6.66699 -0 -10 3.33301 -10 10zM318.5 46c-37.667 36 -56.5 83.334 -56.5 142.001v75c0 6.66699 3.33301 10 10 10h76c6.66699 0 10 -3.33301 10 -10
v-76c0 -33.333 10.167 -60.333 30.5 -81s46.833 -31 79.5 -31c33.333 0 60.166 10.333 80.499 31s30.5 47.667 30.5 81v503c0 6.66699 3.33301 10 10 10h76c6.66699 0 10 -3.33301 10 -10v-502c0 -38.667 -8.66699 -72.834 -26 -102.501s-41.666 -52.667 -72.999 -69
s-67.333 -24.5 -108 -24.5c-62 0 -111.833 18 -149.5 54z" />
    <glyph glyph-name="f_f_i.liga" unicode="ffi" horiz-adv-x="855" 
d="M692 607c-12 12 -18 27.333 -18 46s6 34 18 46s27.333 18 46 18s34 -6 46 -18s18 -27.333 18 -46s-6 -34 -18 -46s-27.333 -18 -46 -18s-34 6 -46 18zM487 513c0 -2.66699 1.33301 -4 4 -4h90c6.66699 0 10 -3.33301 10 -10v-54c0 -6.66699 -3.33301 -10 -10 -10h-90
c-2.66699 0 -4 -1.33301 -4 -4v-421c0 -6.66699 -3.33301 -10 -10 -10h-76c-6.66699 -0 -10 3.33301 -10 10v421c0 2.66699 -1.33301 4 -4 4h-196c-2.66699 0 -4 -1.33301 -4 -4v-421c0 -6.66699 -3.33301 -10 -10 -10h-76c-6.66699 -0 -10 3.33301 -10 10v421
c0 2.66699 -1.33301 4 -4 4h-49c-6.66699 0 -10 3.33301 -10 10v54c0 6.66699 3.33301 10 10 10h49c2.66699 0 4 1.33301 4 4v37c0 55.333 12.833 95 38.5 119s68.5 35.333 128.5 34h20c6.66699 0 10 -3.33301 10 -10v-48c0 -6.66699 -3.33301 -10 -10 -10h-20
c-27.333 -0.666992 -46 -8.5 -56 -23.5s-15 -38.167 -15 -69.5v-29c0 -2.66699 1.33301 -4 4 -4h196c2.66699 0 4 1.33301 4 4v37c0 55.333 12.833 95 38.5 119s68.167 35.333 127.5 34h21c6.66699 0 10 -3.33301 10 -10v-48c0 -6.66699 -3.33301 -10 -10 -10h-20
c-27.333 -0.666992 -46 -8.5 -56 -23.5s-15 -38.167 -15 -69.5v-29zM690 10v489c0 6.66699 3.33301 10 10 10h76c6.66699 0 10 -3.33301 10 -10v-489c0 -6.66699 -3.33301 -10 -10 -10h-76c-6.66699 -0 -10 3.33301 -10 10z" />
    <glyph glyph-name="f_f_l.liga" unicode="ffl" horiz-adv-x="838" 
d="M488 513c0 -2.66699 1.33301 -4 4 -4h91c6.66699 0 10 -3.33301 10 -10v-54c0 -6.66699 -3.33301 -10 -10 -10h-91c-2.66699 0 -4 -1.33301 -4 -4v-421c0 -6.66699 -3.33301 -10 -10 -10h-75c-6.66699 -0 -10 3.33301 -10 10v421c0 2.66699 -1.33301 4 -4 4h-198
c-2.66699 0 -4 -1.33301 -4 -4v-421c0 -6.66699 -3.33301 -10 -10 -10h-76c-6.66699 -0 -10 3.33301 -10 10v421c0 2.66699 -1.33301 4 -4 4h-49c-6.66699 0 -10 3.33301 -10 10v54c0 6.66699 3.33301 10 10 10h49c2.66699 0 4 1.33301 4 4v37c0 55.333 12.833 95 38.5 119
s68.5 35.333 128.5 34h20c6.66699 0 10 -3.33301 10 -10v-48c0 -6.66699 -3.33301 -10 -10 -10h-20c-27.333 -0.666992 -46 -8.5 -56 -23.5s-15 -38.167 -15 -69.5v-29c0 -2.66699 1.33301 -4 4 -4h198c2.66699 0 4 1.33301 4 4v37c0 55.333 12.833 95 38.5 119
s68.167 35.333 127.5 34h20c6.66699 0 10 -3.33301 10 -10v-48c0 -6.66699 -3.33301 -10 -10 -10h-20c-27.333 -0.666992 -46 -8.5 -56 -23.5s-15 -38.167 -15 -69.5v-29zM693 700h76c6.66699 0 10 -3.33301 10 -10v-680c0 -6.66699 -3.33301 -10 -10 -10h-76
c-6.66699 -0 -10 3.33301 -10 10v680c0 6.66699 3.33301 10 10 10z" />
    <glyph glyph-name="g_j.liga" unicode="gj" horiz-adv-x="708" 
d="M545 607c-12 12 -18 27.333 -18 46s6 34 18 46s27.333 18 46 18c19.333 0 34.833 -5.83301 46.5 -17.5s17.5 -27.167 17.5 -46.5c0 -18.667 -6 -34 -18 -46s-27.333 -18 -46 -18s-34 6 -46 18zM330.5 469c1 0.666992 1.50195 1.66504 1.50195 2.99805v27
c0 6.66699 3.33301 10 10 10h76c6.66699 0 10 -3.33301 10 -10v-479c0 -148 -79.333 -222 -238 -222c-14 0 -24.667 0.333008 -32 1c-6.66699 0.666992 -10 4.33398 -10 11.001l2 67c0 3.33301 1 5.83301 3 7.5s4.33301 2.16699 7 1.5c62.667 -2.66699 107 7 133 29
s39 59.333 39 112v19c0 1.33301 -0.5 2.33301 -1.5 3s-2.16699 0.333984 -3.5 -0.999023c-26 -32 -62.333 -48 -109 -48c-43.333 -0 -79.833 12.833 -109.5 38.5s-47.834 61.5 -54.501 107.5c-4 21.333 -6 57.666 -6 108.999c0 55.333 2.33301 94 7 116
c6 44.667 23.167 80.167 51.5 106.5s64.166 39.5 107.499 39.5c48 0 85.667 -15.667 113 -47c1.33301 -1.33301 2.5 -1.66602 3.5 -0.999023zM544.002 498.998c0 6.66699 3.33301 10 10 10h75c6.66699 0 10 -3.33301 10 -10v-527c0 -61.333 -14.167 -106.5 -42.5 -135.5
s-74.833 -43.167 -139.5 -42.5c-6.66699 0 -10 3.33301 -10 10v61c0 6.66699 3 10 9 10c27.333 0.666992 48.833 9.16699 64.5 25.5s23.5 39.833 23.5 70.5v528zM332.002 255.998c0 37.333 -1.00195 69.001 -3.00195 95.001c-2.66699 24 -12 43.833 -28 59.5
s-36.333 23.5 -61 23.5c-24 0 -44.167 -7.83301 -60.5 -23.5s-26.166 -35.5 -29.499 -59.5c-4 -26 -6 -57.667 -6 -95c0 -34.667 1.66699 -65.334 5 -92.001c3.33301 -24.667 13.333 -44.667 30 -60s37.334 -23 62.001 -23s45 7.66699 61 23s25.333 35 28 59
c1.33301 34.667 2 65.667 2 93z" />
    <glyph glyph-name="i_j.liga" unicode="ij" horiz-adv-x="458" 
d="M70 607c-12 12 -18 27.333 -18 46s6 34 18 46s27.333 18 46 18c19.333 0 35 -6 47 -18s18 -27.333 18 -46s-6.16699 -34 -18.5 -46s-27.833 -18 -46.5 -18s-34 6 -46 18zM294 607c-12 12 -18 27.333 -18 46s6 34 18 46s27.333 18 46 18s34 -6 46 -18s18 -27.333 18 -46
s-6 -34 -18 -46s-27.333 -18 -46 -18s-34 6 -46 18zM70 10v489c0 6.66699 3.33301 10 10 10h76c6.66699 0 10 -3.33301 10 -10v-489c0 -6.66699 -3.33301 -10 -10 -10h-76c-6.66699 -0 -10 3.33301 -10 10zM188 -197v63c0 6.66699 4.33301 10 13 10c32 0 55.333 8 70 24
s22 39.667 22 71v528c0 6.66699 3.33301 10 10 10h76c6.66699 0 10 -3.33301 10 -10v-527c0 -42 -5.5 -75.833 -16.5 -101.5s-30.333 -45 -58 -58s-66.5 -19.5 -116.5 -19.5c-6.66699 0 -10 3.33301 -10 10z" />
    <glyph glyph-name="hyphen_hyphen.liga" unicode="&#x2d;&#x2d;" horiz-adv-x="634" 
d="M32 269v63c0 6.66699 3.33301 10 10 10h550c6.66699 0 10 -3.33301 10 -10v-63c0 -6.66699 -3.33301 -10 -10 -10h-550c-6.66699 0 -10 3.33301 -10 10z" />
    <glyph glyph-name=".notdef" horiz-adv-x="401" 
d="M4 0h393c2.66699 -0 4 1.33301 4 4v692c0 2.66699 -1.33301 4 -4 4h-393c-2.66699 0 -4 -1.33301 -4 -4v-692c-0 -2.66699 1.33301 -4 4 -4zM159 248v32.999c0 22 4.83301 39.667 14.5 53s24.167 28 43.5 44c18 15.333 31.333 29 40 41s13 27 13 45
c0 21.333 -6 38.333 -18 51s-27.667 19 -47 19c-20 0 -36.167 -6.5 -48.5 -19.5s-18.5 -30.167 -18.5 -51.5v-16c0 -6.66699 -3.33301 -10 -10 -10l-48 2c-2.66699 0 -5 1 -7 3s-3 4.66699 -3 8v13c0 40 12.667 72.333 38 97s58.333 37 99 37c40 0 72 -12 96 -36
s36 -55.667 36 -95c0 -30 -5.83301 -53.667 -17.5 -71s-28.167 -34.666 -49.5 -51.999c-15.333 -13.333 -26.5 -24.5 -33.5 -33.5s-10.5 -19.833 -10.5 -32.5v-29c0 -6.66699 -3.33301 -10 -10 -10h-49c-6.66699 0 -10 3.33301 -10 10zM160 102.999
c-8.66699 8.66699 -13 19.667 -13 33s4.33301 24.333 13 33s19.667 13 33 13s24.333 -4.33301 33 -13s13 -19.667 13 -33c0 -12.667 -4.33301 -23.5 -13 -32.5s-19.667 -13.5 -33 -13.5s-24.333 4.33301 -33 13z" />
    <glyph glyph-name="NULL" horiz-adv-x="0" 
 />
    <glyph glyph-name="NULL" horiz-adv-x="0" 
 />
    <glyph glyph-name="nonmarkingreturn" unicode="&#xd;" horiz-adv-x="200" 
 />
    <glyph glyph-name="space" unicode=" " horiz-adv-x="200" 
 />
    <glyph glyph-name="exclam" unicode="!" horiz-adv-x="295" 
d="M109 242l-9 448c0 6.66699 3.33301 10 10 10h76c6.66699 0 10 -3.33301 10 -10l-9 -448c0 -6.66699 -3.33301 -10 -10 -10h-58c-6.66699 0 -10 3.33301 -10 10zM100 21c-12 12 -18 27.333 -18 46c0 19.333 6 34.833 18 46.5s27.333 17.5 46 17.5s34 -6 46 -18
s18 -27.333 18 -46s-6 -34 -18 -46s-27.333 -18 -46 -18s-34 6 -46 18z" />
    <glyph glyph-name="quotedbl" unicode="&#x22;" horiz-adv-x="286" 
d="M32 492l-9 194c0 6.66699 3 10 9 10h73c6.66699 0 10 -3.33301 10 -10l-10 -194c0 -6.66699 -3.33301 -10 -10 -10h-53c-6.66699 0 -10 3.33301 -10 10zM181 492l-9 194c0 6.66699 3 10 9 10h74c6 0 9 -3.33301 9 -10l-10 -194c0 -6.66699 -3.33301 -10 -10 -10h-53
c-6.66699 0 -10 3.33301 -10 10z" />
    <glyph glyph-name="numbersign" unicode="#" horiz-adv-x="634" 
d="M568 420h-70c-3.33301 0 -5 -1.33301 -5 -4l-20 -138c0 -2.66699 1 -4 3 -4h57c6.66699 0 10 -3.33301 10 -10v-63c0 -6.66699 -3.33301 -10 -10 -10h-70c-3.33301 0 -5 -1.33301 -5 -4l-24 -158c-0.666992 -6 -4 -9 -10 -9l-76 1c-2.66699 0 -5 1 -7 3
s-2.66699 4.66699 -2 8l23 155c0 2.66699 -1 4 -3 4h-131c-3.33301 0 -5 -1.33301 -5 -4l-24 -158c-0.666992 -6 -4 -9 -10 -9l-76 1c-2.66699 0 -5 1 -7 3s-2.66699 4.66699 -2 8l23 155c0 2.66699 -1 4 -3 4h-59c-6.66699 0 -10 3.33301 -10 10l1 63
c0 6.66699 3.33301 10 10 10h70c3.33301 0 5 1.33301 5 4l20 138c0 2.66699 -1 4 -3 4h-58c-6.66699 0 -10 3.33301 -10 10l1 64c0 6.66699 3.33301 10 10 10h70c3.33301 0 5 1.33301 5 4l24 158c0.666992 6 4 9 10 9l76 -1c2.66699 0 5 -1 7 -3s2.66699 -4.66699 2 -8
l-23 -155c0 -2.66699 1 -4 3 -4h131c3.33301 0 5 1.33301 5 4l24 158c0.666992 6 4 9 10 9l77 -1c2.66699 0 5 -1 7 -3s2.66699 -4.66699 2 -8l-23 -155c0 -2.66699 1 -4 3 -4h57c6.66699 0 10 -3.33301 10 -10v-64c0 -6.66699 -3.33301 -10 -10 -10zM376 278l20 138
c0 2.66699 -1 4 -3 4h-130c-3.33301 0 -5 -1.33301 -5 -4l-21 -138c0 -2.66699 1 -4 3 -4h131c3.33301 0 5 1.33301 5 4z" />
    <glyph glyph-name="dollar" unicode="$" horiz-adv-x="495" 
d="M411 55c-29.333 -32.667 -69.002 -52.666 -119.002 -59.999c-2.66699 -0.666992 -4 -2.33398 -4 -5.00098l1 -68c0 -6.66699 -3.33301 -10 -10 -10h-59c-6.66699 0 -10 3.33301 -10 10l1 69c0 2.66699 -1.33301 4.33398 -4 5.00098
c-51.333 7.33301 -91.666 27.333 -120.999 60s-44 73.667 -44 123v27c0 6.66699 3.33301 10 10 10h72c6.66699 0 10 -3.33301 10 -10v-22c0 -32.667 10.833 -59 32.5 -79s50.834 -30 87.501 -30c34 0 60.5 9.16699 79.5 27.5s28.5 42.5 28.5 72.5
c0 20 -4.83301 37.333 -14.5 52s-23.834 28.334 -42.501 41.001s-45.667 28.667 -81 48c-40 21.333 -71.667 40.333 -95 57s-42.833 37.667 -58.5 63s-23.5 56 -23.5 92c0 49.333 14 89.5 42 120.5s66.333 50.167 115 57.5c2.66699 0 4 1.33301 4 4l-1 74
c0 6.66699 3.33301 10 10 10h59c6.66699 0 10 -3.33301 10 -10l-2 -75c0 -2.66699 1.33301 -4.33398 4 -5.00098c50 -8 89.5 -28.667 118.5 -62s43.5 -75.333 43.5 -126v-23c0 -6.66699 -3.33301 -10 -10 -10h-73c-6.66699 0 -10 3.33301 -10 10v21
c0 32.667 -10.333 59.334 -31 80.001s-49 31 -85 31c-31.333 0 -56.166 -8.33301 -74.499 -25s-27.5 -40.334 -27.5 -71.001c0 -20 4.5 -37 13.5 -51s22.5 -27 40.5 -39s45 -27.667 81 -47c44.667 -26 78.667 -47.333 102 -64s42.333 -37 57 -61s22 -53 22 -87
c0 -50.667 -14.667 -92.334 -44 -125.001z" />
    <glyph glyph-name="percent" unicode="%" horiz-adv-x="808" 
d="M146 433c-22.667 13.333 -40.667 31.3311 -54 53.998s-20 47.667 -20 75c0 26.667 6.66699 51.334 20 74.001s31.333 40.5 54 53.5s47.334 19.5 74.001 19.5s51.167 -6.66699 73.5 -20s40 -31.166 53 -53.499s19.5 -46.833 19.5 -73.5c0 -27.333 -6.5 -52.333 -19.5 -75
s-30.667 -40.667 -53 -54s-46.833 -20 -73.5 -20s-51.334 6.66699 -74.001 20zM182.5 3.49805c-1.66699 2.33301 -1.5 5.16602 0.5 8.49902l372 681c2 4.66699 6 7 12 7h49c3.33301 0 5.83301 -1.16699 7.5 -3.5s1.5 -5.16602 -0.5 -8.49902l-372 -681
c-2 -4.66699 -6 -7 -12 -7h-49c-3.33301 0 -5.83301 1.16699 -7.5 3.5zM282.5 496.998c17 18 25.502 39.667 25.502 65s-8.5 46.833 -25.5 64.5s-37.833 26.5 -62.5 26.5s-45.834 -8.83301 -63.501 -26.5s-26.5 -39.167 -26.5 -64.5c0 -26 8.66699 -47.833 26 -65.5
s38.666 -26.5 63.999 -26.5c24.667 0 45.5 9 62.5 27zM517.002 10.998c-22.667 13.333 -40.5 31.333 -53.5 54s-19.5 47.334 -19.5 74.001s6.5 51.334 19.5 74.001s30.833 40.667 53.5 54s47.334 20 74.001 20s51.167 -6.66699 73.5 -20s40.166 -31.333 53.499 -54
s20 -47.334 20 -74.001s-6.66699 -51.334 -20 -74.001s-31.166 -40.667 -53.499 -54s-46.833 -20 -73.5 -20s-51.334 6.66699 -74.001 20zM654.002 73.998c17.333 18 25.998 39.667 25.998 65s-8.66699 46.833 -26 64.5s-38.333 26.5 -63 26.5
c-25.333 0 -46.666 -8.83301 -63.999 -26.5s-26 -39.167 -26 -64.5s8.83301 -47 26.5 -65s38.834 -27 63.501 -27s45.667 9 63 27z" />
    <glyph glyph-name="ampersand" unicode="&#x26;" horiz-adv-x="619" 
d="M571 6c0 -4 -2.66602 -6 -7.99902 -6h-85c-4 0 -8 2 -12 6l-44 53c-2 2 -4 2 -6 0c-54.667 -44.667 -116 -67 -184 -67c-57.333 0 -103.5 14.333 -138.5 43s-52.5 70.334 -52.5 125.001c0 45.333 11.667 84 35 116s55.333 62.333 96 91c2 1.33301 2 3 0 5
c-35.333 46.667 -58.333 81.167 -69 103.5s-16 46.166 -16 71.499c0 48 15.667 86.833 47 116.5s72.333 44.5 123 44.5c51.333 0 93.5 -15 126.5 -45s49.5 -69.333 49.5 -118c0 -40.667 -11.333 -76.167 -34 -106.5s-53.667 -59.5 -93 -87.5
c-2 -0.666992 -2.33301 -2.33398 -1 -5.00098l86 -107l32 -40c2 -2.66699 4 -2.66699 6 0c16.667 22.667 34.667 49.334 54 80.001c1.33301 2.66699 3.33301 4.16699 6 4.5s5.33398 -0.166992 8.00098 -1.5l56 -32c5.33301 -3.33301 6.66602 -8 3.99902 -14
c-24.667 -42 -49.667 -78 -75 -108c-0.666992 -2 -0.666992 -4 0 -6c7.33301 -8.66699 17.666 -21.667 30.999 -39l56 -71c1.33301 -1.33301 2 -3.33301 2 -6zM204.001 598.5c-14 -14.333 -21.001 -33.5 -21.001 -57.5c0 -14.667 3.66699 -29.5 11 -44.5
s24 -39.833 50 -74.5c2 -2 4 -2.33301 6 -1c28.667 20.667 50.334 40.5 65.001 59.5s22 40.167 22 63.5c0 22.667 -7.16699 41 -21.5 55s-32.833 21 -55.5 21c-23.333 0 -42 -7.16699 -56 -21.5zM362 126c2 2 2.33105 4 0.998047 6l-56 71l-24 30l-50 62
c-0.666992 2 -2.33398 2.33301 -5.00098 1c-29.333 -22 -51.666 -43.333 -66.999 -64s-23 -44 -23 -70c0 -26.667 8.83301 -48 26.5 -64s41.834 -24 72.501 -24c42.667 0 84.334 17.333 125.001 52z" />
    <glyph glyph-name="quotesingle" unicode="'" horiz-adv-x="141" 
d="M32 496l-9 192c0 6.66699 3 10 9 10h78c6 0 9 -3.33301 9 -10l-10 -192c0 -6.66699 -3.33301 -10 -10 -10h-57c-6.66699 0 -10 3.33301 -10 10z" />
    <glyph glyph-name="parenleft" unicode="(" horiz-adv-x="272" 
d="M104 -94c-32 50.667 -57.667 112.665 -77 185.998s-29 152 -29 236c0 85.333 9.83301 165.333 29.5 240s45.834 137.334 78.501 188.001c2.66699 4 6.66699 6 12 6h73c3.33301 0 5.66602 -1.16699 6.99902 -3.5s1.33301 -5.16602 0 -8.49902
c-26.667 -53.333 -48.667 -116.333 -66 -189s-26 -150 -26 -232c0 -81.333 8.66699 -158 26 -230s39.333 -134.333 66 -187c0.666992 -1.33301 1 -3 1 -5c0 -4.66699 -2.66699 -7 -8 -7h-75c-4.66699 0 -8.66699 2 -12 6z" />
    <glyph glyph-name="parenright" unicode=")" horiz-adv-x="272" 
d="M168 756c32 -51.333 57.832 -113.501 77.499 -186.501s29.5 -151.5 29.5 -235.5c0 -85.333 -10 -165.166 -30 -239.499s-46 -137.166 -78 -188.499c-3.33301 -4 -7.33301 -6 -12 -6h-74c-3.33301 0 -5.66602 1.16699 -6.99902 3.5s-1.33301 5.16602 0 8.49902
c27.333 52.667 49.666 115.5 66.999 188.5s26 150.5 26 232.5c0 81.333 -8.66699 158 -26 230s-39.666 134.333 -66.999 187c-0.666992 1.33301 -1 3 -1 5c0 4.66699 2.66699 7 8 7h75c5.33301 0 9.33301 -2 12 -6z" />
    <glyph glyph-name="asterisk" unicode="*" horiz-adv-x="379" 
d="M161 404v109c0 1.33301 -0.5 2.33301 -1.5 3s-2.16699 0.666992 -3.5 0l-96 -56c-1.33301 -0.666992 -3 -1 -5 -1c-4 0 -7 1.66699 -9 5l-19 33c-0.666992 1.33301 -1 3 -1 5c0 4 1.66699 7 5 9l98 56c1.33301 0.666992 2 1.66699 2 3s-0.666992 2.33301 -2 3l-98 56
c-2.66699 1.33301 -4.33398 3.33301 -5.00098 6s-0.333984 5.33398 0.999023 8.00098l19 34c4 6.66699 8.66699 8 14 4l96 -57c1.33301 -0.666992 2.5 -0.666992 3.5 0s1.5 1.66699 1.5 3v110c0 6.66699 3.33301 10 10 10h38c6.66699 0 10 -3.33301 10 -10v-110
c0 -1.33301 0.5 -2.33301 1.5 -3s2.16699 -0.666992 3.5 0l95 57l5 2c3.33301 0 6.33301 -2 9 -6l19 -34c0.666992 -1.33301 1 -3 1 -5c0 -4 -1.66699 -7 -5 -9l-98 -56c-0.666992 -0.666992 -1 -1.66699 -1 -3s0.333008 -2.33301 1 -3l98 -56
c2.66699 -1.33301 4.33398 -3.33301 5.00098 -6s0.333984 -5.33398 -0.999023 -8.00098l-19 -34c-4 -6.66699 -8.66699 -8 -14 -4l-95 57c-1.33301 0.666992 -2.5 0.666992 -3.5 0s-1.5 -1.66699 -1.5 -3v-109c0 -6.66699 -3.33301 -10 -10 -10h-38
c-6.66699 0 -10 3.33301 -10 10z" />
    <glyph glyph-name="plus" unicode="+" horiz-adv-x="468" 
d="M435 341v-58c0 -6.66699 -3.33301 -10 -10 -10h-148c-2.66699 0 -4 -1.33301 -4 -4v-147c0 -6.66699 -3.33301 -10 -10 -10h-58c-6.66699 0 -10 3.33301 -10 10v147c0 2.66699 -1.33301 4 -4 4h-149c-6.66699 0 -10 3.33301 -10 10v58c0 6.66699 3.33301 10 10 10h149
c2.66699 0 4 1.33301 4 4v150c0 6.66699 3.33301 10 10 10h58c6.66699 0 10 -3.33301 10 -10v-150c0 -2.66699 1.33301 -4 4 -4h148c6.66699 0 10 -3.33301 10 -10z" />
    <glyph glyph-name="comma" unicode="," horiz-adv-x="227" 
d="M49 -83c-2 2 -2.66699 4.66699 -2 8l34 222c0.666992 6 4 9 10 9h67c7.33301 0 10 -3.66699 8 -11l-53 -222c-1.33301 -6 -5 -9 -11 -9h-46c-2.66699 0 -5 1 -7 3z" />
    <glyph glyph-name="hyphen" unicode="-" horiz-adv-x="360" 
d="M32 274v63c0 6.66699 3.33301 10 10 10h275c6.66699 0 10 -3.33301 10 -10v-63c0 -6.66699 -3.33301 -10 -10 -10h-275c-6.66699 0 -10 3.33301 -10 10z" />
    <glyph glyph-name="period" unicode="." horiz-adv-x="238" 
d="M72 18c-12 12 -18 27.333 -18 46s6 34 18 46s27.333 18 46 18s34 -6 46 -18s18 -27.333 18 -46s-6 -34 -18 -46s-27.333 -18 -46 -18s-34 6 -46 18z" />
    <glyph glyph-name="slash" unicode="/" horiz-adv-x="395" 
d="M26 11l214 681c2 5.33301 6 8 12 8h75c7.33301 0 10 -3.66699 8 -11l-214 -681c-2 -5.33301 -6 -8 -12 -8h-75c-7.33301 0 -10 3.66699 -8 11z" />
    <glyph glyph-name="zero" unicode="0" horiz-adv-x="507" 
d="M107.5 44c-36.333 36 -54.5 84.333 -54.5 145v322c0 60 18.167 108 54.5 144s84.833 54 145.5 54s109.334 -18 146.001 -54s55 -84 55 -144v-322c0 -60.667 -18.333 -109 -55 -145s-85.334 -54 -146.001 -54s-109.167 18 -145.5 54zM329 103.5
c19.333 20.333 29 47.166 29 80.499v331c0 33.333 -9.66699 60.166 -29 80.499s-44.666 30.5 -75.999 30.5s-56.5 -10.167 -75.5 -30.5s-28.5 -47.166 -28.5 -80.499v-331c0 -33.333 9.5 -60.166 28.5 -80.499s44.167 -30.5 75.5 -30.5s56.666 10.167 75.999 30.5z" />
    <glyph glyph-name="one" unicode="1" horiz-adv-x="309" 
d="M155 700h79c6.66699 0 10 -3.33301 10 -10v-680c0 -6.66699 -3.33301 -10 -10 -10h-76c-6.66699 -0 -10 3.33301 -10 10v586c0 1.33301 -0.5 2.5 -1.5 3.5s-2.16699 1.16699 -3.5 0.5l-97 -31l-4 -1c-4 0 -6.66699 3 -8 9l-4 57c0 5.33301 2.33301 9.33301 7 12l105 51
c4 2 8.33301 3 13 3z" />
    <glyph glyph-name="two" unicode="2" horiz-adv-x="480" 
d="M167 83l264.998 -0.000976562c6.66699 0 10 -3.33301 10 -10v-63c0 -6.66699 -3.33301 -10 -10 -10h-377c-6.66699 0 -10 3.33301 -10 10v64c0 4.66699 1.33301 8.66699 4 12c86 110.667 153 199.667 201 267c51.333 71.333 77 128.333 77 171
c0 30.667 -8.66699 55.167 -26 73.5s-40.333 27.5 -69 27.5c-28 0 -50.5 -9.16699 -67.5 -27.5s-25.167 -42.5 -24.5 -72.5v-35c0 -6.66699 -3.33301 -10 -10 -10h-77c-6.66699 0 -10 3.33301 -10 10v43c1.33301 52.667 19.833 95 55.5 127s80.834 48 135.501 48
c38 0 71.333 -7.83301 100 -23.5s50.834 -37.5 66.501 -65.5s23.5 -59.667 23.5 -95c0 -59.333 -26.667 -126.666 -80 -201.999c-30.667 -43.333 -80.667 -109 -150 -197l-29 -37c-2 -3.33301 -1.33301 -5 2 -5z" />
    <glyph glyph-name="three" unicode="3" horiz-adv-x="471" 
d="M420 217c0 -41.333 -6.32812 -78.335 -18.9951 -111.002c-14 -37.333 -35.333 -65.666 -64 -84.999s-64.334 -29 -107.001 -29c-48.667 0 -89.334 12.833 -122.001 38.5s-53.334 60.167 -62.001 103.5c-4 20 -6.66699 44.333 -8 73c0 6.66699 3.33301 10 10 10h76
c6.66699 0 10 -3.33301 10 -10c1.33301 -22 3.33301 -40 6 -54c5.33301 -24.667 15.666 -43.834 30.999 -57.501s35 -20.5 59 -20.5c22 0 40.333 5.83301 55 17.5s25.334 28.834 32.001 51.501c6 22 9 48.667 9 80c0 36 -4.33301 65.667 -13 89
c-7.33301 20.667 -18 36.334 -32 47.001s-31.333 16 -52 16c-10 0 -20.667 -3 -32 -9c-2.66699 -1.33301 -4.66699 -2 -6 -2c-2.66699 0 -5.33398 1.33301 -8.00098 4l-39 42c-2 2 -3 4.33301 -3 7s1 5 3 7l152 187c1.33301 1.33301 1.66602 2.5 0.999023 3.5
s-1.66699 1.5 -3 1.5h-238c-6.66699 0 -10 3.33301 -10 10v63c0 6.66699 3.33301 10 10 10h351c6.66699 0 10 -3.33301 10 -10v-66c0 -4.66699 -1.33301 -8.66699 -4 -12l-141 -177c-1.33301 -1.33301 -1.66602 -2.5 -0.999023 -3.5s1.66699 -1.5 3 -1.5
c30 -2.66699 55.667 -12.167 77 -28.5s37.666 -38.5 48.999 -66.5c13.333 -32.667 20 -72 20 -118z" />
    <glyph glyph-name="four" unicode="4" horiz-adv-x="505" 
d="M467 264l0.000976562 -67.001c0 -6.66699 -3.33301 -10 -10 -10h-37c-2.66699 0 -4 -1.33301 -4 -4v-173c0 -6.66699 -3.33301 -10 -10 -10h-76c-6.66699 0 -10 3.33301 -10 10v173c0 2.66699 -1.33301 4 -4 4h-275c-6.66699 0 -10 3.33301 -10 10v55
c0 4.66699 0.666992 8.66699 2 12l171 428c2 5.33301 5.66699 8 11 8h82c3.33301 0 5.66602 -1.16699 6.99902 -3.5s1.33301 -5.16602 0 -8.49902l-161 -409c-0.666992 -1.33301 -0.666992 -2.5 0 -3.5s1.66699 -1.5 3 -1.5h170c2.66699 0 4 1.33301 4 4v142
c0 6.66699 3.33301 10 10 10h76c6.66699 0 10 -3.33301 10 -10v-142c0 -2.66699 1.33301 -4 4 -4h37c6.66699 0 10 -3.33301 10 -10z" />
    <glyph glyph-name="five" unicode="5" horiz-adv-x="471" 
d="M433 217c0 -34.667 -2.99805 -64.001 -8.99805 -88.001c-11.333 -44 -32.833 -77.833 -64.5 -101.5s-71.167 -35.5 -118.5 -35.5s-86.833 12.333 -118.5 37s-52.834 59.334 -63.501 104.001c-4 17.333 -6.33301 30.666 -7 39.999v2c0 5.33301 3 8 9 8h77
c6.66699 0 10.334 -3.33301 11.001 -10c1.33301 -10.667 2.66602 -17.667 3.99902 -21c5.33301 -24.667 15.666 -43.5 30.999 -56.5s34.333 -19.5 57 -19.5s41.834 6.66699 57.501 20s26.167 32.333 31.5 57c4 15.333 6 36.333 6 63c0 26 -2.33301 49.333 -7 70
c-5.33301 22.667 -15.666 39.834 -30.999 51.501s-34.333 17.5 -57 17.5c-22 0 -40.833 -5 -56.5 -15s-26.834 -25 -33.501 -45c-1.33301 -5.33301 -5 -8 -11 -8h-78c-6.66699 0 -10 3.33301 -10 10v393c0 6.66699 3.33301 10 10 10h341c6.66699 0 10 -3.33301 10 -10v-63
c0 -6.66699 -3.33301 -10 -10 -10h-251c-2.66699 0 -4 -1.33301 -4 -4l-1 -213c0 -3.33301 1.66699 -4 5 -2c13.333 13.333 29.5 23.5 48.5 30.5s39.167 10.5 60.5 10.5c39.333 0 72.666 -9.5 99.999 -28.5s46.333 -46.5 57 -82.5c10 -32.667 15 -69.667 15 -111z" />
    <glyph glyph-name="six" unicode="6" horiz-adv-x="472" 
d="M434 217c0 -34 -3.66797 -64 -11.001 -90c-11.333 -43.333 -32.333 -76.666 -63 -99.999s-69.667 -35 -117 -35c-43.333 0 -80 10.5 -110 31.5s-51 51.167 -63 90.5c-12 26.667 -18 60 -18 100l-1 317c0 53.333 17.333 96.166 52 128.499s80.334 48.5 137.001 48.5
c53.333 0 96.833 -16 130.5 -48s50.5 -74 50.5 -126v-21c0 -6.66699 -3.33301 -10 -10 -10h-76c-6.66699 0 -10 3.33301 -10 10v14c0 28 -8.16699 51.167 -24.5 69.5s-36.833 27.5 -61.5 27.5c-26.667 0 -48.5 -9.16699 -65.5 -27.5s-25.5 -42.5 -25.5 -72.5v-126
c0 -1.33301 0.5 -2.33301 1.5 -3s2.16699 -0.333984 3.5 0.999023c26 30 60.667 45 104 45c40.667 0 74.5 -10.667 101.5 -32s46.833 -50.666 59.5 -87.999c10.667 -30 16 -64.667 16 -104zM336.999 219c0 31.333 -3.33301 56.666 -10 75.999
c-6 20.667 -16.333 36.834 -31 48.501s-32.667 17.5 -54 17.5c-22 0 -40.167 -5.83301 -54.5 -17.5s-24.5 -28.167 -30.5 -49.5c-6 -18.667 -9 -44 -9 -76c0 -27.333 2.33301 -50.333 7 -69c5.33301 -22.667 15.5 -40.5 30.5 -53.5s33.833 -19.5 56.5 -19.5
s41.5 6.5 56.5 19.5s25.5 31.833 31.5 56.5c4.66699 18 7 40.333 7 67z" />
    <glyph glyph-name="seven" unicode="7" horiz-adv-x="431" 
d="M114 11l198 601c0.666992 1.33301 0.5 2.5 -0.5 3.5s-2.16699 1.5 -3.5 1.5h-200c-2.66699 0 -4 -1.33301 -4 -4v-43c0 -6.66699 -3.33301 -10 -10 -10h-59c-6.66699 0 -10 3.33301 -10 10v120c0 6.66699 3.33301 10 10 10h369c6.66699 0 10 -3.33301 10 -10v-67
c0 -2.66699 -0.666992 -6.66699 -2 -12l-197 -603c-2 -5.33301 -6 -8 -12 -8h-81c-7.33301 0 -10 3.66699 -8 11z" />
    <glyph glyph-name="eight" unicode="8" horiz-adv-x="478" 
d="M429 198c0 -41.333 -7.33496 -76.666 -22.002 -105.999c-14.667 -31.333 -36.5 -55.833 -65.5 -73.5s-63.167 -26.5 -102.5 -26.5s-73.666 9 -102.999 27s-51.333 43.333 -66 76c-14.667 31.333 -22 66 -22 104c0 36.667 6.33301 69.667 19 99
c13.333 31.333 35 54.333 65 69c3.33301 2 3.33301 4 0 6c-23.333 14 -41.333 32.333 -54 55c-16.667 27.333 -25 59.666 -25 96.999c0 36.667 7.66699 68.667 23 96c15.333 28 37.333 50 66 66s61 24 97 24c37.333 0 70 -7.83301 98 -23.5s49.333 -37.834 64 -66.501
c16 -28.667 24 -60.667 24 -96c0 -36 -8.33301 -68.333 -25 -97c-12.667 -22.667 -30.667 -41 -54 -55c-3.33301 -2 -3.66602 -3.66699 -0.999023 -5c30 -14.667 51.667 -38 65 -70c12.667 -27.333 19 -60.666 19 -99.999zM147.998 518
c0 -24 4.6709 -44.668 14.0039 -62.001c7.33301 -15.333 17.666 -27.333 30.999 -36s28.666 -13 45.999 -13c18 0 33.667 4.5 47 13.5s23.666 21.5 30.999 37.5c8.66699 16.667 13 37 13 61c0 20.667 -4 39 -12 55c-6.66699 16.667 -16.834 29.834 -30.501 39.501
s-30.167 14.5 -49.5 14.5c-18 0 -34 -5 -48 -15s-24.333 -23.333 -31 -40c-7.33301 -18 -11 -36.333 -11 -55zM334.002 203.999c0 26.667 -3.66797 49.333 -11.001 68c-6.66699 19.333 -17.167 34.333 -31.5 45s-31.833 16 -52.5 16c-42 0 -70 -19.667 -84 -59
c-7.33301 -18 -11 -41.333 -11 -70c0 -30 4.66699 -54.333 14 -73c14.667 -37.333 41.667 -56 81 -56c38.667 0 65.334 18.333 80.001 55c10 20 15 44.667 15 74z" />
    <glyph glyph-name="nine" unicode="9" horiz-adv-x="463" 
d="M412 486l-0.000976562 -316.999c0 -54 -17.333 -97 -52 -129s-80 -48 -136 -48c-54 0 -97.667 16 -131 48s-50 74 -50 126v21c0 6.66699 3.33301 10 10 10h76c6.66699 0 10 -3.33301 10 -10v-14c0 -28.667 8 -52 24 -70s36.333 -27 61 -27
c27.333 0 49.5 9.16699 66.5 27.5s25.5 42.5 25.5 72.5v127c0 1.33301 -0.5 2.33301 -1.5 3s-2.16699 0.333984 -3.5 -0.999023c-26 -30.667 -60.667 -46 -104 -46c-40.667 0 -74.667 10.667 -102 32s-47 50.666 -59 87.999c-10.667 27.333 -16 62 -16 104
c0 37.333 3.66699 67.333 11 90c10.667 43.333 31.334 76.666 62.001 99.999s69.667 35 117 35c43.333 0 80 -10.5 110 -31.5s51 -51.167 63 -90.5c12.667 -28 19 -61.333 19 -100zM275.499 356.501c14.333 11.667 24.5 28.167 30.5 49.5c6.66699 20.667 10 46 10 76
c0 27.333 -2.33301 50.333 -7 69c-6 23.333 -16.5 41.333 -31.5 54s-33.833 19 -56.5 19c-22 0 -40.667 -6.5 -56 -19.5s-26 -31.833 -32 -56.5c-4.66699 -22 -7 -44.333 -7 -67c0 -28.667 3.33301 -54 10 -76c14 -44 42.333 -66 85 -66c22 0 40.167 5.83301 54.5 17.5z" />
    <glyph glyph-name="colon" unicode=":" horiz-adv-x="291" 
d="M99 358c-12 12 -18 27.333 -18 46s6 34 18 46s27.333 18 46 18s34 -6 46 -18s18 -27.333 18 -46s-6 -34 -18 -46s-27.333 -18 -46 -18s-34 6 -46 18zM99 25c-12 12 -18 27.333 -18 46s6 34 18 46s27.333 18 46 18s34 -6 46 -18s18 -27.333 18 -46s-6 -34 -18 -46
s-27.333 -18 -46 -18s-34 6 -46 18z" />
    <glyph glyph-name="semicolon" unicode=";" horiz-adv-x="260" 
d="M81.5 355c-13 13.333 -19.501 29.666 -19.501 48.999c0 18.667 7 34.834 21 48.501s30 20.5 48 20.5s34 -6.83301 48 -20.5s21 -29.834 21 -48.501c0 -19.333 -6.66699 -35.666 -20 -48.999s-29.666 -20 -48.999 -20c-20 0 -36.5 6.66699 -49.5 20zM68.999 -79.5
c-2 2.33301 -2.66602 4.83301 -1.99902 7.5l23 216c0.666992 6 4 9 10 9h68c3.33301 0 5.83301 -1 7.5 -3s2.16699 -4.66699 1.5 -8l-43 -216c-0.666992 -6 -4.33398 -9 -11.001 -9h-46c-3.33301 0 -6 1.16699 -8 3.5z" />
    <glyph glyph-name="less" unicode="&#x3c;" horiz-adv-x="468" 
d="M431.5 51c-2.33301 -1.33301 -5.16699 -1.33594 -8.5 -0.00292969l-384 180c-4.66699 2.66699 -7 6.33398 -7 11.001v68c0 4.66699 2.33301 8.33398 7 11.001l384 180c1.33301 0.666992 3 1 5 1c4.66699 0 7 -2.66699 7 -8v-72c0 -5.33301 -2.66699 -9 -8 -11l-295 -132
c-4 -2 -4 -4 0 -6l295 -132c5.33301 -2 8 -5.66699 8 -11v-72c0 -3.33301 -1.16699 -5.66602 -3.5 -6.99902z" />
    <glyph glyph-name="equal" unicode="=" horiz-adv-x="468" 
d="M32 388v58c0 6.66699 3.33301 10 10 10h383c6.66699 0 10 -3.33301 10 -10v-58c0 -6.66699 -3.33301 -10 -10 -10h-383c-6.66699 0 -10 3.33301 -10 10zM32 188v58c0 6.66699 3.33301 10 10 10h383c6.66699 0 10 -3.33301 10 -10v-58c0 -6.66699 -3.33301 -10 -10 -10
h-383c-6.66699 0 -10 3.33301 -10 10z" />
    <glyph glyph-name="greater" unicode="&#x3e;" horiz-adv-x="468" 
d="M39 50c-4.66699 0 -6.99902 2.66992 -6.99902 8.00293v72c0 5.33301 2.66699 9 8 11l295 132c4 2 4 4 0 6l-295 132c-5.33301 2 -8 5.66699 -8 11v72c0 3.33301 1.16699 5.66602 3.5 6.99902s5.16602 1.33301 8.49902 0l384 -180c4.66699 -2.66699 7 -6.33398 7 -11.001
v-68c0 -4.66699 -2.33301 -8.33398 -7 -11.001l-384 -180c-1.33301 -0.666992 -3 -1 -5 -1z" />
    <glyph glyph-name="question" unicode="?" horiz-adv-x="438" 
d="M155 218l-0.000976562 49.9971c0 30 6.83301 54.667 20.5 74s33.834 40 60.501 62c24.667 20.667 43.167 39.334 55.5 56.001s18.5 38 18.5 64c0 30 -8.16699 53.833 -24.5 71.5s-38.166 26.5 -65.499 26.5c-28 0 -50.667 -9.16699 -68 -27.5s-26 -42.5 -26 -72.5v-26
c0 -6.66699 -3.33301 -10 -10 -10l-76 4c-6.66699 0 -10 3.33301 -10 10v22c0 56 17.667 101.167 53 135.5s81.666 51.5 138.999 51.5c56 0 100.667 -16.5 134 -49.5s50 -77.167 50 -132.5c0 -29.333 -4.5 -54.666 -13.5 -75.999s-19.667 -38.666 -32 -51.999
s-28.5 -28.333 -48.5 -45c-20.667 -17.333 -36 -32.333 -46 -45s-15 -28 -15 -46v-45c0 -6.66699 -3.33301 -10 -10 -10h-76c-6.66699 0 -10 3.33301 -10 10zM155.999 18.9971c-12 12 -18 27.333 -18 46s6 34 18 46s27.333 18 46 18s34 -6 46 -18s18 -27.333 18 -46
s-6 -34 -18 -46s-27.333 -18 -46 -18s-34 6 -46 18z" />
    <glyph glyph-name="at" unicode="@" horiz-adv-x="791" 
d="M597 594.5c46 -24.333 81.833 -58.5078 107.5 -102.508s38.5 -94.667 38.5 -152c0 -11.333 -1.33301 -29 -4 -53c-8.66699 -63.333 -28.834 -112.666 -60.501 -147.999s-71.5 -53 -119.5 -53c-22 0 -41.833 4 -59.5 12s-31.834 19.333 -42.501 34c-2 2 -4 2 -6 0
c-11.333 -15.333 -25.666 -26.833 -42.999 -34.5s-36 -11.5 -56 -11.5c-32.667 0 -59.167 9.33301 -79.5 28s-30.833 43.667 -31.5 75c-0.666992 18.667 1.33301 46 6 82c4 30 8.66699 55.667 14 77c8 32.667 23 58.334 45 77.001s48.333 28 79 28
c32 0 56.333 -10.333 73 -31c1.33301 -1.33301 2.5 -1.66602 3.5 -0.999023s1.5 1.66699 1.5 3l2 14c0.666992 6 4 9 10 9h47c3.33301 0 6 -1.16699 8 -3.5s2.66699 -4.83301 2 -7.5l-26 -197c-0.666992 -4 -1 -9.66699 -1 -17c0 -22.667 5.5 -40.5 16.5 -53.5
s26.167 -19.5 45.5 -19.5c26.667 0 48.834 12.167 66.501 36.5s29.167 57.833 34.5 100.5c2 17.333 3 33.333 3 48c0 48 -10 89.667 -30 125s-48 62.333 -84 81s-77.667 28 -125 28c-52 0 -101 -12.5 -147 -37.5s-84 -60.667 -114 -107s-47.667 -100.166 -53 -161.499
c-1.33301 -17.333 -2 -29.666 -2 -36.999c0 -50 10 -93.833 30 -131.5s47.667 -66.5 83 -86.5s75.666 -30 120.999 -30c31.333 0 60.833 4 88.5 12s49.834 18 66.501 30c2 2 4.33301 3 7 3s5 -1.66699 7 -5l23 -33c1.33301 -2.66699 2 -4.66699 2 -6
c0 -3.33301 -1.33301 -6 -4 -8c-23.333 -17.333 -52.833 -31.166 -88.5 -41.499s-73.167 -15.5 -112.5 -15.5c-56.667 0 -107 12.833 -151 38.5s-78.167 61.834 -102.5 108.501s-36.5 100.334 -36.5 161.001c0 20 0.666992 35.333 2 46
c7.33301 72.667 29.5 136.667 66.5 192s83.833 97.833 140.5 127.5s116.667 44.5 180 44.5c60 0 113 -12.167 159 -36.5zM406.5 159.492c11.667 10.333 19.835 24.166 24.502 41.499c0.666992 4 2.16699 11 4.5 21s4.16602 21.333 5.49902 34l1 7l1 4v2l2 22
c2 22 3 38.667 3 50c0 16 -4.83301 28.833 -14.5 38.5s-22.5 14.5 -38.5 14.5c-16.667 0 -31.334 -5.33301 -44.001 -16s-21.334 -24.334 -26.001 -41.001s-8.66699 -39.667 -12 -69c-4 -33.333 -5.66699 -55.666 -5 -66.999c0 -17.333 5 -31.166 15 -41.499
s23.667 -15.5 41 -15.5c16.667 0 30.834 5.16699 42.501 15.5z" />
    <glyph glyph-name="A" unicode="A" horiz-adv-x="533" 
d="M411 9l-29.998 116c-0.666992 2 -2.33398 3 -5.00098 3h-221c-3.33301 0 -5 -1 -5 -3l-29 -116c-0.666992 -6 -4.33398 -9 -11.001 -9h-78c-3.33301 0 -5.83301 1 -7.5 3s-2.16699 4.66699 -1.5 8l185 680c1.33301 6 5 9 11 9h94c6 0 9.66699 -3 11 -9l186 -680l1 -3
c0 -5.33301 -3.33301 -8 -10 -8h-79c-6 0 -9.66699 3 -11 9zM171.502 205.5c1 -1 2.16895 -1.5 3.50195 -1.5h181c1.33301 0 2.5 0.5 3.5 1.5s1.16699 1.83301 0.5 2.5l-93 362c-0.666992 1.33301 -1.33398 2 -2.00098 2s-1.33398 -0.666992 -2.00098 -2l-92 -362
c-0.666992 -0.666992 -0.5 -1.5 0.5 -2.5z" />
    <glyph glyph-name="B" unicode="B" horiz-adv-x="540" 
d="M438 50c-37.333 -33.333 -86.6689 -50 -148.002 -50h-208c-6.66699 -0 -10 3.33301 -10 10v680c0 6.66699 3.33301 10 10 10h197c64.667 0 115.334 -15.833 152.001 -47.5s55 -77.834 55 -138.501c0 -71.333 -29.333 -121 -88 -149c-3.33301 -2 -3.33301 -3.66699 0 -5
c30.667 -16 54.167 -38 70.5 -66s24.5 -62 24.5 -102c0.666992 -61.333 -17.666 -108.666 -54.999 -141.999zM167.997 613v-211c0 -2.66699 1.33301 -4 4 -4h108c34.667 0 61.834 9.5 81.501 28.5s29.5 45.167 29.5 78.5c0 35.333 -9.83301 62.833 -29.5 82.5
s-46.834 29.5 -81.501 29.5h-108c-2.66699 0 -4 -1.33301 -4 -4zM367.497 115.5c19.667 21 29.499 49.832 29.499 86.499s-10 65.834 -30 87.501s-47.333 32.5 -82 32.5h-113c-2.66699 0 -4 -1.33301 -4 -4v-230c0 -2.66699 1.33301 -4 4 -4h114
c34.667 0 61.834 10.5 81.501 31.5z" />
    <glyph glyph-name="C" unicode="C" horiz-adv-x="530" 
d="M156.5 17.5c-32.333 17 -57.333 41.002 -75 72.002s-26.5 66.833 -26.5 107.5v307c0 62 19.5 111.5 58.5 148.5s90.5 55.5 154.5 55.5s115.333 -18.333 154 -55s58 -85.334 58 -146.001v-8c0 -3.33301 -1 -6 -3 -8s-4.33301 -3 -7 -3l-76 -4
c-6.66699 0 -10 3.33301 -10 10v15c0 34.667 -10.667 62.667 -32 84s-49.333 32 -84 32s-62.834 -10.667 -84.501 -32s-32.5 -49.333 -32.5 -84v-318c0 -34.667 10.833 -62.667 32.5 -84s49.834 -32 84.501 -32s62.667 10.667 84 32s32 49.333 32 84v14
c0 6.66699 3.33301 10 10 10l76 -4c6.66699 0 10 -3.33301 10 -10v-7c0 -40 -8.83301 -75.333 -26.5 -106s-42.5 -54.334 -74.5 -71.001s-69 -25 -111 -25s-79.167 8.5 -111.5 25.5z" />
    <glyph glyph-name="D" unicode="D" horiz-adv-x="544" 
d="M72 10v680c0 6.66699 3.33301 10 10 10h203c62 0 111.5 -17.667 148.5 -53s55.5 -82.333 55.5 -141v-312c0 -58.667 -18.5 -105.667 -55.5 -141s-86.5 -53 -148.5 -53h-203c-6.66699 -0 -10 3.33301 -10 10zM172 83l115 0.999023c32 0 57.5 10.833 76.5 32.5
s28.833 50.834 29.5 87.501v292c0 37.333 -9.66699 66.833 -29 88.5s-45.333 32.5 -78 32.5h-114c-2.66699 0 -4 -1.33301 -4 -4v-526c0 -2.66699 1.33301 -4 4 -4z" />
    <glyph glyph-name="E" unicode="E" horiz-adv-x="515" 
d="M462 617h-290c-2.66699 0 -4 -1.33301 -4 -4v-216c0 -2.66699 1.33301 -4 4 -4h191c6.66699 0 10 -3.33301 10 -10v-63c0 -6.66699 -3.33301 -10 -10 -10h-191c-2.66699 0 -4 -1.33301 -4 -4v-219c0 -2.66699 1.33301 -4 4 -4h290c6.66699 0 10 -3.33301 10 -10v-63
c0 -6.66699 -3.33301 -10 -10 -10h-380c-6.66699 -0 -10 3.33301 -10 10v680c0 6.66699 3.33301 10 10 10h380c6.66699 0 10 -3.33301 10 -10v-63c0 -6.66699 -3.33301 -10 -10 -10z" />
    <glyph glyph-name="F" unicode="F" 
d="M461 617h-289c-2.66699 0 -4 -1.33301 -4 -4v-216c0 -2.66699 1.33301 -4 4 -4h190c6.66699 0 10 -3.33301 10 -10v-63c0 -6.66699 -3.33301 -10 -10 -10h-190c-2.66699 0 -4 -1.33301 -4 -4v-296c0 -6.66699 -3.33301 -10 -10 -10h-76c-6.66699 -0 -10 3.33301 -10 10
v680c0 6.66699 3.33301 10 10 10h379c6.66699 0 10 -3.33301 10 -10v-63c0 -6.66699 -3.33301 -10 -10 -10z" />
    <glyph glyph-name="G" unicode="G" horiz-adv-x="535" 
d="M114 47.5c-38.667 37 -58.001 85.8359 -58.001 146.503v312c0 60.667 19.333 109.5 58 146.5s89.667 55.5 153 55.5c42 0 79 -8.16699 111 -24.5s56.833 -39.5 74.5 -69.5s26.5 -64 26.5 -102v-27c0 -6.66699 -3.33301 -10 -10 -10h-76c-6.66699 0 -10 3.33301 -10 10v27
c0 33.333 -10.5 60.5 -31.5 81.5s-49.167 31.5 -84.5 31.5c-34.667 0 -62.667 -10.833 -84 -32.5s-32 -49.834 -32 -84.501v-316c0 -34.667 10.833 -62.834 32.5 -84.501s50.167 -32.5 85.5 -32.5c34.667 0 62.334 10 83.001 30s31 47 31 81v93c0 2.66699 -1.33301 4 -4 4
h-105c-6.66699 0 -10 3.33301 -10 10v62c0 6.66699 3.33301 10 10 10h195c6.66699 0 10 -3.33301 10 -10v-156c0 -64.667 -19.167 -115.334 -57.5 -152.001s-89.833 -55 -154.5 -55c-63.333 0 -114.333 18.5 -153 55.5z" />
    <glyph glyph-name="H" unicode="H" horiz-adv-x="560" 
d="M404 700h76c6.66699 0 10 -3.33301 10 -10v-680c0 -6.66699 -3.33301 -10 -10 -10h-76c-6.66699 -0 -10 3.33301 -10 10v296c0 2.66699 -1.33301 4 -4 4h-218c-2.66699 0 -4 -1.33301 -4 -4v-296c0 -6.66699 -3.33301 -10 -10 -10h-76c-6.66699 -0 -10 3.33301 -10 10
v680c0 6.66699 3.33301 10 10 10h76c6.66699 0 10 -3.33301 10 -10v-293c0 -2.66699 1.33301 -4 4 -4h218c2.66699 0 4 1.33301 4 4v293c0 6.66699 3.33301 10 10 10z" />
    <glyph glyph-name="I" unicode="I" horiz-adv-x="240" 
d="M72 10v680c0 6.66699 3.33301 10 10 10h76c6.66699 0 10 -3.33301 10 -10v-680c0 -6.66699 -3.33301 -10 -10 -10h-76c-6.66699 -0 -10 3.33301 -10 10z" />
    <glyph glyph-name="J" unicode="J" horiz-adv-x="507" 
d="M78.5 46c-37.667 36 -56.5 83.334 -56.5 142.001v75c0 6.66699 3.33301 10 10 10h76c6.66699 0 10 -3.33301 10 -10v-76c0 -33.333 10.167 -60.333 30.5 -81s46.833 -31 79.5 -31c33.333 0 60.166 10.333 80.499 31s30.5 47.667 30.5 81v503c0 6.66699 3.33301 10 10 10
h76c6.66699 0 10 -3.33301 10 -10v-502c0 -38.667 -8.66699 -72.834 -26 -102.501s-41.666 -52.667 -72.999 -69s-67.333 -24.5 -108 -24.5c-62 0 -111.833 18 -149.5 54z" />
    <glyph glyph-name="K" unicode="K" horiz-adv-x="541" 
d="M72 10l0.000976562 680c0 6.66699 3.33301 10 10 10h76c6.66699 0 10 -3.33301 10 -10v-310c0 -1.33301 0.666992 -2.16602 2 -2.49902s2.33301 0.166992 3 1.5l229 315c2.66699 4 6.66699 6 12 6h83c4 0 6.83301 -1.33301 8.5 -4s1.16699 -5.33398 -1.5 -8.00098
l-195 -279c-0.666992 -2 -0.666992 -4 0 -6l211 -391c0.666992 -1.33301 1 -3 1 -5s-0.833008 -3.66699 -2.5 -5s-3.83398 -2 -6.50098 -2h-85c-6 -0 -10 2.33301 -12 7l-173 320c-1.33301 4 -3 4.33301 -5 1l-67 -88c-1.33301 -1.33301 -2 -3 -2 -5v-225
c0 -6.66699 -3.33301 -10 -10 -10h-76c-6.66699 -0 -10 3.33301 -10 10z" />
    <glyph glyph-name="L" unicode="L" horiz-adv-x="488" 
d="M72 10v680c0 6.66699 3.33301 10 10 10h76c6.66699 0 10 -3.33301 10 -10v-603c0 -2.66699 1.33301 -4 4 -4h284c6.66699 0 10 -3.33301 10 -10v-63c0 -6.66699 -3.33301 -10 -10 -10h-374c-6.66699 -0 -10 3.33301 -10 10z" />
    <glyph glyph-name="M" unicode="M" horiz-adv-x="623" 
d="M466 700h76c6.66699 0 10 -3.33301 10 -10v-680c0 -6.66699 -3.33301 -10 -10 -10h-76c-6.66699 -0 -10 3.33301 -10 10v504c0 2 -0.666992 3.16699 -2 3.5s-2.33301 -0.5 -3 -2.5l-119 -197c-3.33301 -4.66699 -7.33301 -7 -12 -7h-16
c-4.66699 0 -8.66699 2.33301 -12 7l-120 195c-0.666992 2 -1.66699 2.83301 -3 2.5s-2 -1.5 -2 -3.5v-502c0 -6.66699 -3.33301 -10 -10 -10h-76c-6.66699 -0 -10 3.33301 -10 10v680c0 6.66699 3.33301 10 10 10h76c4.66699 0 8.66699 -2.33301 12 -7l140 -226
c0.666992 -0.666992 1.66699 -1 3 -1s2.33301 0.333008 3 1l139 226c3.33301 4.66699 7.33301 7 12 7z" />
    <glyph glyph-name="N" unicode="N" horiz-adv-x="587" 
d="M429 700h76c6.66699 0 10 -3.33301 10 -10v-680c0 -6.66699 -3.33301 -10 -10 -10h-80c-6 -0 -10 2.33301 -12 7l-241 485c-1.33301 1.33301 -2.5 2 -3.5 2s-1.5 -1 -1.5 -3l1 -481c0 -6.66699 -3.33301 -10 -10 -10h-76c-6.66699 -0 -10 3.33301 -10 10v680
c0 6.66699 3.33301 10 10 10h80c6 0 10 -2.33301 12 -7l240 -485c1.33301 -1.33301 2.5 -2 3.5 -2s1.5 1 1.5 3v481c0 6.66699 3.33301 10 10 10z" />
    <glyph glyph-name="O" unicode="O" horiz-adv-x="542" 
d="M157.5 17.5c-32.333 17.667 -57.5 42.5 -75.5 74.5s-27 69 -27 111v294c0 41.333 9 78 27 110s43.167 56.833 75.5 74.5s69.833 26.5 112.5 26.5s80.334 -8.83301 113.001 -26.5s58 -42.5 76 -74.5s27 -68.667 27 -110v-294c0 -42 -9 -79 -27 -111
s-43.333 -56.833 -76 -74.5s-70.334 -26.5 -113.001 -26.5s-80.167 8.83301 -112.5 26.5zM357 109c22 22.667 33 52.667 33 90v300c0 37.333 -11 67.666 -33 90.999s-51 35 -87 35c-35.333 0 -64 -11.667 -86 -35s-33 -53.666 -33 -90.999v-300c0 -36.667 11 -66.5 33 -89.5
s50.667 -34.5 86 -34.5c36 0 65 11.333 87 34z" />
    <glyph glyph-name="P" unicode="P" horiz-adv-x="522" 
d="M439.5 645.5c34.333 -37 51.5 -85.834 51.5 -146.501c0 -59.333 -17.167 -107.166 -51.5 -143.499s-79.833 -54.5 -136.5 -54.5h-134c-2.66699 0 -4 -1.33301 -4 -4v-287c0 -6.66699 -3.33301 -10 -10 -10h-76c-6.66699 -0 -10 3.33301 -10 10v681
c0 6.66699 3.33301 10 10 10h224c56.667 0 102.167 -18.5 136.5 -55.5zM366.5 410.499c19.667 21.667 29.5 50.5 29.5 86.5c0 36.667 -9.83301 66 -29.5 88s-45.5 33 -77.5 33h-120c-2.66699 0 -4 -1.33301 -4 -4v-232c0 -2.66699 1.33301 -4 4 -4h120
c32 0 57.833 10.833 77.5 32.5z" />
    <glyph glyph-name="Q" unicode="Q" horiz-adv-x="516" 
d="M367 681.5c31.333 -17.667 55.667 -42.5 73 -74.5s26 -68.667 26 -110v-297c0 -52.667 -14 -97.167 -42 -133.5s-66 -59.5 -114 -69.5c-2.66699 -0.666992 -4 -2.33398 -4 -5.00098v-91c0 -6.66699 -3.33301 -10 -10 -10h-76c-6.66699 0 -10 3.33301 -10 10v91
c0 2.66699 -1.33301 4.33398 -4 5.00098c-48 10 -86 33.167 -114 69.5s-42 80.833 -42 133.5v297c0 41.333 8.66699 78 26 110s41.833 56.833 73.5 74.5s67.834 26.5 108.501 26.5c41.333 0 77.666 -8.83301 108.999 -26.5zM370.001 504c0 36 -10.333 65.167 -31 87.5
s-47.667 33.5 -81 33.5s-60.333 -11.167 -81 -33.5s-31 -51.5 -31 -87.5v-308c0 -36 10.333 -65.167 31 -87.5s47.667 -33.5 81 -33.5s60.333 11.167 81 33.5s31 51.5 31 87.5v308z" />
    <glyph glyph-name="R" unicode="R" horiz-adv-x="533" 
d="M399 8l-116 298.001c-0.666992 2 -2 3 -4 3h-107c-2.66699 0 -4 -1.33301 -4 -4v-295c0 -6.66699 -3.33301 -10 -10 -10h-76c-6.66699 0 -10 3.33301 -10 10v680c0 6.66699 3.33301 10 10 10h224c56 0 101 -18.333 135 -55s51 -84.667 51 -144
c0 -44.667 -10.333 -83 -31 -115s-49 -54 -85 -66c-2 -0.666992 -2.66699 -2.33398 -2 -5.00098l122 -303l1 -4c0 -5.33301 -3 -8 -9 -8h-78c-5.33301 0 -9 2.66699 -11 8zM168 613.001v-223.999c0 -2.66699 1.33301 -4 4 -4h121c30.667 0 55.5 10.5 74.5 31.5
s28.5 48.833 28.5 83.5c0 35.333 -9.33301 63.666 -28 84.999s-43.667 32 -75 32h-121c-2.66699 0 -4 -1.33301 -4 -4z" />
    <glyph glyph-name="S" unicode="S" horiz-adv-x="507" 
d="M143.5 15.5c-32.333 15.667 -57.335 37.499 -75.002 65.499s-26.5 60.667 -26.5 98v27c0 6.66699 3.33301 10 10 10h74c6.66699 0 10 -3.33301 10 -10v-22c0 -32.667 11.167 -59 33.5 -79s52.5 -30 90.5 -30c34 0 60.833 9.16699 80.5 27.5s29.5 42.5 29.5 72.5
c0 20 -5 37.333 -15 52s-24.5 28.334 -43.5 41.001s-46.5 28.667 -82.5 48c-40.667 21.333 -73.167 40.333 -97.5 57s-44.5 37.667 -60.5 63s-24 56 -24 92c0 56 18.333 100 55 132s85.334 48 146.001 48c42 0 79 -8 111 -24s56.833 -38.5 74.5 -67.5
s26.5 -62.5 26.5 -100.5v-23c0 -6.66699 -3.33301 -10 -10 -10h-75c-6.66699 0 -10 3.33301 -10 10v21c0 32.667 -10.667 59.334 -32 80.001s-50.333 31 -87 31c-32.667 0 -58.167 -8.33301 -76.5 -25s-27.5 -40.334 -27.5 -71.001c0 -20 4.5 -37 13.5 -51
s22.833 -27.167 41.5 -39.5s46.334 -27.833 83.001 -46.5c46 -26 80.833 -47.333 104.5 -64s43 -37 58 -61s22.5 -53 22.5 -87c0 -57.333 -18.833 -103 -56.5 -137s-88.5 -51 -152.5 -51c-42.667 0 -80.167 7.83301 -112.5 23.5z" />
    <glyph glyph-name="T" unicode="T" horiz-adv-x="507" 
d="M473 690v-64c0 -6.66699 -3.33301 -10 -10 -10h-161c-2.66699 0 -4 -1.33301 -4 -4v-602c0 -6.66699 -3.33301 -10 -10 -10h-76c-6.66699 -0 -10 3.33301 -10 10v602c0 2.66699 -1.33301 4 -4 4h-154c-6.66699 0 -10 3.33301 -10 10v64c0 6.66699 3.33301 10 10 10h419
c6.66699 0 10 -3.33301 10 -10z" />
    <glyph glyph-name="U" unicode="U" horiz-adv-x="559" 
d="M167.5 18.5c-32.333 17.667 -57.334 42.667 -75.001 75s-26.5 69.833 -26.5 112.5v484c0 6.66699 3.33301 10 10 10h76c6.66699 0 10 -3.33301 10 -10v-490c0 -37.333 10.833 -67.5 32.5 -90.5s49.834 -34.5 84.501 -34.5c35.333 0 63.833 11.5 85.5 34.5
s32.5 53.167 32.5 90.5v490c0 6.66699 3.33301 10 10 10h76c6.66699 0 10 -3.33301 10 -10v-484c0 -42.667 -8.83301 -80.167 -26.5 -112.5s-42.667 -57.333 -75 -75s-69.833 -26.5 -112.5 -26.5c-42 0 -79.167 8.83301 -111.5 26.5z" />
    <glyph glyph-name="V" unicode="V" horiz-adv-x="529" 
d="M211 9l-179.003 680l-1 3c0 5.33301 3.33301 8 10 8h82c6.66699 0 10.334 -3 11.001 -9l130 -536c0.666992 -2 1.33398 -3 2.00098 -3s1.33398 1 2.00098 3l130 536c1.33301 6 5 9 11 9h79c3.33301 0 5.83301 -1 7.5 -3s2.16699 -4.66699 1.5 -8l-181 -680
c-1.33301 -6 -5 -9 -11 -9h-83c-6 0 -9.66699 3 -11 9z" />
    <glyph glyph-name="W" unicode="W" horiz-adv-x="762" 
d="M186 9l-159.002 680l-1 4c0 4.66699 3 7 9 7h80c6.66699 0 10.334 -3 11.001 -9l107 -484c0.666992 -2 1.33398 -3 2.00098 -3s1.33398 1 2.00098 3l97 484c1.33301 6 5 9 11 9h73c6.66699 0 10.334 -3 11.001 -9l104 -484c0.666992 -2 1.33398 -3 2.00098 -3
s1.33398 1 2.00098 3l102 484c1.33301 6 5 9 11 9h77c3.33301 0 5.83301 -1 7.5 -3s2.16699 -4.66699 1.5 -8l-153 -680c-0.666992 -6 -4.33398 -9 -11.001 -9h-75c-6 0 -9.66699 3 -11 9l-103 495c-0.666992 2 -1.33398 3 -2.00098 3s-1.33398 -1 -2.00098 -3l-99 -495
c-0.666992 -6 -4.33398 -9 -11.001 -9h-72c-6 0 -9.66699 3 -11 9z" />
    <glyph glyph-name="X" unicode="X" horiz-adv-x="526" 
d="M35 3.5c-1.33301 2.33301 -1.33301 5.16602 0 8.49902l173 335c1.33301 2 1.33301 4 0 6l-173 335c-0.666992 1.33301 -1 3 -1 5c0 4.66699 2.66699 7 8 7h81c6 0 10 -2.33301 12 -7l126 -253c0.666992 -1.33301 1.66699 -2 3 -2s2.33301 0.666992 3 2l124 253
c2 4.66699 6 7 12 7h81c3.33301 0 5.66602 -1.16699 6.99902 -3.5s1.33301 -5.16602 0 -8.49902l-173 -336c-0.666992 -2 -0.666992 -4 0 -6l173 -334c0.666992 -1.33301 1 -3 1 -5c0 -4.66699 -2.66699 -7 -8 -7h-80c-6 -0 -10 2.33301 -12 7l-125 253
c-0.666992 1.33301 -1.66699 2 -3 2s-2.33301 -0.666992 -3 -2l-126 -253c-2 -4.66699 -6 -7 -12 -7h-81c-3.33301 0 -5.66602 1.16699 -6.99902 3.5z" />
    <glyph glyph-name="Y" unicode="Y" horiz-adv-x="514" 
d="M209 11l-0.000976562 283.999c0 2.66699 -0.333008 4.33398 -1 5.00098l-174 388l-1 4c0 5.33301 3 8 9 8h81c5.33301 0 9 -2.66699 11 -8l120 -284c0.666992 -1.33301 1.66699 -2 3 -2s2.33301 0.666992 3 2l119 284c2 5.33301 5.66699 8 11 8h82
c3.33301 0 5.83301 -1.16699 7.5 -3.5s1.83398 -5.16602 0.500977 -8.49902l-175 -388c-0.666992 -0.666992 -1 -2.33398 -1 -5.00098v-284c0 -6.66699 -3.33301 -10 -10 -10h-75c-6.66699 0 -10 3.33301 -10 10z" />
    <glyph glyph-name="Z" unicode="Z" horiz-adv-x="476" 
d="M35 10v68c0 4.66699 1 9 3 13l291 521c0.666992 1.33301 0.833984 2.5 0.500977 3.5s-1.16602 1.5 -2.49902 1.5h-282c-6.66699 0 -10 3.33301 -10 10v63c0 6.66699 3.33301 10 10 10h381c6.66699 0 10 -3.33301 10 -10v-68c0 -4.66699 -1 -9 -3 -13l-292 -521
c-0.666992 -1.33301 -0.833984 -2.5 -0.500977 -3.5s1.16602 -1.5 2.49902 -1.5h283c6.66699 0 10 -3.33301 10 -10v-63c0 -6.66699 -3.33301 -10 -10 -10h-381c-6.66699 -0 -10 3.33301 -10 10z" />
    <glyph glyph-name="bracketleft" unicode="[" horiz-adv-x="355" 
d="M30 -120v894c0 6.66699 3.33301 10 10 10h192c6.66699 0 10 -3.33301 10 -10v-64c0 -6.66699 -3.33301 -10 -10 -10h-102c-2.66699 0 -4 -1.33301 -4 -4v-739c0 -2.66699 1.33301 -4 4 -4h103c6.66699 0 10 -3.33301 10 -10v-63c0 -6.66699 -3.33301 -10 -10 -10h-193
c-6.66699 0 -10 3.33301 -10 10z" />
    <glyph glyph-name="backslash" unicode="\" horiz-adv-x="395" 
d="M369 7c0 -4.66699 -3 -7 -9 -7h-75c-6 0 -10 2.66699 -12 8l-214 681l-1 4c0 4.66699 3 7 9 7h75c6 0 10 -2.66699 12 -8l214 -681z" />
    <glyph glyph-name="bracketright" unicode="]" horiz-adv-x="355" 
d="M315 -130h-193c-6.66699 0 -10 3.33301 -10 10v63c0 6.66699 3.33301 10 10 10h103c2.66699 0 4 1.33301 4 4v739c0 2.66699 -1.33301 4 -4 4h-102c-6.66699 0 -10 3.33301 -10 10v64c0 6.66699 3.33301 10 10 10h192c6.66699 0 10 -3.33301 10 -10v-894
c0 -6.66699 -3.33301 -10 -10 -10z" />
    <glyph glyph-name="asciicircum" unicode="^" horiz-adv-x="432" 
d="M36 315l135 377c2 5.33301 6 8 12 8h64c6 0 10 -2.66699 12 -8l137 -377l1 -4c0 -4.66699 -3 -7 -9 -7h-62c-6 0 -10 2.66699 -12 8l-95 282c-0.666992 1.33301 -1.66699 2 -3 2s-2.33301 -0.666992 -3 -2l-95 -282c-2 -5.33301 -6 -8 -12 -8h-62
c-7.33301 0 -10 3.66699 -8 11z" />
    <glyph glyph-name="underscore" unicode="_" horiz-adv-x="445" 
d="M22 10v55c0 6.66699 3.33301 10 10 10h381c6.66699 0 10 -3.33301 10 -10v-55c0 -6.66699 -3.33301 -10 -10 -10h-381c-6.66699 -0 -10 3.33301 -10 10z" />
    <glyph glyph-name="grave" unicode="`" horiz-adv-x="202" 
d="M174 579c0 -4 -3 -6 -9 -6h-51c-4.66699 0 -8.66699 2 -12 6l-72 109l-2 5c0 4.66699 3 7 9 7h63c5.33301 0 9.33301 -2.33301 12 -7l60 -108c1.33301 -2.66699 2 -4.66699 2 -6z" />
    <glyph glyph-name="a" unicode="a" horiz-adv-x="471" 
d="M369 470.5c33.333 -31 50 -71.502 50 -121.502v-339c0 -6.66699 -3.33301 -10 -10 -10h-76c-6.66699 0 -10 3.33301 -10 10v29c0 1.33301 -0.5 2.16602 -1.5 2.49902s-2.16699 -0.166992 -3.5 -1.5c-30 -32 -71.667 -48 -125 -48c-43.333 0 -80.333 11.833 -111 35.5
s-46 61.834 -46 114.501c0 54.667 17.833 96.167 53.5 124.5s84.167 42.5 145.5 42.5h84c2.66699 0 4 1.33301 4 4v28c0 28.667 -7.5 51.334 -22.5 68.001s-36.5 25 -64.5 25c-22 0 -40.167 -5.5 -54.5 -16.5s-23.166 -25.833 -26.499 -44.5
c-0.666992 -6 -4.33398 -9 -11.001 -9l-82 5c-2.66699 0 -5 0.833008 -7 2.5s-2.66699 3.83398 -2 6.50098c4 41.333 22.833 74.833 56.5 100.5s75.834 38.5 126.501 38.5c55.333 0 99.666 -15.5 132.999 -46.5zM290.5 98.998c21.667 16.667 32.501 39 32.501 67v64
c0 2.66699 -1.33301 4 -4 4h-77c-32.667 0 -58.834 -7.33301 -78.501 -22s-29.5 -36 -29.5 -64c0 -24.667 7.33301 -43.167 22 -55.5s34 -18.5 58 -18.5c29.333 0 54.833 8.33301 76.5 25z" />
    <glyph glyph-name="b" unicode="b" horiz-adv-x="492" 
d="M443 253c0 -41.333 -4.00098 -79.332 -12.001 -113.999c-11.333 -50 -29.666 -87 -54.999 -111s-59 -36 -101 -36c-50.667 0 -88 17.667 -112 53c-0.666992 1.33301 -1.66699 1.66602 -3 0.999023s-2 -1.66699 -2 -3v-33c0 -6.66699 -3.33301 -10 -10 -10h-76
c-6.66699 -0 -10 3.33301 -10 10v680c0 6.66699 3.33301 10 10 10h76c6.66699 0 10 -3.33301 10 -10v-223c0 -2 0.5 -3 1.5 -3s2.16699 0.666992 3.5 2c22 34 58 51 108 51c88 0 142 -50 162 -150c6.66699 -33.333 10 -71.333 10 -114zM345.999 255.001
c0 49.333 -5 88 -15 116c-16 42 -43.333 63 -82 63c-20 0 -36.167 -5.5 -48.5 -16.5s-21.833 -27.167 -28.5 -48.5c-8.66699 -26.667 -13 -64.667 -13 -114c0 -48 4 -85.667 12 -113c14 -44.667 40.333 -67 79 -67c42 0 70 23 84 69c8 26.667 12 63.667 12 111z" />
    <glyph glyph-name="c" unicode="c" horiz-adv-x="470" 
d="M116.5 32.5c-33 27 -53.1699 63.834 -60.5029 110.501c-4.66699 30 -7 67.667 -7 113c0 39.333 2.33301 76.333 7 111c7.33301 45.333 27.666 81.666 60.999 108.999s75.333 41 126 41c49.333 0 91 -13 125 -39s54.333 -59.333 61 -100l4 -24
c0 -6 -3.33301 -9.66699 -10 -11l-75 -6h-2c-4 0 -6.66699 2.33301 -8 7l-1 4l-2 12c-3.33301 20.667 -13.333 38.167 -30 52.5s-37.667 21.5 -63 21.5s-46.166 -7.66699 -62.499 -23s-26.166 -35.666 -29.499 -60.999c-3.33301 -28 -5 -59.667 -5 -95
c0 -39.333 2 -71.666 6 -96.999c3.33301 -25.333 13 -45.5 29 -60.5s36.667 -22.5 62 -22.5c26 0 47.333 7.16699 64 21.5s26.334 32.166 29.001 53.499l1 10c0.666992 6.66699 4.33398 9.66699 11.001 9l75 -5c6.66699 0 10 -3.66699 10 -11l-3 -17
c-5.33301 -42.667 -25 -77.334 -59 -104.001s-76.333 -40 -127 -40c-51.333 0 -93.5 13.5 -126.5 40.5z" />
    <glyph glyph-name="d" unicode="d" horiz-adv-x="492" 
d="M344 700l76 -0.000976562c6.66699 0 10 -3.33301 10 -10v-680c0 -6.66699 -3.33301 -10 -10 -10h-76c-6.66699 0 -10 3.33301 -10 10v34c0 1.33301 -0.666992 2.33301 -2 3s-2.33301 0.333984 -3 -0.999023c-24 -36 -61.667 -54 -113 -54
c-41.333 0 -74.666 12 -99.999 36s-44 61 -56 111c-8 34.667 -12 72.667 -12 114c0 42.667 3.33301 80.667 10 114c20 100 74.333 150 163 150c26 0 47.667 -4.33301 65 -13s31.666 -21.667 42.999 -39c1.33301 -1.33301 2.5 -2 3.5 -2s1.5 1 1.5 3v224
c0 6.66699 3.33301 10 10 10zM333 254.999c0 50 -4.66797 87.999 -14.001 113.999c-6 21.333 -15.167 37.5 -27.5 48.5s-28.5 16.5 -48.5 16.5c-39.333 0 -66.666 -21 -81.999 -63c-10.667 -30 -16 -68.667 -16 -116c0 -48 4.33301 -85 13 -111c14 -46 42 -69 84 -69
c38.667 0 64.667 22.333 78 67c8.66699 26.667 13 64.334 13 113.001z" />
    <glyph glyph-name="e" unicode="e" horiz-adv-x="478" 
d="M303.5 91.5c15.667 11 27.499 26.167 35.499 45.5c2 6 6 8.33301 12 7l68 -15c6.66699 -2 9 -6 7 -12c-12.667 -39.333 -34.667 -70 -66 -92s-69.666 -33 -114.999 -33c-52 0 -94 13 -126 39s-52.333 61.667 -61 107c-3.33301 18.667 -5.5 38.5 -6.5 59.5
s-1.5 48.833 -1.5 83.5c0 34 1.66699 61 5 81c6 46.667 25.667 84.167 59 112.5s75.333 42.5 126 42.5c55.333 0 100 -15.667 134 -47s53 -72.666 57 -123.999c2 -22.667 3 -64.334 3 -125.001c0 -6.66699 -3.33301 -10 -10 -10h-274c-2.66699 0 -4 -1.33301 -4 -4
c0 -18.667 1 -35 3 -49c3.33301 -24.667 13.666 -44.667 30.999 -60s39.333 -23 66 -23c22.667 0 41.834 5.5 57.501 16.5zM178.499 411c-16.333 -15.333 -26.1689 -35.334 -29.502 -60.001c-2 -18 -3 -37.667 -3 -59c0 -2.66699 1.33301 -4 4 -4h184
c2.66699 0 4 1.33301 4 4c-1.33301 26.667 -2.66602 46 -3.99902 58c-3.33301 24.667 -13.333 44.834 -30 60.501s-37.667 23.5 -63 23.5s-46.166 -7.66699 -62.499 -23z" />
    <glyph glyph-name="f" unicode="f" horiz-adv-x="326" 
d="M206.5 599.5c-11 -13.667 -16.501 -36.833 -16.501 -69.5v-17c0 -2.66699 1.33301 -4 4 -4h87c6.66699 0 10 -3.33301 10 -10v-59c0 -6.66699 -3.33301 -10 -10 -10h-87c-2.66699 0 -4 -1.33301 -4 -4v-416c0 -6.66699 -3.33301 -10 -10 -10h-76
c-6.66699 -0 -10 3.33301 -10 10v416c0 2.66699 -1.33301 4 -4 4h-52c-6.66699 0 -10 3.33301 -10 10v59c0 6.66699 3.33301 10 10 10h52c2.66699 0 4 1.33301 4 4v22c0 42 5.33301 75.167 16 99.5s27.834 41.833 51.501 52.5s56.167 16 97.5 16h23
c6.66699 0 10 -3.33301 10 -10l-1 -63c0 -6.66699 -3.33301 -10 -10 -10h-17c-27.333 0 -46.5 -6.83301 -57.5 -20.5z" />
    <glyph glyph-name="g" unicode="g" horiz-adv-x="483" 
d="M342 509l76.002 -0.00195312c6.66699 0 10 -3.33301 10 -10v-479c0 -148 -79.333 -222 -238 -222c-14 0 -24.667 0.333008 -32 1c-6.66699 0.666992 -10 4.33398 -10 11.001l2 67c0 3.33301 1 5.83301 3 7.5s4.33301 2.16699 7 1.5c62.667 -2.66699 107 7 133 29
s39 59.333 39 112v19c0 1.33301 -0.5 2.33301 -1.5 3s-2.16699 0.333984 -3.5 -0.999023c-26 -32 -62.333 -48 -109 -48c-43.333 -0 -79.833 12.833 -109.5 38.5s-47.834 61.5 -54.501 107.5c-4 21.333 -6 57.666 -6 108.999c0 55.333 2.33301 94 7 116
c6 44.667 23.167 80.167 51.5 106.5s64.166 39.5 107.499 39.5c48 0 85.667 -15.667 113 -47c1.33301 -1.33301 2.5 -1.66602 3.5 -0.999023s1.5 1.66699 1.5 3v27c0 6.66699 3.33301 10 10 10zM332.002 255.998c0 37.333 -1.00195 69.001 -3.00195 95.001
c-2.66699 24 -12 43.833 -28 59.5s-36.333 23.5 -61 23.5c-24 0 -44.167 -7.83301 -60.5 -23.5s-26.166 -35.5 -29.499 -59.5c-4 -26 -6 -57.667 -6 -95c0 -34.667 1.66699 -65.334 5 -92.001c3.33301 -24.667 13.333 -44.667 30 -60s37.334 -23 62.001 -23
s45 7.66699 61 23s25.333 35 28 59c1.33301 34.667 2 65.667 2 93z" />
    <glyph glyph-name="h" unicode="h" 
d="M389.5 471c27 -30 40.5 -71.333 40.5 -124v-337c0 -6.66699 -3.33301 -10 -10 -10h-76c-6.66699 -0 -10 3.33301 -10 10v323c0 30.667 -7.83301 55 -23.5 73s-36.834 27 -63.501 27c-27.333 0 -49.166 -9.16699 -65.499 -27.5s-24.5 -42.833 -24.5 -73.5v-322
c0 -6.66699 -3.33301 -10 -10 -10h-76c-6.66699 -0 -10 3.33301 -10 10v680c0 6.66699 3.33301 10 10 10h76c6.66699 0 10 -3.33301 10 -10v-222c0 -2 0.5 -3.16699 1.5 -3.5s2.16699 0.5 3.5 2.5c26 32.667 64 49 114 49c48.667 0 86.5 -15 113.5 -45z" />
    <glyph glyph-name="i" unicode="i" horiz-adv-x="233" 
d="M71 607c-12 12 -18 27.333 -18 46c0 19.333 6 34.833 18 46.5s27.333 17.5 46 17.5s34 -6 46 -18s18 -27.333 18 -46s-6.16699 -34 -18.5 -46s-27.5 -18 -45.5 -18c-18.667 0 -34 6 -46 18zM68 10v489c0 6.66699 3.33301 10 10 10h76c6.66699 0 10 -3.33301 10 -10v-489
c0 -6.66699 -3.33301 -10 -10 -10h-76c-6.66699 -0 -10 3.33301 -10 10z" />
    <glyph glyph-name="j" unicode="j" horiz-adv-x="227" 
d="M65 607c-12 12 -18 27.333 -18 46s6 34 18 46s27.333 18 46 18s34 -6 46 -18s18 -27.333 18 -46s-6 -34 -18 -46s-27.333 -18 -46 -18s-34 6 -46 18zM-41 -197v63c0 6.66699 4.33301 10 13 10c32 0 55.167 8 69.5 24s21.5 39.667 21.5 71v528c0 6.66699 3.33301 10 10 10
h76c6.66699 0 10 -3.33301 10 -10v-527c0 -42 -5.5 -75.833 -16.5 -101.5s-30.167 -45 -57.5 -58s-66 -19.5 -116 -19.5c-6.66699 0 -10 3.33301 -10 10z" />
    <glyph glyph-name="k" unicode="k" horiz-adv-x="467" 
d="M61 10l0.000976562 680.001c0 6.66699 3.33301 10 10 10h76c6.66699 0 10 -3.33301 10 -10v-382c0 -1.33301 0.666992 -2.33301 2 -3s2.33301 -0.333984 3 0.999023l156 197c3.33301 4 7.66602 6 12.999 6h84c4 0 6.66699 -1.16699 8 -3.5
s0.666016 -5.16602 -2.00098 -8.49902l-116 -151c-1.33301 -2.66699 -1.66602 -4.66699 -0.999023 -6l136 -328l1 -4c0 -5.33301 -3 -8 -9 -8h-80c-5.33301 0 -9 2.66699 -11 8l-100 262c-1.33301 4 -3 4.33301 -5 1l-77 -96c-1.33301 -2.66699 -2 -4.33398 -2 -5.00098
v-160c0 -6.66699 -3.33301 -10 -10 -10h-76c-6.66699 -0 -10 3.33301 -10 10z" />
    <glyph glyph-name="l" unicode="l" horiz-adv-x="213" 
d="M59 10v680c0 6.66699 3.33301 10 10 10h76c6.66699 0 10 -3.33301 10 -10v-680c0 -6.66699 -3.33301 -10 -10 -10h-76c-6.66699 -0 -10 3.33301 -10 10z" />
    <glyph glyph-name="m" unicode="m" horiz-adv-x="742" 
d="M647.5 471c25.667 -30 38.498 -71.6631 38.498 -124.996v-336c0 -6.66699 -3.33301 -10 -10 -10h-75c-6.66699 0 -10 3.33301 -10 10v322c0 31.333 -7.5 56 -22.5 74s-35.5 27 -61.5 27s-46.833 -8.83301 -62.5 -26.5s-23.5 -41.834 -23.5 -72.501v-324
c0 -6.66699 -3.33301 -10 -10 -10h-75c-6.66699 0 -10 3.33301 -10 10v322c0 31.333 -7.66699 56 -23 74s-35.666 27 -60.999 27c-26 0 -46.833 -8.83301 -62.5 -26.5s-23.5 -41.834 -23.5 -72.501v-324c0 -6.66699 -3.33301 -10 -10 -10h-75c-6.66699 0 -10 3.33301 -10 10
v489c0 6.66699 3.33301 10 10 10h75c6.66699 0 10 -3.33301 10 -10v-30c0 -1.33301 0.5 -2.33301 1.5 -3s2.16699 -0.333984 3.5 0.999023c27.333 32.667 65.333 49 114 49c29.333 0 54.666 -6 75.999 -18s37.666 -29.667 48.999 -53c2 -2.66699 4 -2.33398 6 0.999023
c14.667 24 33.834 41.667 57.501 53s48.834 17 75.501 17c46.667 0 82.834 -15 108.501 -45z" />
    <glyph glyph-name="n" unicode="n" 
d="M389.5 471c27 -30 40.5 -71.333 40.5 -124v-337c0 -6.66699 -3.33301 -10 -10 -10h-76c-6.66699 -0 -10 3.33301 -10 10v323c0 30.667 -7.83301 55 -23.5 73s-36.834 27 -63.501 27c-27.333 0 -49.166 -9.16699 -65.499 -27.5s-24.5 -42.833 -24.5 -73.5v-322
c0 -6.66699 -3.33301 -10 -10 -10h-76c-6.66699 -0 -10 3.33301 -10 10v489c0 6.66699 3.33301 10 10 10h76c6.66699 0 10 -3.33301 10 -10v-31c0 -2 0.5 -3.16699 1.5 -3.5s2.16699 0.5 3.5 2.5c26 32.667 64 49 114 49c48.667 0 86.5 -15 113.5 -45z" />
    <glyph glyph-name="o" unicode="o" horiz-adv-x="490" 
d="M117 32.5c-33.333 27 -53.332 63.833 -59.999 110.5c-5.33301 33.333 -8 70.666 -8 111.999c0 42 2.66699 79 8 111c6.66699 46 26.667 82.667 60 110s76 41 128 41c51.333 0 93.666 -13.667 126.999 -41s53.333 -63.666 60 -108.999c5.33301 -28.667 8 -66 8 -112
s-2.66699 -83.333 -8 -112c-6.66699 -46.667 -26.5 -83.5 -59.5 -110.5s-75.5 -40.5 -127.5 -40.5s-94.667 13.5 -128 40.5zM307.501 98c17 15.333 27.5 35.665 31.5 60.998c3.33301 30 5 62 5 96c0 34.667 -1.66699 66.334 -5 95.001c-4 25.333 -14.5 45.666 -31.5 60.999
s-38.167 23 -63.5 23c-24.667 0 -45.5 -7.66699 -62.5 -23s-27.5 -35.666 -31.5 -60.999c-2.66699 -23.333 -4 -55 -4 -95c0 -40.667 1.33301 -72.667 4 -96c4 -25.333 14.5 -45.666 31.5 -60.999s38.167 -23 63.5 -23c24.667 0 45.5 7.66699 62.5 23z" />
    <glyph glyph-name="p" unicode="p" horiz-adv-x="497" 
d="M448 256c0 -42.667 -3.33203 -80.666 -9.99902 -113.999c-20 -100 -74 -150 -162 -150c-48.667 0 -84.667 17 -108 51c-0.666992 2 -1.66699 2.83301 -3 2.5s-2 -1.5 -2 -3.5v-223c0 -6.66699 -3.33301 -10 -10 -10h-76c-6.66699 0 -10 3.33301 -10 10v680
c0 6.66699 3.33301 10 10 10h76c6.66699 0 10 -3.33301 10 -10v-32c0 -1.33301 0.5 -2.33301 1.5 -3s2.16699 -0.333984 3.5 0.999023c24.667 34.667 62 52 112 52c42 0 75.667 -12 101 -36s43.666 -61 54.999 -111c8 -34.667 12 -72.667 12 -114zM351.001 254.001
c0 47.333 -3.99902 84.332 -11.999 110.999c-7.33301 22.667 -17.666 39.834 -30.999 51.501s-31 17.5 -53 17.5c-20.667 0 -37.334 -5.83301 -50.001 -17.5s-22.334 -28.5 -29.001 -50.5c-8 -26.667 -12 -64 -12 -112c0 -49.333 4.33301 -87.333 13 -114
c6.66699 -21.333 16.167 -37.5 28.5 -48.5s28.5 -16.5 48.5 -16.5c38.667 0 66 21 82 63c10 28 15 66.667 15 116z" />
    <glyph glyph-name="q" unicode="q" horiz-adv-x="497" 
d="M344 509l76 -0.000976562c6.66699 0 10 -3.33301 10 -10v-680c0 -6.66699 -3.33301 -10 -10 -10h-76c-6.66699 0 -10 3.33301 -10 10v224c0 2 -0.5 3 -1.5 3s-2.16699 -0.666992 -3.5 -2c-11.333 -17.333 -25.666 -30.333 -42.999 -39s-39 -13 -65 -13
c-88.667 0 -143 50 -163 150c-6.66699 33.333 -10 71.333 -10 114c0 41.333 4 79.333 12 114c12 50 30.667 87 56 111s58.666 36 99.999 36c51.333 0 89 -18 113 -54c0.666992 -1.33301 1.66699 -1.66602 3 -0.999023s2 1.66699 2 3v34c0 6.66699 3.33301 10 10 10z
M333 253.999c0 48.667 -4.33203 86 -12.999 112c-12.667 45.333 -38.667 68 -78 68c-42 0 -70 -23 -84 -69c-8.66699 -26 -13 -63 -13 -111c0 -47.333 5.33301 -86 16 -116c15.333 -42 42.666 -63 81.999 -63c20 0 36.167 5.5 48.5 16.5s21.5 27.167 27.5 48.5
c9.33301 26 14 64 14 114z" />
    <glyph glyph-name="r" unicode="r" horiz-adv-x="341" 
d="M323 502c4.66699 -2 6.33301 -6 5 -12l-15 -76c-0.666992 -6.66699 -4.66699 -8.66699 -12 -6c-10 3.33301 -21 5 -33 5c-8.66699 0 -15 -0.333008 -19 -1c-26 -2 -47.667 -13.833 -65 -35.5s-26 -47.5 -26 -77.5v-289c0 -6.66699 -3.33301 -10 -10 -10h-76
c-6.66699 -0 -10 3.33301 -10 10v489c0 6.66699 3.33301 10 10 10h76c6.66699 0 10 -3.33301 10 -10v-64c0 -2 0.5 -3.16699 1.5 -3.5s1.83301 0.166992 2.5 1.5c24 54 60.667 81 110 81c20 0 37 -4 51 -12z" />
    <glyph glyph-name="s" unicode="s" horiz-adv-x="437" 
d="M91.5 32c-33 25.333 -49.499 57.999 -49.499 97.999v10c0 6.66699 3.33301 10 10 10h71c6.66699 0 10 -3.33301 10 -10v-6c0 -18 8.66699 -33.667 26 -47s38.666 -20 63.999 -20s45.833 6.33301 61.5 19s23.5 28.334 23.5 47.001c0 14.667 -4.5 26.667 -13.5 36
s-20 16.833 -33 22.5s-32.167 12.834 -57.5 21.501c-31.333 10 -57.833 20.5 -79.5 31.5s-40.167 26.667 -55.5 47s-23 46.166 -23 77.499c0 44.667 15.833 80 47.5 106s73.834 39 126.501 39c53.333 0 96.166 -13.333 128.499 -40s48.5 -61.667 48.5 -105v-2
c0 -6.66699 -3.33301 -10 -10 -10h-70c-6.66699 0 -10 3.33301 -10 10v4c0 19.333 -8 35.333 -24 48s-37 19 -63 19c-24.667 0 -44.5 -6 -59.5 -18s-22.5 -27.333 -22.5 -46c0 -14 4.33301 -25.5 13 -34.5s19.5 -16.5 32.5 -22.5s32.167 -13.333 57.5 -22
c33.333 -11.333 60.833 -22.333 82.5 -33s40.5 -26 56.5 -46s24 -45.667 24 -77c0 -44.667 -16.333 -80 -49 -106s-76.667 -39 -132 -39c-54.667 0 -98.5 12.667 -131.5 38z" />
    <glyph glyph-name="t" unicode="t" horiz-adv-x="322" 
d="M276 435h-88.999c-2.66699 0 -4 -1.33301 -4 -4v-274c0 -27.333 5.5 -46.5 16.5 -57.5s28.167 -16.5 51.5 -16.5h19c6.66699 0 10 -3.33301 10 -10v-63c0 -6.66699 -3.33301 -10 -10 -10l-39 -1c-46.667 0 -81.834 8.83301 -105.501 26.5s-35.5 50.5 -35.5 98.5v307
c0 2.66699 -1.33301 4 -4 4h-49c-6.66699 0 -10 3.33301 -10 10v54c0 6.66699 3.33301 10 10 10h49c2.66699 0 4 1.33301 4 4v115c0 6.66699 3.33301 10 10 10h73c6.66699 0 10 -3.33301 10 -10v-115c0 -2.66699 1.33301 -4 4 -4h89c6.66699 0 10 -3.33301 10 -10v-54
c0 -6.66699 -3.33301 -10 -10 -10z" />
    <glyph glyph-name="u" unicode="u" horiz-adv-x="485" 
d="M338 509l76.001 -0.00195312c6.66699 0 10 -3.33301 10 -10v-489c0 -6.66699 -3.33301 -10 -10 -10h-76c-6.66699 0 -10 3.33301 -10 10v31c0 1.33301 -0.5 2.33301 -1.5 3s-2.16699 0.333984 -3.5 -0.999023c-23.333 -33.333 -60 -50 -110 -50
c-45.333 0 -82.833 13.333 -112.5 40s-44.5 65.334 -44.5 116.001v350c0 6.66699 3.33301 10 10 10h75c6.66699 0 10 -3.33301 10 -10v-324c0 -31.333 7.5 -55.666 22.5 -72.999s36.5 -26 64.5 -26c27.333 0 49.166 9.16699 65.499 27.5s24.5 43.166 24.5 74.499v321
c0 6.66699 3.33301 10 10 10z" />
    <glyph glyph-name="v" unicode="v" horiz-adv-x="445" 
d="M169 8l-144.003 490l-1 3c0 5.33301 3.33301 8 10 8h84c6.66699 0 10.334 -3 11.001 -9l92 -359c0.666992 -1.33301 1.33398 -2 2.00098 -2s1.33398 0.666992 2.00098 2l91 359c1.33301 6 5 9 11 9l84 -1c3.33301 0 5.83301 -1 7.5 -3s2.16699 -4.66699 1.5 -8l-143 -489
c-2 -5.33301 -5.66699 -8 -11 -8h-86c-5.33301 0 -9 2.66699 -11 8z" />
    <glyph glyph-name="w" unicode="w" horiz-adv-x="659" 
d="M150 9l-125.002 489l-1 4c0 4.66699 3 7 9 7h76c6 0 9.66699 -3 11 -9l79 -347c0.666992 -2 1.33398 -3 2.00098 -3s1.33398 1 2.00098 3l80 347c1.33301 6 5 9 11 9h68c6 0 9.66699 -3 11 -9l82 -348c0.666992 -2 1.33398 -3 2.00098 -3s1.33398 1 2.00098 3l81 348
c1.33301 6 5 9 11 9l75 -1c3.33301 0 5.83301 -1 7.5 -3s1.83398 -4.66699 0.500977 -8l-125 -488c-0.666992 -6 -4.33398 -9 -11.001 -9h-77c-6 0 -9.66699 3 -11 9l-81 333c-0.666992 2 -1.33398 3 -2.00098 3s-1.33398 -1 -2.00098 -3l-78 -333c-1.33301 -6 -5 -9 -11 -9
h-75c-6 0 -9.66699 3 -11 9z" />
    <glyph glyph-name="x" unicode="x" horiz-adv-x="449" 
d="M23 3.5c-1.33301 2.33301 -1 5.16602 1 8.49902l142 239c1.33301 2 1.33301 4 0 6l-142 240c-1.33301 2.66699 -2 4.66699 -2 6c0 4 3 6 9 6h82c4.66699 0 8.66699 -2.33301 12 -7l95 -163c0.666992 -0.666992 1.66699 -1 3 -1s2.33301 0.333008 3 1l95 163
c3.33301 4.66699 7.33301 7 12 7h85c4 0 6.66699 -1.16699 8 -3.5s1 -5.16602 -1 -8.49902l-142 -240c-0.666992 -2 -0.666992 -4 0 -6l142 -239c1.33301 -2.66699 2 -4.66699 2 -6c0 -4 -3 -6 -9 -6h-82c-4.66699 -0 -8.66699 2.33301 -12 7l-95 164
c-0.666992 1.33301 -1.66699 2 -3 2s-2.33301 -0.666992 -3 -2l-95 -164c-3.33301 -4.66699 -7.33301 -7 -12 -7h-85c-4 0 -6.66699 1.16699 -8 3.5z" />
    <glyph glyph-name="y" unicode="y" horiz-adv-x="432" 
d="M42 -189l-0.00390625 58.9971c0 6.66699 3.33301 10 10 10h1c24 0.666992 42.833 4 56.5 10s24.834 17.167 33.501 33.5s16.667 40.833 24 73.5c0.666992 0.666992 0.833984 1.83398 0.500977 3.50098l-0.5 2.5l-147 495l-1 3c0 5.33301 3.33301 8 10 8h81
c6.66699 0 10.334 -3 11.001 -9l94 -369c0.666992 -1.33301 1.33398 -2.16602 2.00098 -2.49902s1.33398 0.5 2.00098 2.5l93 369c1.33301 6 5 9 11 9l80 -1c3.33301 0 5.83301 -1 7.5 -3s2.16699 -4.66699 1.5 -8l-159 -532c-14 -46 -28 -80.167 -42 -102.5
s-32.833 -38.166 -56.5 -47.499s-56.834 -14 -99.501 -14h-6c-4.66699 0 -7 3.33301 -7 10z" />
    <glyph glyph-name="z" unicode="z" horiz-adv-x="408" 
d="M29 10v70c0 5.33301 1.33301 9.66602 4 12.999l226 323c0.666992 0.666992 0.666992 1.66699 0 3s-1.66699 2 -3 2h-212c-6.66699 0 -10 3.33301 -10 10v68c0 6.66699 3.33301 10 10 10h321c6.66699 0 10 -3.33301 10 -10v-71c0 -5.33301 -1.33301 -9.66602 -4 -12.999
l-230 -323c-0.666992 -0.666992 -0.666992 -1.66699 0 -3s1.66699 -2 3 -2h224c6.66699 0 10 -3.33301 10 -10v-67c0 -6.66699 -3.33301 -10 -10 -10h-329c-6.66699 -0 -10 3.33301 -10 10z" />
    <glyph glyph-name="braceleft" unicode="{" horiz-adv-x="313" 
d="M94 -13v212.997c0 28.667 -4.33301 50.167 -13 64.5s-22.334 22.833 -41.001 25.5c-6.66699 0.666992 -10 4.33398 -10 11.001v57c0 6.66699 3.33301 10.334 10 11.001c18.667 2.66699 32.334 11.334 41.001 26.001s13 35.667 13 63v208c0 78.667 37 118 111 118h69
c6.66699 0 10 -3.33301 10 -10v-64c0 -6.66699 -3.33301 -10 -10 -10h-30c-17.333 0 -30.666 -6 -39.999 -18s-14 -29.333 -14 -52v-182c0 -31.333 -4.16699 -56.166 -12.5 -74.499s-21.5 -32.166 -39.5 -41.499c-1.33301 -0.666992 -2 -1.33398 -2 -2.00098
s0.666992 -1.33398 2 -2.00098c18 -8.66699 31.167 -22.5 39.5 -41.5s12.5 -44.167 12.5 -75.5v-187c0 -23.333 4.66699 -41 14 -53s22.666 -18 39.999 -18h30c6.66699 0 10 -3.33301 10 -10v-63c0 -6.66699 -3.33301 -10 -10 -10h-69c-74 0 -111 39 -111 117z" />
    <glyph glyph-name="bar" unicode="|" horiz-adv-x="169" 
d="M36 -70v820c0 6.66699 3.33301 10 10 10h76c6.66699 0 10 -3.33301 10 -10v-820c0 -6.66699 -3.33301 -10 -10 -10h-76c-6.66699 0 -10 3.33301 -10 10z" />
    <glyph glyph-name="braceright" unicode="}" horiz-adv-x="313" 
d="M40 -130c-6.66699 0 -10 3.33496 -10 10.002v63c0 6.66699 3.33301 10 10 10h29c17.333 0 30.666 6 39.999 18s14 29.667 14 53v187c0 30.667 4.33301 55.5 13 74.5s21.667 33.167 39 42.5c1.33301 0.666992 2 1.33398 2 2.00098s-0.666992 1.33398 -2 2.00098
c-18 9.33301 -31.167 23.166 -39.5 41.499s-12.5 43.166 -12.5 74.499v182c0 22.667 -4.66699 40 -14 52s-22.666 18 -39.999 18h-29c-6.66699 0 -10 3.33301 -10 10v64c0 6.66699 3.33301 10 10 10h69c73.333 0 110 -39.333 110 -118v-208c0 -28 4.5 -49.167 13.5 -63.5
s22.833 -22.833 41.5 -25.5c6.66699 -0.666992 10 -4.33398 10 -11.001v-57c0 -6.66699 -3.33301 -10.334 -10 -11.001c-18.667 -2.66699 -32.5 -11.334 -41.5 -26.001s-13.5 -36 -13.5 -64v-213c0 -39.333 -9 -68.666 -27 -87.999s-45.667 -29 -83 -29h-69z" />
    <glyph glyph-name="asciitilde" unicode="~" horiz-adv-x="492" 
d="M289 229c-13.333 5.33301 -28.999 13 -46.999 23c-17.333 10 -31.166 17.167 -41.499 21.5s-21.833 6.5 -34.5 6.5c-29.333 0 -53 -13.333 -71 -40c-1.33301 -2.66699 -3.33301 -4.33398 -6 -5.00098s-5.33398 -0.333984 -8.00098 0.999023l-41 27
c-5.33301 4 -7 8.33301 -5 13c10.667 26 27.334 47.167 50.001 63.5s48 24.5 76 24.5c15.333 0 29 -2.16699 41 -6.5s26 -10.833 42 -19.5c18.667 -11.333 33.834 -19.666 45.501 -24.999s25.167 -8 40.5 -8c13.333 0 24.666 3.33301 33.999 10s18.666 16.334 27.999 29.001
c4 5.33301 8.66699 6.33301 14 3l46 -30c5.33301 -4 6.66602 -8.33301 3.99902 -13c-13.333 -24.667 -30.333 -44.667 -51 -60s-43.667 -23 -69 -23c-18 0 -33.667 2.66699 -47 8z" />
    <glyph glyph-name="uni00A0" unicode="&#xa0;" horiz-adv-x="200" 
 />
    <glyph glyph-name="exclamdown" unicode="&#xa1;" horiz-adv-x="295" 
d="M192 690c12 -12 18 -27.333 18 -46s-6 -34 -18 -46s-27.333 -18 -46 -18s-34 6 -46 18s-18 27.333 -18 46s6 34 18 46s27.333 18 46 18s34 -6 46 -18zM119 478h58c6.66699 0 10 -3.33301 10 -10l9 -447c0 -6.66699 -3.33301 -10 -10 -10h-76
c-6.66699 0 -10 3.33301 -10 10l9 447c0 6.66699 3.33301 10 10 10z" />
    <glyph glyph-name="cent" unicode="&#xa2;" horiz-adv-x="470" 
d="M336 250c0.666992 6.66699 4.33008 9.66504 10.9971 8.99805l75 -5c6.66699 0 10 -3.66699 10 -11l-3 -17c-5.33301 -37.333 -21 -68.5 -47 -93.5s-59.333 -40.833 -100 -47.5c-2.66699 -0.666992 -4 -2.33398 -4 -5.00098l2 -71c0 -6.66699 -3.33301 -10 -10 -10h-64
c-6.66699 0 -10 3.33301 -10 10l2 73c0 2.66699 -1.33301 4.33398 -4 5.00098c-38 8 -69 24.667 -93 50s-39 57.333 -45 96c-4.66699 30 -7 67.667 -7 113c0 39.333 2.33301 76.333 7 111c6 37.333 21 68.833 45 94.5s54.667 42.5 92 50.5
c2.66699 0.666992 4 2.33398 4 5.00098l-2 72c0 6.66699 3.33301 10 10 10h64c6.66699 0 10 -3.33301 10 -10l-2 -70c0 -2.66699 1.33301 -4.33398 4 -5.00098c40 -6.66699 73.333 -22.167 100 -46.5s42.667 -54.166 48 -89.499l4 -24c0 -6 -3.33301 -9.66699 -10 -11
l-75 -6h-2c-4 0 -6.66699 2.33301 -8 7l-1 4l-2 12c-3.33301 20.667 -13.333 38.167 -30 52.5s-37.667 21.5 -63 21.5s-46.166 -7.66699 -62.499 -23s-26.166 -35.666 -29.499 -60.999c-3.33301 -28 -5 -59.667 -5 -95c0 -39.333 2 -71.666 6 -96.999
c3.33301 -25.333 13 -45.5 29 -60.5s36.667 -22.5 62 -22.5c26 0 47.333 7.16699 64 21.5s26.334 32.166 29.001 53.499z" />
    <glyph glyph-name="sterling" unicode="&#xa3;" horiz-adv-x="558" 
d="M210 84.5c0.666992 -1 1.66602 -1.5 2.99902 -1.5h304c6.66699 0 10 -3.33301 10 -10v-63c0 -6.66699 -3.33301 -10 -10 -10h-405c-6.66699 -0 -10 3.33301 -10 10v65c0 5.33301 2 9.33301 6 12c28.667 22.667 43 60 43 112v98c0 2.66699 -1.33301 4 -4 4h-65
c-6.66699 0 -10 3.33301 -10 10v58c0 6.66699 3.33301 10 10 10h65c2.66699 0 4 1.33301 4 4v121c0 64 17.333 114 52 150s82 54 142 54c45.333 0 82.833 -12.5 112.5 -37.5s50.5 -60.833 62.5 -107.5l1 -4c0 -4 -2.66699 -6.66699 -8 -8l-73 -11h-2
c-4.66699 0 -7.66699 2.66699 -9 8c-7.33301 26.667 -18 46.167 -32 58.5s-32 18.5 -54 18.5c-30.667 0 -54.334 -10 -71.001 -30s-25 -49.333 -25 -88v-124c0 -2.66699 1.33301 -4 4 -4h165c6.66699 0 10 -3.33301 10 -10v-58c0 -6.66699 -3.33301 -10 -10 -10h-165
c-2.66699 0 -4 -1.33301 -4 -4v-96c0 -24.667 -3.16699 -46.667 -9.5 -66s-15.166 -35 -26.499 -47c-1.33301 -1.33301 -1.66602 -2.5 -0.999023 -3.5z" />
    <glyph glyph-name="currency" unicode="&#xa4;" horiz-adv-x="536" 
d="M439 192c-1.33301 -2 -0.999023 -3.99805 1.00098 -5.99805l65 -65c2 -2 3 -4 3 -6c0 -2.66699 -1.33301 -5.33398 -4 -8.00098l-47 -42c-2 -2 -4 -3 -6 -3c-2.66699 0 -5.33398 1.33301 -8.00098 4l-63 62c-1.33301 1.33301 -3.33301 1.33301 -6 0
c-32 -20.667 -68.667 -31 -110 -31c-39.333 0 -74.666 9.66699 -105.999 29c-2 1.33301 -4 1 -6 -1l-59 -59c-4.66699 -4.66699 -9.33398 -5 -14.001 -1l-48 42c-4.66699 5.33301 -5 10 -1 14l61 61c2 2 2.33301 4 1 6c-23.333 34 -35 72 -35 114c0 40.667 11 77.667 33 111
c1.33301 2 1 4 -1 6l-65 64c-2 2 -3 4 -3 6c0 2.66699 1.33301 5.33398 4 8.00098l47 42c2 2 4 3 6 3c2.66699 0 5.33398 -1.33301 8.00098 -4l61 -61c2 -2 4 -2.33301 6 -1c34 21.333 71 32 111 32c42.667 0 81 -11.667 115 -35c2 -1.33301 4 -1 6 1l65 64
c5.33301 5.33301 10 5.66602 14 0.999023l47 -42c5.33301 -4.66699 5.66602 -9.33398 0.999023 -14.001l-70 -69c-2 -2 -2.33301 -4 -1 -6c20 -32.667 30 -68 30 -106c0 -40 -10.667 -76.667 -32 -110zM157.501 240.502c11 -19 26 -34 45 -45s39.5 -16.5 61.5 -16.5
c34 0 63 12 87 36s36.333 53 37 87c0 22 -5.66699 42.5 -17 61.5s-26.5 34.167 -45.5 45.5s-39.5 17 -61.5 17s-42.5 -5.66699 -61.5 -17s-34 -26.5 -45 -45.5s-16.5 -39.5 -16.5 -61.5s5.5 -42.5 16.5 -61.5z" />
    <glyph glyph-name="yen" unicode="&#xa5;" horiz-adv-x="607" 
d="M525.5 696.5c1.66699 -2.33301 1.83301 -5.16699 0.5 -8.5l-155 -345c-0.666992 -1.33301 -0.666992 -2.5 0 -3.5s1.66699 -1.5 3 -1.5h111c6.66699 0 10 -3.33301 10 -10v-36c0 -6.66699 -3.33301 -10 -10 -10h-130c-2.66699 0 -4 -1.33301 -4 -4v-64
c0 -2.66699 1.33301 -4 4 -4h130c6.66699 0 10 -3.33301 10 -10v-36c0 -6.66699 -3.33301 -10 -10 -10h-130c-2.66699 0 -4 -1.33301 -4 -4v-139c0 -6.66699 -3.33301 -10 -10 -10h-76c-6.66699 0 -10 3.33301 -10 10v139c0 2.66699 -1.33301 4 -4 4h-131
c-6.66699 0 -10 3.33301 -10 10v36c0 6.66699 3.33301 10 10 10h131c2.66699 0 4 1.33301 4 4v64c0 2.66699 -1.33301 4 -4 4h-131c-6.66699 0 -10 3.33301 -10 10v36c0 6.66699 3.33301 10 10 10h112c1.33301 0 2.33301 0.5 3 1.5s0.666992 2.16699 0 3.5l-155 345l-1 4
c0 5.33301 3 8 9 8h81c5.33301 0 9 -2.66699 11 -8l120 -284c0.666992 -1.33301 1.66699 -2 3 -2s2.33301 0.666992 3 2l120 284c2 5.33301 5.66699 8 11 8h81c3.33301 0 5.83301 -1.16699 7.5 -3.5z" />
    <glyph glyph-name="brokenbar" unicode="&#xa6;" horiz-adv-x="169" 
d="M36 402v348c0 6.66699 3.33301 10 10 10h76c6.66699 0 10 -3.33301 10 -10v-348c0 -6.66699 -3.33301 -10 -10 -10h-76c-6.66699 0 -10 3.33301 -10 10zM36 -70v345c0 6.66699 3.33301 10 10 10h76c6.66699 0 10 -3.33301 10 -10v-345c0 -6.66699 -3.33301 -10 -10 -10
h-76c-6.66699 0 -10 3.33301 -10 10z" />
    <glyph glyph-name="section" unicode="&#xa7;" horiz-adv-x="436" 
d="M95 -162c-30 29.333 -45.3291 68.666 -45.9961 117.999l-1 22c0 6.66699 3.33301 10 10 10h76c6.66699 0 10 -3.33301 10 -10v-11c0.666992 -27.333 7.83398 -49.166 21.501 -65.499s31.5 -24.5 53.5 -24.5s40 8 54 24s21 36 21 60c0 20 -5.5 36.833 -16.5 50.5
s-24 24.5 -39 32.5s-35.833 17.333 -62.5 28c-30 12.667 -53.833 25.334 -71.5 38.001s-31.834 29.667 -42.501 51c-12.667 22.667 -19 50.334 -19 83.001c0 35.333 8.66699 67.333 26 96c16.667 25.333 38.667 43.333 66 54c3.33301 1.33301 3.33301 3 0 5
c-26.667 14.667 -48.167 34.667 -64.5 60s-24.5 54.333 -24.5 87c0 30 7.16699 57.333 21.5 82s34.666 44.167 60.999 58.5s56.166 21.5 89.499 21.5c49.333 0 89.666 -15.333 120.999 -46s47.333 -70.334 48 -119.001v-16c0 -6.66699 -3.33301 -10 -10 -10h-76
c-6.66699 0 -10 3.33301 -10 10v10c0 25.333 -7 46.333 -21 63s-31.667 25 -53 25c-22 0 -40 -8.33301 -54 -25s-21 -37.334 -21 -62.001c0 -26.667 9 -48.167 27 -64.5s45 -31.166 81 -44.499c27.333 -11.333 49.666 -22 66.999 -32s32.666 -23.333 45.999 -40
c21.333 -28.667 32 -62 32 -100c0 -34.667 -8 -66 -24 -94c-16 -30.667 -38.667 -50.667 -68 -60c-3.33301 -1.33301 -3.33301 -3 0 -5c58 -32.667 87 -80.334 87 -143.001c0 -48 -16.167 -86.833 -48.5 -116.5s-74.166 -44.5 -125.499 -44.5c-50.667 0 -91 14.667 -121 44z
M286.004 193c8.66699 17.333 13.002 36.332 13.002 56.999c0 24.667 -6 45.334 -18 62.001c-15.333 20.667 -36.333 31 -63 31c-14.667 0 -27.834 -3.83301 -39.501 -11.5s-20.834 -17.5 -27.501 -29.5c-8 -16 -12 -34 -12 -54c0 -22.667 4.33301 -41 13 -55
c14 -24.667 36 -37 66 -37c31.333 0 54 12.333 68 37z" />
    <glyph glyph-name="dieresis" unicode="&#xa8;" horiz-adv-x="344" 
d="M212 609c-12 12 -18 27.333 -18 46s6 34 18 46s27.333 18 46 18s34 -6 46 -18s18 -27.333 18 -46s-6 -34 -18 -46s-27.333 -18 -46 -18s-34 6 -46 18zM40 609c-12 12 -18 27.333 -18 46s6 34 18 46s27.333 18 46 18s34 -6 46 -18s18 -27.333 18 -46s-6 -34 -18 -46
s-27.333 -18 -46 -18s-34 6 -46 18z" />
    <glyph glyph-name="copyright" unicode="&#xa9;" horiz-adv-x="835" 
d="M232 39c-55.333 31.333 -98.666 74.333 -129.999 129s-47 115.667 -47 183c0 66.667 15.667 127.167 47 181.5s74.666 97.166 129.999 128.499s117 47 185 47s129.667 -15.667 185 -47s98.666 -74.166 129.999 -128.499s47 -114.833 47 -181.5
c0 -67.333 -15.667 -128.333 -47 -183s-74.666 -97.667 -129.999 -129s-117 -47 -185 -47s-129.667 15.667 -185 47zM570 92c45.333 26 81 61.833 107 107.5s39 96.167 39 151.5s-13 105.5 -39 150.5s-61.667 80.5 -107 106.5s-96.333 39 -153 39s-107.667 -13 -153 -39
s-81 -61.5 -107 -106.5s-39 -95.167 -39 -150.5s13 -105.833 39 -151.5s61.667 -81.5 107 -107.5s96.333 -39 153 -39s107.667 13 153 39zM343 202.5c-18.667 17.667 -28 41.166 -28 70.499v153c0 28.667 9.33301 51.834 28 69.501s43.667 26.5 75 26.5
s56.5 -8.5 75.5 -25.5s28.5 -39.833 28.5 -68.5v-2c0 -6.66699 -3.33301 -10 -10 -10l-35 -1c-6.66699 0 -10 3.33301 -10 10v5c0 13.333 -4.5 24 -13.5 32s-20.833 12 -35.5 12s-26.334 -4 -35.001 -12s-13 -18.667 -13 -32v-162c0 -13.333 4.33301 -24 13 -32
s20.334 -12 35.001 -12s26.5 4 35.5 12s13.5 18.667 13.5 32v6c0 6.66699 3.33301 10 10 10l35 -1c6.66699 0 10 -3.33301 10 -10v-2c0 -28.667 -9.5 -51.667 -28.5 -69s-44.167 -26 -75.5 -26s-56.333 8.83301 -75 26.5z" />
    <glyph glyph-name="ordfeminine" unicode="&#xaa;" horiz-adv-x="307" 
d="M205 564c2.66699 0 4 1.33105 4 3.99805v23c0 18.667 -5 33.834 -15 45.501s-24.667 17.5 -44 17.5c-14 0 -26.167 -3.33301 -36.5 -10s-16.833 -15.667 -19.5 -27c-2 -6 -6 -8.66699 -12 -8l-43 3c-7.33301 1.33301 -10.333 5 -9 11c3.33301 25.333 16 45.833 38 61.5
s49.333 23.5 82 23.5c37.333 0 67 -10 89 -30s33 -46.667 33 -80v-221c0 -6.66699 -3.33301 -10 -10 -10h-43c-6.66699 0 -10 3.33301 -10 10v13c0 1.33301 -0.5 2.33301 -1.5 3s-2.16699 0.333984 -3.5 -0.999023c-17.333 -20 -43 -30 -77 -30c-30 0 -55.5 7.5 -76.5 22.5
s-31.5 40.167 -31.5 75.5c0 36 11.833 62.333 35.5 79s56.5 25 98.5 25h52zM188.5 428.498c13.667 10.333 20.5 24.5 20.5 42.5v39c0 2.66699 -1.33301 4 -4 4h-50c-22 0 -39.5 -4.5 -52.5 -13.5s-19.5 -22.167 -19.5 -39.5c0 -16 5 -28 15 -36s23.333 -12 40 -12
c20 0 36.833 5.16699 50.5 15.5zM29 306.998h241c6.66699 0 10 -3.33301 10 -10v-40c0 -6.66699 -3.33301 -10 -10 -10h-241c-6.66699 0 -10 3.33301 -10 10v40c0 6.66699 3.33301 10 10 10z" />
    <glyph glyph-name="guillemotleft" unicode="&#xab;" horiz-adv-x="498" 
d="M264 114c0 -4.66699 -3 -7.00098 -9 -7.00098h-70c-5.33301 0 -9.33301 2 -12 6l-108 161c-1.33301 2 -2 4.33301 -2 7s0.666992 5 2 7l108 161c2.66699 4 6.66699 6 12 6h70c4 0 6.66699 -1.16699 8 -3.5s1 -5.16602 -1 -8.49902l-108 -159
c-0.666992 -2 -0.666992 -4 0 -6l108 -159zM422 113.999c0 -4.66699 -3 -7.00098 -9 -7.00098h-70c-5.33301 0 -9.33301 2 -12 6l-107 161c-1.33301 2 -2 4.33301 -2 7s0.666992 5 2 7l107 161c3.33301 4 7.33301 6 12 6h70c4 0 6.66699 -1.16699 8 -3.5
s1 -5.16602 -1 -8.49902l-108 -159c-0.666992 -2 -0.666992 -4 0 -6l108 -159z" />
    <glyph glyph-name="logicalnot" unicode="&#xac;" horiz-adv-x="468" 
d="M42 350h383c6.66699 0 10 -3.33301 10 -10v-169c0 -6.66699 -3.33301 -10 -10 -10h-59c-6.66699 0 -10 3.33301 -10 10v97c0 2.66699 -1.33301 4 -4 4h-310c-6.66699 0 -10 3.33301 -10 10v58c0 6.66699 3.33301 10 10 10z" />
    <glyph glyph-name="uni00AD" unicode="&#xad;" horiz-adv-x="360" 
d="M32 274v63c0 6.66699 3.33301 10 10 10h275c6.66699 0 10 -3.33301 10 -10v-63c0 -6.66699 -3.33301 -10 -10 -10h-275c-6.66699 0 -10 3.33301 -10 10z" />
    <glyph glyph-name="registered" unicode="&#xae;" horiz-adv-x="443" 
d="M322.5 686.5c30.333 -17 54.166 -40.333 71.499 -70s26 -62.5 26 -98.5c0 -37.333 -8.66699 -71.333 -26 -102s-41.166 -54.667 -71.499 -72s-64.166 -26 -101.499 -26c-36.667 0 -70.167 8.66699 -100.5 26s-54.333 41.333 -72 72s-26.5 64.667 -26.5 102
c0 36 8.83301 68.833 26.5 98.5s41.667 53 72 70s63.833 25.5 100.5 25.5c37.333 0 71.166 -8.5 101.499 -25.5zM299 382.5c23.333 13.667 41.833 32.334 55.5 56.001s20.5 50.167 20.5 79.5c0 27.333 -6.83301 52.5 -20.5 75.5s-32.167 41.167 -55.5 54.5
s-49.333 20 -78 20c-28 0 -53.667 -6.66699 -77 -20s-41.833 -31.5 -55.5 -54.5s-20.5 -48.167 -20.5 -75.5c0 -29.333 6.66699 -55.833 20 -79.5s31.833 -42.334 55.5 -56.001s49.5 -20.5 77.5 -20.5c28.667 0 54.667 6.83301 78 20.5zM261 505c-2 -2 -2.66699 -4 -2 -6
l25 -62c0.666992 -1.33301 1 -3 1 -5c0 -4.66699 -2.66699 -7 -8 -7h-19c-6 0 -10 2.66699 -12 8l-23 63c-0.666992 2 -2 3 -4 3h-12c-2.66699 0 -4 -1.33301 -4 -4v-60c0 -6.66699 -3.33301 -10 -10 -10h-16c-6.66699 0 -10 3.33301 -10 10v161c0 6.66699 3.33301 10 10 10
h56c16 0 29 -5.16699 39 -15.5s15 -23.5 15 -39.5c0 -22 -8.66699 -37.333 -26 -46zM203 571v-40.999c0 -2.66699 1.33301 -4 4 -4h21c6.66699 0 12.167 2.16699 16.5 6.5s6.5 10.166 6.5 17.499c0 8 -2 14.167 -6 18.5s-9.66699 6.5 -17 6.5h-21
c-2.66699 0 -4 -1.33301 -4 -4z" />
    <glyph glyph-name="macron" unicode="&#xaf;" horiz-adv-x="357" 
d="M56 599v48c0 6.66699 3.33301 10 10 10h224c6.66699 0 10 -3.33301 10 -10v-48c0 -6.66699 -3.33301 -10 -10 -10h-224c-6.66699 0 -10 3.33301 -10 10z" />
    <glyph glyph-name="degree" unicode="&#xb0;" horiz-adv-x="369" 
d="M102.5 504c-25 14.667 -44.667 34.5 -59 59.5s-21.5 52.5 -21.5 82.5s7.16699 57.333 21.5 82s34 44.167 59 58.5s52.167 21.5 81.5 21.5c30 0 57.5 -7.16699 82.5 -21.5s44.667 -33.833 59 -58.5s21.5 -52 21.5 -82s-7.16699 -57.5 -21.5 -82.5s-34 -44.833 -59 -59.5
s-52.5 -22 -82.5 -22c-29.333 0 -56.5 7.33301 -81.5 22zM253 575.5c18.667 19 28 42.5 28 70.5c0 27.333 -9.33301 50.666 -28 69.999s-41.667 29 -69 29c-26.667 0 -49.5 -9.66699 -68.5 -29s-28.5 -42.666 -28.5 -69.999c0 -28 9.33301 -51.5 28 -70.5
s41.667 -28.5 69 -28.5s50.333 9.5 69 28.5z" />
    <glyph glyph-name="plusminus" unicode="&#xb1;" horiz-adv-x="468" 
d="M435 394v-58c0 -6.66699 -3.33301 -10 -10 -10h-148c-2.66699 0 -4 -1.33301 -4 -4v-147c0 -6.66699 -3.33301 -10 -10 -10h-58c-6.66699 0 -10 3.33301 -10 10v147c0 2.66699 -1.33301 4 -4 4h-149c-6.66699 0 -10 3.33301 -10 10v58c0 6.66699 3.33301 10 10 10h149
c2.66699 0 4 1.33301 4 4v150c0 6.66699 3.33301 10 10 10h58c6.66699 0 10 -3.33301 10 -10v-150c0 -2.66699 1.33301 -4 4 -4h148c6.66699 0 10 -3.33301 10 -10zM32 21v58c0 6.66699 3.33301 10 10 10h383c6.66699 0 10 -3.33301 10 -10v-58
c0 -6.66699 -3.33301 -10 -10 -10h-383c-6.66699 0 -10 3.33301 -10 10z" />
    <glyph glyph-name="uni00B2" unicode="&#xb2;" horiz-adv-x="292" 
d="M27 443l0.000976562 38.999c0 4.66699 1.33301 8.66699 4 12l17 21c45.333 56 79.666 100 102.999 132c30 42 45 74.667 45 98c0 17.333 -4.83301 31 -14.5 41s-22.5 15 -38.5 15c-15.333 0 -27.833 -5 -37.5 -15s-14.5 -23.333 -14.5 -40v-17
c0 -6.66699 -3.33301 -10 -10 -10h-46c-6.66699 0 -10 3.33301 -10 10v23c1.33301 32 13 57.667 35 77s50 29 84 29c35.333 0 63.666 -10.167 84.999 -30.5s32 -48.166 32 -83.499c0 -34.667 -14.333 -73 -43 -115c-21.333 -30.667 -50.666 -70 -87.999 -118l-13 -17
c-2 -3.33301 -1.33301 -5 2 -5h142c6.66699 0 10 -3.33301 10 -10v-36c0 -6.66699 -3.33301 -10 -10 -10h-224c-6.66699 0 -10 3.33301 -10 10z" />
    <glyph glyph-name="uni00B3" unicode="&#xb3;" horiz-adv-x="296" 
d="M266 563c0 -24 -3.33301 -43.999 -10 -59.999c-7.33301 -24.667 -20.333 -43.667 -39 -57s-42 -20 -70 -20c-29.333 0 -54.166 8.16699 -74.499 24.5s-33.5 37.833 -39.5 64.5c-2.66699 10.667 -4 23.334 -4 38.001c0 6.66699 3.33301 10 10 10h44
c6.66699 0 10 -3.33301 10 -10c1.33301 -12 2.66602 -20 3.99902 -24c3.33301 -14 9.33301 -25.167 18 -33.5s19.334 -12.5 32.001 -12.5c22 0 37.667 10.667 47 32c5.33301 14.667 8 32 8 52c0 23.333 -2.66699 41.333 -8 54c-9.33301 22 -25 33 -47 33
c-6.66699 0 -12.334 -1.33301 -17.001 -4c-5.33301 -3.33301 -10 -3 -14 1l-22 25c-2 2 -3 4.33301 -3 7s1 5 3 7l87 101c2 3.33301 1.33301 5 -2 5h-135c-6.66699 0 -10 3.33301 -10 10v35c0 6.66699 3.33301 10 10 10h208c6.66699 0 10 -3.33301 10 -10v-38
c0 -4.66699 -1.33301 -8.66699 -4 -12l-75 -91c-2 -2.66699 -1.66699 -4.33398 1 -5.00098c16.667 -2.66699 31.167 -9.83398 43.5 -21.501s21.5 -26.5 27.5 -44.5c7.33301 -20 11 -42 11 -66z" />
    <glyph glyph-name="acute" unicode="&#xb4;" horiz-adv-x="202" 
d="M29 576.5c-1.33301 2.33301 -1 5.16602 1 8.49902l59 108c2 4.66699 6 7 12 7h64c4 0 6.66699 -1.16699 8 -3.5s1 -5.16602 -1 -8.49902l-72 -109c-3.33301 -4 -7.33301 -6 -12 -6h-51c-4 0 -6.66699 1.16699 -8 3.5z" />
    <glyph glyph-name="uni00B5" unicode="&#xb5;" horiz-adv-x="492" 
d="M344 509h75c6.66699 0 10 -3.33301 10 -10v-489c0 -6.66699 -3.33301 -10 -10 -10h-75c-6.66699 -0 -10 3.33301 -10 10v32c0 1.33301 -0.5 2.33301 -1.5 3s-2.16699 0.333984 -3.5 -0.999023c-23.333 -34 -60 -51 -110 -51c-20 0 -39 2.66699 -57 8
c-3.33301 1.33301 -5 0.333008 -5 -3v-188c0 -6.66699 -3.33301 -10 -10 -10h-76c-6.66699 0 -10 3.33301 -10 10v689c0 6.66699 3.33301 10 10 10h76c6.66699 0 10 -3.33301 10 -10v-324c0 -32 7.33301 -56.5 22 -73.5s36 -25.5 64 -25.5s50.167 9.16699 66.5 27.5
s24.5 43.166 24.5 74.499v321c0 6.66699 3.33301 10 10 10z" />
    <glyph glyph-name="paragraph" unicode="&#xb6;" horiz-adv-x="540" 
d="M460 700c6.66699 0 10 -3.33105 10 -9.99805v-880c0 -6.66699 -3.33301 -10 -10 -10h-56c-6.66699 0 -10 3.33301 -10 10v812c0 2.66699 -1.33301 4 -4 4h-93c-2.66699 0 -4 -1.33301 -4 -4v-812c0 -6.66699 -3.33301 -10 -10 -10h-58c-6.66699 0 -10 3.33301 -10 10v437
c0 2.66699 -1.33301 4 -4 4c-54 5.33301 -97.5 28.666 -130.5 69.999s-49.5 92.666 -49.5 153.999c0 42.667 8.5 81 25.5 115s41 60.833 72 80.5s66.5 29.5 106.5 29.5h225z" />
    <glyph glyph-name="periodcentered" unicode="&#xb7;" horiz-adv-x="213" 
d="M61 237c-12 12 -18 27.333 -18 46s6 34 18 46s27.333 18 46 18s34 -6 46 -18s18 -27.333 18 -46s-6 -34 -18 -46s-27.333 -18 -46 -18s-34 6 -46 18z" />
    <glyph glyph-name="cedilla" unicode="&#xb8;" horiz-adv-x="141" 
d="M3 -170l4.99902 32.001c0.666992 2.66699 2 4.83398 4 6.50098s4.66699 2.16699 8 1.5c6.66699 -1.33301 12 -2 16 -2c12 0 21.667 3.33301 29 10s11 17 11 31c0 25.333 -15.333 51.666 -46 78.999c-2.66699 2 -4 4 -4 6c0 4 3 6 9 6h41c4.66699 0 8 -1 10 -3l4 -4
c34.667 -30 52 -62.333 52 -97c0 -8.66699 -1 -16.334 -3 -23.001c-5.33301 -22 -15.666 -37.667 -30.999 -47s-33.333 -14 -54 -14c-12.667 0 -27 2 -43 6c-6 2 -8.66699 6 -8 12z" />
    <glyph glyph-name="uni00B9" unicode="&#xb9;" horiz-adv-x="169" 
d="M76 853h49c6.66699 0 10 -3.33301 10 -10v-400c0 -6.66699 -3.33301 -10 -10 -10h-45c-6.66699 0 -10 3.33301 -10 10v347c0 2.66699 -1.33301 3.66699 -4 3l-35 -6h-2c-6 0 -9 3 -9 9v29c0 5.33301 2.66699 9 8 11l36 15c2.66699 1.33301 6.66699 2 12 2z" />
    <glyph glyph-name="ordmasculine" unicode="&#xba;" horiz-adv-x="321" 
d="M79 390.5c-21.333 17.667 -34.665 41.835 -39.998 72.502c-4 21.333 -6 45.666 -6 72.999c0 26 1.66699 50.667 5 74c5.33301 30 18.666 53.833 39.999 71.5s48.666 26.5 81.999 26.5c32.667 0 59.5 -8.83301 80.5 -26.5s34.167 -41.5 39.5 -71.5c4 -20.667 6 -45 6 -73
c0 -27.333 -2 -52 -6 -74c-5.33301 -30.667 -18.5 -54.834 -39.5 -72.501s-47.833 -26.5 -80.5 -26.5s-59.667 8.83301 -81 26.5zM198.001 434.001c10.667 10 17.334 22.999 20.001 38.999c2.66699 18 4 39 4 63c0 24.667 -1 45.334 -3 62.001
c-3.33301 16.667 -10.333 30 -21 40s-23.334 15 -38.001 15c-15.333 0 -28.333 -5 -39 -15s-17.334 -23.333 -20.001 -40c-2.66699 -15.333 -4 -36 -4 -62c0 -16.667 1.33301 -37.667 4 -63c2 -16 8.5 -29 19.5 -39s24.167 -15 39.5 -15c14.667 0 27.334 5 38.001 15z
M25.001 262v42c0 6.66699 3.33301 10 10 10h251c6.66699 0 10 -3.33301 10 -10v-42c0 -6.66699 -3.33301 -10 -10 -10h-251c-6.66699 0 -10 3.33301 -10 10z" />
    <glyph glyph-name="guillemotright" unicode="&#xbb;" horiz-adv-x="498" 
d="M79 110.5c-1.33301 2.33301 -1 5.16699 1 8.5l108 159c1.33301 2 1.33301 4 0 6l-108 159l-2 5c0 4.66699 3 7 9 7h70c5.33301 0 9.33301 -2 12 -6l108 -161c1.33301 -2 2 -4.33301 2 -7s-0.666992 -5 -2 -7l-108 -161c-2.66699 -4 -6.66699 -6 -12 -6h-70
c-4 0 -6.66699 1.16699 -8 3.5zM237 110.501c-1.33301 2.33301 -1 5.16699 1 8.5l108 159c1.33301 2 1.33301 4 0 6l-108 159l-2 5c0 4.66699 3 7 9 7h70c5.33301 0 9.33301 -2 12 -6l108 -161c1.33301 -2 2 -4.33301 2 -7s-0.666992 -5 -2 -7l-108 -161
c-2.66699 -4 -6.66699 -6 -12 -6h-70c-4 0 -6.66699 1.16699 -8 3.5z" />
    <glyph glyph-name="onequarter" unicode="&#xbc;" horiz-adv-x="748" 
d="M76 700h49c6.66699 0 10 -3.33301 10 -10v-400c0 -6.66699 -3.33301 -10 -10 -10h-45c-6.66699 0 -10 3.33301 -10 10v347c0 2.66699 -1.33301 3.66699 -4 3l-35 -6h-2c-6 0 -9 3 -9 9v29c0 5.33301 2.66699 9 8 11l36 15c2.66699 1.33301 6.66699 2 12 2zM85 3.5
c-1.33301 2.33301 -1 5.16602 1 8.49902l420 681c3.33301 4.66699 7.33301 7 12 7h49c4 0 6.66699 -1.16699 8 -3.5s1 -5.16602 -1 -8.49902l-419 -681c-3.33301 -4.66699 -7.33301 -7 -12 -7h-50c-4 0 -6.66699 1.16699 -8 3.5zM721 159l-0.000976562 -39.001
c0 -6.66699 -3.33301 -10 -10 -10h-17c-2.66699 0 -4 -1.33301 -4 -4v-96c0 -6.66699 -3.33301 -10 -10 -10h-45c-6.66699 0 -10 3.33301 -10 10v96c0 2.66699 -1.33301 4 -4 4h-158c-6.66699 0 -10 3.33301 -10 10v33c0 4.66699 0.666992 8.66699 2 12l99 247
c2 5.33301 5.66699 8 11 8h48c3.33301 0 5.83301 -1.16699 7.5 -3.5s1.83398 -5.16602 0.500977 -8.49902l-91 -234c-0.666992 -1.33301 -0.666992 -2.5 0 -3.5s1.66699 -1.5 3 -1.5h88c2.66699 0 4 1.33301 4 4v76c0 6.66699 3.33301 10 10 10h45
c6.66699 0 10 -3.33301 10 -10v-76c0 -2.66699 1.33301 -4 4 -4h17c6.66699 0 10 -3.33301 10 -10z" />
    <glyph glyph-name="onehalf" unicode="&#xbd;" horiz-adv-x="736" 
d="M76 700h49c6.66699 0 10 -3.33301 10 -10v-400c0 -6.66699 -3.33301 -10 -10 -10h-45c-6.66699 0 -10 3.33301 -10 10v347c0 2.66699 -1.33301 3.66699 -4 3l-35 -6h-2c-6 0 -9 3 -9 9v29c0 5.33301 2.66699 9 8 11l36 15c2.66699 1.33301 6.66699 2 12 2zM85 3.5
c-1.33301 2.33301 -1 5.16602 1 8.49902l420 681c3.33301 4.66699 7.33301 7 12 7h49c4 0 6.66699 -1.16699 8 -3.5s1 -5.16602 -1 -8.49902l-419 -681c-3.33301 -4.66699 -7.33301 -7 -12 -7h-50c-4 0 -6.66699 1.16699 -8 3.5zM466 10l0.000976562 38.999
c0 4.66699 1.33301 8.66699 4 12l17 21c45.333 56 79.666 100 102.999 132c30 42 45 74.667 45 98c0 17.333 -4.83301 31 -14.5 41s-22.5 15 -38.5 15c-15.333 0 -27.833 -5 -37.5 -15s-14.5 -23.333 -14.5 -40v-17c0 -6.66699 -3.33301 -10 -10 -10h-46
c-6.66699 0 -10 3.33301 -10 10v23c1.33301 32 13 57.667 35 77s50 29 84 29c35.333 0 63.666 -10.167 84.999 -30.5s32 -48.166 32 -83.499c0 -34.667 -14.333 -73 -43 -115c-21.333 -30.667 -50.666 -70 -87.999 -118l-13 -17c-2 -3.33301 -1.33301 -5 2 -5h142
c6.66699 0 10 -3.33301 10 -10v-36c0 -6.66699 -3.33301 -10 -10 -10h-224c-6.66699 -0 -10 3.33301 -10 10z" />
    <glyph glyph-name="threequarters" unicode="&#xbe;" horiz-adv-x="830" 
d="M266 413c0 -24 -3.33301 -43.999 -10 -59.999c-7.33301 -24.667 -20.333 -43.667 -39 -57s-42 -20 -70 -20c-29.333 0 -54.166 8.16699 -74.499 24.5s-33.5 37.833 -39.5 64.5c-2.66699 10.667 -4 23.334 -4 38.001c0 6.66699 3.33301 10 10 10h44
c6.66699 0 10 -3.33301 10 -10c1.33301 -12 2.66602 -20 3.99902 -24c3.33301 -14 9.33301 -25.167 18 -33.5s19.334 -12.5 32.001 -12.5c22 0 37.667 10.667 47 32c5.33301 14.667 8 32 8 52c0 23.333 -2.66699 41.333 -8 54c-9.33301 22 -25 33 -47 33
c-6.66699 0 -12.334 -1.33301 -17.001 -4c-5.33301 -3.33301 -10 -3 -14 1l-22 25c-2 2 -3 4.33301 -3 7s1 5 3 7l87 101c2 3.33301 1.33301 5 -2 5h-135c-6.66699 0 -10 3.33301 -10 10v35c0 6.66699 3.33301 10 10 10h208c6.66699 0 10 -3.33301 10 -10v-38
c0 -4.66699 -1.33301 -8.66699 -4 -12l-75 -91c-2 -2.66699 -1.66699 -4.33398 1 -5.00098c16.667 -2.66699 31.167 -9.83398 43.5 -21.501s21.5 -26.5 27.5 -44.5c7.33301 -20 11 -42 11 -66zM169 3.50098c-1.33301 2.33301 -1 5.16602 1 8.49902l420 681
c3.33301 4.66699 7.33301 7 12 7h49c4 0 6.66699 -1.16699 8 -3.5s1 -5.16602 -1 -8.49902l-419 -681c-3.33301 -4.66699 -7.33301 -7 -12 -7h-50c-4 0 -6.66699 1.16699 -8 3.5zM806 159.001l-0.000976562 -39.001c0 -6.66699 -3.33301 -10 -10 -10h-17
c-2.66699 0 -4 -1.33301 -4 -4v-96c0 -6.66699 -3.33301 -10 -10 -10h-45c-6.66699 -0 -10 3.33301 -10 10v96c0 2.66699 -1.33301 4 -4 4h-158c-6.66699 0 -10 3.33301 -10 10v33c0 4.66699 0.666992 8.66699 2 12l99 247c2 5.33301 5.66699 8 11 8h48
c3.33301 0 5.83301 -1.16699 7.5 -3.5s1.83398 -5.16602 0.500977 -8.49902l-91 -234c-0.666992 -1.33301 -0.666992 -2.5 0 -3.5s1.66699 -1.5 3 -1.5h88c2.66699 0 4 1.33301 4 4v76c0 6.66699 3.33301 10 10 10h45c6.66699 0 10 -3.33301 10 -10v-76
c0 -2.66699 1.33301 -4 4 -4h17c6.66699 0 10 -3.33301 10 -10z" />
    <glyph glyph-name="questiondown" unicode="&#xbf;" horiz-adv-x="438" 
d="M282 481c12 -12 18 -27.333 18 -46s-6 -34 -18 -46s-27.333 -18 -46 -18s-34 6 -46 18s-18 27.333 -18 46s6 34 18 46s27.333 18 46 18s34 -6 46 -18zM283 282l0.000976562 -49.9971c0 -30 -6.83301 -54.667 -20.5 -74s-33.834 -40 -60.501 -62
c-24.667 -20.667 -43.167 -39.334 -55.5 -56.001s-18.5 -38 -18.5 -64c0 -30 8.16699 -53.833 24.5 -71.5s38.166 -26.5 65.499 -26.5c28 0 50.667 9.16699 68 27.5s26 42.5 26 72.5v26c0 6.66699 3.33301 10 10 10l76 -4c6.66699 0 10 -3.33301 10 -10v-22
c0 -56 -17.667 -101.167 -53 -135.5s-81.666 -51.5 -138.999 -51.5c-56 0 -100.667 16.5 -134 49.5s-50 77.167 -50 132.5c0 29.333 4.5 54.666 13.5 75.999s19.667 38.666 32 51.999s28.5 28.333 48.5 45c20.667 17.333 36 32.333 46 45s15 28 15 46v45
c0 6.66699 3.33301 10 10 10h76c6.66699 0 10 -3.33301 10 -10z" />
    <glyph glyph-name="Agrave" unicode="&#xc0;" horiz-adv-x="533" 
d="M411 9l-29.998 116c-0.666992 2 -2.33398 3 -5.00098 3h-221c-3.33301 0 -5 -1 -5 -3l-29 -116c-0.666992 -6 -4.33398 -9 -11.001 -9h-78c-3.33301 0 -5.83301 1 -7.5 3s-2.16699 4.66699 -1.5 8l185 680c1.33301 6 5 9 11 9h94c6 0 9.66699 -3 11 -9l186 -680l1 -3
c0 -5.33301 -3.33301 -8 -10 -8h-79c-6 0 -9.66699 3 -11 9zM171.502 205.5c1 -1 2.16895 -1.5 3.50195 -1.5h181c1.33301 0 2.5 0.5 3.5 1.5s1.16699 1.83301 0.5 2.5l-93 362c-0.666992 1.33301 -1.33398 2 -2.00098 2s-1.33398 -0.666992 -2.00098 -2l-92 -362
c-0.666992 -0.666992 -0.5 -1.5 0.5 -2.5zM300.004 770c0 -4 -3 -6 -9 -6h-51c-4.66699 0 -8.66699 2 -12 6l-72 109l-2 5c0 4.66699 3 7 9 7h63c5.33301 0 9.33301 -2.33301 12 -7l60 -108c1.33301 -2.66699 2 -4.66699 2 -6z" />
    <glyph glyph-name="Aacute" unicode="&#xc1;" horiz-adv-x="533" 
d="M411 9l-29.998 116c-0.666992 2 -2.33398 3 -5.00098 3h-221c-3.33301 0 -5 -1 -5 -3l-29 -116c-0.666992 -6 -4.33398 -9 -11.001 -9h-78c-3.33301 0 -5.83301 1 -7.5 3s-2.16699 4.66699 -1.5 8l185 680c1.33301 6 5 9 11 9h94c6 0 9.66699 -3 11 -9l186 -680l1 -3
c0 -5.33301 -3.33301 -8 -10 -8h-79c-6 0 -9.66699 3 -11 9zM171.502 205.5c1 -1 2.16895 -1.5 3.50195 -1.5h181c1.33301 0 2.5 0.5 3.5 1.5s1.16699 1.83301 0.5 2.5l-93 362c-0.666992 1.33301 -1.33398 2 -2.00098 2s-1.33398 -0.666992 -2.00098 -2l-92 -362
c-0.666992 -0.666992 -0.5 -1.5 0.5 -2.5zM216.004 767.5c-1.33301 2.33301 -1 5.16602 1 8.49902l59 108c2 4.66699 6 7 12 7h64c4 0 6.66699 -1.16699 8 -3.5s1 -5.16602 -1 -8.49902l-72 -109c-3.33301 -4 -7.33301 -6 -12 -6h-51c-4 0 -6.66699 1.16699 -8 3.5z" />
    <glyph glyph-name="Acircumflex" unicode="&#xc2;" horiz-adv-x="533" 
d="M411 9l-29.998 116c-0.666992 2 -2.33398 3 -5.00098 3h-221c-3.33301 0 -5 -1 -5 -3l-29 -116c-0.666992 -6 -4.33398 -9 -11.001 -9h-78c-3.33301 0 -5.83301 1 -7.5 3s-2.16699 4.66699 -1.5 8l185 680c1.33301 6 5 9 11 9h94c6 0 9.66699 -3 11 -9l186 -680l1 -3
c0 -5.33301 -3.33301 -8 -10 -8h-79c-6 0 -9.66699 3 -11 9zM171.502 205.5c1 -1 2.16895 -1.5 3.50195 -1.5h181c1.33301 0 2.5 0.5 3.5 1.5s1.16699 1.83301 0.5 2.5l-93 362c-0.666992 1.33301 -1.33398 2 -2.00098 2s-1.33398 -0.666992 -2.00098 -2l-92 -362
c-0.666992 -0.666992 -0.5 -1.5 0.5 -2.5zM135.004 769.5c-1.33301 2.33301 -1 5.16699 1 8.5l73 107c2.66699 4 6.66699 6 12 6h85c5.33301 0 9.33301 -2 12 -6l75 -107c1.33301 -1.33301 2 -3 2 -5c0 -4.66699 -3 -7 -9 -7h-60c-4.66699 0 -8.66699 2.33301 -12 7l-46 72
c-0.666992 1.33301 -1.66699 2 -3 2s-2.33301 -0.666992 -3 -2l-47 -72c-3.33301 -4.66699 -7.33301 -7 -12 -7h-60c-4 0 -6.66699 1.16699 -8 3.5z" />
    <glyph glyph-name="Atilde" unicode="&#xc3;" horiz-adv-x="533" 
d="M411 9l-29.998 116c-0.666992 2 -2.33398 3 -5.00098 3h-221c-3.33301 0 -5 -1 -5 -3l-29 -116c-0.666992 -6 -4.33398 -9 -11.001 -9h-78c-3.33301 0 -5.83301 1 -7.5 3s-2.16699 4.66699 -1.5 8l185 680c1.33301 6 5 9 11 9h94c6 0 9.66699 -3 11 -9l186 -680l1 -3
c0 -5.33301 -3.33301 -8 -10 -8h-79c-6 0 -9.66699 3 -11 9zM171.502 205.5c1 -1 2.16895 -1.5 3.50195 -1.5h181c1.33301 0 2.5 0.5 3.5 1.5s1.16699 1.83301 0.5 2.5l-93 362c-0.666992 1.33301 -1.33398 2 -2.00098 2s-1.33398 -0.666992 -2.00098 -2l-92 -362
c-0.666992 -0.666992 -0.5 -1.5 0.5 -2.5zM296.004 795c-8.66699 3.33301 -18.3301 8.33301 -28.9971 15l-14.5 8.5c-6.33301 3.66699 -11.833 6.33398 -16.5 8.00098s-9.66699 2.5 -15 2.5c-9.33301 0 -17.666 -1.83301 -24.999 -5.5s-14.333 -10.167 -21 -19.5
c-4 -6 -8.66699 -7 -14 -3l-28 22c-4.66699 4 -5.66699 8.33301 -3 13c9.33301 19.333 21.333 33.833 36 43.5s31 14.5 49 14.5c11.333 0 21.666 -2 30.999 -6s19.666 -9.66699 30.999 -17l14 -8.5c6 -3.66699 11.5 -6.5 16.5 -8.5s10.167 -3 15.5 -3
c19.333 0 34.666 9 45.999 27c4 6 8.66699 7 14 3l27 -21c2.66699 -2.66699 4 -5.33398 4 -8.00098s-1 -5.66699 -3 -9c-10 -18 -22.833 -31.333 -38.5 -40s-31.834 -13 -48.501 -13c-10 0 -19.333 1.66699 -28 5z" />
    <glyph glyph-name="Adieresis" unicode="&#xc4;" horiz-adv-x="533" 
d="M411 9l-29.998 116c-0.666992 2 -2.33398 3 -5.00098 3h-221c-3.33301 0 -5 -1 -5 -3l-29 -116c-0.666992 -6 -4.33398 -9 -11.001 -9h-78c-3.33301 0 -5.83301 1 -7.5 3s-2.16699 4.66699 -1.5 8l185 680c1.33301 6 5 9 11 9h94c6 0 9.66699 -3 11 -9l186 -680l1 -3
c0 -5.33301 -3.33301 -8 -10 -8h-79c-6 0 -9.66699 3 -11 9zM171.502 205.5c1 -1 2.16895 -1.5 3.50195 -1.5h181c1.33301 0 2.5 0.5 3.5 1.5s1.16699 1.83301 0.5 2.5l-93 362c-0.666992 1.33301 -1.33398 2 -2.00098 2s-1.33398 -0.666992 -2.00098 -2l-92 -362
c-0.666992 -0.666992 -0.5 -1.5 0.5 -2.5zM305.004 800c-12 12 -18 27.333 -18 46s6 34 18 46s27.333 18 46 18s34 -6 46 -18s18 -27.333 18 -46s-6 -34 -18 -46s-27.333 -18 -46 -18s-34 6 -46 18zM133.004 800c-12 12 -18 27.333 -18 46s6 34 18 46s27.333 18 46 18
s34 -6 46 -18s18 -27.333 18 -46s-6 -34 -18 -46s-27.333 -18 -46 -18s-34 6 -46 18z" />
    <glyph glyph-name="Aring" unicode="&#xc5;" horiz-adv-x="533" 
d="M411 9l-29.998 116c-0.666992 2 -2.33398 3 -5.00098 3h-221c-3.33301 0 -5 -1 -5 -3l-29 -116c-0.666992 -6 -4.33398 -9 -11.001 -9h-78c-3.33301 0 -5.83301 1 -7.5 3s-2.16699 4.66699 -1.5 8l185 680c1.33301 6 5 9 11 9h94c6 0 9.66699 -3 11 -9l186 -680l1 -3
c0 -5.33301 -3.33301 -8 -10 -8h-79c-6 0 -9.66699 3 -11 9zM171.502 205.5c1 -1 2.16895 -1.5 3.50195 -1.5h181c1.33301 0 2.5 0.5 3.5 1.5s1.16699 1.83301 0.5 2.5l-93 362c-0.666992 1.33301 -1.33398 2 -2.00098 2s-1.33398 -0.666992 -2.00098 -2l-92 -362
c-0.666992 -0.666992 -0.5 -1.5 0.5 -2.5zM185.004 797c-22 22 -33 49 -33 81s11 58.833 33 80.5s49 32.5 81 32.5s59 -10.833 81 -32.5s33 -48.5 33 -80.5s-11 -59 -33 -81s-49 -33 -81 -33s-59 11 -81 33zM307.504 835.5c11.667 11.667 17.5 25.834 17.5 42.501
s-5.83301 30.834 -17.5 42.501s-25.5 17.5 -41.5 17.5c-16.667 0 -30.667 -5.83301 -42 -17.5s-17 -25.834 -17 -42.501s5.66699 -30.834 17 -42.501s25.333 -17.5 42 -17.5c16 0 29.833 5.83301 41.5 17.5z" />
    <glyph glyph-name="AE" unicode="&#xc6;" horiz-adv-x="827" 
d="M774 617l-279.002 0.000976562c-2.66699 0 -4 -1.33301 -4 -4v-216c0 -2.66699 1.33301 -4 4 -4h180c6.66699 0 10 -3.33301 10 -10v-63c0 -6.66699 -3.33301 -10 -10 -10h-180c-2.66699 0 -4 -1.33301 -4 -4v-219c0 -2.66699 1.33301 -4 4 -4h279
c6.66699 0 10 -3.33301 10 -10v-63c0 -6.66699 -3.33301 -10 -10 -10h-370c-6.66699 0 -10 3.33301 -10 10v114c0 2.66699 -1.33301 4 -4 4h-204c-1.33301 0 -2.66602 -1 -3.99902 -3l-56 -118c-2 -4.66699 -5.66699 -7 -11 -7h-82
c-3.33301 0 -5.66602 1.16699 -6.99902 3.5s-1.33301 5.16602 0 8.49902l322 681c2 4.66699 6 7 12 7h414c6.66699 0 10 -3.33301 10 -10v-63c0 -6.66699 -3.33301 -10 -10 -10zM219.998 205.501c0.666992 -1 1.66699 -1.5 3 -1.5h167c2.66699 0 4 1.33301 4 4l1 365
c0 2 -0.5 3 -1.5 3s-2.16699 -0.666992 -3.5 -2l-170 -365c-0.666992 -1.33301 -0.666992 -2.5 0 -3.5z" />
    <glyph glyph-name="Ccedilla" unicode="&#xc7;" horiz-adv-x="530" 
d="M477 491c-2 -2 -4.33105 -2.99805 -6.99805 -2.99805l-76 -4c-6.66699 0 -10 3.33301 -10 10v15c0 34.667 -10.667 62.667 -32 84s-49.333 32 -84 32s-62.834 -10.667 -84.501 -32s-32.5 -49.333 -32.5 -84v-318c0 -34.667 10.833 -62.667 32.5 -84
s49.834 -32 84.501 -32s62.667 10.667 84 32s32 49.333 32 84v14c0 6.66699 3.33301 10 10 10l76 -4c6.66699 0 10 -3.33301 10 -10v-7c0 -56.667 -16.833 -102.834 -50.5 -138.501s-78.834 -56.167 -135.501 -61.5c-4 -1.33301 -4.33301 -3 -1 -5
c28.667 -28.667 43 -58.667 43 -90c0 -8 -1 -16 -3 -24c-5.33301 -22 -15.833 -37.667 -31.5 -47s-33.834 -14 -54.501 -14c-12 0 -26 2 -42 6c-6 2 -8.66699 6 -8 12l5 33c0.666992 3.33301 2.16699 5.5 4.5 6.5s4.83301 1.16699 7.5 0.5c6.66699 -1.33301 12 -2 16 -2
c22 0 35 10.667 39 32c0.666992 2.66699 1 6.33398 1 11.001c0 12.667 -4.66699 26.167 -14 40.5s-22 28.166 -38 41.499c0 0.666992 -1.66699 1.66699 -5 3c-48.667 9.33301 -87.167 31.833 -115.5 67.5s-42.5 79.5 -42.5 131.5v307c0 62 19.5 111.5 58.5 148.5
s90.5 55.5 154.5 55.5s115.333 -18.333 154 -55s58 -85.334 58 -146.001v-9c0 -2.66699 -1 -5 -3 -7z" />
    <glyph glyph-name="Egrave" unicode="&#xc8;" horiz-adv-x="515" 
d="M462 617h-290c-2.66699 0 -4 -1.33301 -4 -4v-216c0 -2.66699 1.33301 -4 4 -4h191c6.66699 0 10 -3.33301 10 -10v-63c0 -6.66699 -3.33301 -10 -10 -10h-191c-2.66699 0 -4 -1.33301 -4 -4v-219c0 -2.66699 1.33301 -4 4 -4h290c6.66699 0 10 -3.33301 10 -10v-63
c0 -6.66699 -3.33301 -10 -10 -10h-380c-6.66699 -0 -10 3.33301 -10 10v680c0 6.66699 3.33301 10 10 10h380c6.66699 0 10 -3.33301 10 -10v-63c0 -6.66699 -3.33301 -10 -10 -10zM305 770c0 -4 -3 -6 -9 -6h-51c-4.66699 0 -8.66699 2 -12 6l-72 109l-2 5
c0 4.66699 3 7 9 7h63c5.33301 0 9.33301 -2.33301 12 -7l60 -108c1.33301 -2.66699 2 -4.66699 2 -6z" />
    <glyph glyph-name="Eacute" unicode="&#xc9;" horiz-adv-x="515" 
d="M462 617h-290c-2.66699 0 -4 -1.33301 -4 -4v-216c0 -2.66699 1.33301 -4 4 -4h191c6.66699 0 10 -3.33301 10 -10v-63c0 -6.66699 -3.33301 -10 -10 -10h-191c-2.66699 0 -4 -1.33301 -4 -4v-219c0 -2.66699 1.33301 -4 4 -4h290c6.66699 0 10 -3.33301 10 -10v-63
c0 -6.66699 -3.33301 -10 -10 -10h-380c-6.66699 -0 -10 3.33301 -10 10v680c0 6.66699 3.33301 10 10 10h380c6.66699 0 10 -3.33301 10 -10v-63c0 -6.66699 -3.33301 -10 -10 -10zM221 767.5c-1.33301 2.33301 -1 5.16602 1 8.49902l59 108c2 4.66699 6 7 12 7h64
c4 0 6.66699 -1.16699 8 -3.5s1 -5.16602 -1 -8.49902l-72 -109c-3.33301 -4 -7.33301 -6 -12 -6h-51c-4 0 -6.66699 1.16699 -8 3.5z" />
    <glyph glyph-name="Ecircumflex" unicode="&#xca;" horiz-adv-x="515" 
d="M462 617h-290c-2.66699 0 -4 -1.33301 -4 -4v-216c0 -2.66699 1.33301 -4 4 -4h191c6.66699 0 10 -3.33301 10 -10v-63c0 -6.66699 -3.33301 -10 -10 -10h-191c-2.66699 0 -4 -1.33301 -4 -4v-219c0 -2.66699 1.33301 -4 4 -4h290c6.66699 0 10 -3.33301 10 -10v-63
c0 -6.66699 -3.33301 -10 -10 -10h-380c-6.66699 -0 -10 3.33301 -10 10v680c0 6.66699 3.33301 10 10 10h380c6.66699 0 10 -3.33301 10 -10v-63c0 -6.66699 -3.33301 -10 -10 -10zM140 769.5c-1.33301 2.33301 -1 5.16699 1 8.5l73 107c2.66699 4 6.66699 6 12 6h85
c5.33301 0 9.33301 -2 12 -6l75 -107c1.33301 -1.33301 2 -3 2 -5c0 -4.66699 -3 -7 -9 -7h-60c-4.66699 0 -8.66699 2.33301 -12 7l-46 72c-0.666992 1.33301 -1.66699 2 -3 2s-2.33301 -0.666992 -3 -2l-47 -72c-3.33301 -4.66699 -7.33301 -7 -12 -7h-60
c-4 0 -6.66699 1.16699 -8 3.5z" />
    <glyph glyph-name="Edieresis" unicode="&#xcb;" horiz-adv-x="515" 
d="M462 617h-290c-2.66699 0 -4 -1.33301 -4 -4v-216c0 -2.66699 1.33301 -4 4 -4h191c6.66699 0 10 -3.33301 10 -10v-63c0 -6.66699 -3.33301 -10 -10 -10h-191c-2.66699 0 -4 -1.33301 -4 -4v-219c0 -2.66699 1.33301 -4 4 -4h290c6.66699 0 10 -3.33301 10 -10v-63
c0 -6.66699 -3.33301 -10 -10 -10h-380c-6.66699 -0 -10 3.33301 -10 10v680c0 6.66699 3.33301 10 10 10h380c6.66699 0 10 -3.33301 10 -10v-63c0 -6.66699 -3.33301 -10 -10 -10zM310 800c-12 12 -18 27.333 -18 46s6 34 18 46s27.333 18 46 18s34 -6 46 -18
s18 -27.333 18 -46s-6 -34 -18 -46s-27.333 -18 -46 -18s-34 6 -46 18zM138 800c-12 12 -18 27.333 -18 46s6 34 18 46s27.333 18 46 18s34 -6 46 -18s18 -27.333 18 -46s-6 -34 -18 -46s-27.333 -18 -46 -18s-34 6 -46 18z" />
    <glyph glyph-name="Igrave" unicode="&#xcc;" horiz-adv-x="240" 
d="M72 10v680c0 6.66699 3.33301 10 10 10h76c6.66699 0 10 -3.33301 10 -10v-680c0 -6.66699 -3.33301 -10 -10 -10h-76c-6.66699 -0 -10 3.33301 -10 10zM155 770c0 -4 -3 -6 -9 -6h-51c-4.66699 0 -8.66699 2 -12 6l-72 109l-2 5c0 4.66699 3 7 9 7h63
c5.33301 0 9.33301 -2.33301 12 -7l60 -108c1.33301 -2.66699 2 -4.66699 2 -6z" />
    <glyph glyph-name="Iacute" unicode="&#xcd;" horiz-adv-x="240" 
d="M72 10v680c0 6.66699 3.33301 10 10 10h76c6.66699 0 10 -3.33301 10 -10v-680c0 -6.66699 -3.33301 -10 -10 -10h-76c-6.66699 -0 -10 3.33301 -10 10zM70 767.5c-1.33301 2.33301 -1 5.16602 1 8.49902l59 108c2 4.66699 6 7 12 7h64c4 0 6.66699 -1.16699 8 -3.5
s1 -5.16602 -1 -8.49902l-72 -109c-3.33301 -4 -7.33301 -6 -12 -6h-51c-4 0 -6.66699 1.16699 -8 3.5z" />
    <glyph glyph-name="Icircumflex" unicode="&#xce;" horiz-adv-x="240" 
d="M72 10v680c0 6.66699 3.33301 10 10 10h76c6.66699 0 10 -3.33301 10 -10v-680c0 -6.66699 -3.33301 -10 -10 -10h-76c-6.66699 -0 -10 3.33301 -10 10zM-10 769.5c-1.33301 2.33301 -1 5.16699 1 8.5l73 107c2.66699 4 6.66699 6 12 6h85c5.33301 0 9.33301 -2 12 -6
l75 -107c1.33301 -1.33301 2 -3 2 -5c0 -4.66699 -3 -7 -9 -7h-60c-4.66699 0 -8.66699 2.33301 -12 7l-46 72c-0.666992 1.33301 -1.66699 2 -3 2s-2.33301 -0.666992 -3 -2l-47 -72c-3.33301 -4.66699 -7.33301 -7 -12 -7h-60c-4 0 -6.66699 1.16699 -8 3.5z" />
    <glyph glyph-name="Idieresis" unicode="&#xcf;" horiz-adv-x="240" 
d="M72 10v680c0 6.66699 3.33301 10 10 10h76c6.66699 0 10 -3.33301 10 -10v-680c0 -6.66699 -3.33301 -10 -10 -10h-76c-6.66699 -0 -10 3.33301 -10 10zM160 800c-12 12 -18 27.333 -18 46s6 34 18 46s27.333 18 46 18s34 -6 46 -18s18 -27.333 18 -46s-6 -34 -18 -46
s-27.333 -18 -46 -18s-34 6 -46 18zM-12 800c-12 12 -18 27.333 -18 46s6 34 18 46s27.333 18 46 18s34 -6 46 -18s18 -27.333 18 -46s-6 -34 -18 -46s-27.333 -18 -46 -18s-34 6 -46 18z" />
    <glyph glyph-name="Eth" unicode="&#xd0;" horiz-adv-x="593" 
d="M483.5 647.5c37 -35 55.5 -82.167 55.5 -141.5v-312c0 -59.333 -18.5 -106.5 -55.5 -141.5s-86.833 -52.5 -149.5 -52.5h-202c-6.66699 -0 -10 3.33301 -10 10v319c0 2.66699 -1.33301 4 -4 4h-36c-6.66699 0 -10 3.33301 -10 10v43c0 6.66699 3.33301 10 10 10h36
c2.66699 0 4 1.33301 4 4v290c0 6.66699 3.33301 10 10 10h202c62.667 0 112.5 -17.5 149.5 -52.5zM443 496c0 36.667 -9.66699 65.999 -29 87.999s-45.333 33 -78 33h-114c-2.66699 0 -4 -1.33301 -4 -4v-213c0 -2.66699 1.33301 -4 4 -4h84c6.66699 0 10 -3.33301 10 -10
v-43c0 -6.66699 -3.33301 -10 -10 -10h-84c-2.66699 0 -4 -1.33301 -4 -4v-242c0 -2.66699 1.33301 -4 4 -4l114 1c32 0 57.667 10.833 77 32.5s29.333 50.834 30 87.501v292z" />
    <glyph glyph-name="Ntilde" unicode="&#xd1;" horiz-adv-x="587" 
d="M429 700h76c6.66699 0 10 -3.33301 10 -10v-680c0 -6.66699 -3.33301 -10 -10 -10h-80c-6 -0 -10 2.33301 -12 7l-241 485c-1.33301 1.33301 -2.5 2 -3.5 2s-1.5 -1 -1.5 -3l1 -481c0 -6.66699 -3.33301 -10 -10 -10h-76c-6.66699 -0 -10 3.33301 -10 10v680
c0 6.66699 3.33301 10 10 10h80c6 0 10 -2.33301 12 -7l240 -485c1.33301 -1.33301 2.5 -2 3.5 -2s1.5 1 1.5 3v481c0 6.66699 3.33301 10 10 10zM321 798c-8.66699 3.33301 -18.3301 8.33301 -28.9971 15l-14.5 8.5c-6.33301 3.66699 -11.833 6.33398 -16.5 8.00098
s-9.66699 2.5 -15 2.5c-9.33301 0 -17.666 -1.83301 -24.999 -5.5s-14.333 -10.167 -21 -19.5c-4 -6 -8.66699 -7 -14 -3l-28 22c-4.66699 4 -5.66699 8.33301 -3 13c9.33301 19.333 21.333 33.833 36 43.5s31 14.5 49 14.5c11.333 0 21.666 -2 30.999 -6
s19.666 -9.66699 30.999 -17l14 -8.5c6 -3.66699 11.5 -6.5 16.5 -8.5s10.167 -3 15.5 -3c19.333 0 34.666 9 45.999 27c4 6 8.66699 7 14 3l27 -21c2.66699 -2.66699 4 -5.33398 4 -8.00098s-1 -5.66699 -3 -9c-10 -18 -22.833 -31.333 -38.5 -40s-31.834 -13 -48.501 -13
c-10 0 -19.333 1.66699 -28 5z" />
    <glyph glyph-name="Ograve" unicode="&#xd2;" horiz-adv-x="542" 
d="M157.5 17.5c-32.333 17.667 -57.5 42.5 -75.5 74.5s-27 69 -27 111v294c0 41.333 9 78 27 110s43.167 56.833 75.5 74.5s69.833 26.5 112.5 26.5s80.334 -8.83301 113.001 -26.5s58 -42.5 76 -74.5s27 -68.667 27 -110v-294c0 -42 -9 -79 -27 -111
s-43.333 -56.833 -76 -74.5s-70.334 -26.5 -113.001 -26.5s-80.167 8.83301 -112.5 26.5zM357 109c22 22.667 33 52.667 33 90v300c0 37.333 -11 67.666 -33 90.999s-51 35 -87 35c-35.333 0 -64 -11.667 -86 -35s-33 -53.666 -33 -90.999v-300c0 -36.667 11 -66.5 33 -89.5
s50.667 -34.5 86 -34.5c36 0 65 11.333 87 34zM305 770c0 -4 -3 -6 -9 -6h-51c-4.66699 0 -8.66699 2 -12 6l-72 109l-2 5c0 4.66699 3 7 9 7h63c5.33301 0 9.33301 -2.33301 12 -7l60 -108c1.33301 -2.66699 2 -4.66699 2 -6z" />
    <glyph glyph-name="Oacute" unicode="&#xd3;" horiz-adv-x="542" 
d="M157.5 17.5c-32.333 17.667 -57.5 42.5 -75.5 74.5s-27 69 -27 111v294c0 41.333 9 78 27 110s43.167 56.833 75.5 74.5s69.833 26.5 112.5 26.5s80.334 -8.83301 113.001 -26.5s58 -42.5 76 -74.5s27 -68.667 27 -110v-294c0 -42 -9 -79 -27 -111
s-43.333 -56.833 -76 -74.5s-70.334 -26.5 -113.001 -26.5s-80.167 8.83301 -112.5 26.5zM357 109c22 22.667 33 52.667 33 90v300c0 37.333 -11 67.666 -33 90.999s-51 35 -87 35c-35.333 0 -64 -11.667 -86 -35s-33 -53.666 -33 -90.999v-300c0 -36.667 11 -66.5 33 -89.5
s50.667 -34.5 86 -34.5c36 0 65 11.333 87 34zM220 767.5c-1.33301 2.33301 -1 5.16602 1 8.49902l59 108c2 4.66699 6 7 12 7h64c4 0 6.66699 -1.16699 8 -3.5s1 -5.16602 -1 -8.49902l-72 -109c-3.33301 -4 -7.33301 -6 -12 -6h-51c-4 0 -6.66699 1.16699 -8 3.5z" />
    <glyph glyph-name="Ocircumflex" unicode="&#xd4;" horiz-adv-x="542" 
d="M157.5 17.5c-32.333 17.667 -57.5 42.5 -75.5 74.5s-27 69 -27 111v294c0 41.333 9 78 27 110s43.167 56.833 75.5 74.5s69.833 26.5 112.5 26.5s80.334 -8.83301 113.001 -26.5s58 -42.5 76 -74.5s27 -68.667 27 -110v-294c0 -42 -9 -79 -27 -111
s-43.333 -56.833 -76 -74.5s-70.334 -26.5 -113.001 -26.5s-80.167 8.83301 -112.5 26.5zM357 109c22 22.667 33 52.667 33 90v300c0 37.333 -11 67.666 -33 90.999s-51 35 -87 35c-35.333 0 -64 -11.667 -86 -35s-33 -53.666 -33 -90.999v-300c0 -36.667 11 -66.5 33 -89.5
s50.667 -34.5 86 -34.5c36 0 65 11.333 87 34zM140 769.5c-1.33301 2.33301 -1 5.16699 1 8.5l73 107c2.66699 4 6.66699 6 12 6h85c5.33301 0 9.33301 -2 12 -6l75 -107c1.33301 -1.33301 2 -3 2 -5c0 -4.66699 -3 -7 -9 -7h-60c-4.66699 0 -8.66699 2.33301 -12 7l-46 72
c-0.666992 1.33301 -1.66699 2 -3 2s-2.33301 -0.666992 -3 -2l-47 -72c-3.33301 -4.66699 -7.33301 -7 -12 -7h-60c-4 0 -6.66699 1.16699 -8 3.5z" />
    <glyph glyph-name="Otilde" unicode="&#xd5;" horiz-adv-x="542" 
d="M157.5 17.5c-32.333 17.667 -57.5 42.5 -75.5 74.5s-27 69 -27 111v294c0 41.333 9 78 27 110s43.167 56.833 75.5 74.5s69.833 26.5 112.5 26.5s80.334 -8.83301 113.001 -26.5s58 -42.5 76 -74.5s27 -68.667 27 -110v-294c0 -42 -9 -79 -27 -111
s-43.333 -56.833 -76 -74.5s-70.334 -26.5 -113.001 -26.5s-80.167 8.83301 -112.5 26.5zM357 109c22 22.667 33 52.667 33 90v300c0 37.333 -11 67.666 -33 90.999s-51 35 -87 35c-35.333 0 -64 -11.667 -86 -35s-33 -53.666 -33 -90.999v-300c0 -36.667 11 -66.5 33 -89.5
s50.667 -34.5 86 -34.5c36 0 65 11.333 87 34zM300 795c-8.66699 3.33301 -18.3301 8.33301 -28.9971 15l-14.5 8.5c-6.33301 3.66699 -11.833 6.33398 -16.5 8.00098s-9.66699 2.5 -15 2.5c-9.33301 0 -17.666 -1.83301 -24.999 -5.5s-14.333 -10.167 -21 -19.5
c-4 -6 -8.66699 -7 -14 -3l-28 22c-4.66699 4 -5.66699 8.33301 -3 13c9.33301 19.333 21.333 33.833 36 43.5s31 14.5 49 14.5c11.333 0 21.666 -2 30.999 -6s19.666 -9.66699 30.999 -17l14 -8.5c6 -3.66699 11.5 -6.5 16.5 -8.5s10.167 -3 15.5 -3
c19.333 0 34.666 9 45.999 27c4 6 8.66699 7 14 3l27 -21c2.66699 -2.66699 4 -5.33398 4 -8.00098s-1 -5.66699 -3 -9c-10 -18 -22.833 -31.333 -38.5 -40s-31.834 -13 -48.501 -13c-10 0 -19.333 1.66699 -28 5z" />
    <glyph glyph-name="Odieresis" unicode="&#xd6;" horiz-adv-x="542" 
d="M157.5 17.5c-32.333 17.667 -57.5 42.5 -75.5 74.5s-27 69 -27 111v294c0 41.333 9 78 27 110s43.167 56.833 75.5 74.5s69.833 26.5 112.5 26.5s80.334 -8.83301 113.001 -26.5s58 -42.5 76 -74.5s27 -68.667 27 -110v-294c0 -42 -9 -79 -27 -111
s-43.333 -56.833 -76 -74.5s-70.334 -26.5 -113.001 -26.5s-80.167 8.83301 -112.5 26.5zM357 109c22 22.667 33 52.667 33 90v300c0 37.333 -11 67.666 -33 90.999s-51 35 -87 35c-35.333 0 -64 -11.667 -86 -35s-33 -53.666 -33 -90.999v-300c0 -36.667 11 -66.5 33 -89.5
s50.667 -34.5 86 -34.5c36 0 65 11.333 87 34zM310 800c-12 12 -18 27.333 -18 46s6 34 18 46s27.333 18 46 18s34 -6 46 -18s18 -27.333 18 -46s-6 -34 -18 -46s-27.333 -18 -46 -18s-34 6 -46 18zM138 800c-12 12 -18 27.333 -18 46s6 34 18 46s27.333 18 46 18
s34 -6 46 -18s18 -27.333 18 -46s-6 -34 -18 -46s-27.333 -18 -46 -18s-34 6 -46 18z" />
    <glyph glyph-name="multiply" unicode="&#xd7;" horiz-adv-x="405" 
d="M369 429c0 -2.66699 -1 -5 -3 -7l-105 -105c-2 -2 -2 -4 0 -6l104 -104c2 -2 3 -4.33301 3 -7s-1 -5 -3 -7l-41 -41c-2 -2 -4.33301 -3 -7 -3s-5 1 -7 3l-104 104c-2 2 -4 2 -6 0l-105 -105c-2 -2 -4.33301 -3 -7 -3s-5 1 -7 3l-41 41c-2 2 -3 4.33301 -3 7s1 5 3 7
l105 105c2 2 2 4 0 6l-106 106c-2 2 -3 4.33301 -3 7s1 5 3 7l41 41c2 2 4.33301 3 7 3s5 -1 7 -3l106 -106c2 -2 4 -2 6 0l105 105c2 2 4.33301 3 7 3s5 -1 7 -3l41 -41c2 -2 3 -4.33301 3 -7z" />
    <glyph glyph-name="Oslash" unicode="&#xd8;" horiz-adv-x="593" 
d="M500 686l-39.9971 -73.001c-1.33301 -2 -1 -4 1 -6c17.333 -31.333 26 -68 26 -110v-294c0 -42 -9 -79 -27 -111s-43.333 -56.833 -76 -74.5s-70.334 -26.5 -113.001 -26.5c-50 0 -92.333 12 -127 36c-2.66699 1.33301 -4.33398 0.666016 -5.00098 -2.00098l-30 -55
c-1.33301 -2.66699 -3.33301 -4.33398 -6 -5.00098s-5.33398 -0.333984 -8.00098 0.999023l-50 29c-2.66699 1.33301 -4.33398 3.33301 -5.00098 6s-0.333984 5.33398 0.999023 8.00098l43 78c1.33301 2 1 4 -1 6c-17.333 30.667 -26 67.334 -26 110.001v294
c0 41.333 9 78 27 110s43.167 56.833 75.5 74.5s69.5 26.5 111.5 26.5c49.333 0 92.333 -12 129 -36c2.66699 -1.33301 4.33398 -0.666016 5.00098 2.00098l30 55c1.33301 2.66699 3.33301 4.33398 6 5.00098s5.33398 0 8.00098 -2l48 -33
c4.66699 -4 5.66699 -8.33301 3 -13zM153.003 223.999c0 -2 0.5 -3.00098 1.5 -3.00098s2.16699 0.666992 3.5 2l199 363c1.33301 2 1.33301 4 0 6c-22 22 -50.667 33 -86 33s-63.833 -11.667 -85.5 -35s-32.5 -53.666 -32.5 -90.999v-275zM391.003 475.998
c0 2 -0.5 3.00098 -1.5 3.00098s-2.16699 -0.666992 -3.5 -2l-199 -365c-1.33301 -2.66699 -1 -4.33398 1 -5.00098c21.333 -21.333 49 -32 83 -32c36 0 65 11.333 87 34s33 52.667 33 90v277z" />
    <glyph glyph-name="Ugrave" unicode="&#xd9;" horiz-adv-x="559" 
d="M167.5 18.5c-32.333 17.667 -57.334 42.667 -75.001 75s-26.5 69.833 -26.5 112.5v484c0 6.66699 3.33301 10 10 10h76c6.66699 0 10 -3.33301 10 -10v-490c0 -37.333 10.833 -67.5 32.5 -90.5s49.834 -34.5 84.501 -34.5c35.333 0 63.833 11.5 85.5 34.5
s32.5 53.167 32.5 90.5v490c0 6.66699 3.33301 10 10 10h76c6.66699 0 10 -3.33301 10 -10v-484c0 -42.667 -8.83301 -80.167 -26.5 -112.5s-42.667 -57.333 -75 -75s-69.833 -26.5 -112.5 -26.5c-42 0 -79.167 8.83301 -111.5 26.5zM313.999 770c0 -4 -3 -6 -9 -6h-51
c-4.66699 0 -8.66699 2 -12 6l-72 109l-2 5c0 4.66699 3 7 9 7h63c5.33301 0 9.33301 -2.33301 12 -7l60 -108c1.33301 -2.66699 2 -4.66699 2 -6z" />
    <glyph glyph-name="Uacute" unicode="&#xda;" horiz-adv-x="559" 
d="M167.5 18.5c-32.333 17.667 -57.334 42.667 -75.001 75s-26.5 69.833 -26.5 112.5v484c0 6.66699 3.33301 10 10 10h76c6.66699 0 10 -3.33301 10 -10v-490c0 -37.333 10.833 -67.5 32.5 -90.5s49.834 -34.5 84.501 -34.5c35.333 0 63.833 11.5 85.5 34.5
s32.5 53.167 32.5 90.5v490c0 6.66699 3.33301 10 10 10h76c6.66699 0 10 -3.33301 10 -10v-484c0 -42.667 -8.83301 -80.167 -26.5 -112.5s-42.667 -57.333 -75 -75s-69.833 -26.5 -112.5 -26.5c-42 0 -79.167 8.83301 -111.5 26.5zM229.999 767.5
c-1.33301 2.33301 -1 5.16602 1 8.49902l59 108c2 4.66699 6 7 12 7h64c4 0 6.66699 -1.16699 8 -3.5s1 -5.16602 -1 -8.49902l-72 -109c-3.33301 -4 -7.33301 -6 -12 -6h-51c-4 0 -6.66699 1.16699 -8 3.5z" />
    <glyph glyph-name="Ucircumflex" unicode="&#xdb;" horiz-adv-x="559" 
d="M167.5 18.5c-32.333 17.667 -57.334 42.667 -75.001 75s-26.5 69.833 -26.5 112.5v484c0 6.66699 3.33301 10 10 10h76c6.66699 0 10 -3.33301 10 -10v-490c0 -37.333 10.833 -67.5 32.5 -90.5s49.834 -34.5 84.501 -34.5c35.333 0 63.833 11.5 85.5 34.5
s32.5 53.167 32.5 90.5v490c0 6.66699 3.33301 10 10 10h76c6.66699 0 10 -3.33301 10 -10v-484c0 -42.667 -8.83301 -80.167 -26.5 -112.5s-42.667 -57.333 -75 -75s-69.833 -26.5 -112.5 -26.5c-42 0 -79.167 8.83301 -111.5 26.5zM148.999 769.5
c-1.33301 2.33301 -1 5.16699 1 8.5l73 107c2.66699 4 6.66699 6 12 6h85c5.33301 0 9.33301 -2 12 -6l75 -107c1.33301 -1.33301 2 -3 2 -5c0 -4.66699 -3 -7 -9 -7h-60c-4.66699 0 -8.66699 2.33301 -12 7l-46 72c-0.666992 1.33301 -1.66699 2 -3 2
s-2.33301 -0.666992 -3 -2l-47 -72c-3.33301 -4.66699 -7.33301 -7 -12 -7h-60c-4 0 -6.66699 1.16699 -8 3.5z" />
    <glyph glyph-name="Udieresis" unicode="&#xdc;" horiz-adv-x="559" 
d="M167.5 18.5c-32.333 17.667 -57.334 42.667 -75.001 75s-26.5 69.833 -26.5 112.5v484c0 6.66699 3.33301 10 10 10h76c6.66699 0 10 -3.33301 10 -10v-490c0 -37.333 10.833 -67.5 32.5 -90.5s49.834 -34.5 84.501 -34.5c35.333 0 63.833 11.5 85.5 34.5
s32.5 53.167 32.5 90.5v490c0 6.66699 3.33301 10 10 10h76c6.66699 0 10 -3.33301 10 -10v-484c0 -42.667 -8.83301 -80.167 -26.5 -112.5s-42.667 -57.333 -75 -75s-69.833 -26.5 -112.5 -26.5c-42 0 -79.167 8.83301 -111.5 26.5zM318.999 800c-12 12 -18 27.333 -18 46
s6 34 18 46s27.333 18 46 18s34 -6 46 -18s18 -27.333 18 -46s-6 -34 -18 -46s-27.333 -18 -46 -18s-34 6 -46 18zM146.999 800c-12 12 -18 27.333 -18 46s6 34 18 46s27.333 18 46 18s34 -6 46 -18s18 -27.333 18 -46s-6 -34 -18 -46s-27.333 -18 -46 -18s-34 6 -46 18z
" />
    <glyph glyph-name="Yacute" unicode="&#xdd;" horiz-adv-x="514" 
d="M209 11l-0.000976562 283.999c0 2.66699 -0.333008 4.33398 -1 5.00098l-174 388l-1 4c0 5.33301 3 8 9 8h81c5.33301 0 9 -2.66699 11 -8l120 -284c0.666992 -1.33301 1.66699 -2 3 -2s2.33301 0.666992 3 2l119 284c2 5.33301 5.66699 8 11 8h82
c3.33301 0 5.83301 -1.16699 7.5 -3.5s1.83398 -5.16602 0.500977 -8.49902l-175 -388c-0.666992 -0.666992 -1 -2.33398 -1 -5.00098v-284c0 -6.66699 -3.33301 -10 -10 -10h-75c-6.66699 0 -10 3.33301 -10 10zM206.999 767.499c-1.33301 2.33301 -1 5.16602 1 8.49902
l59 108c2 4.66699 6 7 12 7h64c4 0 6.66699 -1.16699 8 -3.5s1 -5.16602 -1 -8.49902l-72 -109c-3.33301 -4 -7.33301 -6 -12 -6h-51c-4 0 -6.66699 1.16699 -8 3.5z" />
    <glyph glyph-name="Thorn" unicode="&#xde;" horiz-adv-x="511" 
d="M391 524.5c28.667 -17 50.833 -40.668 66.5 -71.001s23.5 -65.166 23.5 -104.499s-8 -74 -24 -104s-38.167 -53.167 -66.5 -69.5s-60.833 -24.5 -97.5 -24.5h-124c-2.66699 0 -4 -1.33301 -4 -4v-137c0 -6.66699 -3.33301 -10 -10 -10h-76
c-6.66699 -0 -10 3.33301 -10 10v680c0 6.66699 3.33301 10 10 10h76c6.66699 0 10 -3.33301 10 -10v-136c0 -2.66699 1.33301 -4 4 -4h123c37.333 0 70.333 -8.5 99 -25.5zM355.999 260.999c19.333 21.333 29 50 29 86c0 36.667 -9.66699 65.667 -29 87s-45 32 -77 32h-110
c-2.66699 0 -4 -1.33301 -4 -4v-229c0 -2.66699 1.33301 -4 4 -4h110c32 0 57.667 10.667 77 32z" />
    <glyph glyph-name="germandbls" unicode="&#xdf;" horiz-adv-x="502" 
d="M62 10v490.998c0 65.333 16.667 116.333 50 153s79.666 55 138.999 55c58.667 0 105.667 -17.333 141 -52s53 -81 53 -139c0 -33.333 -6.5 -62 -19.5 -86s-31.5 -42.333 -55.5 -55c-3.33301 -1.33301 -3.33301 -3 0 -5c26 -13.333 46.333 -35.166 61 -65.499
s22 -66.166 22 -107.499c0 -62.667 -18.167 -111.5 -54.5 -146.5s-87.5 -52.5 -153.5 -52.5h-36c-6.66699 -0 -10 3.33301 -10 10v62c0 6.66699 3.33301 10 10 10l41 1c34 0 60.5 11 79.5 33s28.5 53 28.5 93c0 39.333 -8.66699 69.833 -26 91.5s-41 33.167 -71 34.5h-38
c-6.66699 0 -10 3.33301 -10 10v56c0 6.66699 3.33301 10 10 10h37c28 0 50 9.16699 66 27.5s24 43.5 24 75.5c0 34.667 -8.5 62 -25.5 82s-40.5 30 -70.5 30c-29.333 0 -52.666 -10 -69.999 -30s-26 -48 -26 -84v-502c0 -6.66699 -3.33301 -10 -10 -10h-76
c-6.66699 -0 -10 3.33301 -10 10z" />
    <glyph glyph-name="agrave" unicode="&#xe0;" horiz-adv-x="470" 
d="M369 470.5c33.333 -31 50 -71.502 50 -121.502v-339c0 -6.66699 -3.33301 -10 -10 -10h-76c-6.66699 0 -10 3.33301 -10 10v29c0 1.33301 -0.5 2.16602 -1.5 2.49902s-2.16699 -0.166992 -3.5 -1.5c-30 -32 -71.667 -48 -125 -48c-43.333 0 -80.333 11.833 -111 35.5
s-46 61.834 -46 114.501c0 54.667 17.833 96.167 53.5 124.5s84.167 42.5 145.5 42.5h84c2.66699 0 4 1.33301 4 4v28c0 28.667 -7.5 51.334 -22.5 68.001s-36.5 25 -64.5 25c-22 0 -40.167 -5.5 -54.5 -16.5s-23.166 -25.833 -26.499 -44.5
c-0.666992 -6 -4.33398 -9 -11.001 -9l-82 5c-2.66699 0 -5 0.833008 -7 2.5s-2.66699 3.83398 -2 6.50098c4 41.333 22.833 74.833 56.5 100.5s75.834 38.5 126.501 38.5c55.333 0 99.666 -15.5 132.999 -46.5zM290.5 98.998c21.667 16.667 32.501 39 32.501 67v64
c0 2.66699 -1.33301 4 -4 4h-77c-32.667 0 -58.834 -7.33301 -78.501 -22s-29.5 -36 -29.5 -64c0 -24.667 7.33301 -43.167 22 -55.5s34 -18.5 58 -18.5c29.333 0 54.833 8.33301 76.5 25zM270.001 578.998c0 -4 -3 -6 -9 -6h-51c-4.66699 0 -8.66699 2 -12 6l-72 109l-2 5
c0 4.66699 3 7 9 7h63c5.33301 0 9.33301 -2.33301 12 -7l60 -108c1.33301 -2.66699 2 -4.66699 2 -6z" />
    <glyph glyph-name="aacute" unicode="&#xe1;" horiz-adv-x="470" 
d="M369 470.5c33.333 -31 50 -71.502 50 -121.502v-339c0 -6.66699 -3.33301 -10 -10 -10h-76c-6.66699 0 -10 3.33301 -10 10v29c0 1.33301 -0.5 2.16602 -1.5 2.49902s-2.16699 -0.166992 -3.5 -1.5c-30 -32 -71.667 -48 -125 -48c-43.333 0 -80.333 11.833 -111 35.5
s-46 61.834 -46 114.501c0 54.667 17.833 96.167 53.5 124.5s84.167 42.5 145.5 42.5h84c2.66699 0 4 1.33301 4 4v28c0 28.667 -7.5 51.334 -22.5 68.001s-36.5 25 -64.5 25c-22 0 -40.167 -5.5 -54.5 -16.5s-23.166 -25.833 -26.499 -44.5
c-0.666992 -6 -4.33398 -9 -11.001 -9l-82 5c-2.66699 0 -5 0.833008 -7 2.5s-2.66699 3.83398 -2 6.50098c4 41.333 22.833 74.833 56.5 100.5s75.834 38.5 126.501 38.5c55.333 0 99.666 -15.5 132.999 -46.5zM290.5 98.998c21.667 16.667 32.501 39 32.501 67v64
c0 2.66699 -1.33301 4 -4 4h-77c-32.667 0 -58.834 -7.33301 -78.501 -22s-29.5 -36 -29.5 -64c0 -24.667 7.33301 -43.167 22 -55.5s34 -18.5 58 -18.5c29.333 0 54.833 8.33301 76.5 25zM185.001 576.498c-1.33301 2.33301 -1 5.16602 1 8.49902l59 108
c2 4.66699 6 7 12 7h64c4 0 6.66699 -1.16699 8 -3.5s1 -5.16602 -1 -8.49902l-72 -109c-3.33301 -4 -7.33301 -6 -12 -6h-51c-4 0 -6.66699 1.16699 -8 3.5z" />
    <glyph glyph-name="acircumflex" unicode="&#xe2;" horiz-adv-x="470" 
d="M369 470.5c33.333 -31 50 -71.502 50 -121.502v-339c0 -6.66699 -3.33301 -10 -10 -10h-76c-6.66699 0 -10 3.33301 -10 10v29c0 1.33301 -0.5 2.16602 -1.5 2.49902s-2.16699 -0.166992 -3.5 -1.5c-30 -32 -71.667 -48 -125 -48c-43.333 0 -80.333 11.833 -111 35.5
s-46 61.834 -46 114.501c0 54.667 17.833 96.167 53.5 124.5s84.167 42.5 145.5 42.5h84c2.66699 0 4 1.33301 4 4v28c0 28.667 -7.5 51.334 -22.5 68.001s-36.5 25 -64.5 25c-22 0 -40.167 -5.5 -54.5 -16.5s-23.166 -25.833 -26.499 -44.5
c-0.666992 -6 -4.33398 -9 -11.001 -9l-82 5c-2.66699 0 -5 0.833008 -7 2.5s-2.66699 3.83398 -2 6.50098c4 41.333 22.833 74.833 56.5 100.5s75.834 38.5 126.501 38.5c55.333 0 99.666 -15.5 132.999 -46.5zM290.5 98.998c21.667 16.667 32.501 39 32.501 67v64
c0 2.66699 -1.33301 4 -4 4h-77c-32.667 0 -58.834 -7.33301 -78.501 -22s-29.5 -36 -29.5 -64c0 -24.667 7.33301 -43.167 22 -55.5s34 -18.5 58 -18.5c29.333 0 54.833 8.33301 76.5 25zM105.001 578.498c-1.33301 2.33301 -1 5.16699 1 8.5l73 107
c2.66699 4 6.66699 6 12 6h85c5.33301 0 9.33301 -2 12 -6l75 -107c1.33301 -1.33301 2 -3 2 -5c0 -4.66699 -3 -7 -9 -7h-60c-4.66699 0 -8.66699 2.33301 -12 7l-46 72c-0.666992 1.33301 -1.66699 2 -3 2s-2.33301 -0.666992 -3 -2l-47 -72
c-3.33301 -4.66699 -7.33301 -7 -12 -7h-60c-4 0 -6.66699 1.16699 -8 3.5z" />
    <glyph glyph-name="atilde" unicode="&#xe3;" horiz-adv-x="470" 
d="M369 470.5c33.333 -31 50 -71.502 50 -121.502v-339c0 -6.66699 -3.33301 -10 -10 -10h-76c-6.66699 0 -10 3.33301 -10 10v29c0 1.33301 -0.5 2.16602 -1.5 2.49902s-2.16699 -0.166992 -3.5 -1.5c-30 -32 -71.667 -48 -125 -48c-43.333 0 -80.333 11.833 -111 35.5
s-46 61.834 -46 114.501c0 54.667 17.833 96.167 53.5 124.5s84.167 42.5 145.5 42.5h84c2.66699 0 4 1.33301 4 4v28c0 28.667 -7.5 51.334 -22.5 68.001s-36.5 25 -64.5 25c-22 0 -40.167 -5.5 -54.5 -16.5s-23.166 -25.833 -26.499 -44.5
c-0.666992 -6 -4.33398 -9 -11.001 -9l-82 5c-2.66699 0 -5 0.833008 -7 2.5s-2.66699 3.83398 -2 6.50098c4 41.333 22.833 74.833 56.5 100.5s75.834 38.5 126.501 38.5c55.333 0 99.666 -15.5 132.999 -46.5zM290.5 98.998c21.667 16.667 32.501 39 32.501 67v64
c0 2.66699 -1.33301 4 -4 4h-77c-32.667 0 -58.834 -7.33301 -78.501 -22s-29.5 -36 -29.5 -64c0 -24.667 7.33301 -43.167 22 -55.5s34 -18.5 58 -18.5c29.333 0 54.833 8.33301 76.5 25zM265.001 603.998c-8.66699 3.33301 -18.3301 8.33301 -28.9971 15l-14.5 8.5
c-6.33301 3.66699 -11.833 6.33398 -16.5 8.00098s-9.66699 2.5 -15 2.5c-9.33301 0 -17.666 -1.83301 -24.999 -5.5s-14.333 -10.167 -21 -19.5c-4 -6 -8.66699 -7 -14 -3l-28 22c-4.66699 4 -5.66699 8.33301 -3 13c9.33301 19.333 21.333 33.833 36 43.5s31 14.5 49 14.5
c11.333 0 21.666 -2 30.999 -6s19.666 -9.66699 30.999 -17l14 -8.5c6 -3.66699 11.5 -6.5 16.5 -8.5s10.167 -3 15.5 -3c19.333 0 34.666 9 45.999 27c4 6 8.66699 7 14 3l27 -21c2.66699 -2.66699 4 -5.33398 4 -8.00098s-1 -5.66699 -3 -9
c-10 -18 -22.833 -31.333 -38.5 -40s-31.834 -13 -48.501 -13c-10 0 -19.333 1.66699 -28 5z" />
    <glyph glyph-name="adieresis" unicode="&#xe4;" horiz-adv-x="470" 
d="M369 470.5c33.333 -31 50 -71.502 50 -121.502v-339c0 -6.66699 -3.33301 -10 -10 -10h-76c-6.66699 0 -10 3.33301 -10 10v29c0 1.33301 -0.5 2.16602 -1.5 2.49902s-2.16699 -0.166992 -3.5 -1.5c-30 -32 -71.667 -48 -125 -48c-43.333 0 -80.333 11.833 -111 35.5
s-46 61.834 -46 114.501c0 54.667 17.833 96.167 53.5 124.5s84.167 42.5 145.5 42.5h84c2.66699 0 4 1.33301 4 4v28c0 28.667 -7.5 51.334 -22.5 68.001s-36.5 25 -64.5 25c-22 0 -40.167 -5.5 -54.5 -16.5s-23.166 -25.833 -26.499 -44.5
c-0.666992 -6 -4.33398 -9 -11.001 -9l-82 5c-2.66699 0 -5 0.833008 -7 2.5s-2.66699 3.83398 -2 6.50098c4 41.333 22.833 74.833 56.5 100.5s75.834 38.5 126.501 38.5c55.333 0 99.666 -15.5 132.999 -46.5zM290.5 98.998c21.667 16.667 32.501 39 32.501 67v64
c0 2.66699 -1.33301 4 -4 4h-77c-32.667 0 -58.834 -7.33301 -78.501 -22s-29.5 -36 -29.5 -64c0 -24.667 7.33301 -43.167 22 -55.5s34 -18.5 58 -18.5c29.333 0 54.833 8.33301 76.5 25zM275.001 608.998c-12 12 -18 27.333 -18 46s6 34 18 46s27.333 18 46 18
s34 -6 46 -18s18 -27.333 18 -46s-6 -34 -18 -46s-27.333 -18 -46 -18s-34 6 -46 18zM103.001 608.998c-12 12 -18 27.333 -18 46s6 34 18 46s27.333 18 46 18s34 -6 46 -18s18 -27.333 18 -46s-6 -34 -18 -46s-27.333 -18 -46 -18s-34 6 -46 18z" />
    <glyph glyph-name="aring" unicode="&#xe5;" horiz-adv-x="470" 
d="M369 470.5c33.333 -31 50 -71.502 50 -121.502v-339c0 -6.66699 -3.33301 -10 -10 -10h-76c-6.66699 0 -10 3.33301 -10 10v29c0 1.33301 -0.5 2.16602 -1.5 2.49902s-2.16699 -0.166992 -3.5 -1.5c-30 -32 -71.667 -48 -125 -48c-43.333 0 -80.333 11.833 -111 35.5
s-46 61.834 -46 114.501c0 54.667 17.833 96.167 53.5 124.5s84.167 42.5 145.5 42.5h84c2.66699 0 4 1.33301 4 4v28c0 28.667 -7.5 51.334 -22.5 68.001s-36.5 25 -64.5 25c-22 0 -40.167 -5.5 -54.5 -16.5s-23.166 -25.833 -26.499 -44.5
c-0.666992 -6 -4.33398 -9 -11.001 -9l-82 5c-2.66699 0 -5 0.833008 -7 2.5s-2.66699 3.83398 -2 6.50098c4 41.333 22.833 74.833 56.5 100.5s75.834 38.5 126.501 38.5c55.333 0 99.666 -15.5 132.999 -46.5zM290.5 98.998c21.667 16.667 32.501 39 32.501 67v64
c0 2.66699 -1.33301 4 -4 4h-77c-32.667 0 -58.834 -7.33301 -78.501 -22s-29.5 -36 -29.5 -64c0 -24.667 7.33301 -43.167 22 -55.5s34 -18.5 58 -18.5c29.333 0 54.833 8.33301 76.5 25zM154.001 605.998c-22 22 -33 49 -33 81s11 58.833 33 80.5s49 32.5 81 32.5
s59 -10.833 81 -32.5s33 -48.5 33 -80.5s-11 -59 -33 -81s-49 -33 -81 -33s-59 11 -81 33zM276.501 644.498c11.667 11.667 17.5 25.834 17.5 42.501s-5.83301 30.834 -17.5 42.501s-25.5 17.5 -41.5 17.5c-16.667 0 -30.667 -5.83301 -42 -17.5s-17 -25.834 -17 -42.501
s5.66699 -30.834 17 -42.501s25.333 -17.5 42 -17.5c16 0 29.833 5.83301 41.5 17.5z" />
    <glyph glyph-name="ae" unicode="&#xe6;" horiz-adv-x="749" 
d="M82 24.5c-30.667 21.667 -46.002 58.832 -46.002 111.499c0 54 16.833 94.333 50.5 121s81.167 40 142.5 40h89c2.66699 0 4 1.33301 4 4v36c0 29.333 -7.66699 52.833 -23 70.5s-37.666 26.5 -66.999 26.5c-22.667 0 -42 -5.5 -58 -16.5s-25.667 -25.5 -29 -43.5
c-1.33301 -7.33301 -5 -10.333 -11 -9l-76 6c-6.66699 1.33301 -9.66699 5 -9 11c4 40 23 72.5 57 97.5s75.333 37.5 124 37.5c32 0 60.167 -6.66699 84.5 -20s42.833 -30.666 55.5 -51.999c2 -2.66699 4 -3 6 -1c13.333 20.667 32.5 38 57.5 52s52.833 21 83.5 21
c48 0 88.667 -13.833 122 -41.5s53 -63.834 59 -108.501c4 -32.667 6 -79.334 6 -140.001c0 -6.66699 -3.33301 -10 -10 -10h-268c-2.66699 0 -4 -1.33301 -4 -4c0 -20 0.333008 -35.667 1 -47c1.33301 -25.333 11.333 -45.666 30 -60.999s42.334 -23 71.001 -23
c22.667 0 41.667 5.33301 57 16s27 25.334 35 44.001c2 6 6 8 12 6l63 -21c6 -2 8.33301 -6 7 -12c-10 -36.667 -30.667 -66.334 -62 -89.001s-70 -34 -116 -34c-34.667 0 -65.167 7 -91.5 21s-45.166 31.333 -56.499 52c-0.666992 1.33301 -1.33398 2.33301 -2.00098 3
s-1.33398 0.333984 -2.00098 -0.999023c-11.333 -22 -32.666 -40 -63.999 -54s-66.666 -21 -105.999 -21c-46.667 0 -85.334 10.833 -116.001 32.5zM424.998 296.998l180.004 -0.000976562c2.66699 0 4 1.33301 4 4c-1.33301 28.667 -2.33301 45 -3 49
c-2.66699 24.667 -12.334 44.834 -29.001 60.501s-37.334 23.5 -62.001 23.5s-45.334 -7.83301 -62.001 -23.5s-26.334 -35.834 -29.001 -60.501c-0.666992 -5.33301 -1.66699 -21.666 -3 -48.999c0 -2.66699 1.33301 -4 4 -4zM290.502 92.4971
c21 15.667 31.499 37.502 31.499 65.502v54c0 2.66699 -1.33301 4 -4 4h-77c-33.333 0 -59.666 -6.33301 -78.999 -19s-29 -31.334 -29 -56.001c0 -22.667 7.66699 -40.334 23 -53.001s35.333 -19 60 -19c28.667 0 53.5 7.83301 74.5 23.5z" />
    <glyph glyph-name="ccedilla" unicode="&#xe7;" horiz-adv-x="470" 
d="M336 160c0.666992 6.66699 4.33203 9.66504 10.999 8.99805l75 -5c6.66699 0 10 -3.66699 10 -11l-3 -17c-5.33301 -37.333 -21.333 -68.666 -48 -93.999s-61 -41 -103 -47c-4 -1.33301 -4.33301 -3 -1 -5c29.333 -28.667 44 -59 44 -91c0 -8 -1 -16 -3 -24
c-5.33301 -21.333 -15.666 -36.666 -30.999 -45.999s-33.333 -14 -54 -14c-12.667 0 -27 2 -43 6c-6 2 -8.66699 6 -8 12l5 32c0.666992 2.66699 2 4.83398 4 6.50098s4.66699 2.16699 8 1.5c6 -2 11.667 -3 17 -3c11.333 0 20.666 3.5 27.999 10.5s11 17.5 11 31.5
c0 13.333 -4.33301 27 -13 41s-20.667 27.333 -36 40c-0.666992 1.33301 -2.33398 2 -5.00098 2c-40 6.66699 -72.667 23.167 -98 49.5s-41 59.166 -47 98.499c-4.66699 30 -7 67.667 -7 113c0 39.333 2.33301 76.333 7 111c7.33301 45.333 27.666 81.666 60.999 108.999
s75.333 41 126 41c49.333 0 91 -13 125 -39s54.333 -59.333 61 -100l4 -24c0 -6 -3.33301 -9.66699 -10 -11l-75 -6h-2c-4 0 -6.66699 2.33301 -8 7l-1 4l-2 12c-3.33301 20.667 -13.333 38.167 -30 52.5s-37.667 21.5 -63 21.5s-46.166 -7.66699 -62.499 -23
s-26.166 -35.666 -29.499 -60.999c-3.33301 -28 -5 -59.667 -5 -95c0 -39.333 2 -71.666 6 -96.999c3.33301 -25.333 13 -45.5 29 -60.5s36.667 -22.5 62 -22.5c26 0 47.333 7.16699 64 21.5s26.334 32.166 29.001 53.499z" />
    <glyph glyph-name="egrave" unicode="&#xe8;" horiz-adv-x="477" 
d="M303.5 91.5c15.667 11 27.499 26.167 35.499 45.5c2 6 6 8.33301 12 7l68 -15c6.66699 -2 9 -6 7 -12c-12.667 -39.333 -34.667 -70 -66 -92s-69.666 -33 -114.999 -33c-52 0 -94 13 -126 39s-52.333 61.667 -61 107c-3.33301 18.667 -5.5 38.5 -6.5 59.5
s-1.5 48.833 -1.5 83.5c0 34 1.66699 61 5 81c6 46.667 25.667 84.167 59 112.5s75.333 42.5 126 42.5c55.333 0 100 -15.667 134 -47s53 -72.666 57 -123.999c2 -22.667 3 -64.334 3 -125.001c0 -6.66699 -3.33301 -10 -10 -10h-274c-2.66699 0 -4 -1.33301 -4 -4
c0 -18.667 1 -35 3 -49c3.33301 -24.667 13.666 -44.667 30.999 -60s39.333 -23 66 -23c22.667 0 41.834 5.5 57.501 16.5zM178.499 411c-16.333 -15.333 -26.1689 -35.334 -29.502 -60.001c-2 -18 -3 -37.667 -3 -59c0 -2.66699 1.33301 -4 4 -4h184
c2.66699 0 4 1.33301 4 4c-1.33301 26.667 -2.66602 46 -3.99902 58c-3.33301 24.667 -13.333 44.834 -30 60.501s-37.667 23.5 -63 23.5s-46.166 -7.66699 -62.499 -23zM272.996 578.999c0 -4 -3 -6 -9 -6h-51c-4.66699 0 -8.66699 2 -12 6l-72 109l-2 5c0 4.66699 3 7 9 7
h63c5.33301 0 9.33301 -2.33301 12 -7l60 -108c1.33301 -2.66699 2 -4.66699 2 -6z" />
    <glyph glyph-name="eacute" unicode="&#xe9;" horiz-adv-x="477" 
d="M303.5 91.5c15.667 11 27.499 26.167 35.499 45.5c2 6 6 8.33301 12 7l68 -15c6.66699 -2 9 -6 7 -12c-12.667 -39.333 -34.667 -70 -66 -92s-69.666 -33 -114.999 -33c-52 0 -94 13 -126 39s-52.333 61.667 -61 107c-3.33301 18.667 -5.5 38.5 -6.5 59.5
s-1.5 48.833 -1.5 83.5c0 34 1.66699 61 5 81c6 46.667 25.667 84.167 59 112.5s75.333 42.5 126 42.5c55.333 0 100 -15.667 134 -47s53 -72.666 57 -123.999c2 -22.667 3 -64.334 3 -125.001c0 -6.66699 -3.33301 -10 -10 -10h-274c-2.66699 0 -4 -1.33301 -4 -4
c0 -18.667 1 -35 3 -49c3.33301 -24.667 13.666 -44.667 30.999 -60s39.333 -23 66 -23c22.667 0 41.834 5.5 57.501 16.5zM178.499 411c-16.333 -15.333 -26.1689 -35.334 -29.502 -60.001c-2 -18 -3 -37.667 -3 -59c0 -2.66699 1.33301 -4 4 -4h184
c2.66699 0 4 1.33301 4 4c-1.33301 26.667 -2.66602 46 -3.99902 58c-3.33301 24.667 -13.333 44.834 -30 60.501s-37.667 23.5 -63 23.5s-46.166 -7.66699 -62.499 -23zM188.996 576.499c-1.33301 2.33301 -1 5.16602 1 8.49902l59 108c2 4.66699 6 7 12 7h64
c4 0 6.66699 -1.16699 8 -3.5s1 -5.16602 -1 -8.49902l-72 -109c-3.33301 -4 -7.33301 -6 -12 -6h-51c-4 0 -6.66699 1.16699 -8 3.5z" />
    <glyph glyph-name="ecircumflex" unicode="&#xea;" horiz-adv-x="477" 
d="M303.5 91.5c15.667 11 27.499 26.167 35.499 45.5c2 6 6 8.33301 12 7l68 -15c6.66699 -2 9 -6 7 -12c-12.667 -39.333 -34.667 -70 -66 -92s-69.666 -33 -114.999 -33c-52 0 -94 13 -126 39s-52.333 61.667 -61 107c-3.33301 18.667 -5.5 38.5 -6.5 59.5
s-1.5 48.833 -1.5 83.5c0 34 1.66699 61 5 81c6 46.667 25.667 84.167 59 112.5s75.333 42.5 126 42.5c55.333 0 100 -15.667 134 -47s53 -72.666 57 -123.999c2 -22.667 3 -64.334 3 -125.001c0 -6.66699 -3.33301 -10 -10 -10h-274c-2.66699 0 -4 -1.33301 -4 -4
c0 -18.667 1 -35 3 -49c3.33301 -24.667 13.666 -44.667 30.999 -60s39.333 -23 66 -23c22.667 0 41.834 5.5 57.501 16.5zM178.499 411c-16.333 -15.333 -26.1689 -35.334 -29.502 -60.001c-2 -18 -3 -37.667 -3 -59c0 -2.66699 1.33301 -4 4 -4h184
c2.66699 0 4 1.33301 4 4c-1.33301 26.667 -2.66602 46 -3.99902 58c-3.33301 24.667 -13.333 44.834 -30 60.501s-37.667 23.5 -63 23.5s-46.166 -7.66699 -62.499 -23zM107.996 578.499c-1.33301 2.33301 -1 5.16699 1 8.5l73 107c2.66699 4 6.66699 6 12 6h85
c5.33301 0 9.33301 -2 12 -6l75 -107c1.33301 -1.33301 2 -3 2 -5c0 -4.66699 -3 -7 -9 -7h-60c-4.66699 0 -8.66699 2.33301 -12 7l-46 72c-0.666992 1.33301 -1.66699 2 -3 2s-2.33301 -0.666992 -3 -2l-47 -72c-3.33301 -4.66699 -7.33301 -7 -12 -7h-60
c-4 0 -6.66699 1.16699 -8 3.5z" />
    <glyph glyph-name="edieresis" unicode="&#xeb;" horiz-adv-x="477" 
d="M303.5 91.5c15.667 11 27.499 26.167 35.499 45.5c2 6 6 8.33301 12 7l68 -15c6.66699 -2 9 -6 7 -12c-12.667 -39.333 -34.667 -70 -66 -92s-69.666 -33 -114.999 -33c-52 0 -94 13 -126 39s-52.333 61.667 -61 107c-3.33301 18.667 -5.5 38.5 -6.5 59.5
s-1.5 48.833 -1.5 83.5c0 34 1.66699 61 5 81c6 46.667 25.667 84.167 59 112.5s75.333 42.5 126 42.5c55.333 0 100 -15.667 134 -47s53 -72.666 57 -123.999c2 -22.667 3 -64.334 3 -125.001c0 -6.66699 -3.33301 -10 -10 -10h-274c-2.66699 0 -4 -1.33301 -4 -4
c0 -18.667 1 -35 3 -49c3.33301 -24.667 13.666 -44.667 30.999 -60s39.333 -23 66 -23c22.667 0 41.834 5.5 57.501 16.5zM178.499 411c-16.333 -15.333 -26.1689 -35.334 -29.502 -60.001c-2 -18 -3 -37.667 -3 -59c0 -2.66699 1.33301 -4 4 -4h184
c2.66699 0 4 1.33301 4 4c-1.33301 26.667 -2.66602 46 -3.99902 58c-3.33301 24.667 -13.333 44.834 -30 60.501s-37.667 23.5 -63 23.5s-46.166 -7.66699 -62.499 -23zM277.996 608.999c-12 12 -18 27.333 -18 46s6 34 18 46s27.333 18 46 18s34 -6 46 -18
s18 -27.333 18 -46s-6 -34 -18 -46s-27.333 -18 -46 -18s-34 6 -46 18zM105.996 608.999c-12 12 -18 27.333 -18 46s6 34 18 46s27.333 18 46 18s34 -6 46 -18s18 -27.333 18 -46s-6 -34 -18 -46s-27.333 -18 -46 -18s-34 6 -46 18z" />
    <glyph glyph-name="igrave" unicode="&#xec;" horiz-adv-x="199" 
d="M51 10v489c0 6.66699 3.33301 10 10 10h76c6.66699 0 10 -3.33301 10 -10v-489c0 -6.66699 -3.33301 -10 -10 -10h-76c-6.66699 -0 -10 3.33301 -10 10zM134 579c0 -4 -3 -6 -9 -6h-51c-4.66699 0 -8.66699 2 -12 6l-72 109l-2 5c0 4.66699 3 7 9 7h63
c5.33301 0 9.33301 -2.33301 12 -7l60 -108c1.33301 -2.66699 2 -4.66699 2 -6z" />
    <glyph glyph-name="iacute" unicode="&#xed;" horiz-adv-x="199" 
d="M51 10v489c0 6.66699 3.33301 10 10 10h76c6.66699 0 10 -3.33301 10 -10v-489c0 -6.66699 -3.33301 -10 -10 -10h-76c-6.66699 -0 -10 3.33301 -10 10zM50 576.5c-1.33301 2.33301 -1 5.16602 1 8.49902l59 108c2 4.66699 6 7 12 7h64c4 0 6.66699 -1.16699 8 -3.5
s1 -5.16602 -1 -8.49902l-72 -109c-3.33301 -4 -7.33301 -6 -12 -6h-51c-4 0 -6.66699 1.16699 -8 3.5z" />
    <glyph glyph-name="icircumflex" unicode="&#xee;" horiz-adv-x="199" 
d="M51 10v489c0 6.66699 3.33301 10 10 10h76c6.66699 0 10 -3.33301 10 -10v-489c0 -6.66699 -3.33301 -10 -10 -10h-76c-6.66699 -0 -10 3.33301 -10 10zM-31 578.5c-1.33301 2.33301 -1 5.16699 1 8.5l73 107c2.66699 4 6.66699 6 12 6h85c5.33301 0 9.33301 -2 12 -6
l75 -107c1.33301 -1.33301 2 -3 2 -5c0 -4.66699 -3 -7 -9 -7h-60c-4.66699 0 -8.66699 2.33301 -12 7l-46 72c-0.666992 1.33301 -1.66699 2 -3 2s-2.33301 -0.666992 -3 -2l-47 -72c-3.33301 -4.66699 -7.33301 -7 -12 -7h-60c-4 0 -6.66699 1.16699 -8 3.5z" />
    <glyph glyph-name="idieresis" unicode="&#xef;" horiz-adv-x="199" 
d="M51 10v489c0 6.66699 3.33301 10 10 10h76c6.66699 0 10 -3.33301 10 -10v-489c0 -6.66699 -3.33301 -10 -10 -10h-76c-6.66699 -0 -10 3.33301 -10 10zM139 609c-12 12 -18 27.333 -18 46s6 34 18 46s27.333 18 46 18s34 -6 46 -18s18 -27.333 18 -46s-6 -34 -18 -46
s-27.333 -18 -46 -18s-34 6 -46 18zM-33 609c-12 12 -18 27.333 -18 46s6 34 18 46s27.333 18 46 18s34 -6 46 -18s18 -27.333 18 -46s-6 -34 -18 -46s-27.333 -18 -46 -18s-34 6 -46 18z" />
    <glyph glyph-name="eth" unicode="&#xf0;" horiz-adv-x="488" 
d="M430 243c0 -40 -2.00195 -75.002 -6.00195 -105.002c-6.66699 -44 -26.5 -79.333 -59.5 -106s-74.833 -40 -125.5 -40c-50 0 -91.333 13.167 -124 39.5s-52.667 61.833 -60 106.5c-4 25.333 -6 60.333 -6 105s2 79.334 6 104.001c4.66699 38 20 69.5 46 94.5
s58 38.833 96 41.5c12 1.33301 20.667 2 26 2c18 0 34.667 -2.16699 50 -6.5s28.333 -10.833 39 -19.5c3.33301 -2 4.33301 -1 3 3c-9.33301 33.333 -24.666 66.333 -45.999 99c-1.33301 2.66699 -3 3.33398 -5 2.00098l-86 -23l-4 -1c-4 0 -7 2.66699 -9 8l-7 28l-1 4
c0 4 2.66699 7 8 9l65 19c3.33301 1.33301 4 3 2 5c-21.333 26 -43.666 51.333 -66.999 76c-2 2 -3 4 -3 6c0 4 2.66699 6 8 6h77c4 0 8 -2 12 -6l18 -21c24 -28.667 35.333 -42 34 -40c1.33301 -2.66699 3 -3.33398 5 -2.00098l81 23l4 1c4 0 7 -2.66699 9 -8l8 -30v-3
c0 -4.66699 -2.33301 -8 -7 -10l-61 -17c-2.66699 -1.33301 -3.66699 -2.66602 -3 -3.99902c46.667 -69.333 72.667 -147 78 -233c3.33301 -27.333 5 -63 5 -107zM332.998 241.998c0 33.333 -1 62.333 -3 87c-3.33301 24.667 -13.333 44.5 -30 59.5s-37 22.5 -61 22.5
c-24.667 0 -45 -7.5 -61 -22.5s-25.667 -34.833 -29 -59.5c-2.66699 -23.333 -4 -52.333 -4 -87c0 -36 1.33301 -65.667 4 -89c3.33301 -24.667 13 -44.5 29 -59.5s36.333 -22.5 61 -22.5c24 0 44.333 7.5 61 22.5s26.667 34.833 30 59.5c2 26 3 55.667 3 89z" />
    <glyph glyph-name="ntilde" unicode="&#xf1;" 
d="M179.5 632.5c-7 -3.66699 -13.501 -10.1699 -19.501 -19.5029c-4 -6 -8.66699 -6.66699 -14 -2l-26 21c-4.66699 4 -5.66699 8.33301 -3 13c8.66699 19.333 20 33.833 34 43.5s29.333 14.5 46 14.5c10.667 0 20.5 -2 29.5 -6s19.167 -9.66699 30.5 -17l13.5 -8.5
c5.66699 -3.66699 10.834 -6.5 15.501 -8.5s9.66699 -3 15 -3c17.333 0 31.666 8.66699 42.999 26c1.33301 2.66699 3.33301 4.33398 6 5.00098s5.33398 0 8.00098 -2l25 -20c4.66699 -4 5.66699 -8.33301 3 -13c-9.33301 -19.333 -21.666 -33.666 -36.999 -42.999
s-31 -14 -47 -14c-10 0 -19.167 1.66699 -27.5 5s-17.5 8.33301 -27.5 15l-13.5 8.5c-5.66699 3.66699 -10.834 6.33398 -15.501 8.00098s-9.66699 2.5 -15 2.5c-8.66699 0 -16.5 -1.83301 -23.5 -5.5zM389.499 470.997c27 -30 40.5 -71.333 40.5 -124v-337
c0 -6.66699 -3.33301 -10 -10 -10h-76c-6.66699 0 -10 3.33301 -10 10v323c0 30.667 -7.83301 55 -23.5 73s-36.834 27 -63.501 27c-27.333 0 -49.166 -9.16699 -65.499 -27.5s-24.5 -42.833 -24.5 -73.5v-322c0 -6.66699 -3.33301 -10 -10 -10h-76
c-6.66699 0 -10 3.33301 -10 10v489c0 6.66699 3.33301 10 10 10h76c6.66699 0 10 -3.33301 10 -10v-31c0 -2 0.5 -3.16699 1.5 -3.5s2.16699 0.5 3.5 2.5c26 32.667 64 49 114 49c48.667 0 86.5 -15 113.5 -45z" />
    <glyph glyph-name="ograve" unicode="&#xf2;" horiz-adv-x="483" 
d="M117 32.5c-33.333 27 -53.332 63.833 -59.999 110.5c-5.33301 33.333 -8 70.666 -8 111.999c0 42 2.66699 79 8 111c6.66699 46 26.667 82.667 60 110s76 41 128 41c51.333 0 93.666 -13.667 126.999 -41s53.333 -63.666 60 -108.999c5.33301 -28.667 8 -66 8 -112
s-2.66699 -83.333 -8 -112c-6.66699 -46.667 -26.5 -83.5 -59.5 -110.5s-75.5 -40.5 -127.5 -40.5s-94.667 13.5 -128 40.5zM307.501 98c17 15.333 27.5 35.665 31.5 60.998c3.33301 30 5 62 5 96c0 34.667 -1.66699 66.334 -5 95.001c-4 25.333 -14.5 45.666 -31.5 60.999
s-38.167 23 -63.5 23c-24.667 0 -45.5 -7.66699 -62.5 -23s-27.5 -35.666 -31.5 -60.999c-2.66699 -23.333 -4 -55 -4 -95c0 -40.667 1.33301 -72.667 4 -96c4 -25.333 14.5 -45.666 31.5 -60.999s38.167 -23 63.5 -23c24.667 0 45.5 7.66699 62.5 23zM276.001 578.999
c0 -4 -3 -6 -9 -6h-51c-4.66699 0 -8.66699 2 -12 6l-72 109l-2 5c0 4.66699 3 7 9 7h63c5.33301 0 9.33301 -2.33301 12 -7l60 -108c1.33301 -2.66699 2 -4.66699 2 -6z" />
    <glyph glyph-name="oacute" unicode="&#xf3;" horiz-adv-x="483" 
d="M117 32.5c-33.333 27 -53.332 63.833 -59.999 110.5c-5.33301 33.333 -8 70.666 -8 111.999c0 42 2.66699 79 8 111c6.66699 46 26.667 82.667 60 110s76 41 128 41c51.333 0 93.666 -13.667 126.999 -41s53.333 -63.666 60 -108.999c5.33301 -28.667 8 -66 8 -112
s-2.66699 -83.333 -8 -112c-6.66699 -46.667 -26.5 -83.5 -59.5 -110.5s-75.5 -40.5 -127.5 -40.5s-94.667 13.5 -128 40.5zM307.501 98c17 15.333 27.5 35.665 31.5 60.998c3.33301 30 5 62 5 96c0 34.667 -1.66699 66.334 -5 95.001c-4 25.333 -14.5 45.666 -31.5 60.999
s-38.167 23 -63.5 23c-24.667 0 -45.5 -7.66699 -62.5 -23s-27.5 -35.666 -31.5 -60.999c-2.66699 -23.333 -4 -55 -4 -95c0 -40.667 1.33301 -72.667 4 -96c4 -25.333 14.5 -45.666 31.5 -60.999s38.167 -23 63.5 -23c24.667 0 45.5 7.66699 62.5 23zM191.001 576.499
c-1.33301 2.33301 -1 5.16602 1 8.49902l59 108c2 4.66699 6 7 12 7h64c4 0 6.66699 -1.16699 8 -3.5s1 -5.16602 -1 -8.49902l-72 -109c-3.33301 -4 -7.33301 -6 -12 -6h-51c-4 0 -6.66699 1.16699 -8 3.5z" />
    <glyph glyph-name="ocircumflex" unicode="&#xf4;" horiz-adv-x="483" 
d="M117 32.5c-33.333 27 -53.332 63.833 -59.999 110.5c-5.33301 33.333 -8 70.666 -8 111.999c0 42 2.66699 79 8 111c6.66699 46 26.667 82.667 60 110s76 41 128 41c51.333 0 93.666 -13.667 126.999 -41s53.333 -63.666 60 -108.999c5.33301 -28.667 8 -66 8 -112
s-2.66699 -83.333 -8 -112c-6.66699 -46.667 -26.5 -83.5 -59.5 -110.5s-75.5 -40.5 -127.5 -40.5s-94.667 13.5 -128 40.5zM307.501 98c17 15.333 27.5 35.665 31.5 60.998c3.33301 30 5 62 5 96c0 34.667 -1.66699 66.334 -5 95.001c-4 25.333 -14.5 45.666 -31.5 60.999
s-38.167 23 -63.5 23c-24.667 0 -45.5 -7.66699 -62.5 -23s-27.5 -35.666 -31.5 -60.999c-2.66699 -23.333 -4 -55 -4 -95c0 -40.667 1.33301 -72.667 4 -96c4 -25.333 14.5 -45.666 31.5 -60.999s38.167 -23 63.5 -23c24.667 0 45.5 7.66699 62.5 23zM111.001 578.499
c-1.33301 2.33301 -1 5.16699 1 8.5l73 107c2.66699 4 6.66699 6 12 6h85c5.33301 0 9.33301 -2 12 -6l75 -107c1.33301 -1.33301 2 -3 2 -5c0 -4.66699 -3 -7 -9 -7h-60c-4.66699 0 -8.66699 2.33301 -12 7l-46 72c-0.666992 1.33301 -1.66699 2 -3 2
s-2.33301 -0.666992 -3 -2l-47 -72c-3.33301 -4.66699 -7.33301 -7 -12 -7h-60c-4 0 -6.66699 1.16699 -8 3.5z" />
    <glyph glyph-name="otilde" unicode="&#xf5;" horiz-adv-x="483" 
d="M117 32.5c-33.333 27 -53.332 63.833 -59.999 110.5c-5.33301 33.333 -8 70.666 -8 111.999c0 42 2.66699 79 8 111c6.66699 46 26.667 82.667 60 110s76 41 128 41c51.333 0 93.666 -13.667 126.999 -41s53.333 -63.666 60 -108.999c5.33301 -28.667 8 -66 8 -112
s-2.66699 -83.333 -8 -112c-6.66699 -46.667 -26.5 -83.5 -59.5 -110.5s-75.5 -40.5 -127.5 -40.5s-94.667 13.5 -128 40.5zM307.501 98c17 15.333 27.5 35.665 31.5 60.998c3.33301 30 5 62 5 96c0 34.667 -1.66699 66.334 -5 95.001c-4 25.333 -14.5 45.666 -31.5 60.999
s-38.167 23 -63.5 23c-24.667 0 -45.5 -7.66699 -62.5 -23s-27.5 -35.666 -31.5 -60.999c-2.66699 -23.333 -4 -55 -4 -95c0 -40.667 1.33301 -72.667 4 -96c4 -25.333 14.5 -45.666 31.5 -60.999s38.167 -23 63.5 -23c24.667 0 45.5 7.66699 62.5 23zM271.001 603.999
c-8.66699 3.33301 -18.3301 8.33301 -28.9971 15l-14.5 8.5c-6.33301 3.66699 -11.833 6.33398 -16.5 8.00098s-9.66699 2.5 -15 2.5c-9.33301 0 -17.666 -1.83301 -24.999 -5.5s-14.333 -10.167 -21 -19.5c-4 -6 -8.66699 -7 -14 -3l-28 22
c-4.66699 4 -5.66699 8.33301 -3 13c9.33301 19.333 21.333 33.833 36 43.5s31 14.5 49 14.5c11.333 0 21.666 -2 30.999 -6s19.666 -9.66699 30.999 -17l14 -8.5c6 -3.66699 11.5 -6.5 16.5 -8.5s10.167 -3 15.5 -3c19.333 0 34.666 9 45.999 27c4 6 8.66699 7 14 3l27 -21
c2.66699 -2.66699 4 -5.33398 4 -8.00098s-1 -5.66699 -3 -9c-10 -18 -22.833 -31.333 -38.5 -40s-31.834 -13 -48.501 -13c-10 0 -19.333 1.66699 -28 5z" />
    <glyph glyph-name="odieresis" unicode="&#xf6;" horiz-adv-x="483" 
d="M117 32.5c-33.333 27 -53.332 63.833 -59.999 110.5c-5.33301 33.333 -8 70.666 -8 111.999c0 42 2.66699 79 8 111c6.66699 46 26.667 82.667 60 110s76 41 128 41c51.333 0 93.666 -13.667 126.999 -41s53.333 -63.666 60 -108.999c5.33301 -28.667 8 -66 8 -112
s-2.66699 -83.333 -8 -112c-6.66699 -46.667 -26.5 -83.5 -59.5 -110.5s-75.5 -40.5 -127.5 -40.5s-94.667 13.5 -128 40.5zM307.501 98c17 15.333 27.5 35.665 31.5 60.998c3.33301 30 5 62 5 96c0 34.667 -1.66699 66.334 -5 95.001c-4 25.333 -14.5 45.666 -31.5 60.999
s-38.167 23 -63.5 23c-24.667 0 -45.5 -7.66699 -62.5 -23s-27.5 -35.666 -31.5 -60.999c-2.66699 -23.333 -4 -55 -4 -95c0 -40.667 1.33301 -72.667 4 -96c4 -25.333 14.5 -45.666 31.5 -60.999s38.167 -23 63.5 -23c24.667 0 45.5 7.66699 62.5 23zM281.001 608.999
c-12 12 -18 27.333 -18 46s6 34 18 46s27.333 18 46 18s34 -6 46 -18s18 -27.333 18 -46s-6 -34 -18 -46s-27.333 -18 -46 -18s-34 6 -46 18zM109.001 608.999c-12 12 -18 27.333 -18 46s6 34 18 46s27.333 18 46 18s34 -6 46 -18s18 -27.333 18 -46s-6 -34 -18 -46
s-27.333 -18 -46 -18s-34 6 -46 18z" />
    <glyph glyph-name="divide" unicode="&#xf7;" horiz-adv-x="468" 
d="M192 443c-11.333 11.333 -17 25.333 -17 42c0 15.333 5.83301 28.666 17.5 39.999s25.167 17 40.5 17c16 0 29.833 -5.66699 41.5 -17s17.5 -24.666 17.5 -39.999c0 -16.667 -5.83301 -30.667 -17.5 -42s-25.5 -17 -41.5 -17s-29.667 5.66699 -41 17zM32 291v58
c0 6.66699 3.33301 10 10 10h383c6.66699 0 10 -3.33301 10 -10v-58c0 -6.66699 -3.33301 -10 -10 -10h-383c-6.66699 0 -10 3.33301 -10 10zM192 124c-11.333 11.333 -17 25 -17 41c0 15.333 5.83301 28.833 17.5 40.5s25.167 17.5 40.5 17.5
c16 0 29.833 -5.83301 41.5 -17.5s17.5 -25.167 17.5 -40.5c0 -16 -5.83301 -29.667 -17.5 -41s-25.5 -17 -41.5 -17s-29.667 5.66699 -41 17z" />
    <glyph glyph-name="oslash" unicode="&#xf8;" horiz-adv-x="489" 
d="M401 442c14.667 -22 24 -47 28 -75c5.33301 -28.667 8 -66 8 -112s-2.66699 -83.333 -8 -112c-6.66699 -46.667 -26.5 -83.5 -59.5 -110.5s-75.5 -40.5 -127.5 -40.5c-34.667 0 -65 6 -91 18c-2.66699 1.33301 -4.33398 1 -5.00098 -1l-28 -48
c-1.33301 -2.66699 -3.33301 -4.33398 -6 -5.00098s-5.33398 0 -8.00098 2l-52 36c-2.66699 2 -4.16699 4 -4.5 6s0.166992 4.33301 1.5 7l32 56c1.33301 2 1.33301 4 0 6c-14 20.667 -23 45.334 -27 74.001c-5.33301 33.333 -8 70.666 -8 111.999c0 46 2.33301 83 7 111
c7.33301 46 27.666 82.667 60.999 110s76 41 128 41c32.667 0 62.334 -5.66699 89.001 -17c2.66699 -1.33301 4.33398 -1 5.00098 1l29 49c1.33301 2.66699 3.33301 4.33398 6 5.00098s5.33398 0 8.00098 -2l51 -36c2.66699 -2 4.16699 -4 4.5 -6
s-0.166992 -4.33301 -1.5 -7l-32 -56c-0.666992 -2 -0.666992 -4 0 -6zM145 183c0.666992 -2 1.50098 -3.33398 2.50098 -4.00098s1.83301 0 2.5 2l138 237c1.33301 3.33301 0.666016 5.33301 -2.00098 6c-12.667 6.66699 -27.667 10 -45 10
c-24.667 0 -45.5 -7.66699 -62.5 -23s-27.5 -35.666 -31.5 -60.999c-2.66699 -23.333 -4 -55 -4 -95c0 -20 0.666992 -44 2 -72zM340.001 254.999c0 20 -0.666992 44.668 -2 74.001c-0.666992 2 -1.5 3.33301 -2.5 4s-1.83301 0 -2.5 -2l-139 -239
c-1.33301 -3.33301 -0.666016 -5.33301 2.00098 -6c13.333 -7.33301 28.666 -11 45.999 -11c24.667 0 45.5 7.66699 62.5 23s27.5 35.666 31.5 60.999c2.66699 24 4 56 4 96z" />
    <glyph glyph-name="ugrave" unicode="&#xf9;" 
d="M338 509l76.001 -0.00195312c6.66699 0 10 -3.33301 10 -10v-489c0 -6.66699 -3.33301 -10 -10 -10h-76c-6.66699 0 -10 3.33301 -10 10v31c0 1.33301 -0.5 2.33301 -1.5 3s-2.16699 0.333984 -3.5 -0.999023c-23.333 -33.333 -60 -50 -110 -50
c-45.333 0 -82.833 13.333 -112.5 40s-44.5 65.334 -44.5 116.001v350c0 6.66699 3.33301 10 10 10h75c6.66699 0 10 -3.33301 10 -10v-324c0 -31.333 7.5 -55.666 22.5 -72.999s36.5 -26 64.5 -26c27.333 0 49.166 9.16699 65.499 27.5s24.5 43.166 24.5 74.499v321
c0 6.66699 3.33301 10 10 10zM276.001 578.998c0 -4 -3 -6 -9 -6h-51c-4.66699 0 -8.66699 2 -12 6l-72 109l-2 5c0 4.66699 3 7 9 7h63c5.33301 0 9.33301 -2.33301 12 -7l60 -108c1.33301 -2.66699 2 -4.66699 2 -6z" />
    <glyph glyph-name="uacute" unicode="&#xfa;" 
d="M338 509l76.001 -0.00195312c6.66699 0 10 -3.33301 10 -10v-489c0 -6.66699 -3.33301 -10 -10 -10h-76c-6.66699 0 -10 3.33301 -10 10v31c0 1.33301 -0.5 2.33301 -1.5 3s-2.16699 0.333984 -3.5 -0.999023c-23.333 -33.333 -60 -50 -110 -50
c-45.333 0 -82.833 13.333 -112.5 40s-44.5 65.334 -44.5 116.001v350c0 6.66699 3.33301 10 10 10h75c6.66699 0 10 -3.33301 10 -10v-324c0 -31.333 7.5 -55.666 22.5 -72.999s36.5 -26 64.5 -26c27.333 0 49.166 9.16699 65.499 27.5s24.5 43.166 24.5 74.499v321
c0 6.66699 3.33301 10 10 10zM192.001 576.498c-1.33301 2.33301 -1 5.16602 1 8.49902l59 108c2 4.66699 6 7 12 7h64c4 0 6.66699 -1.16699 8 -3.5s1 -5.16602 -1 -8.49902l-72 -109c-3.33301 -4 -7.33301 -6 -12 -6h-51c-4 0 -6.66699 1.16699 -8 3.5z" />
    <glyph glyph-name="ucircumflex" unicode="&#xfb;" 
d="M338 509l76.001 -0.00195312c6.66699 0 10 -3.33301 10 -10v-489c0 -6.66699 -3.33301 -10 -10 -10h-76c-6.66699 0 -10 3.33301 -10 10v31c0 1.33301 -0.5 2.33301 -1.5 3s-2.16699 0.333984 -3.5 -0.999023c-23.333 -33.333 -60 -50 -110 -50
c-45.333 0 -82.833 13.333 -112.5 40s-44.5 65.334 -44.5 116.001v350c0 6.66699 3.33301 10 10 10h75c6.66699 0 10 -3.33301 10 -10v-324c0 -31.333 7.5 -55.666 22.5 -72.999s36.5 -26 64.5 -26c27.333 0 49.166 9.16699 65.499 27.5s24.5 43.166 24.5 74.499v321
c0 6.66699 3.33301 10 10 10zM111.001 578.498c-1.33301 2.33301 -1 5.16699 1 8.5l73 107c2.66699 4 6.66699 6 12 6h85c5.33301 0 9.33301 -2 12 -6l75 -107c1.33301 -1.33301 2 -3 2 -5c0 -4.66699 -3 -7 -9 -7h-60c-4.66699 0 -8.66699 2.33301 -12 7l-46 72
c-0.666992 1.33301 -1.66699 2 -3 2s-2.33301 -0.666992 -3 -2l-47 -72c-3.33301 -4.66699 -7.33301 -7 -12 -7h-60c-4 0 -6.66699 1.16699 -8 3.5z" />
    <glyph glyph-name="udieresis" unicode="&#xfc;" 
d="M338 509l76.001 -0.00195312c6.66699 0 10 -3.33301 10 -10v-489c0 -6.66699 -3.33301 -10 -10 -10h-76c-6.66699 0 -10 3.33301 -10 10v31c0 1.33301 -0.5 2.33301 -1.5 3s-2.16699 0.333984 -3.5 -0.999023c-23.333 -33.333 -60 -50 -110 -50
c-45.333 0 -82.833 13.333 -112.5 40s-44.5 65.334 -44.5 116.001v350c0 6.66699 3.33301 10 10 10h75c6.66699 0 10 -3.33301 10 -10v-324c0 -31.333 7.5 -55.666 22.5 -72.999s36.5 -26 64.5 -26c27.333 0 49.166 9.16699 65.499 27.5s24.5 43.166 24.5 74.499v321
c0 6.66699 3.33301 10 10 10zM281.001 608.998c-12 12 -18 27.333 -18 46s6 34 18 46s27.333 18 46 18s34 -6 46 -18s18 -27.333 18 -46s-6 -34 -18 -46s-27.333 -18 -46 -18s-34 6 -46 18zM109.001 608.998c-12 12 -18 27.333 -18 46s6 34 18 46s27.333 18 46 18
s34 -6 46 -18s18 -27.333 18 -46s-6 -34 -18 -46s-27.333 -18 -46 -18s-34 6 -46 18z" />
    <glyph glyph-name="yacute" unicode="&#xfd;" horiz-adv-x="432" 
d="M42 -189l-0.00390625 58.9971c0 6.66699 3.33301 10 10 10h1c24 0.666992 42.833 4 56.5 10s24.834 17.167 33.501 33.5s16.667 40.833 24 73.5c0.666992 0.666992 0.833984 1.83398 0.500977 3.50098l-0.5 2.5l-147 495l-1 3c0 5.33301 3.33301 8 10 8h81
c6.66699 0 10.334 -3 11.001 -9l94 -369c0.666992 -1.33301 1.33398 -2.16602 2.00098 -2.49902s1.33398 0.5 2.00098 2.5l93 369c1.33301 6 5 9 11 9l80 -1c3.33301 0 5.83301 -1 7.5 -3s2.16699 -4.66699 1.5 -8l-159 -532c-14 -46 -28 -80.167 -42 -102.5
s-32.833 -38.166 -56.5 -47.499s-56.834 -14 -99.501 -14h-6c-4.66699 0 -7 3.33301 -7 10zM165.996 579.497c-1.33301 2.33301 -1 5.16602 1 8.49902l59 108c2 4.66699 6 7 12 7h64c4 0 6.66699 -1.16699 8 -3.5s1 -5.16602 -1 -8.49902l-72 -109
c-3.33301 -4 -7.33301 -6 -12 -6h-51c-4 0 -6.66699 1.16699 -8 3.5z" />
    <glyph glyph-name="thorn" unicode="&#xfe;" horiz-adv-x="485" 
d="M436 254c0 -56 -1.66895 -93 -5.00195 -111c-5.33301 -46 -22.166 -82.667 -50.499 -110s-64.5 -41 -108.5 -41c-49.333 0 -86.666 19.333 -111.999 58c-0.666992 2 -1.66699 2.83301 -3 2.5s-2 -1.5 -2 -3.5v-239c0 -6.66699 -3.33301 -10 -10 -10h-76
c-6.66699 0 -10 3.33301 -10 10v880c0 6.66699 3.33301 10 10 10h76c6.66699 0 10 -3.33301 10 -10v-228c0 -2 0.666992 -3.16699 2 -3.5s2.33301 0.5 3 2.5c23.333 37.333 60 56 110 56c44.667 0 81 -13.167 109 -39.5s45 -61.833 51 -106.5c4 -23.333 6 -62.333 6 -117z
M337.998 255c0 42 -1.33203 74.001 -3.99902 96.001c-3.33301 24.667 -13.166 44.667 -29.499 60s-36.833 23 -61.5 23c-24 0 -43.833 -7.66699 -59.5 -23s-24.834 -35 -27.501 -59l-1 -7v-187c3.33301 -24 12.833 -43.833 28.5 -59.5s35.5 -23.5 59.5 -23.5
c24.667 0 45.167 7.66699 61.5 23s26.166 35.333 29.499 60c2.66699 23.333 4 55.666 4 96.999z" />
    <glyph glyph-name="ydieresis" unicode="&#xff;" horiz-adv-x="432" 
d="M42 -189l-0.00390625 58.9971c0 6.66699 3.33301 10 10 10h1c24 0.666992 42.833 4 56.5 10s24.834 17.167 33.501 33.5s16.667 40.833 24 73.5c0.666992 0.666992 0.833984 1.83398 0.500977 3.50098l-0.5 2.5l-147 495l-1 3c0 5.33301 3.33301 8 10 8h81
c6.66699 0 10.334 -3 11.001 -9l94 -369c0.666992 -1.33301 1.33398 -2.16602 2.00098 -2.49902s1.33398 0.5 2.00098 2.5l93 369c1.33301 6 5 9 11 9l80 -1c3.33301 0 5.83301 -1 7.5 -3s2.16699 -4.66699 1.5 -8l-159 -532c-14 -46 -28 -80.167 -42 -102.5
s-32.833 -38.166 -56.5 -47.499s-56.834 -14 -99.501 -14h-6c-4.66699 0 -7 3.33301 -7 10zM254.996 611.997c-12 12 -18 27.333 -18 46s6 34 18 46s27.333 18 46 18s34 -6 46 -18s18 -27.333 18 -46s-6 -34 -18 -46s-27.333 -18 -46 -18s-34 6 -46 18zM82.9961 611.997
c-12 12 -18 27.333 -18 46s6 34 18 46s27.333 18 46 18s34 -6 46 -18s18 -27.333 18 -46s-6 -34 -18 -46s-27.333 -18 -46 -18s-34 6 -46 18z" />
    <glyph glyph-name="Amacron" unicode="&#x100;" horiz-adv-x="533" 
d="M411 9l-29.998 116c-0.666992 2 -2.33398 3 -5.00098 3h-221c-3.33301 0 -5 -1 -5 -3l-29 -116c-0.666992 -6 -4.33398 -9 -11.001 -9h-78c-3.33301 0 -5.83301 1 -7.5 3s-2.16699 4.66699 -1.5 8l185 680c1.33301 6 5 9 11 9h94c6 0 9.66699 -3 11 -9l186 -680l1 -3
c0 -5.33301 -3.33301 -8 -10 -8h-79c-6 0 -9.66699 3 -11 9zM171.502 205.5c1 -1 2.16895 -1.5 3.50195 -1.5h181c1.33301 0 2.5 0.5 3.5 1.5s1.16699 1.83301 0.5 2.5l-93 362c-0.666992 1.33301 -1.33398 2 -2.00098 2s-1.33398 -0.666992 -2.00098 -2l-92 -362
c-0.666992 -0.666992 -0.5 -1.5 0.5 -2.5zM143.004 790v48c0 6.66699 3.33301 10 10 10h224c6.66699 0 10 -3.33301 10 -10v-48c0 -6.66699 -3.33301 -10 -10 -10h-224c-6.66699 0 -10 3.33301 -10 10z" />
    <glyph glyph-name="amacron" unicode="&#x101;" horiz-adv-x="470" 
d="M369 470.5c33.333 -31 50 -71.502 50 -121.502v-339c0 -6.66699 -3.33301 -10 -10 -10h-76c-6.66699 0 -10 3.33301 -10 10v29c0 1.33301 -0.5 2.16602 -1.5 2.49902s-2.16699 -0.166992 -3.5 -1.5c-30 -32 -71.667 -48 -125 -48c-43.333 0 -80.333 11.833 -111 35.5
s-46 61.834 -46 114.501c0 54.667 17.833 96.167 53.5 124.5s84.167 42.5 145.5 42.5h84c2.66699 0 4 1.33301 4 4v28c0 28.667 -7.5 51.334 -22.5 68.001s-36.5 25 -64.5 25c-22 0 -40.167 -5.5 -54.5 -16.5s-23.166 -25.833 -26.499 -44.5
c-0.666992 -6 -4.33398 -9 -11.001 -9l-82 5c-2.66699 0 -5 0.833008 -7 2.5s-2.66699 3.83398 -2 6.50098c4 41.333 22.833 74.833 56.5 100.5s75.834 38.5 126.501 38.5c55.333 0 99.666 -15.5 132.999 -46.5zM290.5 98.998c21.667 16.667 32.501 39 32.501 67v64
c0 2.66699 -1.33301 4 -4 4h-77c-32.667 0 -58.834 -7.33301 -78.501 -22s-29.5 -36 -29.5 -64c0 -24.667 7.33301 -43.167 22 -55.5s34 -18.5 58 -18.5c29.333 0 54.833 8.33301 76.5 25zM112.001 598.998v48c0 6.66699 3.33301 10 10 10h224c6.66699 0 10 -3.33301 10 -10
v-48c0 -6.66699 -3.33301 -10 -10 -10h-224c-6.66699 0 -10 3.33301 -10 10z" />
    <glyph glyph-name="Abreve" unicode="&#x102;" horiz-adv-x="533" 
d="M411 9l-29.998 116c-0.666992 2 -2.33398 3 -5.00098 3h-221c-3.33301 0 -5 -1 -5 -3l-29 -116c-0.666992 -6 -4.33398 -9 -11.001 -9h-78c-3.33301 0 -5.83301 1 -7.5 3s-2.16699 4.66699 -1.5 8l185 680c1.33301 6 5 9 11 9h94c6 0 9.66699 -3 11 -9l186 -680l1 -3
c0 -5.33301 -3.33301 -8 -10 -8h-79c-6 0 -9.66699 3 -11 9zM171.502 205.5c1 -1 2.16895 -1.5 3.50195 -1.5h181c1.33301 0 2.5 0.5 3.5 1.5s1.16699 1.83301 0.5 2.5l-93 362c-0.666992 1.33301 -1.33398 2 -2.00098 2s-1.33398 -0.666992 -2.00098 -2l-92 -362
c-0.666992 -0.666992 -0.5 -1.5 0.5 -2.5zM181.504 778c-23 19.333 -36.1689 44 -39.502 74c0 6.66699 3.33301 10 10 10h39c6.66699 0 10.334 -3.33301 11.001 -10c2 -16 8.83301 -29 20.5 -39s25.834 -15 42.501 -15s31 5 43 15s19 23 21 39
c0.666992 6.66699 4.33398 10 11.001 10h38c6.66699 0 10 -3 10 -9c-2.66699 -30.667 -15.334 -55.667 -38.001 -75s-51 -29 -85 -29c-32.667 0 -60.5 9.66699 -83.5 29z" />
    <glyph glyph-name="abreve" unicode="&#x103;" horiz-adv-x="470" 
d="M369 470.5c33.333 -31 50 -71.502 50 -121.502v-339c0 -6.66699 -3.33301 -10 -10 -10h-76c-6.66699 0 -10 3.33301 -10 10v29c0 1.33301 -0.5 2.16602 -1.5 2.49902s-2.16699 -0.166992 -3.5 -1.5c-30 -32 -71.667 -48 -125 -48c-43.333 0 -80.333 11.833 -111 35.5
s-46 61.834 -46 114.501c0 54.667 17.833 96.167 53.5 124.5s84.167 42.5 145.5 42.5h84c2.66699 0 4 1.33301 4 4v28c0 28.667 -7.5 51.334 -22.5 68.001s-36.5 25 -64.5 25c-22 0 -40.167 -5.5 -54.5 -16.5s-23.166 -25.833 -26.499 -44.5
c-0.666992 -6 -4.33398 -9 -11.001 -9l-82 5c-2.66699 0 -5 0.833008 -7 2.5s-2.66699 3.83398 -2 6.50098c4 41.333 22.833 74.833 56.5 100.5s75.834 38.5 126.501 38.5c55.333 0 99.666 -15.5 132.999 -46.5zM290.5 98.998c21.667 16.667 32.501 39 32.501 67v64
c0 2.66699 -1.33301 4 -4 4h-77c-32.667 0 -58.834 -7.33301 -78.501 -22s-29.5 -36 -29.5 -64c0 -24.667 7.33301 -43.167 22 -55.5s34 -18.5 58 -18.5c29.333 0 54.833 8.33301 76.5 25zM151.501 586.998c-23 19.333 -36.1689 44 -39.502 74c0 6.66699 3.33301 10 10 10
h39c6.66699 0 10.334 -3.33301 11.001 -10c2 -16 8.83301 -29 20.5 -39s25.834 -15 42.501 -15s31 5 43 15s19 23 21 39c0.666992 6.66699 4.33398 10 11.001 10h38c6.66699 0 10 -3 10 -9c-2.66699 -30.667 -15.334 -55.667 -38.001 -75s-51 -29 -85 -29
c-32.667 0 -60.5 9.66699 -83.5 29z" />
    <glyph glyph-name="Aogonek" unicode="&#x104;" horiz-adv-x="533" 
d="M411 9l-29.998 116c-0.666992 2 -2.33398 3 -5.00098 3h-221c-3.33301 0 -5 -1 -5 -3l-29 -116c-0.666992 -6 -4.33398 -9 -11.001 -9h-78c-3.33301 0 -5.83301 1 -7.5 3s-2.16699 4.66699 -1.5 8l185 680c1.33301 6 5 9 11 9h94c6 0 9.66699 -3 11 -9l186 -680l1 -3
c0 -5.33301 -3.33301 -8 -10 -8h-79c-6 0 -9.66699 3 -11 9zM171.502 205.5c1 -1 2.16895 -1.5 3.50195 -1.5h181c1.33301 0 2.5 0.5 3.5 1.5s1.16699 1.83301 0.5 2.5l-93 362c-0.666992 1.33301 -1.33398 2 -2.00098 2s-1.33398 -0.666992 -2.00098 -2l-92 -362
c-0.666992 -0.666992 -0.5 -1.5 0.5 -2.5zM525.004 -172c0 -4.66699 -2.66699 -8.00098 -8 -10.001c-16 -4 -30.333 -6 -43 -6c-20.667 0 -38.667 4.66699 -54 14s-25.666 25 -30.999 47c-2 6.66699 -3 14 -3 22c0 35.333 17.333 68 52 98l4 4c2 2 5.33301 3 10 3h42
c5.33301 0 8 -1.66699 8 -5c0 -2.66699 -1.33301 -5 -4 -7c-30.667 -27.333 -46 -53.666 -46 -78.999c0 -4.66699 0.333008 -8 1 -10c4.66699 -20.667 17.667 -31 39 -31c4 0 9.33301 0.666992 16 2h2c5.33301 0 8.66602 -2.66699 9.99902 -8l5 -32v-2z" />
    <glyph glyph-name="aogonek" unicode="&#x105;" horiz-adv-x="470" 
d="M416 -130c5.33301 0 8.66699 -2.66895 10 -8.00195l5 -32v-2c0 -4.66699 -2.66699 -8 -8 -10c-16 -4 -30.333 -6 -43 -6c-20.667 0 -38.667 4.66699 -54 14s-25.666 25 -30.999 47c-2 6.66699 -3 14.334 -3 23.001c0 34.667 17.667 67.667 53 99
c1.33301 1.33301 1.66602 2.5 0.999023 3.5s-1.66699 1.5 -3 1.5h-10c-6.66699 0 -10 3.33301 -10 10v29c0 1.33301 -0.5 2.16602 -1.5 2.49902s-2.16699 -0.166992 -3.5 -1.5c-30 -32 -71.667 -48 -125 -48c-43.333 0 -80.333 11.833 -111 35.5s-46 61.834 -46 114.501
c0 54.667 17.833 96.167 53.5 124.5s84.167 42.5 145.5 42.5h84c2.66699 0 4 1.33301 4 4v28c0 28.667 -7.5 51.334 -22.5 68.001s-36.5 25 -64.5 25c-22 0 -40.167 -5.5 -54.5 -16.5s-23.166 -25.833 -26.499 -44.5c-0.666992 -6 -4.33398 -9 -11.001 -9l-82 5
c-2.66699 0 -5 1 -7 3s-2.66699 4.66699 -2 8c4.66699 40.667 23.834 73.667 57.501 99s75.5 38 125.5 38c55.333 0 99.666 -15.5 132.999 -46.5s50 -71.5 50 -121.5v-341c0 -4.66699 -2 -9 -6 -13c-16.667 -14 -30 -28.333 -40 -43s-15 -29 -15 -43s3.66699 -24.333 11 -31
s17 -10 29 -10c4 0 9.33301 0.666992 16 2h2zM290.501 98.998c21.667 16.667 32.501 39 32.501 67v64c0 2.66699 -1.33301 4 -4 4h-77c-32.667 0 -58.834 -7.33301 -78.501 -22s-29.5 -36 -29.5 -64c0 -24.667 7.33301 -43.167 22 -55.5s34 -18.5 58 -18.5
c29.333 0 54.833 8.33301 76.5 25z" />
    <glyph glyph-name="Cacute" unicode="&#x106;" horiz-adv-x="530" 
d="M156.5 17.5c-32.333 17 -57.333 41.002 -75 72.002s-26.5 66.833 -26.5 107.5v307c0 62 19.5 111.5 58.5 148.5s90.5 55.5 154.5 55.5s115.333 -18.333 154 -55s58 -85.334 58 -146.001v-8c0 -3.33301 -1 -6 -3 -8s-4.33301 -3 -7 -3l-76 -4
c-6.66699 0 -10 3.33301 -10 10v15c0 34.667 -10.667 62.667 -32 84s-49.333 32 -84 32s-62.834 -10.667 -84.501 -32s-32.5 -49.333 -32.5 -84v-318c0 -34.667 10.833 -62.667 32.5 -84s49.834 -32 84.501 -32s62.667 10.667 84 32s32 49.333 32 84v14
c0 6.66699 3.33301 10 10 10l76 -4c6.66699 0 10 -3.33301 10 -10v-7c0 -40 -8.83301 -75.333 -26.5 -106s-42.5 -54.334 -74.5 -71.001s-69 -25 -111 -25s-79.167 8.5 -111.5 25.5zM218 767.502c-1.33301 2.33301 -1 5.16602 1 8.49902l59 108c2 4.66699 6 7 12 7h64
c4 0 6.66699 -1.16699 8 -3.5s1 -5.16602 -1 -8.49902l-72 -109c-3.33301 -4 -7.33301 -6 -12 -6h-51c-4 0 -6.66699 1.16699 -8 3.5z" />
    <glyph glyph-name="cacute" unicode="&#x107;" horiz-adv-x="470" 
d="M116.5 32.5c-33 27 -53.1699 63.834 -60.5029 110.501c-4.66699 30 -7 67.667 -7 113c0 39.333 2.33301 76.333 7 111c7.33301 45.333 27.666 81.666 60.999 108.999s75.333 41 126 41c49.333 0 91 -13 125 -39s54.333 -59.333 61 -100l4 -24
c0 -6 -3.33301 -9.66699 -10 -11l-75 -6h-2c-4 0 -6.66699 2.33301 -8 7l-1 4l-2 12c-3.33301 20.667 -13.333 38.167 -30 52.5s-37.667 21.5 -63 21.5s-46.166 -7.66699 -62.499 -23s-26.166 -35.666 -29.499 -60.999c-3.33301 -28 -5 -59.667 -5 -95
c0 -39.333 2 -71.666 6 -96.999c3.33301 -25.333 13 -45.5 29 -60.5s36.667 -22.5 62 -22.5c26 0 47.333 7.16699 64 21.5s26.334 32.166 29.001 53.499l1 10c0.666992 6.66699 4.33398 9.66699 11.001 9l75 -5c6.66699 0 10 -3.66699 10 -11l-3 -17
c-5.33301 -42.667 -25 -77.334 -59 -104.001s-76.333 -40 -127 -40c-51.333 0 -93.5 13.5 -126.5 40.5zM191.997 576.501c-1.33301 2.33301 -1 5.16602 1 8.49902l59 108c2 4.66699 6 7 12 7h64c4 0 6.66699 -1.16699 8 -3.5s1 -5.16602 -1 -8.49902l-72 -109
c-3.33301 -4 -7.33301 -6 -12 -6h-51c-4 0 -6.66699 1.16699 -8 3.5z" />
    <glyph glyph-name="Ccircumflex" unicode="&#x108;" horiz-adv-x="530" 
d="M156.5 17.5c-32.333 17 -57.333 41.002 -75 72.002s-26.5 66.833 -26.5 107.5v307c0 62 19.5 111.5 58.5 148.5s90.5 55.5 154.5 55.5s115.333 -18.333 154 -55s58 -85.334 58 -146.001v-8c0 -3.33301 -1 -6 -3 -8s-4.33301 -3 -7 -3l-76 -4
c-6.66699 0 -10 3.33301 -10 10v15c0 34.667 -10.667 62.667 -32 84s-49.333 32 -84 32s-62.834 -10.667 -84.501 -32s-32.5 -49.333 -32.5 -84v-318c0 -34.667 10.833 -62.667 32.5 -84s49.834 -32 84.501 -32s62.667 10.667 84 32s32 49.333 32 84v14
c0 6.66699 3.33301 10 10 10l76 -4c6.66699 0 10 -3.33301 10 -10v-7c0 -40 -8.83301 -75.333 -26.5 -106s-42.5 -54.334 -74.5 -71.001s-69 -25 -111 -25s-79.167 8.5 -111.5 25.5zM137 769.502c-1.33301 2.33301 -1 5.16699 1 8.5l73 107c2.66699 4 6.66699 6 12 6h85
c5.33301 0 9.33301 -2 12 -6l75 -107c1.33301 -1.33301 2 -3 2 -5c0 -4.66699 -3 -7 -9 -7h-60c-4.66699 0 -8.66699 2.33301 -12 7l-46 72c-0.666992 1.33301 -1.66699 2 -3 2s-2.33301 -0.666992 -3 -2l-47 -72c-3.33301 -4.66699 -7.33301 -7 -12 -7h-60
c-4 0 -6.66699 1.16699 -8 3.5z" />
    <glyph glyph-name="ccircumflex" unicode="&#x109;" horiz-adv-x="470" 
d="M116.5 32.5c-33 27 -53.1699 63.834 -60.5029 110.501c-4.66699 30 -7 67.667 -7 113c0 39.333 2.33301 76.333 7 111c7.33301 45.333 27.666 81.666 60.999 108.999s75.333 41 126 41c49.333 0 91 -13 125 -39s54.333 -59.333 61 -100l4 -24
c0 -6 -3.33301 -9.66699 -10 -11l-75 -6h-2c-4 0 -6.66699 2.33301 -8 7l-1 4l-2 12c-3.33301 20.667 -13.333 38.167 -30 52.5s-37.667 21.5 -63 21.5s-46.166 -7.66699 -62.499 -23s-26.166 -35.666 -29.499 -60.999c-3.33301 -28 -5 -59.667 -5 -95
c0 -39.333 2 -71.666 6 -96.999c3.33301 -25.333 13 -45.5 29 -60.5s36.667 -22.5 62 -22.5c26 0 47.333 7.16699 64 21.5s26.334 32.166 29.001 53.499l1 10c0.666992 6.66699 4.33398 9.66699 11.001 9l75 -5c6.66699 0 10 -3.66699 10 -11l-3 -17
c-5.33301 -42.667 -25 -77.334 -59 -104.001s-76.333 -40 -127 -40c-51.333 0 -93.5 13.5 -126.5 40.5zM110.997 578.501c-1.33301 2.33301 -1 5.16699 1 8.5l73 107c2.66699 4 6.66699 6 12 6h85c5.33301 0 9.33301 -2 12 -6l75 -107c1.33301 -1.33301 2 -3 2 -5
c0 -4.66699 -3 -7 -9 -7h-60c-4.66699 0 -8.66699 2.33301 -12 7l-46 72c-0.666992 1.33301 -1.66699 2 -3 2s-2.33301 -0.666992 -3 -2l-47 -72c-3.33301 -4.66699 -7.33301 -7 -12 -7h-60c-4 0 -6.66699 1.16699 -8 3.5z" />
    <glyph glyph-name="Cdotaccent" unicode="&#x10a;" horiz-adv-x="530" 
d="M156.5 17.5c-32.333 17 -57.333 41.002 -75 72.002s-26.5 66.833 -26.5 107.5v307c0 62 19.5 111.5 58.5 148.5s90.5 55.5 154.5 55.5s115.333 -18.333 154 -55s58 -85.334 58 -146.001v-8c0 -3.33301 -1 -6 -3 -8s-4.33301 -3 -7 -3l-76 -4
c-6.66699 0 -10 3.33301 -10 10v15c0 34.667 -10.667 62.667 -32 84s-49.333 32 -84 32s-62.834 -10.667 -84.501 -32s-32.5 -49.333 -32.5 -84v-318c0 -34.667 10.833 -62.667 32.5 -84s49.834 -32 84.501 -32s62.667 10.667 84 32s32 49.333 32 84v14
c0 6.66699 3.33301 10 10 10l76 -4c6.66699 0 10 -3.33301 10 -10v-7c0 -40 -8.83301 -75.333 -26.5 -106s-42.5 -54.334 -74.5 -71.001s-69 -25 -111 -25s-79.167 8.5 -111.5 25.5zM221 798.002c-12 12 -18 27.333 -18 46s6 34 18 46s27.333 18 46 18s34 -6 46 -18
s18 -27.333 18 -46s-6 -34 -18 -46s-27.333 -18 -46 -18s-34 6 -46 18z" />
    <glyph glyph-name="cdotaccent" unicode="&#x10b;" horiz-adv-x="470" 
d="M116.5 32.5c-33 27 -53.1699 63.834 -60.5029 110.501c-4.66699 30 -7 67.667 -7 113c0 39.333 2.33301 76.333 7 111c7.33301 45.333 27.666 81.666 60.999 108.999s75.333 41 126 41c49.333 0 91 -13 125 -39s54.333 -59.333 61 -100l4 -24
c0 -6 -3.33301 -9.66699 -10 -11l-75 -6h-2c-4 0 -6.66699 2.33301 -8 7l-1 4l-2 12c-3.33301 20.667 -13.333 38.167 -30 52.5s-37.667 21.5 -63 21.5s-46.166 -7.66699 -62.499 -23s-26.166 -35.666 -29.499 -60.999c-3.33301 -28 -5 -59.667 -5 -95
c0 -39.333 2 -71.666 6 -96.999c3.33301 -25.333 13 -45.5 29 -60.5s36.667 -22.5 62 -22.5c26 0 47.333 7.16699 64 21.5s26.334 32.166 29.001 53.499l1 10c0.666992 6.66699 4.33398 9.66699 11.001 9l75 -5c6.66699 0 10 -3.66699 10 -11l-3 -17
c-5.33301 -42.667 -25 -77.334 -59 -104.001s-76.333 -40 -127 -40c-51.333 0 -93.5 13.5 -126.5 40.5zM194.997 607.001c-12 12 -18 27.333 -18 46s6 34 18 46s27.333 18 46 18s34 -6 46 -18s18 -27.333 18 -46s-6 -34 -18 -46s-27.333 -18 -46 -18s-34 6 -46 18z" />
    <glyph glyph-name="Ccaron" unicode="&#x10c;" horiz-adv-x="530" 
d="M156.5 17.5c-32.333 17 -57.333 41.002 -75 72.002s-26.5 66.833 -26.5 107.5v307c0 62 19.5 111.5 58.5 148.5s90.5 55.5 154.5 55.5s115.333 -18.333 154 -55s58 -85.334 58 -146.001v-8c0 -3.33301 -1 -6 -3 -8s-4.33301 -3 -7 -3l-76 -4
c-6.66699 0 -10 3.33301 -10 10v15c0 34.667 -10.667 62.667 -32 84s-49.333 32 -84 32s-62.834 -10.667 -84.501 -32s-32.5 -49.333 -32.5 -84v-318c0 -34.667 10.833 -62.667 32.5 -84s49.834 -32 84.501 -32s62.667 10.667 84 32s32 49.333 32 84v14
c0 6.66699 3.33301 10 10 10l76 -4c6.66699 0 10 -3.33301 10 -10v-7c0 -40 -8.83301 -75.333 -26.5 -106s-42.5 -54.334 -74.5 -71.001s-69 -25 -111 -25s-79.167 8.5 -111.5 25.5zM140 884.002c0 4.66699 3 6.99902 9 6.99902h60c4.66699 0 8.66699 -2.33301 12 -7l47 -72
c0.666992 -0.666992 1.66699 -1 3 -1s2.33301 0.333008 3 1l46 72c3.33301 4.66699 7.33301 7 12 7h60c4 0 6.66699 -1.16699 8 -3.5s1 -5.16602 -1 -8.49902l-75 -107c-2.66699 -4 -6.66699 -6 -12 -6h-85c-5.33301 0 -9.33301 2 -12 6l-73 107z" />
    <glyph glyph-name="ccaron" unicode="&#x10d;" horiz-adv-x="470" 
d="M116.5 32.5c-33 27 -53.1699 63.834 -60.5029 110.501c-4.66699 30 -7 67.667 -7 113c0 39.333 2.33301 76.333 7 111c7.33301 45.333 27.666 81.666 60.999 108.999s75.333 41 126 41c49.333 0 91 -13 125 -39s54.333 -59.333 61 -100l4 -24
c0 -6 -3.33301 -9.66699 -10 -11l-75 -6h-2c-4 0 -6.66699 2.33301 -8 7l-1 4l-2 12c-3.33301 20.667 -13.333 38.167 -30 52.5s-37.667 21.5 -63 21.5s-46.166 -7.66699 -62.499 -23s-26.166 -35.666 -29.499 -60.999c-3.33301 -28 -5 -59.667 -5 -95
c0 -39.333 2 -71.666 6 -96.999c3.33301 -25.333 13 -45.5 29 -60.5s36.667 -22.5 62 -22.5c26 0 47.333 7.16699 64 21.5s26.334 32.166 29.001 53.499l1 10c0.666992 6.66699 4.33398 9.66699 11.001 9l75 -5c6.66699 0 10 -3.66699 10 -11l-3 -17
c-5.33301 -42.667 -25 -77.334 -59 -104.001s-76.333 -40 -127 -40c-51.333 0 -93.5 13.5 -126.5 40.5zM113.997 693.001c0 4.66699 3 6.99902 9 6.99902h60c4.66699 0 8.66699 -2.33301 12 -7l47 -72c0.666992 -0.666992 1.66699 -1 3 -1s2.33301 0.333008 3 1l46 72
c3.33301 4.66699 7.33301 7 12 7h60c4 0 6.66699 -1.16699 8 -3.5s1 -5.16602 -1 -8.49902l-75 -107c-2.66699 -4 -6.66699 -6 -12 -6h-85c-5.33301 0 -9.33301 2 -12 6l-73 107z" />
    <glyph glyph-name="Dcaron" unicode="&#x10e;" horiz-adv-x="544" 
d="M72 10v680c0 6.66699 3.33301 10 10 10h203c62 0 111.5 -17.667 148.5 -53s55.5 -82.333 55.5 -141v-312c0 -58.667 -18.5 -105.667 -55.5 -141s-86.5 -53 -148.5 -53h-203c-6.66699 -0 -10 3.33301 -10 10zM172 83l115 0.999023c32 0 57.5 10.833 76.5 32.5
s28.833 50.834 29.5 87.501v292c0 37.333 -9.66699 66.833 -29 88.5s-45.333 32.5 -78 32.5h-114c-2.66699 0 -4 -1.33301 -4 -4v-526c0 -2.66699 1.33301 -4 4 -4zM141 881.999c0 4.66699 3 6.99902 9 6.99902h60c4.66699 0 8.66699 -2.33301 12 -7l47 -72
c0.666992 -0.666992 1.66699 -1 3 -1s2.33301 0.333008 3 1l46 72c3.33301 4.66699 7.33301 7 12 7h60c4 0 6.66699 -1.16699 8 -3.5s1 -5.16602 -1 -8.49902l-75 -107c-2.66699 -4 -6.66699 -6 -12 -6h-85c-5.33301 0 -9.33301 2 -12 6l-73 107z" />
    <glyph glyph-name="dcaron" unicode="&#x10f;" horiz-adv-x="492" 
d="M344 700l76 -0.000976562c6.66699 0 10 -3.33301 10 -10v-680c0 -6.66699 -3.33301 -10 -10 -10h-76c-6.66699 0 -10 3.33301 -10 10v34c0 1.33301 -0.666992 2.33301 -2 3s-2.33301 0.333984 -3 -0.999023c-24 -36 -61.667 -54 -113 -54
c-41.333 0 -74.666 12 -99.999 36s-44 61 -56 111c-8 34.667 -12 72.667 -12 114c0 42.667 3.33301 80.667 10 114c20 100 74.333 150 163 150c26 0 47.667 -4.33301 65 -13s31.666 -21.667 42.999 -39c1.33301 -1.33301 2.5 -2 3.5 -2s1.5 1 1.5 3v224
c0 6.66699 3.33301 10 10 10zM333 254.999c0 50 -4.66797 87.999 -14.001 113.999c-6 21.333 -15.167 37.5 -27.5 48.5s-28.5 16.5 -48.5 16.5c-39.333 0 -66.666 -21 -81.999 -63c-10.667 -30 -16 -68.667 -16 -116c0 -48 4.33301 -85 13 -111c14 -46 42 -69 84 -69
c38.667 0 64.667 22.333 78 67c8.66699 26.667 13 64.334 13 113.001zM475.999 576.498c-1.33301 2.33301 -1 5.16602 1 8.49902l59 108c2 4.66699 6 7 12 7h64c4 0 6.66699 -1.16699 8 -3.5s1 -5.16602 -1 -8.49902l-72 -109c-3.33301 -4 -7.33301 -6 -12 -6h-51
c-4 0 -6.66699 1.16699 -8 3.5z" />
    <glyph glyph-name="Dcroat" unicode="&#x110;" horiz-adv-x="593" 
d="M483.5 647.5c37 -35 55.5 -82.167 55.5 -141.5v-312c0 -59.333 -18.5 -106.5 -55.5 -141.5s-86.833 -52.5 -149.5 -52.5h-202c-6.66699 -0 -10 3.33301 -10 10v319c0 2.66699 -1.33301 4 -4 4h-36c-6.66699 0 -10 3.33301 -10 10v43c0 6.66699 3.33301 10 10 10h36
c2.66699 0 4 1.33301 4 4v290c0 6.66699 3.33301 10 10 10h202c62.667 0 112.5 -17.5 149.5 -52.5zM443 496c0 36.667 -9.66699 65.999 -29 87.999s-45.333 33 -78 33h-114c-2.66699 0 -4 -1.33301 -4 -4v-213c0 -2.66699 1.33301 -4 4 -4h84c6.66699 0 10 -3.33301 10 -10
v-43c0 -6.66699 -3.33301 -10 -10 -10h-84c-2.66699 0 -4 -1.33301 -4 -4v-242c0 -2.66699 1.33301 -4 4 -4l114 1c32 0 57.667 10.833 77 32.5s29.333 50.834 30 87.501v292z" />
    <glyph glyph-name="dcroat" unicode="&#x111;" horiz-adv-x="492" 
d="M485 616v-41.001c0 -6.66699 -3.33301 -10 -10 -10h-41c-2.66699 0 -4 -1.33301 -4 -4v-551c0 -6.66699 -3.33301 -10 -10 -10h-76c-6.66699 0 -10 3.33301 -10 10v34c0 1.33301 -0.666992 2.33301 -2 3s-2.33301 0.333984 -3 -0.999023c-24 -36 -61.667 -54 -113 -54
c-41.333 0 -74.666 12 -99.999 36s-44 61 -56 111c-8 34.667 -12 72.667 -12 114c0 42.667 3.33301 80.667 10 114c20 100 74.333 150 163 150c26 0 47.667 -4.33301 65 -13s31.666 -21.667 42.999 -39c1.33301 -1.33301 2.5 -2 3.5 -2s1.5 1 1.5 3v95
c0 2.66699 -1.33301 4 -4 4h-137c-6.66699 0 -10 3.33301 -10 10v41c0 6.66699 3.33301 10 10 10h137c2.66699 0 4 1.33301 4 4v60c0 6.66699 3.33301 10 10 10h76c6.66699 0 10 -3.33301 10 -10v-60c0 -2.66699 1.33301 -4 4 -4h41c6.66699 0 10 -3.33301 10 -10z
M333 254.999c0 50 -4.66797 87.999 -14.001 113.999c-6 21.333 -15.167 37.5 -27.5 48.5s-28.5 16.5 -48.5 16.5c-39.333 0 -66.666 -21 -81.999 -63c-10.667 -30 -16 -68.667 -16 -116c0 -48 4.33301 -85 13 -111c14 -46 42 -69 84 -69c38.667 0 64.667 22.333 78 67
c8.66699 26.667 13 64.334 13 113.001z" />
    <glyph glyph-name="Emacron" unicode="&#x112;" horiz-adv-x="515" 
d="M462 617h-290c-2.66699 0 -4 -1.33301 -4 -4v-216c0 -2.66699 1.33301 -4 4 -4h191c6.66699 0 10 -3.33301 10 -10v-63c0 -6.66699 -3.33301 -10 -10 -10h-191c-2.66699 0 -4 -1.33301 -4 -4v-219c0 -2.66699 1.33301 -4 4 -4h290c6.66699 0 10 -3.33301 10 -10v-63
c0 -6.66699 -3.33301 -10 -10 -10h-380c-6.66699 -0 -10 3.33301 -10 10v680c0 6.66699 3.33301 10 10 10h380c6.66699 0 10 -3.33301 10 -10v-63c0 -6.66699 -3.33301 -10 -10 -10zM148 790v48c0 6.66699 3.33301 10 10 10h224c6.66699 0 10 -3.33301 10 -10v-48
c0 -6.66699 -3.33301 -10 -10 -10h-224c-6.66699 0 -10 3.33301 -10 10z" />
    <glyph glyph-name="emacron" unicode="&#x113;" horiz-adv-x="477" 
d="M303.5 91.5c15.667 11 27.499 26.167 35.499 45.5c2 6 6 8.33301 12 7l68 -15c6.66699 -2 9 -6 7 -12c-12.667 -39.333 -34.667 -70 -66 -92s-69.666 -33 -114.999 -33c-52 0 -94 13 -126 39s-52.333 61.667 -61 107c-3.33301 18.667 -5.5 38.5 -6.5 59.5
s-1.5 48.833 -1.5 83.5c0 34 1.66699 61 5 81c6 46.667 25.667 84.167 59 112.5s75.333 42.5 126 42.5c55.333 0 100 -15.667 134 -47s53 -72.666 57 -123.999c2 -22.667 3 -64.334 3 -125.001c0 -6.66699 -3.33301 -10 -10 -10h-274c-2.66699 0 -4 -1.33301 -4 -4
c0 -18.667 1 -35 3 -49c3.33301 -24.667 13.666 -44.667 30.999 -60s39.333 -23 66 -23c22.667 0 41.834 5.5 57.501 16.5zM178.499 411c-16.333 -15.333 -26.1689 -35.334 -29.502 -60.001c-2 -18 -3 -37.667 -3 -59c0 -2.66699 1.33301 -4 4 -4h184
c2.66699 0 4 1.33301 4 4c-1.33301 26.667 -2.66602 46 -3.99902 58c-3.33301 24.667 -13.333 44.834 -30 60.501s-37.667 23.5 -63 23.5s-46.166 -7.66699 -62.499 -23zM115.996 620.999v47c0 6.66699 3.33301 10 10 10h223c6.66699 0 10 -3.33301 10 -10v-47
c0 -6.66699 -3.33301 -10 -10 -10h-223c-6.66699 0 -10 3.33301 -10 10z" />
    <glyph glyph-name="Edotaccent" unicode="&#x116;" horiz-adv-x="515" 
d="M462 617h-290c-2.66699 0 -4 -1.33301 -4 -4v-216c0 -2.66699 1.33301 -4 4 -4h191c6.66699 0 10 -3.33301 10 -10v-63c0 -6.66699 -3.33301 -10 -10 -10h-191c-2.66699 0 -4 -1.33301 -4 -4v-219c0 -2.66699 1.33301 -4 4 -4h290c6.66699 0 10 -3.33301 10 -10v-63
c0 -6.66699 -3.33301 -10 -10 -10h-380c-6.66699 -0 -10 3.33301 -10 10v680c0 6.66699 3.33301 10 10 10h380c6.66699 0 10 -3.33301 10 -10v-63c0 -6.66699 -3.33301 -10 -10 -10zM224 798c-12 12 -18 27.333 -18 46s6 34 18 46s27.333 18 46 18s34 -6 46 -18
s18 -27.333 18 -46s-6 -34 -18 -46s-27.333 -18 -46 -18s-34 6 -46 18z" />
    <glyph glyph-name="edotaccent" unicode="&#x117;" horiz-adv-x="477" 
d="M303.5 91.5c15.667 11 27.499 26.167 35.499 45.5c2 6 6 8.33301 12 7l68 -15c6.66699 -2 9 -6 7 -12c-12.667 -39.333 -34.667 -70 -66 -92s-69.666 -33 -114.999 -33c-52 0 -94 13 -126 39s-52.333 61.667 -61 107c-3.33301 18.667 -5.5 38.5 -6.5 59.5
s-1.5 48.833 -1.5 83.5c0 34 1.66699 61 5 81c6 46.667 25.667 84.167 59 112.5s75.333 42.5 126 42.5c55.333 0 100 -15.667 134 -47s53 -72.666 57 -123.999c2 -22.667 3 -64.334 3 -125.001c0 -6.66699 -3.33301 -10 -10 -10h-274c-2.66699 0 -4 -1.33301 -4 -4
c0 -18.667 1 -35 3 -49c3.33301 -24.667 13.666 -44.667 30.999 -60s39.333 -23 66 -23c22.667 0 41.834 5.5 57.501 16.5zM178.499 411c-16.333 -15.333 -26.1689 -35.334 -29.502 -60.001c-2 -18 -3 -37.667 -3 -59c0 -2.66699 1.33301 -4 4 -4h184
c2.66699 0 4 1.33301 4 4c-1.33301 26.667 -2.66602 46 -3.99902 58c-3.33301 24.667 -13.333 44.834 -30 60.501s-37.667 23.5 -63 23.5s-46.166 -7.66699 -62.499 -23zM191.996 606.999c-12 12 -18 27.333 -18 46s6 34 18 46s27.333 18 46 18s34 -6 46 -18
s18 -27.333 18 -46s-6 -34 -18 -46s-27.333 -18 -46 -18s-34 6 -46 18z" />
    <glyph glyph-name="Eogonek" unicode="&#x118;" horiz-adv-x="515" 
d="M462 617h-290c-2.66699 0 -4 -1.33301 -4 -4v-216c0 -2.66699 1.33301 -4 4 -4h191c6.66699 0 10 -3.33301 10 -10v-63c0 -6.66699 -3.33301 -10 -10 -10h-191c-2.66699 0 -4 -1.33301 -4 -4v-219c0 -2.66699 1.33301 -4 4 -4h290c6.66699 0 10 -3.33301 10 -10v-63
c0 -6.66699 -3.33301 -10 -10 -10h-156c-2 -0 -3.66699 -0.666992 -5 -2c-31.333 -28 -47 -54.333 -47 -79c0 -14 3.66699 -24.5 11 -31.5s17 -10.5 29 -10.5c4 0 9.33301 0.666992 16 2h2c5.33301 0 8.66602 -2.66699 9.99902 -8l5 -32v-2c0 -4.66699 -2.66699 -8 -8 -10
c-16 -4 -30.333 -6 -43 -6c-20.667 0 -38.667 4.66699 -54 14s-25.666 25 -30.999 47c-2 8 -3 15.667 -3 23c0 32 14.333 62 43 90c2 3.33301 1.33301 5 -2 5h-147c-6.66699 -0 -10 3.33301 -10 10v680c0 6.66699 3.33301 10 10 10h380c6.66699 0 10 -3.33301 10 -10v-63
c0 -6.66699 -3.33301 -10 -10 -10z" />
    <glyph glyph-name="eogonek" unicode="&#x119;" horiz-adv-x="477" 
d="M303.5 91.5c15.667 11 27.499 26.167 35.499 45.5c2 6 6 8.33301 12 7l68 -15c6.66699 -2 9 -6 7 -12c-11.333 -34 -30 -61.833 -56 -83.5s-57.333 -34.834 -94 -39.501c-2 0 -3.66699 -0.666992 -5 -2c-30 -26.667 -45 -52.334 -45 -77.001c0 -14 3.5 -24.667 10.5 -32
s16.167 -11 27.5 -11c6 0 12 1 18 3h2c5.33301 0 8.66602 -2.66699 9.99902 -8l5 -33v-2c0 -4.66699 -2.66699 -8 -8 -10c-16 -4 -30.333 -6 -43 -6c-24 0 -44.667 6.66699 -62 20s-26 35 -26 65c0 31.333 14.333 61.333 43 90c2 2 1.33301 3.66699 -2 5
c-39.333 6.66699 -71.166 22.334 -95.499 47.001s-40.166 56.334 -47.499 95.001c-3.33301 18.667 -5.5 38.5 -6.5 59.5s-1.5 48.833 -1.5 83.5c0 34 1.66699 61 5 81c6 46.667 25.667 84.167 59 112.5s75.333 42.5 126 42.5c55.333 0 100 -15.667 134 -47
s53 -72.666 57 -123.999c2 -22.667 3 -64.334 3 -125.001c0 -6.66699 -3.33301 -10 -10 -10h-274c-2.66699 0 -4 -1.33301 -4 -4c0 -18.667 1 -35 3 -49c3.33301 -24.667 13.666 -44.667 30.999 -60s39.333 -23 66 -23c22.667 0 41.834 5.5 57.501 16.5zM178.499 411
c-16.333 -15.333 -26.1689 -35.334 -29.502 -60.001c-2 -18 -3 -37.667 -3 -59c0 -2.66699 1.33301 -4 4 -4h184c2.66699 0 4 1.33301 4 4c-1.33301 26.667 -2.66602 46 -3.99902 58c-3.33301 24.667 -13.333 44.834 -30 60.501s-37.667 23.5 -63 23.5
s-46.166 -7.66699 -62.499 -23z" />
    <glyph glyph-name="Ecaron" unicode="&#x11a;" horiz-adv-x="515" 
d="M462 617h-290c-2.66699 0 -4 -1.33301 -4 -4v-216c0 -2.66699 1.33301 -4 4 -4h191c6.66699 0 10 -3.33301 10 -10v-63c0 -6.66699 -3.33301 -10 -10 -10h-191c-2.66699 0 -4 -1.33301 -4 -4v-219c0 -2.66699 1.33301 -4 4 -4h290c6.66699 0 10 -3.33301 10 -10v-63
c0 -6.66699 -3.33301 -10 -10 -10h-380c-6.66699 -0 -10 3.33301 -10 10v680c0 6.66699 3.33301 10 10 10h380c6.66699 0 10 -3.33301 10 -10v-63c0 -6.66699 -3.33301 -10 -10 -10zM143 884c0 4.66699 3 6.99902 9 6.99902h60c4.66699 0 8.66699 -2.33301 12 -7l47 -72
c0.666992 -0.666992 1.66699 -1 3 -1s2.33301 0.333008 3 1l46 72c3.33301 4.66699 7.33301 7 12 7h60c4 0 6.66699 -1.16699 8 -3.5s1 -5.16602 -1 -8.49902l-75 -107c-2.66699 -4 -6.66699 -6 -12 -6h-85c-5.33301 0 -9.33301 2 -12 6l-73 107z" />
    <glyph glyph-name="ecaron" unicode="&#x11b;" horiz-adv-x="477" 
d="M303.5 91.5c15.667 11 27.499 26.167 35.499 45.5c2 6 6 8.33301 12 7l68 -15c6.66699 -2 9 -6 7 -12c-12.667 -39.333 -34.667 -70 -66 -92s-69.666 -33 -114.999 -33c-52 0 -94 13 -126 39s-52.333 61.667 -61 107c-3.33301 18.667 -5.5 38.5 -6.5 59.5
s-1.5 48.833 -1.5 83.5c0 34 1.66699 61 5 81c6 46.667 25.667 84.167 59 112.5s75.333 42.5 126 42.5c55.333 0 100 -15.667 134 -47s53 -72.666 57 -123.999c2 -22.667 3 -64.334 3 -125.001c0 -6.66699 -3.33301 -10 -10 -10h-274c-2.66699 0 -4 -1.33301 -4 -4
c0 -18.667 1 -35 3 -49c3.33301 -24.667 13.666 -44.667 30.999 -60s39.333 -23 66 -23c22.667 0 41.834 5.5 57.501 16.5zM178.499 411c-16.333 -15.333 -26.1689 -35.334 -29.502 -60.001c-2 -18 -3 -37.667 -3 -59c0 -2.66699 1.33301 -4 4 -4h184
c2.66699 0 4 1.33301 4 4c-1.33301 26.667 -2.66602 46 -3.99902 58c-3.33301 24.667 -13.333 44.834 -30 60.501s-37.667 23.5 -63 23.5s-46.166 -7.66699 -62.499 -23zM109.996 690.999c0 4.66699 3 6.99902 9 6.99902h60c4.66699 0 8.66699 -2.33301 12 -7l47 -72
c0.666992 -0.666992 1.66699 -1 3 -1s2.33301 0.333008 3 1l46 72c3.33301 4.66699 7.33301 7 12 7h60c4 0 6.66699 -1.16699 8 -3.5s1 -5.16602 -1 -8.49902l-75 -107c-2.66699 -4 -6.66699 -6 -12 -6h-85c-5.33301 0 -9.33301 2 -12 6l-73 107z" />
    <glyph glyph-name="Gcircumflex" unicode="&#x11c;" horiz-adv-x="535" 
d="M114 47.5c-38.667 37 -58.001 85.8359 -58.001 146.503v312c0 60.667 19.333 109.5 58 146.5s89.667 55.5 153 55.5c42 0 79 -8.16699 111 -24.5s56.833 -39.5 74.5 -69.5s26.5 -64 26.5 -102v-27c0 -6.66699 -3.33301 -10 -10 -10h-76c-6.66699 0 -10 3.33301 -10 10v27
c0 33.333 -10.5 60.5 -31.5 81.5s-49.167 31.5 -84.5 31.5c-34.667 0 -62.667 -10.833 -84 -32.5s-32 -49.834 -32 -84.501v-316c0 -34.667 10.833 -62.834 32.5 -84.501s50.167 -32.5 85.5 -32.5c34.667 0 62.334 10 83.001 30s31 47 31 81v93c0 2.66699 -1.33301 4 -4 4
h-105c-6.66699 0 -10 3.33301 -10 10v62c0 6.66699 3.33301 10 10 10h195c6.66699 0 10 -3.33301 10 -10v-156c0 -64.667 -19.167 -115.334 -57.5 -152.001s-89.833 -55 -154.5 -55c-63.333 0 -114.333 18.5 -153 55.5zM136.999 771.503c-1.33301 2.33301 -1 5.16699 1 8.5
l73 107c2.66699 4 6.66699 6 12 6h85c5.33301 0 9.33301 -2 12 -6l75 -107c1.33301 -1.33301 2 -3 2 -5c0 -4.66699 -3 -7 -9 -7h-60c-4.66699 0 -8.66699 2.33301 -12 7l-46 72c-0.666992 1.33301 -1.66699 2 -3 2s-2.33301 -0.666992 -3 -2l-47 -72
c-3.33301 -4.66699 -7.33301 -7 -12 -7h-60c-4 0 -6.66699 1.16699 -8 3.5z" />
    <glyph glyph-name="gcircumflex" unicode="&#x11d;" horiz-adv-x="483" 
d="M342 509l76.002 -0.00195312c6.66699 0 10 -3.33301 10 -10v-479c0 -148 -79.333 -222 -238 -222c-14 0 -24.667 0.333008 -32 1c-6.66699 0.666992 -10 4.33398 -10 11.001l2 67c0 3.33301 1 5.83301 3 7.5s4.33301 2.16699 7 1.5c62.667 -2.66699 107 7 133 29
s39 59.333 39 112v19c0 1.33301 -0.5 2.33301 -1.5 3s-2.16699 0.333984 -3.5 -0.999023c-26 -32 -62.333 -48 -109 -48c-43.333 -0 -79.833 12.833 -109.5 38.5s-47.834 61.5 -54.501 107.5c-4 21.333 -6 57.666 -6 108.999c0 55.333 2.33301 94 7 116
c6 44.667 23.167 80.167 51.5 106.5s64.166 39.5 107.499 39.5c48 0 85.667 -15.667 113 -47c1.33301 -1.33301 2.5 -1.66602 3.5 -0.999023s1.5 1.66699 1.5 3v27c0 6.66699 3.33301 10 10 10zM332.002 255.998c0 37.333 -1.00195 69.001 -3.00195 95.001
c-2.66699 24 -12 43.833 -28 59.5s-36.333 23.5 -61 23.5c-24 0 -44.167 -7.83301 -60.5 -23.5s-26.166 -35.5 -29.499 -59.5c-4 -26 -6 -57.667 -6 -95c0 -34.667 1.66699 -65.334 5 -92.001c3.33301 -24.667 13.333 -44.667 30 -60s37.334 -23 62.001 -23
s45 7.66699 61 23s25.333 35 28 59c1.33301 34.667 2 65.667 2 93zM116 578.499c-1.33301 2.33301 -1 5.16699 1 8.5l73 107c2.66699 4 6.66699 6 12 6h85c5.33301 0 9.33301 -2 12 -6l75 -107c1.33301 -1.33301 2 -3 2 -5c0 -4.66699 -3 -7 -9 -7h-60
c-4.66699 0 -8.66699 2.33301 -12 7l-46 72c-0.666992 1.33301 -1.66699 2 -3 2s-2.33301 -0.666992 -3 -2l-47 -72c-3.33301 -4.66699 -7.33301 -7 -12 -7h-60c-4 0 -6.66699 1.16699 -8 3.5z" />
    <glyph glyph-name="Gbreve" unicode="&#x11e;" horiz-adv-x="535" 
d="M114 47.5c-38.667 37 -58.001 85.8359 -58.001 146.503v312c0 60.667 19.333 109.5 58 146.5s89.667 55.5 153 55.5c42 0 79 -8.16699 111 -24.5s56.833 -39.5 74.5 -69.5s26.5 -64 26.5 -102v-27c0 -6.66699 -3.33301 -10 -10 -10h-76c-6.66699 0 -10 3.33301 -10 10v27
c0 33.333 -10.5 60.5 -31.5 81.5s-49.167 31.5 -84.5 31.5c-34.667 0 -62.667 -10.833 -84 -32.5s-32 -49.834 -32 -84.501v-316c0 -34.667 10.833 -62.834 32.5 -84.501s50.167 -32.5 85.5 -32.5c34.667 0 62.334 10 83.001 30s31 47 31 81v93c0 2.66699 -1.33301 4 -4 4
h-105c-6.66699 0 -10 3.33301 -10 10v62c0 6.66699 3.33301 10 10 10h195c6.66699 0 10 -3.33301 10 -10v-156c0 -64.667 -19.167 -115.334 -57.5 -152.001s-89.833 -55 -154.5 -55c-63.333 0 -114.333 18.5 -153 55.5zM183.499 780.003c-23 19.333 -36.1689 44 -39.502 74
c0 6.66699 3.33301 10 10 10h39c6.66699 0 10.334 -3.33301 11.001 -10c2 -16 8.83301 -29 20.5 -39s25.834 -15 42.501 -15s31 5 43 15s19 23 21 39c0.666992 6.66699 4.33398 10 11.001 10h38c6.66699 0 10 -3 10 -9c-2.66699 -30.667 -15.334 -55.667 -38.001 -75
s-51 -29 -85 -29c-32.667 0 -60.5 9.66699 -83.5 29z" />
    <glyph glyph-name="gbreve" unicode="&#x11f;" horiz-adv-x="483" 
d="M342 509l76.002 -0.00195312c6.66699 0 10 -3.33301 10 -10v-479c0 -148 -79.333 -222 -238 -222c-14 0 -24.667 0.333008 -32 1c-6.66699 0.666992 -10 4.33398 -10 11.001l2 67c0 3.33301 1 5.83301 3 7.5s4.33301 2.16699 7 1.5c62.667 -2.66699 107 7 133 29
s39 59.333 39 112v19c0 1.33301 -0.5 2.33301 -1.5 3s-2.16699 0.333984 -3.5 -0.999023c-26 -32 -62.333 -48 -109 -48c-43.333 -0 -79.833 12.833 -109.5 38.5s-47.834 61.5 -54.501 107.5c-4 21.333 -6 57.666 -6 108.999c0 55.333 2.33301 94 7 116
c6 44.667 23.167 80.167 51.5 106.5s64.166 39.5 107.499 39.5c48 0 85.667 -15.667 113 -47c1.33301 -1.33301 2.5 -1.66602 3.5 -0.999023s1.5 1.66699 1.5 3v27c0 6.66699 3.33301 10 10 10zM332.002 255.998c0 37.333 -1.00195 69.001 -3.00195 95.001
c-2.66699 24 -12 43.833 -28 59.5s-36.333 23.5 -61 23.5c-24 0 -44.167 -7.83301 -60.5 -23.5s-26.166 -35.5 -29.499 -59.5c-4 -26 -6 -57.667 -6 -95c0 -34.667 1.66699 -65.334 5 -92.001c3.33301 -24.667 13.333 -44.667 30 -60s37.334 -23 62.001 -23
s45 7.66699 61 23s25.333 35 28 59c1.33301 34.667 2 65.667 2 93zM162.5 586.999c-23 19.333 -36.1689 44 -39.502 74c0 6.66699 3.33301 10 10 10h39c6.66699 0 10.334 -3.33301 11.001 -10c2 -16 8.83301 -29 20.5 -39s25.834 -15 42.501 -15s31 5 43 15s19 23 21 39
c0.666992 6.66699 4.33398 10 11.001 10h38c6.66699 0 10 -3 10 -9c-2.66699 -30.667 -15.334 -55.667 -38.001 -75s-51 -29 -85 -29c-32.667 0 -60.5 9.66699 -83.5 29z" />
    <glyph glyph-name="Gdotaccent" unicode="&#x120;" horiz-adv-x="535" 
d="M114 47.5c-38.667 37 -58.001 85.8359 -58.001 146.503v312c0 60.667 19.333 109.5 58 146.5s89.667 55.5 153 55.5c42 0 79 -8.16699 111 -24.5s56.833 -39.5 74.5 -69.5s26.5 -64 26.5 -102v-27c0 -6.66699 -3.33301 -10 -10 -10h-76c-6.66699 0 -10 3.33301 -10 10v27
c0 33.333 -10.5 60.5 -31.5 81.5s-49.167 31.5 -84.5 31.5c-34.667 0 -62.667 -10.833 -84 -32.5s-32 -49.834 -32 -84.501v-316c0 -34.667 10.833 -62.834 32.5 -84.501s50.167 -32.5 85.5 -32.5c34.667 0 62.334 10 83.001 30s31 47 31 81v93c0 2.66699 -1.33301 4 -4 4
h-105c-6.66699 0 -10 3.33301 -10 10v62c0 6.66699 3.33301 10 10 10h195c6.66699 0 10 -3.33301 10 -10v-156c0 -64.667 -19.167 -115.334 -57.5 -152.001s-89.833 -55 -154.5 -55c-63.333 0 -114.333 18.5 -153 55.5zM220.999 800.003c-12 12 -18 27.333 -18 46
s6 34 18 46s27.333 18 46 18s34 -6 46 -18s18 -27.333 18 -46s-6 -34 -18 -46s-27.333 -18 -46 -18s-34 6 -46 18z" />
    <glyph glyph-name="gdotaccent" unicode="&#x121;" horiz-adv-x="483" 
d="M342 509l76.002 -0.00195312c6.66699 0 10 -3.33301 10 -10v-479c0 -148 -79.333 -222 -238 -222c-14 0 -24.667 0.333008 -32 1c-6.66699 0.666992 -10 4.33398 -10 11.001l2 67c0 3.33301 1 5.83301 3 7.5s4.33301 2.16699 7 1.5c62.667 -2.66699 107 7 133 29
s39 59.333 39 112v19c0 1.33301 -0.5 2.33301 -1.5 3s-2.16699 0.333984 -3.5 -0.999023c-26 -32 -62.333 -48 -109 -48c-43.333 -0 -79.833 12.833 -109.5 38.5s-47.834 61.5 -54.501 107.5c-4 21.333 -6 57.666 -6 108.999c0 55.333 2.33301 94 7 116
c6 44.667 23.167 80.167 51.5 106.5s64.166 39.5 107.499 39.5c48 0 85.667 -15.667 113 -47c1.33301 -1.33301 2.5 -1.66602 3.5 -0.999023s1.5 1.66699 1.5 3v27c0 6.66699 3.33301 10 10 10zM332.002 255.998c0 37.333 -1.00195 69.001 -3.00195 95.001
c-2.66699 24 -12 43.833 -28 59.5s-36.333 23.5 -61 23.5c-24 0 -44.167 -7.83301 -60.5 -23.5s-26.166 -35.5 -29.499 -59.5c-4 -26 -6 -57.667 -6 -95c0 -34.667 1.66699 -65.334 5 -92.001c3.33301 -24.667 13.333 -44.667 30 -60s37.334 -23 62.001 -23
s45 7.66699 61 23s25.333 35 28 59c1.33301 34.667 2 65.667 2 93zM200 606.999c-12 12 -18 27.333 -18 46s6 34 18 46s27.333 18 46 18s34 -6 46 -18s18 -27.333 18 -46s-6 -34 -18 -46s-27.333 -18 -46 -18s-34 6 -46 18z" />
    <glyph glyph-name="uni0122" unicode="&#x122;" horiz-adv-x="535" 
d="M114 47.5c-38.667 37 -58.001 85.8359 -58.001 146.503v312c0 60.667 19.333 109.5 58 146.5s89.667 55.5 153 55.5c42 0 79 -8.16699 111 -24.5s56.833 -39.5 74.5 -69.5s26.5 -64 26.5 -102v-27c0 -6.66699 -3.33301 -10 -10 -10h-76c-6.66699 0 -10 3.33301 -10 10v27
c0 33.333 -10.5 60.5 -31.5 81.5s-49.167 31.5 -84.5 31.5c-34.667 0 -62.667 -10.833 -84 -32.5s-32 -49.834 -32 -84.501v-316c0 -34.667 10.833 -62.834 32.5 -84.501s50.167 -32.5 85.5 -32.5c34.667 0 62.334 10 83.001 30s31 47 31 81v93c0 2.66699 -1.33301 4 -4 4
h-105c-6.66699 0 -10 3.33301 -10 10v62c0 6.66699 3.33301 10 10 10h195c6.66699 0 10 -3.33301 10 -10v-156c0 -64.667 -19.167 -115.334 -57.5 -152.001s-89.833 -55 -154.5 -55c-63.333 0 -114.333 18.5 -153 55.5zM192.999 -189.497
c-1.33301 2.33301 -1 5.16602 1 8.49902l59 108c2 4.66699 6 7 12 7h64c4 0 6.66699 -1.16699 8 -3.5s1 -5.16602 -1 -8.49902l-72 -109c-3.33301 -4 -7.33301 -6 -12 -6h-51c-4 0 -6.66699 1.16699 -8 3.5z" />
    <glyph glyph-name="uni0123" unicode="&#x123;" horiz-adv-x="483" 
d="M320 689.5c1.33301 -2.33301 1 -5.16602 -1 -8.49902l-59 -107c-2 -4.66699 -6 -7 -12 -7h-64c-4 0 -6.66699 1.16699 -8 3.5s-1 5.16602 1 8.49902l72 108c3.33301 4 7.33301 6 12 6h51c4 0 6.66699 -1.16699 8 -3.5zM342 509l76.002 -0.00195312
c6.66699 0 10 -3.33301 10 -10v-479c0 -148 -79.333 -222 -238 -222c-14 0 -24.667 0.333008 -32 1c-6.66699 0.666992 -10 4.33398 -10 11.001l2 67c0 3.33301 1 5.83301 3 7.5s4.33301 2.16699 7 1.5c62.667 -2.66699 107 7 133 29s39 59.333 39 112v19
c0 1.33301 -0.5 2.33301 -1.5 3s-2.16699 0.333984 -3.5 -0.999023c-26 -32 -62.333 -48 -109 -48c-43.333 -0 -79.833 12.833 -109.5 38.5s-47.834 61.5 -54.501 107.5c-4 21.333 -6 57.666 -6 108.999c0 55.333 2.33301 94 7 116c6 44.667 23.167 80.167 51.5 106.5
s64.166 39.5 107.499 39.5c48 0 85.667 -15.667 113 -47c1.33301 -1.33301 2.5 -1.66602 3.5 -0.999023s1.5 1.66699 1.5 3v27c0 6.66699 3.33301 10 10 10zM332.002 255.998c0 37.333 -1.00195 69.001 -3.00195 95.001c-2.66699 24 -12 43.833 -28 59.5
s-36.333 23.5 -61 23.5c-24 0 -44.167 -7.83301 -60.5 -23.5s-26.166 -35.5 -29.499 -59.5c-4 -26 -6 -57.667 -6 -95c0 -34.667 1.66699 -65.334 5 -92.001c3.33301 -24.667 13.333 -44.667 30 -60s37.334 -23 62.001 -23s45 7.66699 61 23s25.333 35 28 59
c1.33301 34.667 2 65.667 2 93z" />
    <glyph glyph-name="Hcircumflex" unicode="&#x124;" horiz-adv-x="560" 
d="M404 700h76c6.66699 0 10 -3.33301 10 -10v-680c0 -6.66699 -3.33301 -10 -10 -10h-76c-6.66699 -0 -10 3.33301 -10 10v296c0 2.66699 -1.33301 4 -4 4h-218c-2.66699 0 -4 -1.33301 -4 -4v-296c0 -6.66699 -3.33301 -10 -10 -10h-76c-6.66699 -0 -10 3.33301 -10 10
v680c0 6.66699 3.33301 10 10 10h76c6.66699 0 10 -3.33301 10 -10v-293c0 -2.66699 1.33301 -4 4 -4h218c2.66699 0 4 1.33301 4 4v293c0 6.66699 3.33301 10 10 10zM150 770.5c-1.33301 2.33301 -1 5.16699 1 8.5l73 107c2.66699 4 6.66699 6 12 6h85
c5.33301 0 9.33301 -2 12 -6l75 -107c1.33301 -1.33301 2 -3 2 -5c0 -4.66699 -3 -7 -9 -7h-60c-4.66699 0 -8.66699 2.33301 -12 7l-46 72c-0.666992 1.33301 -1.66699 2 -3 2s-2.33301 -0.666992 -3 -2l-47 -72c-3.33301 -4.66699 -7.33301 -7 -12 -7h-60
c-4 0 -6.66699 1.16699 -8 3.5z" />
    <glyph glyph-name="hcircumflex" unicode="&#x125;" 
d="M389.5 471c27 -30 40.5 -71.333 40.5 -124v-337c0 -6.66699 -3.33301 -10 -10 -10h-76c-6.66699 -0 -10 3.33301 -10 10v323c0 30.667 -7.83301 55 -23.5 73s-36.834 27 -63.501 27c-27.333 0 -49.166 -9.16699 -65.499 -27.5s-24.5 -42.833 -24.5 -73.5v-322
c0 -6.66699 -3.33301 -10 -10 -10h-76c-6.66699 -0 -10 3.33301 -10 10v680c0 6.66699 3.33301 10 10 10h76c6.66699 0 10 -3.33301 10 -10v-222c0 -2 0.5 -3.16699 1.5 -3.5s2.16699 0.5 3.5 2.5c26 32.667 64 49 114 49c48.667 0 86.5 -15 113.5 -45zM120 754.5
c-1.33301 2.33301 -1 5.16699 1 8.5l73 107c2.66699 4 6.66699 6 12 6h85c5.33301 0 9.33301 -2 12 -6l75 -107c1.33301 -1.33301 2 -3 2 -5c0 -4.66699 -3 -7 -9 -7h-60c-4.66699 0 -8.66699 2.33301 -12 7l-46 72c-0.666992 1.33301 -1.66699 2 -3 2
s-2.33301 -0.666992 -3 -2l-47 -72c-3.33301 -4.66699 -7.33301 -7 -12 -7h-60c-4 0 -6.66699 1.16699 -8 3.5z" />
    <glyph glyph-name="Hbar" unicode="&#x126;" horiz-adv-x="560" 
d="M544 565v-47c0 -6.66699 -3.33301 -10 -10 -10h-40c-2.66699 0 -4 -1.33301 -4 -4v-494c0 -6.66699 -3.33301 -10 -10 -10h-76c-6.66699 -0 -10 3.33301 -10 10v296c0 2.66699 -1.33301 4 -4 4h-218c-2.66699 0 -4 -1.33301 -4 -4v-296c0 -6.66699 -3.33301 -10 -10 -10
h-76c-6.66699 -0 -10 3.33301 -10 10v494c0 2.66699 -1.33301 4 -4 4h-40c-6.66699 0 -10 3.33301 -10 10v47c0 6.66699 3.33301 10 10 10h40c2.66699 0 4 1.33301 4 4v111c0 6.66699 3.33301 10 10 10h76c6.66699 0 10 -3.33301 10 -10v-111c0 -2.66699 1.33301 -4 4 -4
h218c2.66699 0 4 1.33301 4 4v111c0 6.66699 3.33301 10 10 10h76c6.66699 0 10 -3.33301 10 -10v-111c0 -2.66699 1.33301 -4 4 -4h40c6.66699 0 10 -3.33301 10 -10zM394 397v107c0 2.66699 -1.33301 4 -4 4h-218c-2.66699 0 -4 -1.33301 -4 -4v-107
c0 -2.66699 1.33301 -4 4 -4h218c2.66699 0 4 1.33301 4 4z" />
    <glyph glyph-name="hbar" unicode="&#x127;" 
d="M389.5 471c27 -30 40.5 -71.333 40.5 -124v-337c0 -6.66699 -3.33301 -10 -10 -10h-76c-6.66699 -0 -10 3.33301 -10 10v323c0 30.667 -7.83301 55 -23.5 73s-36.834 27 -63.501 27c-27.333 0 -49.166 -9.16699 -65.499 -27.5s-24.5 -42.833 -24.5 -73.5v-322
c0 -6.66699 -3.33301 -10 -10 -10h-76c-6.66699 -0 -10 3.33301 -10 10v539c0 2.66699 -1.33301 4 -4 4h-46c-6.66699 0 -10 3.33301 -10 10v41c0 6.66699 3.33301 10 10 10h46c2.66699 0 4 1.33301 4 4v72c0 6.66699 3.33301 10 10 10h76c6.66699 0 10 -3.33301 10 -10v-72
c0 -2.66699 1.33301 -4 4 -4h132c6.66699 0 10 -3.33301 10 -10v-41c0 -6.66699 -3.33301 -10 -10 -10h-132c-2.66699 0 -4 -1.33301 -4 -4v-81c0 -2 0.5 -3.16699 1.5 -3.5s2.16699 0.5 3.5 2.5c26 32.667 64 49 114 49c48.667 0 86.5 -15 113.5 -45z" />
    <glyph glyph-name="Itilde" unicode="&#x128;" horiz-adv-x="240" 
d="M72 10v680c0 6.66699 3.33301 10 10 10h76c6.66699 0 10 -3.33301 10 -10v-680c0 -6.66699 -3.33301 -10 -10 -10h-76c-6.66699 -0 -10 3.33301 -10 10zM150 795c-8.66699 3.33301 -18.3301 8.33301 -28.9971 15l-14.5 8.5
c-6.33301 3.66699 -11.833 6.33398 -16.5 8.00098s-9.66699 2.5 -15 2.5c-9.33301 0 -17.666 -1.83301 -24.999 -5.5s-14.333 -10.167 -21 -19.5c-4 -6 -8.66699 -7 -14 -3l-28 22c-4.66699 4 -5.66699 8.33301 -3 13c9.33301 19.333 21.333 33.833 36 43.5s31 14.5 49 14.5
c11.333 0 21.666 -2 30.999 -6s19.666 -9.66699 30.999 -17l14 -8.5c6 -3.66699 11.5 -6.5 16.5 -8.5s10.167 -3 15.5 -3c19.333 0 34.666 9 45.999 27c4 6 8.66699 7 14 3l27 -21c2.66699 -2.66699 4 -5.33398 4 -8.00098s-1 -5.66699 -3 -9
c-10 -18 -22.833 -31.333 -38.5 -40s-31.834 -13 -48.501 -13c-10 0 -19.333 1.66699 -28 5z" />
    <glyph glyph-name="itilde" unicode="&#x129;" horiz-adv-x="199" 
d="M51 10v489c0 6.66699 3.33301 10 10 10h76c6.66699 0 10 -3.33301 10 -10v-489c0 -6.66699 -3.33301 -10 -10 -10h-76c-6.66699 -0 -10 3.33301 -10 10zM129 604c-8.66699 3.33301 -18.3301 8.33301 -28.9971 15l-14.5 8.5
c-6.33301 3.66699 -11.833 6.33398 -16.5 8.00098s-9.66699 2.5 -15 2.5c-9.33301 0 -17.666 -1.83301 -24.999 -5.5s-14.333 -10.167 -21 -19.5c-4 -6 -8.66699 -7 -14 -3l-28 22c-4.66699 4 -5.66699 8.33301 -3 13c9.33301 19.333 21.333 33.833 36 43.5s31 14.5 49 14.5
c11.333 0 21.666 -2 30.999 -6s19.666 -9.66699 30.999 -17l14 -8.5c6 -3.66699 11.5 -6.5 16.5 -8.5s10.167 -3 15.5 -3c19.333 0 34.666 9 45.999 27c4 6 8.66699 7 14 3l27 -21c2.66699 -2.66699 4 -5.33398 4 -8.00098s-1 -5.66699 -3 -9
c-10 -18 -22.833 -31.333 -38.5 -40s-31.834 -13 -48.501 -13c-10 0 -19.333 1.66699 -28 5z" />
    <glyph glyph-name="Imacron" unicode="&#x12a;" horiz-adv-x="240" 
d="M72 10v680c0 6.66699 3.33301 10 10 10h76c6.66699 0 10 -3.33301 10 -10v-680c0 -6.66699 -3.33301 -10 -10 -10h-76c-6.66699 -0 -10 3.33301 -10 10zM-3 790v48c0 6.66699 3.33301 10 10 10h224c6.66699 0 10 -3.33301 10 -10v-48c0 -6.66699 -3.33301 -10 -10 -10
h-224c-6.66699 0 -10 3.33301 -10 10z" />
    <glyph glyph-name="imacron" unicode="&#x12b;" horiz-adv-x="199" 
d="M51 10v489c0 6.66699 3.33301 10 10 10h76c6.66699 0 10 -3.33301 10 -10v-489c0 -6.66699 -3.33301 -10 -10 -10h-76c-6.66699 -0 -10 3.33301 -10 10zM-23 599v48c0 6.66699 3.33301 10 10 10h224c6.66699 0 10 -3.33301 10 -10v-48c0 -6.66699 -3.33301 -10 -10 -10
h-224c-6.66699 0 -10 3.33301 -10 10z" />
    <glyph glyph-name="ibreve" unicode="&#x12d;" horiz-adv-x="199" 
d="M51 10v489c0 6.66699 3.33301 10 10 10h76c6.66699 0 10 -3.33301 10 -10v-489c0 -6.66699 -3.33301 -10 -10 -10h-76c-6.66699 -0 -10 3.33301 -10 10zM14.5 604c-23 19.333 -36.167 43.667 -39.5 73c0 6.66699 3.33301 10 10 10h37
c6.66699 0 10.334 -3.33301 11.001 -10c2.66699 -16 10 -29 22 -39s26.333 -15 43 -15c17.333 0 32.166 5 44.499 15s19.5 23 21.5 39c0.666992 6.66699 4.33398 10 11.001 10h36c6.66699 0 10 -3 10 -9c-2.66699 -30 -15.334 -54.667 -38.001 -74s-51 -29 -85 -29
c-32.667 0 -60.5 9.66699 -83.5 29z" />
    <glyph glyph-name="Iogonek" unicode="&#x12e;" horiz-adv-x="220" 
d="M62 10v680c0 6.66699 3.33301 10 10 10h76c6.66699 0 10 -3.33301 10 -10v-680c0 -6.66699 -3.33301 -10 -10 -10h-76c-6.66699 -0 -10 3.33301 -10 10zM171 -172c0 -4.66699 -2.66797 -8.00098 -8.00098 -10.001c-16 -4 -30.333 -6 -43 -6
c-20.667 0 -38.667 4.66699 -54 14s-25.666 25 -30.999 47c-2 8 -3 16 -3 24c0 36 17.333 68 52 96l2 2c0.666992 0.666992 1 1.33398 1 2.00098c2.66699 2 6.33398 3 11.001 3h41c5.33301 -0 8 -1.66699 8 -5c0 -2.66699 -1.33301 -5 -4 -7c-30 -28 -45 -54.333 -45 -79
c0 -4.66699 0.333008 -8 1 -10c4.66699 -20.667 17.667 -31 39 -31c4 0 9.33301 0.666992 16 2h2c5.33301 0 8.66602 -2.66699 9.99902 -8l5 -32v-2z" />
    <glyph glyph-name="iogonek" unicode="&#x12f;" horiz-adv-x="251" 
d="M85 10v489c0 6.66699 3.33301 10 10 10h76c6.66699 0 10 -3.33301 10 -10v-489c0 -6.66699 -3.33301 -10 -10 -10h-76c-6.66699 -0 -10 3.33301 -10 10zM88 607c-12 12 -18 27.333 -18 46s6 34 18 46s27.333 18 46 18s34 -6 46 -18s18 -27.333 18 -46s-6 -34 -18 -46
s-27.333 -18 -46 -18s-34 6 -46 18zM195 -172c0 -4.66699 -2.66797 -8.00098 -8.00098 -10.001c-16 -4 -30.333 -6 -43 -6c-20.667 0 -38.667 4.66699 -54 14s-25.666 25 -30.999 47c-2 8 -3 16 -3 24c0 36 17.333 68 52 96l2 2c0.666992 0.666992 1 1.33398 1 2.00098
c2.66699 2 6.33398 3 11.001 3h41c5.33301 -0 8 -1.66699 8 -5c0 -2.66699 -1.33301 -5 -4 -7c-30 -28 -45 -54.333 -45 -79c0 -4.66699 0.333008 -8 1 -10c4.66699 -20.667 17.667 -31 39 -31c4 0 9.33301 0.666992 16 2h2c5.33301 0 8.66602 -2.66699 9.99902 -8l5 -32v-2
z" />
    <glyph glyph-name="Idotaccent" unicode="&#x130;" horiz-adv-x="240" 
d="M72 10v680c0 6.66699 3.33301 10 10 10h76c6.66699 0 10 -3.33301 10 -10v-680c0 -6.66699 -3.33301 -10 -10 -10h-76c-6.66699 -0 -10 3.33301 -10 10zM74 798c-12 12 -18 27.333 -18 46s6 34 18 46s27.333 18 46 18s34 -6 46 -18s18 -27.333 18 -46s-6 -34 -18 -46
s-27.333 -18 -46 -18s-34 6 -46 18z" />
    <glyph glyph-name="dotlessi" unicode="&#x131;" horiz-adv-x="199" 
d="M51 10v489c0 6.66699 3.33301 10 10 10h76c6.66699 0 10 -3.33301 10 -10v-489c0 -6.66699 -3.33301 -10 -10 -10h-76c-6.66699 -0 -10 3.33301 -10 10z" />
    <glyph glyph-name="ij" unicode="&#x133;" horiz-adv-x="455" 
d="M71 607c-12 12 -18 27.333 -18 46c0 19.333 6 34.833 18 46.5s27.333 17.5 46 17.5s34 -6 46 -18s18 -27.333 18 -46s-6.16699 -34 -18.5 -46s-27.5 -18 -45.5 -18c-18.667 0 -34 6 -46 18zM68 10v489c0 6.66699 3.33301 10 10 10h76c6.66699 0 10 -3.33301 10 -10v-489
c0 -6.66699 -3.33301 -10 -10 -10h-76c-6.66699 -0 -10 3.33301 -10 10zM293 607c-12 12 -18 27.333 -18 46s6 34 18 46s27.333 18 46 18s34 -6 46 -18s18 -27.333 18 -46s-6 -34 -18 -46s-27.333 -18 -46 -18s-34 6 -46 18zM187 -197v63c0 6.66699 4.33301 10 13 10
c32 0 55.167 8 69.5 24s21.5 39.667 21.5 71v528c0 6.66699 3.33301 10 10 10h76c6.66699 0 10 -3.33301 10 -10v-527c0 -42 -5.5 -75.833 -16.5 -101.5s-30.167 -45 -57.5 -58s-66 -19.5 -116 -19.5c-6.66699 0 -10 3.33301 -10 10z" />
    <glyph glyph-name="Jcircumflex" unicode="&#x134;" horiz-adv-x="507" 
d="M78.5 46c-37.667 36 -56.5 83.334 -56.5 142.001v75c0 6.66699 3.33301 10 10 10h76c6.66699 0 10 -3.33301 10 -10v-76c0 -33.333 10.167 -60.333 30.5 -81s46.833 -31 79.5 -31c33.333 0 60.166 10.333 80.499 31s30.5 47.667 30.5 81v503c0 6.66699 3.33301 10 10 10
h76c6.66699 0 10 -3.33301 10 -10v-502c0 -38.667 -8.66699 -72.834 -26 -102.501s-41.666 -52.667 -72.999 -69s-67.333 -24.5 -108 -24.5c-62 0 -111.833 18 -149.5 54zM256 770.501c-1.33301 2.33301 -1 5.16699 1 8.5l73 107c2.66699 4 6.66699 6 12 6h85
c5.33301 0 9.33301 -2 12 -6l75 -107c1.33301 -1.33301 2 -3 2 -5c0 -4.66699 -3 -7 -9 -7h-60c-4.66699 0 -8.66699 2.33301 -12 7l-46 72c-0.666992 1.33301 -1.66699 2 -3 2s-2.33301 -0.666992 -3 -2l-47 -72c-3.33301 -4.66699 -7.33301 -7 -12 -7h-60
c-4 0 -6.66699 1.16699 -8 3.5z" />
    <glyph glyph-name="jcircumflex" unicode="&#x135;" horiz-adv-x="226" 
d="M-41 -197v63c0 6.66699 4.33301 10 13 10c32 0 55.167 8 69.5 24s21.5 39.667 21.5 71v528c0 6.66699 3.33301 10 10 10h76c6.66699 0 10 -3.33301 10 -10v-527c0 -42 -5.5 -75.833 -16.5 -101.5s-30.167 -45 -57.5 -58s-66 -19.5 -116 -19.5
c-6.66699 0 -10 3.33301 -10 10zM-19 578.5c-1.33301 2.33301 -1 5.16699 1 8.5l73 107c2.66699 4 6.66699 6 12 6h85c5.33301 0 9.33301 -2 12 -6l75 -107c1.33301 -1.33301 2 -3 2 -5c0 -4.66699 -3 -7 -9 -7h-60c-4.66699 0 -8.66699 2.33301 -12 7l-46 72
c-0.666992 1.33301 -1.66699 2 -3 2s-2.33301 -0.666992 -3 -2l-47 -72c-3.33301 -4.66699 -7.33301 -7 -12 -7h-60c-4 0 -6.66699 1.16699 -8 3.5z" />
    </font>
</defs>
</svg>
